<svg height="512pt" viewBox="0 0 512 512.00022" width="512pt" xmlns="http://www.w3.org/2000/svg"><path d="m512 256c0 141.386719-114.613281 256-256 256-58.699219 0-112.777344-19.765625-155.960938-52.992188-2.117187-1.628906-3.722656-3.820312-4.757812-6.285156-16.226562-38.730468-41.703125-72.625-73.667969-98.921875-2.3125-1.902343-4.046875-4.40625-5.109375-7.207031-10.65625-28.15625-16.49999975-58.675781-16.503906-90.5625-.015625-142.175781 114.617188-256.460938 256.792969-256.03125 141.019531.429688 255.207031 114.878906 255.207031 256zm0 0" fill="#c43286"/><path d="m448.914062 221.246094c-.039062 2.214844-.09375 4.300781-.164062 5.582031-5.617188 103.210937-91.074219 185.171875-195.675781 185.171875-108.511719 0-195.839844-87.226562-195.96875-195.753906-.132813-108.363282 87.65625-196.246094 195.96875-196.246094 51.171875 0 97.746093 19.632812 132.648437 51.757812l6.558594-6.558593c2.335938-2.335938 6.335938-.992188 6.789062 2.277343l4.257813 30.714844c.363281 2.625-1.882813 4.875-4.511719 4.511719l-30.707031-4.257813c-3.273437-.453124-4.617187-4.453124-2.277344-6.789062l7.050781-7.058594c-31.582031-28.824218-73.582031-46.421875-119.703124-46.449218-99.761719-.058594-179.519532 81.019531-177.90625 180.785156 1.566406 96.871094 80.570312 174.917968 177.800781 174.917968 94.804687 0 172.28125-74.199218 177.542969-167.699218.066406-1.195313.117187-3.15625.15625-5.25.089843-4.941406 4.128906-8.902344 9.070312-8.902344 5.078125 0 9.164062 4.167969 9.070312 9.246094zm-34.929687-91.8125c4.832031 0 8.746094-3.917969 8.746094-8.75 0-4.828125-3.914063-8.746094-8.746094-8.746094-4.828125 0-8.746094 3.917969-8.746094 8.746094 0 4.832031 3.917969 8.75 8.746094 8.75zm6.023437 16.5625c-.308593 4.820312 3.34375 8.980468 8.164063 9.292968 4.820313.308594 8.980469-3.347656 9.292969-8.167968.308594-4.820313-3.34375-8.980469-8.164063-9.289063-4.820312-.3125-8.980469 3.34375-9.292969 8.164063zm7.746094 23.191406c-.308594 4.824219 3.34375 8.984375 8.164063 9.292969 4.820312.3125 8.980469-3.34375 9.292969-8.164063.308593-4.820312-3.34375-8.980468-8.164063-9.292968-4.820313-.308594-8.980469 3.347656-9.292969 8.164062zm13.996094 17.058594c-4.820312-.3125-8.980469 3.34375-9.289062 8.167968-.3125 4.816407 3.34375 8.980469 8.164062 9.289063 4.820312.3125 8.980469-3.34375 9.289062-8.164063.3125-4.820312-3.34375-8.980468-8.164062-9.292968zm0 0" fill="#ec74b6"/><path d="m352.898438 323.460938c-26.316407 23.390624-40.945313 57.234374-40.945313 92.449218v2.394532h-111.984375v-2.828126c0-35.511718-15.503906-69.015624-41.847656-92.824218-29.699219-26.84375-48.3125-65.722656-48.136719-108.953125.324219-80.5 65.488281-145.394531 145.980469-145.394531 80.621094 0 145.976562 65.367187 145.976562 146 0 43.421874-18.957031 82.414062-49.042968 109.15625zm0 0" fill="#fded32"/><path d="m311.953125 415.910156v2.394532h-73.988281v-2.828126c0-35.511718-15.503906-69.015624-41.851563-92.824218-29.695312-26.84375-48.308593-65.722656-48.132812-108.953125.296875-74.054688 55.46875-134.898438 126.964843-144.164063 71.652344 9.304688 126.996094 70.570313 126.996094 144.769532 0 43.421874-18.957031 82.414062-49.042968 109.15625-26.316407 23.390624-40.945313 57.234374-40.945313 92.449218zm0 0" fill="#fdf385"/><path d="m330.949219 408.304688c0 8.957031-5.882813 16.535156-13.996094 19.082031v.917969c0 27.613281-22.382813 50-49.992187 50h-21.996094c-27.613282 0-49.996094-22.386719-49.996094-50v-.917969c-8.109375-2.546875-13.996094-10.125-13.996094-19.082031 0-11.046876 8.953125-20 19.996094-20h109.984375c11.046875 0 19.996094 8.957031 19.996094 20zm0 0" fill="#88b9d3"/><path d="m330.949219 408.304688c0 8.957031-5.882813 16.535156-13.996094 19.082031v.917969c0 24.011718-16.925781 44.0625-39.492187 48.886718-15.039063-3.214844-27.570313-13.191406-34.261719-26.59375-1.671875-3.347656.703125-7.292968 4.449219-7.292968h44.808593c4.21875 0 7.625-3.484376 7.496094-7.730469-.125-4.105469-3.703125-7.269531-7.8125-7.269531h-62.175781c-11.042969 0-19.996094-8.953126-19.996094-20 0-11.046876 8.953125-20 19.996094-20h80.988281c11.046875 0 19.996094 8.957031 19.996094 20zm0 0" fill="#b3d1e1"/><path d="m327.367188 213.246094c.007812-4.304688-.375-8.542969-1.117188-12.683594l4.363281-2.402344c5.042969-2.777344 7.316407-8.8125 5.355469-14.226562-2.003906-5.53125-7.800781-8.710938-13.539062-7.429688l-4.617188 1.03125c-2.125-3.679687-4.566406-7.164062-7.304688-10.410156l2.589844-4.285156c2.976563-4.925782 1.925782-11.289063-2.476562-14.996094-4.5-3.785156-11.113282-3.640625-15.441406.335938l-3.464844 3.1875c-3.640625-2.105469-7.5-3.902344-11.546875-5.355469l.101562-4.996094c.113281-5.757813-3.976562-10.742187-9.640625-11.75-5.792968-1.03125-11.445312 2.402344-13.207031 8.011719l-1.410156 4.5c-4.300781-.007813-8.542969.375-12.679688 1.121094l-2.40625-4.367188c-2.777343-5.042969-8.808593-7.3125-14.222656-5.355469-5.527344 2.003907-8.710937 7.804688-7.429687 13.542969l1.03125 4.617188c-3.675782 2.121093-7.160157 4.566406-10.40625 7.304687l-4.285157-2.589844c-4.925781-2.980469-11.285156-1.925781-14.992187 2.476563-3.785156 4.5-3.644532 11.113281.335937 15.441406l3.1875 3.46875c-2.105469 3.640625-3.902343 7.496094-5.355469 11.546875l-4.996093-.101563c-5.753907-.113281-10.738281 3.976563-11.746094 9.644532-1.03125 5.789062 2.398437 11.445312 8.011719 13.207031l4.496094 1.410156c-.007813 4.300781.375 8.542969 1.121093 12.683594l-4.367187 2.402344c-5.042969 2.777343-7.3125 8.8125-5.351563 14.226562 2 5.527344 7.800781 8.710938 13.539063 7.429688l4.613281-1.03125c2.125 3.679687 4.570313 7.164062 7.308594 10.410156l-2.589844 4.28125c-2.980469 4.929687-1.929687 11.289063 2.476563 14.996094 4.496093 3.789062 11.109374 3.644531 15.4375-.335938l3.46875-3.183593c3.636718 2.105468 7.496093 3.902343 11.546874 5.355468l-.101562 4.996094c-.117188 5.753906 3.972656 10.738281 9.640625 11.75 5.789063 1.027344 11.441406-2.402344 13.203125-8.015625l1.410156-4.5c4.304688.007813 8.542969-.375 12.679688-1.117187l2.40625 4.367187c2.777344 5.042969 8.8125 7.3125 14.222656 5.351563 5.53125-2 8.710938-7.800782 7.429688-13.539063l-1.03125-4.617187c3.679687-2.125 7.164062-4.566407 10.410156-7.304688l4.28125 2.585938c4.925781 2.980468 11.285156 1.929687 14.992187-2.476563 3.789063-4.5 3.644531-11.109375-.335937-15.441406l-3.183594-3.464844c2.105469-3.640625 3.898438-7.5 5.355469-11.550781l4.992187.101562c5.757813.117188 10.738282-3.972656 11.75-9.644531 1.027344-5.789063-2.402344-11.441406-8.011718-13.203125zm-45.046876 4.640625c-2.589843 14.558593-16.488281 24.261719-31.046874 21.671875-14.558594-2.589844-24.257813-16.496094-21.667969-31.054688 2.589843-14.558594 16.492187-24.261718 31.046875-21.671875 14.558594 2.589844 24.261718 16.496094 21.667968 31.054688zm0 0" fill="#fd7d43"/><path d="m264.691406 164.136719c-27.089844-4.820313-52.960937 13.234375-57.78125 40.328125-4.820312 27.09375 13.234375 52.96875 40.324219 57.789062 27.089844 4.820313 52.960937-13.234375 57.78125-40.328125s-13.234375-52.96875-40.324219-57.789062zm24.882813 55.039062c-3.300781 18.570313-21.027344 30.941407-39.59375 27.636719-18.5625-3.304688-30.933594-21.03125-27.632813-39.597656 3.304688-18.570313 21.03125-30.941406 39.59375-27.636719 18.566406 3.304687 30.9375 21.03125 27.632813 39.597656zm0 0" fill="#fc5426"/><path d="m263.851562 262.394531c-5.367187.863281-10.964843.867188-16.617187-.140625-27.089844-4.820312-45.144531-30.695312-40.324219-57.789062 4.765625-26.78125 30.097656-44.71875 56.84375-40.46875-20.347656 3.261718-37.347656 19.03125-41.160156 40.46875-.46875 2.628906-.714844 5.246094-.761719 7.832031-.019531.640625-.019531 1.28125 0 1.917969.449219 23.296875 17.273438 43.800781 41.085938 48.039062.3125.054688.625.09375.933593.140625zm0 0" fill="#ee4424"/><path d="m351.914062 377.925781c-5.621093 1.722657-9.085937 7.359375-8.089843 13.15625.972656 5.671875 5.929687 9.792969 11.6875 9.714844l4.996093-.074219c1.425782 4.058594 3.199219 7.929688 5.28125 11.582032l-3.207031 3.445312c-4.003906 4.308594-4.1875 10.917969-.429687 15.441406 3.679687 4.429688 10.035156 5.515625 14.980468 2.570313l4.296876-2.566407c3.230468 2.761719 6.699218 5.226563 10.363281 7.371094l-1.058594 4.609375c-1.316406 5.734375 1.828125 11.550781 7.347656 13.585938 5.398438 1.996093 11.445313-.238281 14.253907-5.265625l2.429687-4.351563c4.132813.769531 8.371094 1.175781 12.675781 1.195313l1.382813 4.507812c1.726562 5.625 7.359375 9.089844 13.15625 8.09375 5.671875-.972656 9.792969-5.933594 9.710937-11.6875l-.070312-4.996094c4.058594-1.429687 7.925781-3.203124 11.578125-5.285156l3.449219 3.207032c4.304687 4.003906 10.914062 4.191406 15.4375.429687 4.425781-3.679687 5.515624-10.035156 2.566406-14.980469l-2.5625-4.296875c2.757812-3.230469 5.222656-6.703125 7.367187-10.367187l4.609375 1.058594c5.730469 1.316406 11.546875-1.828126 13.585938-7.347657 1.992187-5.398437-.242188-11.449219-5.265625-14.257812l-4.355469-2.429688c.769531-4.136719 1.179688-8.375 1.199219-12.675781l4.507812-1.382812c5.621094-1.726563 9.085938-7.359376 8.089844-13.15625-.972656-5.675782-5.929687-9.796876-11.6875-9.714844l-4.996094.070312c-1.425781-4.058594-3.199219-7.929687-5.28125-11.578125l3.207031-3.449219c4.003907-4.304687 4.1875-10.917968.429688-15.441406-3.679688-4.425781-10.035156-5.515625-14.980469-2.566406l-4.296875 2.5625c-3.230468-2.757812-6.699218-5.222656-10.363281-7.367188l1.058594-4.613281c1.316406-5.730469-1.828125-11.550781-7.347657-13.585937-5.398437-1.992188-11.445312.242187-14.253906 5.265625l-2.433594 4.355469c-4.132812-.769532-8.371093-1.179688-12.671874-1.199219l-1.382813-4.507813c-1.726563-5.621094-7.359375-9.085937-13.15625-8.09375-5.671875.976563-9.792969 5.933594-9.710937 11.691406l.070312 4.996094c-4.058594 1.429688-7.929688 3.203125-11.582031 5.285156l-3.445313-3.207031c-4.304687-4.007812-10.914062-4.191406-15.4375-.429687-4.425781 3.679687-5.515625 10.035156-2.566406 14.980468l2.5625 4.296876c-2.757812 3.230468-5.222656 6.699218-7.367188 10.367187l-4.609374-1.058594c-5.734376-1.316406-11.550782 1.828125-13.585938 7.347657-1.992188 5.398437.242188 11.449218 5.265625 14.257812l4.351563 2.429688c-.769532 4.136718-1.175782 8.371093-1.195313 12.675781zm71.382813-27.390625c14.574219-2.5 28.414063 7.285156 30.917969 21.859375 2.5 14.578125-7.285156 28.421875-21.859375 30.921875-14.574219 2.503906-28.414063-7.285156-30.917969-21.859375-2.5-14.574219 7.285156-28.417969 21.859375-30.921875zm0 0" fill="#0ed1b2"/><path d="m378.722656 385.355469c4.65625 27.125 30.414063 45.335937 57.53125 40.683593 27.121094-4.65625 45.332032-30.417968 40.675782-57.542968-4.652344-27.121094-30.410157-45.335938-57.53125-40.683594-27.121094 4.65625-45.332032 30.417969-40.675782 57.542969zm43.328125-42.082031c18.585938-3.191407 36.234375 9.289062 39.425781 27.875 3.191407 18.585937-9.289062 36.242187-27.875 39.429687-18.582031 3.191406-36.234374-9.289063-39.421874-27.875-3.191407-18.585937 9.289062-36.242187 27.871093-39.429687zm0 0" fill="#0ab59e"/><path d="m435.636719 426.128906c-26.894531 4.273438-52.292969-13.855468-56.914063-40.773437-4.65625-27.125 13.554688-52.886719 40.675782-57.542969 5.546874-.953125 11.035156-.929688 16.300781-.089844-.207031.035156-.410157.054688-.617188.089844-23.875 4.101562-40.835937 24.558594-41.378906 47.902344-.023437.625-.027344 1.253906-.015625 1.882812.039062 2.5625.273438 5.152344.71875 7.757813 3.703125 21.574219 20.761719 37.496093 41.230469 40.773437zm0 0" fill="#01988c"/><path d="m101.449219 460.09375c.199219-.035156.402343-.066406.601562-.113281 5.609375-1.300781 9.433594-6.488281 9.019531-12.230469l-.359374-4.984375c3.96875-1.660156 7.730468-3.65625 11.253906-5.945313l3.625 3c4.53125 3.75 11.140625 3.554688 15.4375-.460937 4.207031-3.933594 4.925781-10.339844 1.695312-15.105469l-2.804687-4.144531c2.5625-3.382813 4.824219-6.988281 6.753906-10.773437l4.664063.792968c5.796874.980469 11.421874-2.496094 13.136718-8.121094 1.675782-5.507812-.902344-11.417968-6.082031-13.929687l-4.484375-2.175781c.527344-4.171875.691406-8.425782.460938-12.722656l4.417968-1.644532c5.511719-2.046875 8.648438-7.871094 7.316406-13.601562-1.296874-5.609375-6.488281-9.4375-12.230468-9.023438l-4.980469.359375c-1.664063-3.96875-3.65625-7.726562-5.945313-11.253906l3-3.625c3.75-4.53125 3.550782-11.144531-.464843-15.441406-3.929688-4.207031-10.335938-4.925781-15.101563-1.695313l-4.140625 2.808594c-3.382812-2.566406-6.988281-4.828125-10.773437-6.757812l.789062-4.664063c.984375-5.800781-2.492187-11.425781-8.117187-13.140625-5.507813-1.675781-11.417969.902344-13.929688 6.085938l-2.175781 4.484374c-4.167969-.53125-8.421875-.691406-12.71875-.460937l-1.640625-4.421875c-2.050781-5.511719-7.875-8.644531-13.601563-7.316406-5.609374 1.300781-9.433593 6.488281-9.019531 12.230468l.359375 4.984376c-3.96875 1.664062-7.730468 3.65625-11.253906 5.945312l-3.628906-3c-4.527344-3.75-11.136719-3.554688-15.433594.464844-4.207031 3.929687-4.925781 10.335937-1.699219 15.101562l2.808594 4.144532c-2.566406 3.382812-4.828125 6.988281-6.757813 10.773437l-3.980468-.675781c17.015625 46.578125 47.175781 86.820312 85.984375 116.253906zm-44.46875-77.117188c-3.339844-14.40625 5.628906-28.792968 20.03125-32.132812 14.40625-3.34375 28.789062 5.628906 32.128906 20.035156 3.34375 14.40625-5.625 28.792969-20.03125 32.132813-14.402344 3.339843-28.789063-5.628907-32.128906-20.035157zm0 0" fill="#a1e52e"/><path d="m60.609375 421.394531c10.910156 5.515625 23.855469 7.058594 36.507813 3.335938 26.398437-7.761719 41.503906-35.457031 33.742187-61.859375s-35.453125-41.515625-61.851563-33.75c-23.699218 6.96875-38.289062 30.003906-35.410156 53.746094 7.824219 13.6875 16.882813 26.574218 27.011719 38.527343zm-10.300781-34.835937c-5.320313-18.09375 5.035156-37.070313 23.121094-42.390625 18.089843-5.320313 37.066406 5.035156 42.386718 23.125 5.320313 18.09375-5.035156 37.070312-23.125 42.394531-18.089844 5.316406-37.0625-5.035156-42.382812-23.128906zm0 0" fill="#7ecd00"/><path d="m48.945312 375.714844c-.023437.625-.027343 1.253906-.011718 1.882812.035156 2.5625.269531 5.152344.714844 7.757813 3.703124 21.574219 20.757812 37.496093 41.230468 40.773437-10.742187 1.707032-21.238281-.167968-30.277344-4.742187-10.121093-11.949219-19.175781-24.832031-27-38.511719-3.167968-26.195312 14.75-50.546875 41.039063-55.058594 5.546875-.953125 11.039063-.933594 16.304687-.089844-.207031.03125-.414062.054688-.621093.089844-23.875 4.097656-40.835938 24.554688-41.378907 47.898438zm0 0" fill="#6bae01"/></svg>