<?xml version="1.0" encoding="iso-8859-1"?>
<!-- Generator: Adobe Illustrator 19.0.0, SVG Export Plug-In . SVG Version: 6.00 Build 0)  -->
<svg version="1.1" id="Capa_1" xmlns="http://www.w3.org/2000/svg" xmlns:xlink="http://www.w3.org/1999/xlink" x="0px" y="0px"
	 viewBox="0 0 512 512" style="enable-background:new 0 0 512 512;" xml:space="preserve">
<circle style="fill:#BBEF89;" cx="256" cy="256" r="256"/>
<path style="fill:#B2D9ED;" d="M179.542,463.15c-0.802,7.005-4.424,14.311-9.932,18.272l-7.653,5.504c44.436,0,102.45,0,146.72,0
	l-7.653-5.504c-5.509-3.962-9.131-11.267-9.933-18.273l-4.288-38.459H183.83L179.542,463.15z"/>
<path style="fill:#92D1EA;" d="M231.057,424.69H183.83l-4.288,38.46c-0.802,7.006-4.424,14.311-9.932,18.272l-7.653,5.503
	c17.02,0,36.033,0,55.501,0l4.758-5.503C230.605,471.718,228.218,452.34,231.057,424.69z"/>
<path style="fill:#DAECF7;" d="M445.203,83.67H66.692C25.262,129.155,0,189.627,0,256c0,65.302,24.464,124.881,64.71,170.106
	h380.493c14.816,0,26.939-12.123,26.939-26.939V110.608C472.142,95.792,460.019,83.67,445.203,83.67z"/>
<path style="fill:#B2D9ED;" d="M93.959,399.168v-288.56c0-14.816,12.123-26.939,26.939-26.939H66.692
	C25.262,129.155,0,189.627,0,256c0,65.302,24.464,124.881,64.71,170.106h56.188C106.082,426.106,93.959,413.984,93.959,399.168z"/>
<path style="fill:#DAECF7;" d="M323.457,484.811c-50.128,0-125.879,0-176.281,0c-1.576,0-3.085,0.286-4.496,0.785
	C176.842,502.49,215.308,512,256,512c24.393,0,47.878,0,67.457,0c7.477,0,13.595-6.118,13.595-13.594l0,0
	C337.052,490.928,330.934,484.811,323.457,484.811z"/>
<path style="fill:#B2D9ED;" d="M225.085,484.811c-27.995,0-55.466,0-77.91,0c-1.576,0-3.085,0.286-4.496,0.785
	c22.893,11.321,47.725,19.306,73.858,23.355C206.616,500.885,212.298,484.811,225.085,484.811z"/>
<path style="fill:#5F6AB9;" d="M445.203,83.67L445.203,83.67H66.692C25.262,129.155,0,189.627,0,256
	c0,41.638,9.949,80.95,27.587,115.701c99.797,0,420.66,0,444.554,0V110.608C472.142,95.85,460.082,83.67,445.203,83.67z"/>
<path style="fill:#524FA1;" d="M93.959,83.67H66.692C25.262,129.155,0,189.627,0,256c0,41.638,9.949,80.95,27.587,115.701
	c16.726,0,39.667,0,66.372,0V83.67z"/>
<path style="fill:#14C0EB;" d="M444.911,339.914V115.306c0-2.539-2.058-4.597-4.597-4.597H45.217
	c-7.298,10.568-13.828,21.706-19.496,33.344v195.861c0,2.539,2.059,4.597,4.597,4.597c17.127,0,385.743,0,409.995,0
	C442.853,344.512,444.911,342.453,444.911,339.914z"/>
<path style="fill:#92D1EA;" d="M235.32,405.77c-0.467,0-0.944-0.047-1.401-0.143c-0.457-0.095-0.905-0.228-1.334-0.41
	c-0.429-0.171-0.848-0.4-1.239-0.658c-0.391-0.257-0.753-0.552-1.087-0.886c-0.324-0.333-0.629-0.695-0.887-1.086
	s-0.477-0.8-0.658-1.23c-0.181-0.438-0.315-0.886-0.41-1.344c-0.086-0.458-0.133-0.924-0.133-1.391s0.047-0.944,0.133-1.401
	c0.095-0.458,0.229-0.906,0.41-1.335s0.4-0.848,0.658-1.239c0.257-0.391,0.563-0.753,0.887-1.086
	c0.334-0.325,0.696-0.629,1.087-0.887c0.39-0.257,0.81-0.477,1.239-0.657c0.429-0.181,0.877-0.315,1.334-0.41
	c0.925-0.181,1.878-0.181,2.793,0c0.457,0.096,0.905,0.229,1.344,0.41c0.429,0.181,0.839,0.4,1.229,0.657
	c0.391,0.258,0.763,0.562,1.087,0.887c0.334,0.333,0.629,0.695,0.887,1.086c0.257,0.391,0.477,0.81,0.658,1.239
	s0.315,0.877,0.41,1.335c0.095,0.457,0.143,0.934,0.143,1.401s-0.048,0.934-0.143,1.391c-0.095,0.458-0.229,0.906-0.41,1.344
	c-0.181,0.429-0.4,0.839-0.658,1.23c-0.257,0.391-0.553,0.753-0.887,1.086c-0.324,0.334-0.696,0.629-1.087,0.886
	c-0.39,0.258-0.8,0.487-1.229,0.658c-0.439,0.181-0.887,0.315-1.344,0.41C236.254,405.723,235.787,405.77,235.32,405.77z"/>
<path style="fill:#DAECF7;" d="M64.451,86.186v258.326h341.738V71.572H78.471C73.607,76.256,68.933,81.133,64.451,86.186z"/>
<path style="fill:#B2D9ED;" d="M93.959,71.572H78.471c-4.864,4.683-9.538,9.561-14.021,14.613v258.326h29.509V71.572z"/>
<g>
	<path style="fill:#FFFFFF;" d="M316.481,131.948h-85.772c-3.948,0-7.148-3.2-7.148-7.148c0-3.948,3.2-7.148,7.148-7.148h85.772
		c3.948,0,7.148,3.2,7.148,7.148S320.428,131.948,316.481,131.948z"/>
	<path style="fill:#FFFFFF;" d="M367.487,161.536H230.709c-3.948,0-7.148-3.2-7.148-7.148s3.2-7.148,7.148-7.148h136.778
		c3.948,0,7.148,3.2,7.148,7.148S371.435,161.536,367.487,161.536z"/>
	<path style="fill:#FFFFFF;" d="M367.487,191.124H230.709c-3.948,0-7.148-3.2-7.148-7.148s3.2-7.148,7.148-7.148h136.778
		c3.948,0,7.148,3.2,7.148,7.148S371.435,191.124,367.487,191.124z"/>
	<path style="fill:#FFFFFF;" d="M367.487,220.713H230.709c-3.948,0-7.148-3.2-7.148-7.148s3.2-7.148,7.148-7.148h136.778
		c3.948,0,7.148,3.2,7.148,7.148S371.435,220.713,367.487,220.713z"/>
	<path style="fill:#FFFFFF;" d="M367.487,250.302h-266.38c-3.948,0-7.148-3.2-7.148-7.148s3.2-7.148,7.148-7.148h266.38
		c3.948,0,7.148,3.2,7.148,7.148S371.435,250.302,367.487,250.302z"/>
	<path style="fill:#FFFFFF;" d="M367.487,279.89h-266.38c-3.948,0-7.148-3.2-7.148-7.148s3.2-7.148,7.148-7.148h266.38
		c3.948,0,7.148,3.2,7.148,7.148S371.435,279.89,367.487,279.89z"/>
	<path style="fill:#FFFFFF;" d="M367.487,309.478h-266.38c-3.948,0-7.148-3.2-7.148-7.148s3.2-7.148,7.148-7.148h266.38
		c3.948,0,7.148,3.2,7.148,7.148S371.435,309.478,367.487,309.478z"/>
</g>
<path style="fill:#656582;" d="M397.694,23.362h-248.65c-27.47,12.65-52.318,30.015-73.501,51.069h330.646V31.857
	C406.189,27.166,402.386,23.362,397.694,23.362z"/>
<path style="fill:#585877;" d="M93.959,74.432V57.833c-6.401,5.24-12.554,10.772-18.416,16.599H93.959z"/>
<path style="fill:#FDCF49;" d="M119.815,56.043c-4.523,0-7.916-4.177-7.005-8.54c0.725-3.879,4.618-6.396,8.406-5.614
	c3.597,0.769,5.747,3.817,5.747,7.006C126.963,52.828,123.771,56.043,119.815,56.043z"/>
<path style="fill:#BBEF89;" d="M143.26,56.043c-3.83,0-7.148-3.081-7.148-7.148c0-4.636,4.305-7.882,8.549-7.006
	c3.444,0.722,5.747,3.649,5.747,7.006C150.409,52.848,147.196,56.043,143.26,56.043z"/>
<path style="fill:#585877;" d="M367.491,56.045H174.948c-3.948,0-7.148-3.2-7.148-7.148s3.2-7.148,7.148-7.148h192.543
	c3.948,0,7.148,3.2,7.148,7.148S371.439,56.045,367.491,56.045z"/>
<path style="fill:#FB6467;" d="M137.905,162.907l-22.901,39.665c3.481,2.135,7.576,3.368,11.959,3.368
	C150.562,205.94,158.739,174.257,137.905,162.907z"/>
<path style="fill:#EF525A;" d="M125.407,184.553l-10.403,18.019c10.088,6.188,22.917,4.419,31.164-7.061
	C137.49,195.956,129.674,191.543,125.407,184.553z"/>
<path style="fill:#FDE57F;" d="M107.126,171.582c-6.325,10.956-2.572,24.965,8.384,31.29l22.906-39.674
	C127.46,156.872,113.451,160.626,107.126,171.582z"/>
<path style="fill:#FDCF49;" d="M125.765,185.11c-2.336-3.59-3.698-7.871-3.698-12.473s1.362-8.883,3.698-12.473
	c-22.983,1.228-29.714,31.451-10.254,42.706L125.765,185.11z"/>
<path style="fill:#FB6467;" d="M183.72,162.907l-22.901,39.665c15.112,9.27,34.865-1.558,34.865-19.537
	C195.684,174.347,190.847,166.79,183.72,162.907z"/>
<path style="fill:#EF525A;" d="M190.788,195.543c-8.285,0-15.543-4.4-19.565-10.99l-10.403,18.019
	c10.42,6.391,24.311,3.467,31.164-7.06l0,0C191.588,195.532,191.189,195.542,190.788,195.543z"/>
<path style="fill:#FDE57F;" d="M152.941,171.582c-6.325,10.956-2.572,24.965,8.384,31.29l22.906-39.674
	C173.275,156.872,159.267,160.626,152.941,171.582z"/>
<path style="fill:#FDCF49;" d="M171.58,185.11c-2.336-3.59-3.698-7.871-3.698-12.473s1.362-8.883,3.698-12.473
	c-22.484,1.201-29.978,31.298-10.254,42.706L171.58,185.11z"/>
<path style="fill:#FB6467;" d="M138.925,123.658l22.901,39.665c-3.481,2.135-7.576,3.368-11.959,3.368
	C126.268,166.692,118.09,135.008,138.925,123.658z"/>
<path style="fill:#EF525A;" d="M161.822,163.317l-6.066-10.506c-2.881-1.805-5.335-4.228-7.168-7.09
	c-2.146-3.351-3.437-7.295-3.584-11.533l-6.075-10.522c-15.33,8.398-16.158,30.332-1.013,39.652l-0.004,0.007
	c0.06,0.037,0.407,0.239,0.507,0.297l0.004-0.007C145.816,167.866,154.747,167.666,161.822,163.317z"/>
<path style="fill:#FDE57F;" d="M169.704,132.333c6.325,10.956,2.572,24.965-8.384,31.29l-22.906-39.674
	C149.369,117.624,163.378,121.377,169.704,132.333z"/>
<g>
	<path style="fill:#FDCF49;" d="M154.649,152.07l6.667,11.548c3.219-1.867,5.831-4.392,7.757-7.355
		C163.9,156.528,158.864,155.065,154.649,152.07z"/>
	<path style="fill:#FDCF49;" d="M138.416,123.953l6.667,11.547c-0.064-0.696-0.108-1.398-0.108-2.112
		c0-4.602,1.362-8.884,3.698-12.473C145.036,121.112,141.593,122.127,138.416,123.953z"/>
</g>
<g>
</g>
<g>
</g>
<g>
</g>
<g>
</g>
<g>
</g>
<g>
</g>
<g>
</g>
<g>
</g>
<g>
</g>
<g>
</g>
<g>
</g>
<g>
</g>
<g>
</g>
<g>
</g>
<g>
</g>
</svg>
