<svg height="512pt" viewBox="-6 0 512 512.00013" width="512pt" xmlns="http://www.w3.org/2000/svg"><path d="m500.757812 250.378906c0 138.28125-112.097656 250.378906-250.378906 250.378906s-250.378906-112.097656-250.378906-250.378906c0-95.902344 53.929688-179.199218 133.105469-221.253906 34.988281 18.585938 74.894531 29.125 117.273437 29.125s82.285156-10.539062 117.273438-29.125c79.175781 42.054688 133.105468 125.351562 133.105468 221.253906zm0 0" fill="#fc5426"/><path d="m373.730469 32.441406v468.355469c0 8.492187-9.089844 13.886719-16.546875 9.820313l-85.09375-46.414063c-13.355469-7.285156-29.5-7.285156-42.859375 0l-85.09375 46.414063c-7.457031 4.066406-16.546875-1.328126-16.546875-9.820313l-.5625-468.355469c36.414062-20.652344 78.5-32.441406 123.351562-32.441406 44.851563 0 86.941406 11.789062 123.351563 32.441406zm0 0" fill="#fdc273"/><path d="m174.59375 494.007812-30.457031 16.609376c-7.457031 4.066406-16.546875-1.328126-16.546875-9.820313l-.5625-468.355469c14.796875-8.390625 30.527344-15.320312 47.003906-20.585937zm0 0" fill="#fdb44c"/><path d="m343.070312 249.355469c0 53.621093-43.464843 97.085937-97.085937 97.085937-53.617187 0-97.085937-43.464844-97.085937-97.085937 0-53.617188 43.46875-97.085938 97.085937-97.085938 53.621094 0 97.085937 43.46875 97.085937 97.085938zm0 0" fill="#fd8f01"/><path d="m223.878906 251.0625s-7.53125-74.203125-7.53125-76.308594c0-18.058594 14.644532-32.703125 32.703125-32.703125 18.0625 0 32.703125 14.644531 32.703125 32.703125 0 2.105469-7.53125 76.308594-7.53125 76.308594-1.761718 12.324219-12.359375 21.800781-25.171875 21.800781s-23.40625-9.476562-25.171875-21.800781zm25.171875 43.601562c-18.058593 0-32.703125 14.640626-32.703125 32.703126 0 5.664062 1.445313 10.996093 3.980469 15.640624 8.175781 2.234376 16.773437 3.433594 25.65625 3.433594 11.558594 0 22.640625-2.023437 32.917969-5.726562 1.828125-4.078125 2.851562-8.59375 2.851562-13.347656 0-18.0625-14.640625-32.703126-32.703125-32.703126zm0 0" fill="#fdf7bd"/><path d="m245.03125 346.429688c-8.542969-.082032-16.824219-1.265626-24.703125-3.421876-2.535156-4.644531-3.980469-9.976562-3.980469-15.640624 0-11.675782 6.121094-21.917969 15.324219-27.707032-3.164063 5.035156-4.996094 10.992188-4.996094 17.378906 0 12.914063 7.488281 24.078126 18.355469 29.390626zm.648438-95.367188s-7.527344-74.203125-7.527344-76.308594c0-14.238281 9.101562-26.34375 21.800781-30.832031-3.410156-1.207031-7.078125-1.871094-10.902344-1.871094-18.0625 0-32.703125 14.644531-32.703125 32.703125 0 2.105469 7.53125 76.308594 7.53125 76.308594 1.765625 12.324219 12.359375 21.800781 25.171875 21.800781 3.902344 0 7.597657-.882812 10.902344-2.453125-7.546875-3.589844-13.046875-10.777344-14.273437-19.347656zm0 0" fill="#fde0b8"/></svg>