<?xml version="1.0" encoding="iso-8859-1"?>
<!-- Generator: Adobe Illustrator 19.0.0, SVG Export Plug-In . SVG Version: 6.00 Build 0)  -->
<svg version="1.1" id="Capa_1" xmlns="http://www.w3.org/2000/svg" xmlns:xlink="http://www.w3.org/1999/xlink" x="0px" y="0px"
	 viewBox="0 0 512 512" style="enable-background:new 0 0 512 512;" xml:space="preserve">
<circle style="fill:#88C116;" cx="256" cy="256" r="256"/>
<path style="fill:#BF462E;" d="M256,512c69.781,0,133.028-27.932,179.206-73.21H76.794C122.972,484.068,186.219,512,256,512z"/>
<path style="fill:#AB3B1D;" d="M245.122,438.79H76.794c43.291,42.447,101.583,69.649,166.196,72.885
	C195.822,509.308,197.89,438.79,245.122,438.79z"/>
<path style="fill:#FDE2A6;" d="M450.071,77.561c-0.019,0.414-0.038,0.828-0.091,1.247l-46.006,358.056
	c-0.949,7.39-7.24,12.924-14.69,12.924h33.996c26.667-23.039,48.522-51.491,63.871-83.646L450.071,77.561z"/>
<path style="fill:#FED97D;" d="M441.041,432.876l27.342-212.798L450.071,77.561c-0.019,0.414-0.037,0.828-0.091,1.247
	l-46.007,358.056c-0.949,7.39-7.24,12.924-14.69,12.924h33.996C429.47,444.439,435.389,438.787,441.041,432.876z"/>
<path style="fill:#FDECD0;" d="M436.385,62.109H78.572c-7.45,0-13.741,5.534-14.69,12.924L26.138,368.784
	c15.274,31.07,36.65,58.599,62.583,81.004h301.658c7.45,0,13.741-5.534,14.69-12.924l46.006-358.056
	C452.213,69.951,445.314,62.109,436.385,62.109z"/>
<path style="fill:#FDE2A6;" d="M110.23,75.033c0.949-7.39,7.24-12.924,14.69-12.924H78.572c-7.45,0-13.741,5.534-14.691,12.924
	L26.137,368.784c10.339,21.03,23.481,40.43,38.932,57.724L110.23,75.033z"/>
<path style="fill:#FD623C;" d="M436.385,62.109H78.572c-7.45,0-13.741,5.534-14.691,12.924l-8.336,64.877h94.485
	c10.202,0,18.084,8.96,16.784,19.078l0,0c-0.641,4.992,3.247,9.412,8.28,9.412H292.19c4.205,0,7.756-3.124,8.292-7.295l0,0
	c1.557-12.119,11.874-21.195,24.093-21.195h118.65l7.851-61.102C452.213,69.951,445.314,62.109,436.385,62.109z"/>
<path style="fill:#EF4A29;" d="M212.691,158.988L212.691,158.988c1.3-10.118-6.583-19.078-16.784-19.078h-45.876
	c10.202,0,18.084,8.96,16.784,19.078l0,0c-0.641,4.992,3.248,9.412,8.28,9.412h45.876C215.938,168.4,212.05,163.98,212.691,158.988z
	"/>
<path style="fill:#FED97D;" d="M340.401,419.018h-23.789c-4.539,0-8.218-3.679-8.218-8.218s3.679-8.218,8.218-8.218h23.789
	c4.539,0,8.218,3.679,8.218,8.218S344.941,419.018,340.401,419.018z"/>
<g>
	<circle style="fill:#324B6C;" cx="103.17" cy="221.66" r="11.617"/>
	<circle style="fill:#324B6C;" cx="96.94" cy="265.57" r="11.617"/>
	<circle style="fill:#324B6C;" cx="92.05" cy="309.48" r="11.617"/>
	<circle style="fill:#324B6C;" cx="86.42" cy="353.38" r="11.617"/>
	<circle style="fill:#324B6C;" cx="167.73" cy="221.66" r="11.617"/>
	<circle style="fill:#324B6C;" cx="161.5" cy="265.57" r="11.617"/>
	<circle style="fill:#324B6C;" cx="156.62" cy="309.48" r="11.617"/>
	<circle style="fill:#324B6C;" cx="150.98" cy="353.38" r="11.617"/>
	<circle style="fill:#324B6C;" cx="232.3" cy="221.66" r="11.617"/>
	<circle style="fill:#324B6C;" cx="226.07" cy="265.57" r="11.617"/>
	<circle style="fill:#324B6C;" cx="221.18" cy="309.48" r="11.617"/>
	<circle style="fill:#324B6C;" cx="215.55" cy="353.38" r="11.617"/>
	<circle style="fill:#324B6C;" cx="296.86" cy="221.66" r="11.617"/>
	<circle style="fill:#324B6C;" cx="290.63" cy="265.57" r="11.617"/>
	<circle style="fill:#324B6C;" cx="285.74" cy="309.48" r="11.617"/>
	<circle style="fill:#324B6C;" cx="280.11" cy="353.38" r="11.617"/>
	<circle style="fill:#324B6C;" cx="361.42" cy="221.66" r="11.617"/>
	<circle style="fill:#324B6C;" cx="355.19" cy="265.57" r="11.617"/>
	<circle style="fill:#324B6C;" cx="350.31" cy="309.48" r="11.617"/>
	<circle style="fill:#324B6C;" cx="344.67" cy="353.38" r="11.617"/>
</g>
<path style="fill:#FF775C;" d="M436.385,62.109H78.572c-7.45,0-13.741,5.534-14.691,12.924l-8.336,64.877h387.679l7.851-61.102
	C452.214,69.951,445.315,62.109,436.385,62.109z"/>
<path style="fill:#FD623C;" d="M63.881,75.033l-8.335,64.877h46.348l8.336-64.877c0.949-7.39,7.24-12.924,14.69-12.924H78.572
	c-1.862,0-3.651,0.346-5.303,0.979C73.169,63.173,65.062,65.84,63.881,75.033z"/>
<path style="fill:#FF9D8D;" d="M297.802,109.228h-104.1c-4.539,0-8.218-3.679-8.218-8.218s3.679-8.218,8.218-8.218h104.1
	c4.539,0,8.218,3.679,8.218,8.218S302.341,109.228,297.802,109.228z"/>
<g>
	<circle style="fill:#FD623C;" cx="391.83" cy="90.93" r="15.631"/>
	<circle style="fill:#FD623C;" cx="355.26" cy="90.93" r="15.631"/>
	<circle style="fill:#FD623C;" cx="157.69" cy="90.93" r="15.631"/>
	<circle style="fill:#FD623C;" cx="121.12" cy="90.93" r="15.631"/>
</g>
<path style="fill:#D6D7E1;" d="M354.98,41.698c8.62,0,15.633,9.157,15.633,20.411h16.437c0-20.318-14.387-36.847-32.07-36.847
	c-17.685,0-32.071,16.53-32.071,36.848s14.387,36.848,32.071,36.848c4.539,0,8.218-3.679,8.218-8.218s-3.679-8.218-8.218-8.218
	c-8.621,0-15.634-9.157-15.634-20.411S346.359,41.698,354.98,41.698z"/>
<path style="fill:#BAC2C8;" d="M354.98,82.52c-8.621,0-15.634-9.157-15.634-20.411s7.013-20.411,15.634-20.411
	c0.661,0,1.307,0.071,1.947,0.176c-1.222-1.719-1.947-3.815-1.947-6.085c0-4.411,2.715-8.182,6.563-9.749
	c-2.12-0.509-4.314-0.779-6.563-0.779c-17.685,0-32.071,16.53-32.071,36.848s14.387,36.848,32.071,36.848
	c4.539,0,8.218-3.679,8.218-8.219C363.198,86.199,359.519,82.52,354.98,82.52z"/>
<path style="fill:#D6D7E1;" d="M391.102,41.698c8.62,0,15.633,9.157,15.633,20.411h16.437c0-20.318-14.387-36.847-32.07-36.847
	c-17.685,0-32.071,16.53-32.071,36.848s14.387,36.848,32.071,36.848c4.539,0,8.218-3.679,8.218-8.218s-3.679-8.218-8.218-8.218
	c-8.621,0-15.634-9.157-15.634-20.411S382.481,41.698,391.102,41.698z"/>
<path style="fill:#BAC2C8;" d="M391.102,82.52c-8.621,0-15.634-9.157-15.634-20.411s7.013-20.411,15.634-20.411
	c0.661,0,1.307,0.071,1.947,0.176c-1.222-1.719-1.947-3.815-1.947-6.085c0-4.411,2.715-8.182,6.563-9.749
	c-2.12-0.509-4.314-0.779-6.563-0.779c-17.685,0-32.071,16.53-32.071,36.848s14.387,36.848,32.071,36.848
	c4.539,0,8.218-3.679,8.218-8.219C399.32,86.199,395.641,82.52,391.102,82.52z"/>
<path style="fill:#D6D7E1;" d="M120.838,41.698c8.62,0,15.633,9.157,15.633,20.411h16.437c0-20.318-14.387-36.847-32.07-36.847
	c-17.685,0-32.071,16.53-32.071,36.848s14.386,36.848,32.071,36.848c4.539,0,8.218-3.679,8.218-8.218s-3.679-8.218-8.218-8.218
	c-8.621,0-15.634-9.157-15.634-20.411S112.217,41.698,120.838,41.698z"/>
<path style="fill:#BAC2C8;" d="M120.838,82.52c-8.621,0-15.634-9.157-15.634-20.411s7.013-20.411,15.634-20.411
	c0.661,0,1.307,0.071,1.947,0.176c-1.222-1.719-1.947-3.815-1.947-6.085c0-4.411,2.715-8.182,6.563-9.749
	c-2.12-0.509-4.314-0.779-6.563-0.779c-17.685,0-32.071,16.53-32.071,36.848s14.387,36.848,32.071,36.848
	c4.539,0,8.218-3.679,8.218-8.219C129.056,86.199,125.377,82.52,120.838,82.52z"/>
<path style="fill:#D6D7E1;" d="M156.96,41.698c8.62,0,15.633,9.157,15.633,20.411h16.437c0-20.318-14.386-36.847-32.07-36.847
	c-17.685,0-32.071,16.53-32.071,36.848s14.386,36.848,32.071,36.848c4.539,0,8.218-3.679,8.218-8.218s-3.679-8.218-8.218-8.218
	c-8.621,0-15.634-9.157-15.634-20.411S148.339,41.698,156.96,41.698z"/>
<path style="fill:#BAC2C8;" d="M156.96,82.52c-8.621,0-15.634-9.157-15.634-20.411s7.013-20.411,15.634-20.411
	c0.661,0,1.307,0.071,1.947,0.176c-1.222-1.719-1.947-3.815-1.947-6.085c0-4.411,2.715-8.182,6.563-9.749
	c-2.12-0.509-4.314-0.779-6.563-0.779c-17.685,0-32.071,16.53-32.071,36.848s14.387,36.848,32.071,36.848
	c4.539,0,8.218-3.679,8.218-8.219C165.178,86.199,161.499,82.52,156.96,82.52z"/>
<g>
</g>
<g>
</g>
<g>
</g>
<g>
</g>
<g>
</g>
<g>
</g>
<g>
</g>
<g>
</g>
<g>
</g>
<g>
</g>
<g>
</g>
<g>
</g>
<g>
</g>
<g>
</g>
<g>
</g>
</svg>
