<svg height="512pt" viewBox="0 0 512 512" width="512pt" xmlns="http://www.w3.org/2000/svg"><path d="m512 256c0 133.578125-102.316406 243.261719-232.84375 254.964844-7.628906.691406-15.351562 1.035156-23.15625 1.035156s-15.527344-.34375-23.15625-1.035156c-130.527344-11.703125-232.84375-121.386719-232.84375-254.964844 0-141.386719 114.613281-256 256-256s256 114.613281 256 256zm0 0" fill="#2385ec"/><path d="m279.15625 391.984375v118.980469c-7.628906.691406-15.351562 1.035156-23.15625 1.035156s-15.527344-.34375-23.15625-1.035156v-118.980469zm0 0" fill="#fcf9f4"/><path d="m256 391.984375v120.015625c-7.804688 0-15.527344-.34375-23.15625-1.035156v-118.980469zm0 0" fill="#e5ded4"/><path d="m172.253906 369.511719h167.484375v44.9375h-167.484375zm0 0" fill="#fcf9f4"/><path d="m172.253906 369.511719h38.472656v44.9375h-38.472656zm0 0" fill="#e5ded4"/><path d="m205.117188 36.136719-149.851563 259.546875c-22.613281 39.167968 5.652344 88.125 50.878906 88.125h299.703125c45.226563 0 73.492188-48.957032 50.878906-88.125l-149.851562-259.546875c-22.613281-39.167969-79.144531-39.167969-101.757812 0zm0 0" fill="#484f60"/><path d="m106.144531 357.6875c-17 0-25.425781-11.410156-28.253906-16.3125-2.832031-4.90625-8.503906-17.902344 0-32.628906l149.851563-259.550782c8.5-14.722656 22.589843-16.3125 28.253906-16.3125 5.664062 0 19.753906 1.589844 28.257812 16.3125l149.851563 259.550782c8.5 14.726562 2.832031 27.722656 0 32.628906-2.832031 4.902344-11.257813 16.3125-28.257813 16.3125zm0 0" fill="#fd9b3d"/><path d="m106.144531 331.566406c-1.21875 0-3.753906 0-5.632812-3.253906-1.878907-3.253906-.609375-5.449219 0-6.503906l149.851562-259.550782c.609375-1.054687 1.878907-3.253906 5.632813-3.253906 3.757812 0 5.023437 2.199219 5.632812 3.253906l149.851563 259.550782c.609375 1.054687 1.878906 3.25 0 6.503906-1.878907 3.253906-4.414063 3.253906-5.632813 3.253906zm0 0" fill="#fee887"/><g fill="#272f38"><path d="m230.804688 127.816406h50.382812v118.464844h-50.382812zm0 0"/><path d="m255.996094 314.363281c-13.910156 0-25.191406-11.277343-25.191406-25.191406 0-13.910156 11.28125-25.191406 25.191406-25.191406 13.914062 0 25.191406 11.28125 25.191406 25.191406 0 13.914063-11.277344 25.191406-25.191406 25.191406zm0 0"/></g></svg>