<?xml version="1.0" encoding="utf-8"?>
<!-- Generator: Adobe Illustrator 22.1.0, SVG Export Plug-In . SVG Version: 6.00 Build 0)  -->
<svg version="1.1" id="Layer_1" xmlns="http://www.w3.org/2000/svg" xmlns:xlink="http://www.w3.org/1999/xlink" x="0px" y="0px"
	 viewBox="0 0 263.7 459.7" style="enable-background:new 0 0 263.7 459.7;" xml:space="preserve">
<style type="text/css">
	.st0{fill:url(#SVGID_1_);}
	.st1{fill:url(#SVGID_2_);}
	.st2{fill:url(#SVGID_3_);}
	.st3{fill:url(#SVGID_4_);}
	.st4{fill:url(#SVGID_5_);}
	.st5{fill:url(#SVGID_6_);}
	.st6{fill:url(#SVGID_7_);}
	.st7{fill:url(#SVGID_8_);}
	.st8{fill:url(#SVGID_9_);}
	.st9{fill:url(#SVGID_10_);}
</style>
<g>
	
		<linearGradient id="SVGID_1_" gradientUnits="userSpaceOnUse" x1="132.075" y1="127.673" x2="132.075" y2="261.0431" gradientTransform="matrix(1 0 0 -1 0 444.3333)">
		<stop  offset="0" style="stop-color:#1E77BA"/>
		<stop  offset="1" style="stop-color:#2EB8EB"/>
	</linearGradient>
	<path class="st0" d="M114.4,226.8c41.3-15.6,87.2-33,148.9-2.9L189.1,95.3c-15,35.9-50.5,61.2-91.8,61.2c-17.5,0-34-4.6-48.3-12.5
		L1.9,225.6c-0.6,1.1-1,2.5-1.1,3.9C43.5,253.7,76.9,241,114.4,226.8z"/>
	
		<linearGradient id="SVGID_2_" gradientUnits="userSpaceOnUse" x1="138.4263" y1="309.8029" x2="60.1761" y2="445.0563" gradientTransform="matrix(1 0 0 -1 0 444.3333)">
		<stop  offset="0" style="stop-color:#F49225"/>
		<stop  offset="1" style="stop-color:#F5EB3B"/>
	</linearGradient>
	<path class="st1" d="M130.4,3L59.7,125.5c11.2,6.2,24,9.7,37.6,9.7c38.7,0,70.9-28.4,77-65.4L135.8,3.1
		C134.3,0.4,131.9,0.4,130.4,3z"/>
	
		<linearGradient id="SVGID_3_" gradientUnits="userSpaceOnUse" x1="142.425" y1="-24.339" x2="142.425" y2="162.2663" gradientTransform="matrix(1 0 0 -1 0 444.3333)">
		<stop  offset="0" style="stop-color:#06693A"/>
		<stop  offset="1" style="stop-color:#8DC43F"/>
	</linearGradient>
	<path class="st2" d="M192.1,359.8l30-52c-37.7-8.4-68.3,3.2-100.1,15.2c-19.2,7.3-38.6,14.6-59.3,17l27.6,47.9
		c7.9-2.6,15.9-5.6,24.1-8.7C138.1,370.2,163.3,360.7,192.1,359.8z"/>
	
		<linearGradient id="SVGID_4_" gradientUnits="userSpaceOnUse" x1="140.125" y1="-24.3376" x2="140.125" y2="162.2675" gradientTransform="matrix(1 0 0 -1 0 444.3333)">
		<stop  offset="0" style="stop-color:#06693A"/>
		<stop  offset="1" style="stop-color:#8DC43F"/>
	</linearGradient>
	<path class="st3" d="M122,399.1c-6.9,2.6-13.8,5.2-20.8,7.6l29.2,50.5c1.5,2.5,3.9,2.5,5.3,0l43.3-75
		C159.3,385,140.9,392,122,399.1z"/>
	
		<linearGradient id="SVGID_5_" gradientUnits="userSpaceOnUse" x1="162.332" y1="20.8792" x2="106.8815" y2="35.9079" gradientTransform="matrix(1 0 0 -1 0 444.3333)">
		<stop  offset="0" style="stop-color:#FFFFFF;stop-opacity:0"/>
		<stop  offset="1" style="stop-color:#FFFFFF;stop-opacity:0.3"/>
	</linearGradient>
	<path class="st4" d="M108.9,409.6c5-1.8,10-3.7,14.9-5.6c15.4-5.8,30-11.4,45.3-14.7l-36,62.3L108.9,409.6z"/>
	
		<linearGradient id="SVGID_6_" gradientUnits="userSpaceOnUse" x1="137.175" y1="-24.3408" x2="137.175" y2="162.2647" gradientTransform="matrix(1 0 0 -1 0 444.3333)">
		<stop  offset="0" style="stop-color:#06693A"/>
		<stop  offset="1" style="stop-color:#8DC43F"/>
	</linearGradient>
	<path class="st5" d="M114.4,303c34.3-13,71.7-27.2,118.7-14.4l25-43.4c-55.5-29-94.9-14.1-136.2,1.6
		c-32.8,12.4-66.3,25.1-105.7,12.8l34.4,59.7C72.3,318.9,92.7,311.2,114.4,303z"/>
	
		<linearGradient id="SVGID_7_" gradientUnits="userSpaceOnUse" x1="144.5218" y1="389.702" x2="105.1377" y2="328.553" gradientTransform="matrix(1 0 0 -1 0 444.3333)">
		<stop  offset="0" style="stop-color:#FFFFFF;stop-opacity:0"/>
		<stop  offset="1" style="stop-color:#FFFFFF;stop-opacity:0.3"/>
	</linearGradient>
	<path class="st6" d="M132.5,120.8c4.3-2.4,8.4-5.2,12.2-8.4c12.6-10.8,21.1-25.6,24.2-41.7l-35.8-62L92.3,79.3
		C107.5,91.3,121,105.2,132.5,120.8z"/>
	
		<linearGradient id="SVGID_8_" gradientUnits="userSpaceOnUse" x1="222.0096" y1="284.7767" x2="132.3575" y2="284.2584" gradientTransform="matrix(1 0 0 -1 0 444.3333)">
		<stop  offset="0" style="stop-color:#FFFFFF;stop-opacity:0"/>
		<stop  offset="1" style="stop-color:#FFFFFF;stop-opacity:0.3"/>
	</linearGradient>
	<path class="st7" d="M189.5,106.4c-9.4,17.5-23.4,31.7-40,41.3c9.3,17.6,16.3,36.7,20.4,56.8c8.4-1.4,17.1-2.3,26.3-2.3
		c18.4,0,36.4,3.5,54.8,10.6L189.5,106.4z"/>
	
		<linearGradient id="SVGID_9_" gradientUnits="userSpaceOnUse" x1="232.388" y1="182.7083" x2="170.2016" y2="188.927" gradientTransform="matrix(1 0 0 -1 0 444.3333)">
		<stop  offset="0" style="stop-color:#FFFFFF;stop-opacity:0"/>
		<stop  offset="1" style="stop-color:#FFFFFF;stop-opacity:0.3"/>
	</linearGradient>
	<path class="st8" d="M196.2,233.9c-7.6,0-15,0.8-22.3,2.1c0.2,3.9,0.3,7.9,0.3,11.9c0,11-0.8,21.9-2.4,32.4c7.8-1.2,15.9-2,24.3-2
		c11.7,0,23,1.4,34.5,4.2l20.3-35.2C232.3,238.3,214.3,233.9,196.2,233.9z"/>
	
		<linearGradient id="SVGID_10_" gradientUnits="userSpaceOnUse" x1="201.4613" y1="105.0512" x2="136.1656" y2="109.1969" gradientTransform="matrix(1 0 0 -1 0 444.3333)">
		<stop  offset="0" style="stop-color:#FFFFFF;stop-opacity:0"/>
		<stop  offset="1" style="stop-color:#FFFFFF;stop-opacity:0.3"/>
	</linearGradient>
	<path class="st9" d="M196.2,310.1c-11.2,0-21.9,1.7-32.5,4.3c-5.8,17.8-13.9,34.6-23.9,50.1c15.3-5,31.4-8.9,49.1-9.7l25-43.2
		C208.1,310.6,202.2,310.1,196.2,310.1z"/>
</g>
</svg>
