<?xml version="1.0" encoding="utf-8"?>
<!-- Generator: Adobe Illustrator 22.1.0, SVG Export Plug-In . SVG Version: 6.00 Build 0)  -->
<svg version="1.1" id="Layer_1" xmlns="http://www.w3.org/2000/svg" xmlns:xlink="http://www.w3.org/1999/xlink" x="0px" y="0px"
	 viewBox="0 0 831.8 322.5" style="enable-background:new 0 0 831.8 322.5;" xml:space="preserve">
<style type="text/css">
	.st0{fill:url(#SVGID_1_);}
	.st1{fill:url(#SVGID_2_);}
	.st2{fill:url(#SVGID_3_);}
	.st3{fill:url(#SVGID_4_);}
	.st4{fill:url(#SVGID_5_);}
	.st5{fill:url(#SVGID_6_);}
	.st6{fill:url(#SVGID_7_);}
	.st7{fill:url(#SVGID_8_);}
	.st8{fill:url(#SVGID_9_);}
	.st9{fill:url(#SVGID_10_);}
	.st10{fill:#086B3B;}
	.st11{fill:#076C3B;}
	.st12{fill:#086C3B;}
</style>
<g>
	
		<linearGradient id="SVGID_1_" gradientUnits="userSpaceOnUse" x1="79.0356" y1="811.0809" x2="79.0356" y2="740.9034" gradientTransform="matrix(1 0 0 1 0 -600)">
		<stop  offset="0" style="stop-color:#1E77BA"/>
		<stop  offset="1" style="stop-color:#2EB8EB"/>
	</linearGradient>
	<path class="st0" d="M69.7,163.8c21.7-8.2,45.9-17.4,78.3-1.5l-39-67.7c-7.9,18.9-26.6,32.2-48.3,32.2c-9.2,0-17.9-2.4-25.4-6.6
		l-24.8,42.9c-0.3,0.6-0.5,1.3-0.6,2.1C32.5,177.9,50,171.3,69.7,163.8z"/>
	
		<linearGradient id="SVGID_2_" gradientUnits="userSpaceOnUse" x1="82.3592" y1="715.2573" x2="41.185" y2="644.0889" gradientTransform="matrix(1 0 0 1 0 -600)">
		<stop  offset="0" style="stop-color:#F49225"/>
		<stop  offset="1" style="stop-color:#F5EB3B"/>
	</linearGradient>
	<path class="st1" d="M78.1,46l-37.2,64.5c5.9,3.3,12.6,5.1,19.8,5.1c20.4,0,37.3-14.9,40.5-34.4L81,46.1
		C80.2,44.7,78.9,44.7,78.1,46z"/>
	
		<linearGradient id="SVGID_3_" gradientUnits="userSpaceOnUse" x1="84.508" y1="891.0676" x2="84.508" y2="792.8784" gradientTransform="matrix(1 0 0 1 0 -600)">
		<stop  offset="0" style="stop-color:#06693A"/>
		<stop  offset="1" style="stop-color:#8DC43F"/>
	</linearGradient>
	<path class="st2" d="M110.7,233.8l15.8-27.4c-19.8-4.4-35.9,1.7-52.7,8c-10.1,3.8-20.3,7.7-31.2,8.9l14.5,25.2
		c4.2-1.4,8.4-2.9,12.7-4.6C82.2,239.2,95.5,234.2,110.7,233.8z"/>
	
		<linearGradient id="SVGID_4_" gradientUnits="userSpaceOnUse" x1="83.2978" y1="891.0668" x2="83.2978" y2="792.8777" gradientTransform="matrix(1 0 0 1 0 -600)">
		<stop  offset="0" style="stop-color:#06693A"/>
		<stop  offset="1" style="stop-color:#8DC43F"/>
	</linearGradient>
	<path class="st3" d="M73.8,254.4c-3.6,1.4-7.3,2.7-10.9,4L78.2,285c0.8,1.3,2.1,1.3,2.8,0l22.8-39.5
		C93.4,247,83.7,250.7,73.8,254.4z"/>
	
		<linearGradient id="SVGID_5_" gradientUnits="userSpaceOnUse" x1="94.9547" y1="867.2809" x2="65.7774" y2="859.373" gradientTransform="matrix(1 0 0 1 0 -600)">
		<stop  offset="0" style="stop-color:#FFFFFF;stop-opacity:0"/>
		<stop  offset="1" style="stop-color:#FFFFFF;stop-opacity:0.3"/>
	</linearGradient>
	<path class="st4" d="M66.8,260c2.6-0.9,5.3-1.9,7.8-2.9c8.1-3.1,15.8-6,23.8-7.7l-18.9,32.8L66.8,260z"/>
	
		<linearGradient id="SVGID_6_" gradientUnits="userSpaceOnUse" x1="81.6929" y1="891.0685" x2="81.6929" y2="792.8792" gradientTransform="matrix(1 0 0 1 0 -600)">
		<stop  offset="0" style="stop-color:#06693A"/>
		<stop  offset="1" style="stop-color:#8DC43F"/>
	</linearGradient>
	<path class="st5" d="M69.7,203.9c18-6.8,37.7-14.3,62.5-7.6l13.2-22.8c-29.2-15.3-49.9-7.4-71.7,0.8c-17.2,6.5-34.8,13.2-55.6,6.7
		l18.1,31.4C47.6,212.2,58.3,208.2,69.7,203.9z"/>
	
		<linearGradient id="SVGID_7_" gradientUnits="userSpaceOnUse" x1="85.6036" y1="673.2168" x2="64.8802" y2="705.3926" gradientTransform="matrix(1 0 0 1 0 -600)">
		<stop  offset="0" style="stop-color:#FFFFFF;stop-opacity:0"/>
		<stop  offset="1" style="stop-color:#FFFFFF;stop-opacity:0.3"/>
	</linearGradient>
	<path class="st6" d="M79.3,108c2.3-1.3,4.4-2.7,6.4-4.4c6.6-5.7,11.1-13.5,12.7-21.9L79.6,49L58.1,86.2
		C66.1,92.5,73.2,99.8,79.3,108z"/>
	
		<linearGradient id="SVGID_8_" gradientUnits="userSpaceOnUse" x1="126.358" y1="728.4152" x2="79.1843" y2="728.6879" gradientTransform="matrix(1 0 0 1 0 -600)">
		<stop  offset="0" style="stop-color:#FFFFFF;stop-opacity:0"/>
		<stop  offset="1" style="stop-color:#FFFFFF;stop-opacity:0.3"/>
	</linearGradient>
	<path class="st7" d="M109.3,100.4c-4.9,9.2-12.3,16.7-21,21.7c4.9,9.3,8.6,19.3,10.7,29.9c4.4-0.7,9-1.2,13.8-1.2
		c9.7,0,19.2,1.8,28.8,5.6L109.3,100.4z"/>
	
		<linearGradient id="SVGID_9_" gradientUnits="userSpaceOnUse" x1="131.8188" y1="782.1234" x2="99.0972" y2="778.8511" gradientTransform="matrix(1 0 0 1 0 -600)">
		<stop  offset="0" style="stop-color:#FFFFFF;stop-opacity:0"/>
		<stop  offset="1" style="stop-color:#FFFFFF;stop-opacity:0.3"/>
	</linearGradient>
	<path class="st8" d="M112.8,167.5c-4,0-7.9,0.4-11.7,1.1c0.1,2.1,0.2,4.2,0.2,6.3c0,5.8-0.4,11.5-1.3,17c4.1-0.6,8.4-1.1,12.8-1.1
		c6.2,0,12.1,0.7,18.2,2.2l10.7-18.5C131.8,169.8,122.3,167.5,112.8,167.5z"/>
	
		<linearGradient id="SVGID_10_" gradientUnits="userSpaceOnUse" x1="115.5457" y1="822.9854" x2="81.188" y2="820.804" gradientTransform="matrix(1 0 0 1 0 -600)">
		<stop  offset="0" style="stop-color:#FFFFFF;stop-opacity:0"/>
		<stop  offset="1" style="stop-color:#FFFFFF;stop-opacity:0.3"/>
	</linearGradient>
	<path class="st9" d="M112.8,207.6c-5.9,0-11.5,0.9-17.1,2.3c-3.1,9.4-7.3,18.2-12.6,26.4c8.1-2.6,16.5-4.7,25.8-5.1l13.2-22.7
		C119.1,207.9,115.9,207.6,112.8,207.6z"/>
</g>
<path class="st10" d="M761.2,155.3c5.4-9.1,10.5-18.1,15.4-27.2c4.9-9.1,9.4-18.2,13.5-27.4h33c-7.3,14.3-14.9,28.2-22.7,41.7
	c-7.8,13.4-16.1,27-24.8,40.5v50.9h-30v-50.5c-8.7-13.6-17-27.1-24.9-40.7c-7.9-13.6-15.5-27.5-22.8-41.9h34.8
	c4.1,9.2,8.5,18.3,13.2,27.4C750.8,137.1,755.8,146.2,761.2,155.3z"/>
<path class="st11" d="M285,125.7c-13.4,0-23.1,3.7-29,11.2c-6,7.4-8.9,17.6-8.9,30.5c0,6.3,0.7,12,2.2,17.1s3.7,9.5,6.6,13.2
	c3,3.7,6.6,6.6,11.1,8.6c4.4,2,9.6,3,15.5,3c3.2,0,5.9-0.1,8.2-0.2c2.3-0.1,4.3-0.4,6-0.7V164h28.8v63.3c-3.4,1.4-9,2.8-16.6,4.3
	s-17,2.3-28.2,2.3c-9.6,0-18.3-1.5-26.1-4.4s-14.5-7.3-20-12.9c-5.5-5.7-9.8-12.6-12.8-20.8s-4.5-17.6-4.5-28.2
	c0-10.7,1.7-20.2,5-28.4s7.9-15.2,13.6-20.9c5.8-5.7,12.6-10.1,20.4-13c7.8-3,16.1-4.4,25-4.4c6,0,11.5,0.4,16.3,1.2
	c4.9,0.8,9,1.7,12.5,2.8c3.5,1,6.4,2.1,8.7,3.2s3.9,2,4.9,2.6l-8.3,23.1c-3.9-2.1-8.5-3.9-13.6-5.4C296.5,126.5,291,125.7,285,125.7
	z"/>
<path class="st11" d="M343.7,233.8V100.6h90v25.2h-60v26.1h53.2v24.6h-53.2v32.1h64.4v25.2L343.7,233.8L343.7,233.8z"/>
<path class="st11" d="M586.6,167.1c0,11.5-1.7,21.6-5.2,30.3c-3.5,8.7-8.1,16-14.1,21.9c-5.9,5.9-13.1,10.3-21.3,13.3
	c-8.2,2.9-17.1,4.4-26.4,4.4c-9.2,0-17.8-1.5-26-4.4c-8.1-2.9-15.3-7.4-21.4-13.3c-6.1-5.9-10.8-13.2-14.3-21.9
	c-3.5-8.7-5.3-18.8-5.3-30.3c0-11.5,1.8-21.6,5.5-30.3c3.6-8.7,8.5-16,14.6-22c6.1-5.9,13.3-10.4,21.4-13.4s16.5-4.4,25.5-4.4
	c9.2,0,17.8,1.5,26,4.4c8.1,2.9,15.3,7.5,21.4,13.4c6.1,6,10.8,13.3,14.3,22C585,145.5,586.6,155.6,586.6,167.1z M484,167.1
	c0,6.6,0.8,12.5,2.4,17.8c1.6,5.3,3.9,9.9,6.9,13.7c3.1,3.8,6.7,6.7,11.2,8.8c4.4,2.1,9.5,3.1,15.2,3.1c5.6,0,10.5-1.1,15.1-3.1
	c4.4-2.1,8.2-5.1,11.3-8.8s5.4-8.3,6.9-13.7c1.6-5.3,2.4-11.3,2.4-17.8c0-6.6-0.8-12.5-2.4-17.9c-1.6-5.4-3.9-10-6.9-13.8
	c-3.1-3.8-6.7-6.7-11.3-8.8c-4.4-2.1-9.5-3.1-15.1-3.1c-5.7,0-10.7,1.1-15.2,3.2c-4.4,2.1-8.1,5.2-11.2,8.9
	c-3.1,3.8-5.4,8.4-6.9,13.8C484.9,154.8,484,160.7,484,167.1z"/>
<path class="st12" d="M690.4,208.1v25.7h-89V100.7h30v107.4H690.4L690.4,208.1z"/>
</svg>
