<?xml version="1.0" encoding="utf-8"?>
<!-- Generator: Adobe Illustrator 22.1.0, SVG Export Plug-In . SVG Version: 6.00 Build 0)  -->
<svg version="1.1" id="Layer_1" xmlns="http://www.w3.org/2000/svg" xmlns:xlink="http://www.w3.org/1999/xlink" x="0px" y="0px"
	 viewBox="0 0 500 500" style="enable-background:new 0 0 500 500;" xml:space="preserve">
<style type="text/css">
	.st0{fill:#F5F5F5;}
	.st1{fill:#E0E0E0;}
	.st2{fill:#30DD8A;}
	.st3{opacity:0.2;enable-background:new    ;}
	.st4{fill:#FFFFFF;}
	.st5{opacity:0.3;}
	.st6{fill:#FAFAFA;}
	.st7{opacity:0.3;fill:#FFFFFF;enable-background:new    ;}
	.st8{opacity:0.1;enable-background:new    ;}
	.st9{opacity:0.3;enable-background:new    ;}
	.st10{opacity:0.15;enable-background:new    ;}
	.st11{opacity:7.000000e-02;enable-background:new    ;}
	.st12{fill:#FFBDA7;}
	.st13{fill:#263238;}
	.st14{fill:#455A64;}
	.st15{fill:#37474F;}
	.st16{fill:#EBEBEB;}
	.st17{fill:#F0997A;}
	.st18{opacity:0.15;}
	.st19{opacity:0.2;}
	.st20{opacity:0.4;fill:#FFFFFF;enable-background:new    ;}
	.st21{opacity:0.2;fill:#FFFFFF;enable-background:new    ;}
	.st22{fill:#FFA8A7;}
	.st23{fill:#F28F8F;}
	.st24{fill:#B16668;}
	.st25{opacity:0.35;enable-background:new    ;}
	.st26{opacity:5.000000e-02;enable-background:new    ;}
	.st27{opacity:0.6;enable-background:new    ;}
	.st28{fill:#9A4A4D;}
</style>
<g id="freepik--Floor--inject-2">
	<ellipse id="freepik--floor--inject-2" class="st0" cx="253.2" cy="368.8" rx="220.6" ry="122"/>
</g>
<g id="freepik--Shadow--inject-2">
	<path id="freepik--shadow--inject-2" class="st1" d="M344.1,468.9l-80.8-46.7c-1.4-0.7-3-0.7-4.4,0l-3.9,2.2c-1.4,0.7-3,0.7-4.4,0
		l-85.4-49.3c-0.4-0.1-0.7-0.4-0.8-0.8c-0.2-0.7,0.1-1.4,0.8-1.7l3.8-2.2c0.4-0.1,0.7-0.4,0.8-0.8c0.2-0.7-0.1-1.4-0.8-1.7l-81-46.8
		c-0.4-0.1-0.7-0.4-0.8-0.8c-0.2-0.7,0.1-1.4,0.8-1.7l60.7-35c1.4-0.7,3-0.7,4.3,0l256,147.8c0.4,0.1,0.7,0.4,0.8,0.8
		c0.2,0.7-0.1,1.4-0.8,1.7l-60.7,35.1C347.1,469.7,345.4,469.7,344.1,468.9z"/>
	<g id="freepik--Shadows--inject-2">
		<path class="st1" d="M139.8,446.8c-0.7-0.7-1-1.6-1-2.5l0.2-10.5c-0.1-0.1-0.2-0.1-0.3-0.1l-15.3-6.2c-2.2-0.9-2.9-2.6-2.7-3.9
			c0.1-1.8,1.8-3.2,4.1-3.6l17.9-3.2c0.3,0,0.7-0.2,1-0.3l5.6-10.3c1-1.9,3.3-2.5,5.2-2.5c1.5,0,3,0.4,4.2,1.3l10.8,8.8
			c0.5,0.3,1.1,0.5,1.7,0.4L190,414c2.6,0,4.8,1.2,5.4,3c0.4,1.4-0.1,3-1.3,3.8l-10.9,8.5l5.7,9.8c0.6,1,0.6,2.3,0,3.3
			c-0.8,1.4-2.9,2.4-5.1,2.4c-0.5,0-1-0.1-1.6-0.1l-17.7-3.5c-0.3,0-0.5-0.1-0.8-0.1c-0.5,0-0.9,0.1-1.4,0.3l-15,6.5
			c-0.9,0.4-1.9,0.6-2.9,0.6C142.8,448.5,141.1,447.9,139.8,446.8z"/>
		<path class="st1" d="M227.2,466.6c-0.6-0.6-0.9-1.3-0.9-2.1l0.1-6.6l-10-4.1c-1.4-0.4-2.3-1.8-2.2-3.3c0.2-1.5,1.4-2.7,3.3-3
			l12-2.2c0.1,0,0.2,0,0.3-0.1l3.6-6.7c0.9-1.4,2.5-2.1,4.1-2c1.2,0,2.3,0.3,3.2,1l7.2,5.9c0.2,0.1,0.5,0.2,0.7,0.1l12.6-0.1
			c2.1,0,3.8,1,4.3,2.5c0.4,1.2,0,2.6-1.1,3.3l-6.8,5.3l3.5,6c0.5,0.9,0.5,2,0,2.9c-0.9,1.3-2.4,2.1-4,2c-0.4,0-0.8,0-1.2-0.1
			l-11.9-2.3c-0.1,0-0.3,0-0.4,0c-0.2,0-0.4,0-0.6,0.1l-10.1,4.3c-0.7,0.3-1.5,0.4-2.2,0.4C229.4,468,228.2,467.5,227.2,466.6z"/>
		<path class="st1" d="M93.5,390.1c-0.5-0.5-0.8-1.3-0.8-2.1l0.1-5.6l-8.6-3.5c-1.4-0.4-2.2-1.7-2.1-3.1c0.3-1.6,1.5-2.7,3.1-2.9
			l10.4-2h0.1l3.1-5.8c0.8-1.3,2.3-2,3.8-1.9c1.1,0,2.1,0.3,3,1l6.3,5.1c0.2,0.1,0.3,0.1,0.5,0.1l11-0.1c1.7-0.2,3.3,0.8,4,2.3
			c0.4,1.2,0,2.5-1,3.2l-5.9,4.5l3,5.1c0.5,0.9,0.5,1.9,0,2.8c-0.8,1.2-2.2,1.9-3.7,1.9c-0.4,0-0.7,0-1.1-0.1l-10.4-2H108
			c-0.2,0-0.3,0-0.5,0.1l-8.8,3.8c-0.6,0.3-1.3,0.4-2,0.4C95.6,391.4,94.4,390.9,93.5,390.1z"/>
	</g>
</g>
<g id="freepik--Plants--inject-2">
	<g id="freepik--plants--inject-2">
		<path class="st2" d="M402.7,405.5c4.3-17.7,15.1-31.1,29.7-42.8c12.3-9.8,22.4-19.5,15.5-27.4c-7.7-8.8-21.4-6.1-38.3,17.6
			c-13.7,19.2-16.8,51.3-17,52.7L402.7,405.5z"/>
		<path class="st3" d="M402.7,405.5c4.3-17.7,15.1-31.1,29.7-42.8c12.3-9.8,22.4-19.5,15.5-27.4c-7.7-8.8-21.4-6.1-38.3,17.6
			c-13.7,19.2-16.8,51.3-17,52.7L402.7,405.5z"/>
		<path class="st4" d="M398.9,403.5C398.8,403.5,398.8,403.5,398.9,403.5c-0.4-0.1-0.6-0.4-0.6-0.8c5.5-38.3,34.6-60.7,42.1-64.6
			c0,0,0,0,0,0c0.3-0.2,0.8,0,0.9,0.3c0,0,0,0,0,0.1c0.2,0.3,0,0.8-0.3,0.9c-7.4,3.8-36,25.9-41.4,63.6
			C399.6,403.3,399.3,403.6,398.9,403.5L398.9,403.5z"/>
		<path class="st2" d="M399.4,431.6c-4.2-2.1-4.8-6-5-10.2c-0.1-6.3,0.7-12.6,2.4-18.6c1.6-5.8,4.3-11.1,8.1-15.7
			c5.3-6.3,11.9-11.5,19.4-15.1c3.8-2,7.8-3.4,12-4.2c4.2-0.8,8.5-0.5,12.5,1c2,0.7,3.7,2,4.8,3.7c1.1,2.3,0.9,5.1-0.5,7.3
			c-1.2,2.2-3.2,3.8-4.9,5.7c-1.3,1.4-3.4,3-3.4,5.1c-0.1,2.3,2.1,3.9,3.2,5.9c1.5,2.8,0.5,6.5-1.5,8.9c-2.2,2.3-5,4-8.1,4.8
			c-2.3,0.7-4.6,1.2-6.5,2.5c-1.9,1.3-3.3,3.8-2.5,6c0.6,1.5,2,2.5,2.8,3.9c1.6,2.8,0.1,6.6-2.4,8.5c-2.5,2-5.9,2.5-9.1,2.9
			c-0.9,0.1-1.9,0.2-2.9,0.3C411.6,434.6,405.1,434.3,399.4,431.6z"/>
		<g class="st5">
			<path class="st4" d="M399.4,431.6c-4.2-2.1-4.8-6-5-10.2c-0.1-6.3,0.7-12.6,2.4-18.6c1.6-5.8,4.3-11.1,8.1-15.7
				c5.3-6.3,11.9-11.5,19.4-15.1c3.8-2,7.8-3.4,12-4.2c4.2-0.8,8.5-0.5,12.5,1c2,0.7,3.7,2,4.8,3.7c1.1,2.3,0.9,5.1-0.5,7.3
				c-1.2,2.2-3.2,3.8-4.9,5.7c-1.3,1.4-3.4,3-3.4,5.1c-0.1,2.3,2.1,3.9,3.2,5.9c1.5,2.8,0.5,6.5-1.5,8.9c-2.2,2.3-5,4-8.1,4.8
				c-2.3,0.7-4.6,1.2-6.5,2.5c-1.9,1.3-3.3,3.8-2.5,6c0.6,1.5,2,2.5,2.8,3.9c1.6,2.8,0.1,6.6-2.4,8.5c-2.5,2-5.9,2.5-9.1,2.9
				c-0.9,0.1-1.9,0.2-2.9,0.3C411.6,434.6,405.1,434.3,399.4,431.6z"/>
		</g>
		<path class="st6" d="M397.8,426.2c11.9-34.1,38.1-48.2,47.2-50.8c0,0,0,0,0,0c0.3-0.1,0.5-0.4,0.4-0.7c-0.1-0.3-0.4-0.5-0.7-0.4
			c-0.3,0.1-33.4,9.9-47.9,51.5c0,0,0,0,0,0c-0.1,0.3,0.1,0.6,0.4,0.8c0.1,0,0.1,0,0.2,0C397.5,426.6,397.7,426.4,397.8,426.2z"/>
		<path class="st6" d="M411.3,400.9c8.3-5.8,22.2-4.5,29.4-1.8c0,0,0.1,0,0.1,0.1c0.3,0.1,0.6-0.1,0.7-0.4s-0.1-0.6-0.4-0.7
			c-7.5-2.9-21.8-4.2-30.5,1.9c-0.3,0.2-0.3,0.6-0.1,0.8c0.1,0.2,0.3,0.3,0.5,0.3C411,401,411.2,401,411.3,400.9z"/>
	</g>
	<g id="freepik--plants--inject-2_1_">
		<g id="freepik--Plant--inject-2">
			<path class="st2" d="M108.2,279.1c-1.6-5.7-7.8-9.2-9.8-14.8c-1.8-5-0.3-11.2-3.8-15.1c-3.1-3.4-8.4-3.2-12.8-4.7
				c-3.5-1.2-6.4-3.5-9.6-5.3c-3.6-2-13.6-4.8-14.4,2c-0.4,3.7,5,6.1,4.7,9.9c-0.2,3.5-5,4.9-5.9,8.3c-0.7,2.4,1,4.8,3,6.1
				s4.5,2,6.6,3.1s4.3,2.9,4.5,5.4c0.2,1.9-0.8,3.8-0.9,5.7c-0.3,3.2,1.8,6.3,4.5,8.2s5.8,3,8.7,4.3c5.9,2.7,9.4,7.9,12.8,13.2
				c1.5,2.2,3.9,4.8,6,1.2c0.9-1.6,0.9-3.5,1.1-5.3c0.5-3.9,2.3-7.4,3.7-11c0.5-1.2,0.9-2.5,1.3-3.8
				C108.8,284.2,108.8,281.6,108.2,279.1z"/>
			<path class="st3" d="M108.2,279.1c-1.6-5.7-7.8-9.2-9.8-14.8c-1.8-5-0.3-11.2-3.8-15.1c-3.1-3.4-8.4-3.2-12.8-4.7
				c-3.5-1.2-6.4-3.5-9.6-5.3c-3.6-2-13.6-4.8-14.4,2c-0.4,3.7,5,6.1,4.7,9.9c-0.2,3.5-5,4.9-5.9,8.3c-0.7,2.4,1,4.8,3,6.1
				s4.5,2,6.6,3.1s4.3,2.9,4.5,5.4c0.2,1.9-0.8,3.8-0.9,5.7c-0.3,3.2,1.8,6.3,4.5,8.2s5.8,3,8.7,4.3c5.9,2.7,9.4,7.9,12.8,13.2
				c1.5,2.2,3.9,4.8,6,1.2c0.9-1.6,0.9-3.5,1.1-5.3c0.5-3.9,2.3-7.4,3.7-11c0.5-1.2,0.9-2.5,1.3-3.8
				C108.8,284.2,108.8,281.6,108.2,279.1z"/>
			<path class="st4" d="M100.7,301.7c-0.3,0-0.5-0.2-0.5-0.5c-1.8-27.8-22.5-51.9-33.2-58.7c-0.2-0.2-0.3-0.5-0.2-0.7c0,0,0,0,0,0
				c0.2-0.2,0.5-0.3,0.7-0.1c10.9,6.8,31.9,31.3,33.7,59.5c0,0,0,0,0,0C101.2,301.4,101,301.6,100.7,301.7L100.7,301.7
				C100.7,301.7,100.7,301.7,100.7,301.7z"/>
		</g>
		<g id="freepik--plant--inject-2">
			<path class="st2" d="M98.7,316.6c-0.1-11.9-5.3-29.8-18.7-40.8s-32-11.5-38.3-6.7c-4.1,3.1-4.9,12.6,7.1,16.3
				c19.9,6.1,41.7,16.2,47.7,37.5L98.7,316.6z"/>
			<path class="st7" d="M98.7,316.6c-0.1-11.9-5.3-29.8-18.7-40.8s-32-11.5-38.3-6.7c-4.1,3.1-4.9,12.6,7.1,16.3
				c19.9,6.1,41.7,16.2,47.7,37.5L98.7,316.6z"/>
			<path class="st4" d="M96.5,313.9c-7.7-27.8-34.8-41.7-47.8-41.7c-0.3,0-0.5-0.2-0.5-0.5c0,0,0,0,0,0c0-0.3,0.2-0.5,0.5-0.5
				c13.3,0,40.9,14.2,48.8,42.5c0.1,0.3-0.1,0.6-0.4,0.6h-0.1C96.7,314.2,96.5,314.1,96.5,313.9z"/>
		</g>
	</g>
</g>
<g id="freepik--Stars--inject-2">
	<g id="freepik--stars--inject-2">
		<g id="freepik--Star--inject-2">
			<path class="st2" d="M171.3,405.1c-1.1,0.1-2.1-0.3-3-0.9l-10.8-8.8c-1.7-1.4-5.5-1.1-6.4,0.6l-5.6,10.3
				c-0.6,0.8-1.4,1.3-2.4,1.4l-17.9,3.2c-1.4,0.3-2.3,0.9-2.5,1.7l0,0c0,0.1,0,0.2,0,0.3c-0.2,1.6,0.1,8.8,0,9.5s0.4,1.4,1.5,1.9
				l15,6.3c1,0.4,1.5,1,1.5,1.7V443c0,1.7,3.3,2.7,5.7,1.7l15-6.5c1-0.4,2.2-0.5,3.3-0.3l17.7,3.5c2.4,0.5,4.6-0.6,4.8-1.9
				c0-0.2,0-9,0-9.9v-0.1l0,0c0-0.2-0.1-0.4-0.2-0.5l-3.2-5.5l8.9-5.6c0.4-0.2,0.6-0.6,0.7-1.1c0-0.3,0.2-9.6,0-10
				c-0.1-1.1-1.6-2-3.6-2L171.3,405.1z"/>
			<path class="st3" d="M171.3,405.1c-1.1,0.1-2.1-0.3-3-0.9l-10.8-8.8c-1.7-1.4-5.5-1.1-6.4,0.6l-5.6,10.3
				c-0.6,0.8-1.4,1.3-2.4,1.4l-17.9,3.2c-1.4,0.3-2.3,0.9-2.5,1.7l0,0c0,0.1,0,0.2,0,0.3c-0.2,1.6,0.1,8.8,0,9.5s0.4,1.4,1.5,1.9
				l15,6.3c1,0.4,1.5,1,1.5,1.7V443c0,1.7,3.3,2.7,5.7,1.7l15-6.5c1-0.4,2.2-0.5,3.3-0.3l17.7,3.5c2.4,0.5,4.6-0.6,4.8-1.9
				c0-0.2,0-9,0-9.9v-0.1l0,0c0-0.2-0.1-0.4-0.2-0.5l-3.2-5.5l8.9-5.6c0.4-0.2,0.6-0.6,0.7-1.1c0-0.3,0.2-9.6,0-10
				c-0.1-1.1-1.6-2-3.6-2L171.3,405.1z"/>
			<path class="st2" d="M187.4,439.7c-0.1,1.3-2.4,2.3-4.7,1.9l-17.7-3.5c-0.7-0.1-1.5-0.1-2.2,0l0.1-9.8c0.7-0.1,1.4-0.1,2.1,0
				l17.7,3.5c2.3,0.5,4.5-0.5,4.7-1.7C187.3,431.7,187.4,439.3,187.4,439.7z"/>
			<path class="st8" d="M187.4,439.7c-0.1,1.3-2.4,2.3-4.7,1.9l-17.7-3.5c-0.7-0.1-1.5-0.1-2.2,0l0.1-9.8c0.7-0.1,1.4-0.1,2.1,0
				l17.7,3.5c2.3,0.5,4.5-0.5,4.7-1.7C187.3,431.7,187.4,439.3,187.4,439.7z"/>
			<path class="st2" d="M182.6,431.7l-17.7-3.5c-1.1-0.2-2.3-0.1-3.3,0.3l-15,6.5c-2.4,1-5.7,0-5.7-1.7l0.2-10.8
				c0-0.7-0.5-1.3-1.5-1.7l-15.3-6.3c-2.4-1-1.8-3.2,1-3.7l17.9-3.2c0.9-0.1,1.8-0.6,2.4-1.4l5.6-10.3c0.9-1.6,4.6-2,6.4-0.6
				l10.8,8.8c0.9,0.6,1.9,0.9,3,0.9l18.7-0.1c3,0,4.7,1.9,2.9,3.3l-11.2,8.7c-0.7,0.4-0.9,1.2-0.5,1.9l6,10.2
				C188.1,430.7,185.4,432.2,182.6,431.7z"/>
			<path class="st2" d="M140,420.9L140,420.9l-0.3-0.2l-15.3-6.2c-1.1-0.4-1.5-1.1-1.5-1.7c-0.2,1.5,0.1,8.9,0,9.6s0.4,1.4,1.5,1.9
				l15,6.3c0.1,0.1,0.3,0.1,0.4,0.2c0.2,0.1,0.5,0.3,0.7,0.5l0,0c0.3,0.3,0.4,0.6,0.4,1V443c0,0.8,0.8,1.4,1.8,1.8l0.1-9.7
				c-1.1-0.3-1.8-1-1.8-1.8l0.3-10.8c0-0.5-0.3-1-0.7-1.3l0,0L140,420.9z"/>
			<path class="st8" d="M140,420.9L140,420.9l-0.3-0.2l-15.3-6.2c-1.1-0.4-1.5-1.1-1.5-1.7c-0.2,1.5,0.1,8.9,0,9.6s0.4,1.4,1.5,1.9
				l15,6.3c0.1,0.1,0.3,0.1,0.4,0.2c0.2,0.1,0.5,0.3,0.7,0.5l0,0c0.3,0.3,0.4,0.6,0.4,1V443c0,0.8,0.8,1.4,1.8,1.8l0.1-9.7
				c-1.1-0.3-1.8-1-1.8-1.8l0.3-10.8c0-0.5-0.3-1-0.7-1.3l0,0L140,420.9z"/>
		</g>
		<g id="freepik--star--inject-2">
			<path class="st2" d="M248.7,437.6c-0.7,0-1.4-0.2-2-0.6l-7.3-5.9c-1.2-0.9-3.7-0.7-4.3,0.4l-3.7,6.9c-0.4,0.5-1,0.8-1.6,0.9
				l-12,2.1c-1,0.2-1.5,0.6-1.7,1.1l0,0c0,0.1,0,0.2,0,0.2c-0.1,1.1,0.1,5.9,0,6.4s0.2,0.9,1,1.3l10.1,4.2c0.6,0.3,1,0.7,1,1.2v7.2
				c0,1.1,2.3,1.8,3.9,1.1l10.1-4.3c0.7-0.3,1.5-0.3,2.2-0.2l11.9,2.3c1.6,0.3,3.1-0.4,3.2-1.3c0-0.2,0-6,0-6.6l0,0l0,0
				c0-0.1-0.1-0.2-0.1-0.4l-2.2-3.7l6-3.8c0.2-0.2,0.4-0.4,0.5-0.7c0-0.2,0.1-6.4,0-6.7c-0.1-0.7-1-1.3-2.4-1.3L248.7,437.6z"/>
			<path class="st3" d="M248.7,437.6c-0.7,0-1.4-0.2-2-0.6l-7.3-5.9c-1.2-0.9-3.7-0.7-4.3,0.4l-3.7,6.9c-0.4,0.5-1,0.8-1.6,0.9
				l-12,2.1c-1,0.2-1.5,0.6-1.7,1.1l0,0c0,0.1,0,0.2,0,0.2c-0.1,1.1,0.1,5.9,0,6.4s0.2,0.9,1,1.3l10.1,4.2c0.6,0.3,1,0.7,1,1.2v7.2
				c0,1.1,2.3,1.8,3.9,1.1l10.1-4.3c0.7-0.3,1.5-0.3,2.2-0.2l11.9,2.3c1.6,0.3,3.1-0.4,3.2-1.3c0-0.2,0-6,0-6.6l0,0l0,0
				c0-0.1-0.1-0.2-0.1-0.4l-2.2-3.7l6-3.8c0.2-0.2,0.4-0.4,0.5-0.7c0-0.2,0.1-6.4,0-6.7c-0.1-0.7-1-1.3-2.4-1.3L248.7,437.6z"/>
			<path class="st2" d="M259.5,460.7c-0.1,0.9-1.6,1.6-3.2,1.3l-11.9-2.3c-0.5-0.1-1-0.1-1.5,0l0.1-6.6c0.5-0.1,0.9-0.1,1.4,0
				l11.9,2.3c1.5,0.3,3-0.3,3.2-1.1C259.4,455.4,259.6,460.5,259.5,460.7z"/>
			<path class="st8" d="M259.5,460.7c-0.1,0.9-1.6,1.6-3.2,1.3l-11.9-2.3c-0.5-0.1-1-0.1-1.5,0l0.1-6.6c0.5-0.1,0.9-0.1,1.4,0
				l11.9,2.3c1.5,0.3,3-0.3,3.2-1.1C259.4,455.4,259.6,460.5,259.5,460.7z"/>
			<path class="st2" d="M256.3,455.4l-11.9-2.3c-0.7-0.1-1.5-0.1-2.2,0.2l-10.1,4.3c-1.6,0.7-3.8,0-3.8-1.1l0.2-7.3
				c0-0.4-0.4-0.9-1-1.1l-10.3-4.2c-1.6-0.7-1.2-2.1,0.7-2.5l12-2.1c0.6-0.1,1.2-0.4,1.6-0.9l3.7-6.9c0.6-1.1,3.1-1.3,4.3-0.4
				l7.3,5.9c0.6,0.4,1.3,0.6,2,0.6l12.6-0.1c2,0,3.2,1.3,2,2.2l-7.5,5.8c-0.4,0.3-0.6,0.8-0.4,1.3l4,6.9
				C260.1,454.7,258.3,455.8,256.3,455.4z"/>
			<path class="st2" d="M227.8,448.2L227.8,448.2l-0.2-0.1l-10.3-4.2c-0.7-0.3-1-0.7-1-1.2c-0.1,1,0.1,6,0,6.4s0.2,0.9,1,1.3
				l10.1,4.2c0.1,0,0.2,0.1,0.3,0.1c0.2,0.1,0.3,0.2,0.4,0.3l0,0c0.2,0.2,0.3,0.4,0.3,0.7v7.2c0,0.5,0.5,1,1.2,1.2v-6.5
				c-0.7-0.2-1.2-0.7-1.2-1.2l0.2-7.2c0-0.4-0.2-0.7-0.5-0.9l0,0L227.8,448.2z"/>
			<path class="st8" d="M227.8,448.2L227.8,448.2l-0.2-0.1l-10.3-4.2c-0.7-0.3-1-0.7-1-1.2c-0.1,1,0.1,6,0,6.4s0.2,0.9,1,1.3
				l10.1,4.2c0.1,0,0.2,0.1,0.3,0.1c0.2,0.1,0.3,0.2,0.4,0.3l0,0c0.2,0.2,0.3,0.4,0.3,0.7v7.2c0,0.5,0.5,1,1.2,1.2v-6.5
				c-0.7-0.2-1.2-0.7-1.2-1.2l0.2-7.2c0-0.4-0.2-0.7-0.5-0.9l0,0L227.8,448.2z"/>
		</g>
		<g id="freepik--star--inject-2_1_">
			<path class="st2" d="M112.4,364.6c-0.6,0-1.2-0.1-1.7-0.5l-6.3-5.2c-1-0.8-3.2-0.7-3.7,0.3l-3.3,6c-0.3,0.5-0.8,0.7-1.4,0.8
				l-10.5,1.9c-0.8,0.2-1.3,0.6-1.5,1l0,0c0,0.1,0,0.1,0,0.2c-0.1,0.9,0.1,5.2,0,5.6s0.2,0.8,0.9,1.1l8.8,3.7c0.6,0.2,0.9,0.6,0.9,1
				v6.3c0,1,2,1.6,3.4,1l8.8-3.8c0.6-0.2,1.3-0.3,1.9-0.2l10.4,2c1.4,0.3,2.7-0.3,2.8-1.1c0-0.1,0-5.3,0-5.8l0,0l0,0
				c0-0.1-0.1-0.2-0.1-0.3l-1.9-3.2l5.2-3.3c0.2-0.1,0.4-0.4,0.4-0.6c0-0.2,0.1-5.6,0-5.9c-0.1-0.6-0.9-1.2-2.1-1.2L112.4,364.6z"/>
			<path class="st3" d="M112.4,364.6c-0.6,0-1.2-0.1-1.7-0.5l-6.3-5.2c-1-0.8-3.2-0.7-3.7,0.3l-3.3,6c-0.3,0.5-0.8,0.7-1.4,0.8
				l-10.5,1.9c-0.8,0.2-1.3,0.6-1.5,1l0,0c0,0.1,0,0.1,0,0.2c-0.1,0.9,0.1,5.2,0,5.6s0.2,0.8,0.9,1.1l8.8,3.7c0.6,0.2,0.9,0.6,0.9,1
				v6.3c0,1,2,1.6,3.4,1l8.8-3.8c0.6-0.2,1.3-0.3,1.9-0.2l10.4,2c1.4,0.3,2.7-0.3,2.8-1.1c0-0.1,0-5.3,0-5.8l0,0l0,0
				c0-0.1-0.1-0.2-0.1-0.3l-1.9-3.2l5.2-3.3c0.2-0.1,0.4-0.4,0.4-0.6c0-0.2,0.1-5.6,0-5.9c-0.1-0.6-0.9-1.2-2.1-1.2L112.4,364.6z"/>
			<path class="st2" d="M121.9,384.8c0,0.8-1.4,1.4-2.8,1.1l-10.4-2c-0.4-0.1-0.9-0.1-1.3,0l0.1-5.7c0.4-0.1,0.8-0.1,1.2,0l10.4,2
				c1.3,0.3,2.6-0.3,2.8-1C121.9,380.2,121.9,384.6,121.9,384.8z"/>
			<path class="st8" d="M121.9,384.8c0,0.8-1.4,1.4-2.8,1.1l-10.4-2c-0.4-0.1-0.9-0.1-1.3,0l0.1-5.7c0.4-0.1,0.8-0.1,1.2,0l10.4,2
				c1.3,0.3,2.6-0.3,2.8-1C121.9,380.2,121.9,384.6,121.9,384.8z"/>
			<path class="st2" d="M119.2,380.2l-10.4-2c-0.6-0.1-1.3-0.1-1.9,0.2l-8.8,3.8c-1.4,0.6-3.4,0-3.4-1l0.1-6.3c0-0.4-0.3-0.8-0.9-1
				l-9-3.6c-1.4-0.6-1.1-1.9,0.6-2.1l10.5-2c0.6-0.1,1.1-0.3,1.4-0.8l3.3-6c0.5-1,2.7-1.2,3.7-0.3l6.3,5.2c0.5,0.4,1.1,0.5,1.7,0.5
				l11-0.1c1.7,0,2.8,1.1,1.7,1.9l-6.6,5.1c0,0,0,0,0,0c-0.4,0.2-0.5,0.7-0.3,1.1l3.5,6C122.4,379.6,120.8,380.5,119.2,380.2z"/>
			<path class="st2" d="M94.2,373.8L94.2,373.8l-0.2-0.1l-9-3.7c-0.6-0.3-0.9-0.6-0.9-1c-0.1,0.9,0.1,5.2,0,5.6s0.2,0.8,0.9,1.1
				l8.8,3.7c0.1,0,0.2,0.1,0.3,0.1c0.1,0.1,0.3,0.2,0.4,0.3l0,0c0.2,0.2,0.2,0.4,0.3,0.6v6.3c0,0.5,0.4,0.9,1,1.1v-5.7
				c-0.6-0.2-1.1-0.6-1.1-1.1l0.1-6.3c0-0.3-0.2-0.6-0.4-0.8l0,0L94.2,373.8z"/>
			<path class="st8" d="M94.2,373.8L94.2,373.8l-0.2-0.1l-9-3.7c-0.6-0.3-0.9-0.6-0.9-1c-0.1,0.9,0.1,5.2,0,5.6s0.2,0.8,0.9,1.1
				l8.8,3.7c0.1,0,0.2,0.1,0.3,0.1c0.1,0.1,0.3,0.2,0.4,0.3l0,0c0.2,0.2,0.2,0.4,0.3,0.6v6.3c0,0.5,0.4,0.9,1,1.1v-5.7
				c-0.6-0.2-1.1-0.6-1.1-1.1l0.1-6.3c0-0.3-0.2-0.6-0.4-0.8l0,0L94.2,373.8z"/>
		</g>
	</g>
</g>
<g id="freepik--podium-3--inject-2">
	<g id="freepik--Podium--inject-2">
		<polygon class="st2" points="96.5,322.6 96.5,302.3 175.5,347.9 175.5,368.2 		"/>
		<polygon class="st9" points="96.5,322.6 96.5,302.3 175.5,347.9 175.5,368.2 		"/>
		<path class="st10" d="M173.2,355.6c1.5,0.7,3.2,0.7,4.7,0l54.7-31.6v-9l-57,32.9l-79-45.6v9L173.2,355.6z"/>
		<path class="st2" d="M95.5,306c0.1,0.6,0.4,1.1,1,1.4l76.7,44.3c1.5,0.7,3.2,0.7,4.7,0l61.1-35.3c0.6-0.2,0.9-0.8,1-1.4v-10.1
			c-0.1-0.6-0.4-1.1-1-1.4l-76.6-44.3c-1.5-0.7-3.2-0.7-4.7,0l-61.2,35.3c-0.6,0.2-0.9,0.8-1,1.4V306z"/>
		<path class="st3" d="M95.5,306c0.1,0.6,0.4,1.1,1,1.4l76.7,44.3c1.5,0.7,3.2,0.7,4.7,0l61.1-35.3c0.6-0.2,0.9-0.8,1-1.4v-10.1
			c-0.1-0.6-0.4-1.1-1-1.4l-76.6-44.3c-1.5-0.7-3.2-0.7-4.7,0l-61.2,35.3c-0.6,0.2-0.9,0.8-1,1.4V306z"/>
		<path class="st2" d="M96.5,297.3l76.7,44.3c1.5,0.7,3.2,0.7,4.7,0l61.1-35.3c1.3-0.8,1.3-2,0-2.7l-76.6-44.3
			c-1.5-0.7-3.2-0.7-4.7,0l-61.2,35.3C95.2,295.3,95.2,296.5,96.5,297.3z"/>
		<path class="st8" d="M96.5,297.3l76.7,44.3c1.5,0.7,3.2,0.7,4.7,0l61.1-35.3c1.3-0.8,1.3-2,0-2.7l-76.6-44.3
			c-1.5-0.7-3.2-0.7-4.7,0l-61.2,35.3C95.2,295.3,95.2,296.5,96.5,297.3z"/>
	</g>
	<ellipse id="freepik--shadow--inject-2_1_" class="st11" cx="151" cy="296.3" rx="35.3" ry="20.4"/>
</g>
<g id="freepik--character-3--inject-2">
	<g id="freepik--Character--inject-2">
		<path class="st12" d="M166.2,257.4c1.4,10.5,4.2,20.4,4.1,26.3c0,1.4-0.7,15-0.4,18.2s6.6,3.9,7.6-1.4c0.6-3.5,0.6-15.2,0.6-16.9
			c0.2-9.2,1.8-20,2-29.7l-14.6,0.3C165.6,254.6,166.1,256.9,166.2,257.4z"/>
		<path class="st13" d="M180.3,302.2c0.3,2.5,0,5-0.8,7.4c-0.9,2.6-3.7,3.8-5.9,4.1c-2,0.5-4.2-0.5-5.1-2.4c-0.9-1.9-1.2-4-1.1-7.2
			L180.3,302.2z"/>
		<path class="st14" d="M178,283.3c0,0.3,0,0.7,0,0.9c-0.1,0.6,0,1-0.1,1.5c0,0.1,0,0.2-0.2,0.2s-0.2-0.1-0.2-0.3c0-0.3,0-0.6,0-0.9
			c0-0.2,0-0.3,0-0.5c-0.1-0.2-0.2-0.4-0.4-0.5c-0.3-0.1-0.7-0.2-1.1-0.3c-0.4-0.1-0.9-0.1-1.3-0.1c-0.9,0-1.8,0-2.6,0.1
			c-0.4,0-0.7,0.1-1,0.3c-0.2,0.3-0.4,0.6-0.3,1c0,0.4,0,0.8-0.1,1.2c-0.5-0.1-0.4-1.7-0.4-2.1s0-1.1,0-1.5c-0.8,0.3-0.9,3.3-1,6.5
			c-0.2,3.6-0.7,7.1-1.3,10.6c-0.6,4.2-0.9,7.5,0.9,10.6c2.2,3.9,7.7,1.9,9.4-0.5s2.1-4.3,2-8.5c-0.1-3.7-1.3-5.7-1.4-10.3
			c-0.1-4.2,0.1-8.4-0.8-8.6C178.2,282.7,178,283,178,283.3z"/>
		<path class="st15" d="M180.4,301.3c0.1,4.3-0.3,6.1-2,8.5s-7.2,4.4-9.4,0.5c-1.8-3.1-1.6-6.3-1-10.3c0,0.1-0.1,4.7,1,5.3
			s1.9-1.5,1.8-2.2c4.2-1.4,6.9-0.2,6.9-0.2s0.4,3.2,1.6,2.5s1-4.7,1-5.3C180.3,300.5,180.3,300.9,180.4,301.3z"/>
		<path class="st13" d="M177.6,297.7c0-2.9,0.2-8.9,0.5-12c0-0.3,0-0.6,0-0.9l0.1-2.1c0,0,0-0.1,0-0.1c0.9,0.1,0.7,4.4,0.8,8.6
			c-0.4,3.7,0.3,8.8,0,11s-1.8,2.5-1.7,1C177.5,301.3,177.6,299.5,177.6,297.7z"/>
		<path class="st13" d="M169.5,302.1c-0.3-2.1,0.4-7.4,0-11.1c-0.1-1.9-0.1-3.4-0.1-4.6c0.1-2.1,0.3-3.8,0.9-4c0,0,0,0.1,0,0.1
			c0,0.4,0,1,0,1.4c0,0.6,0,1.2,0.1,1.8c0.3,3.1,0.5,9.1,0.5,11.9c0,1.8,0.1,3.6,0.3,5.4C171.3,304.6,169.8,304.3,169.5,302.1z"/>
		<path class="st12" d="M136.5,279.1c-2.9,3.3-8.3,7.4-12,10.3c0.6,1.4,5,1.3,7.2,0.2c2.9-1.5,5.6-3.3,8.2-5.4
			c3-2.3,6.9-4.2,6.9-7.6c0-0.3,0-0.5-0.1-0.8l0,0c0.1-2.9,0.7-7.1,3.7-24.8l-13.8-8.8c0,0,2,28.1,1.9,31.1
			C138.4,276.4,137.9,277.6,136.5,279.1z"/>
		<path class="st13" d="M148.7,285.3c0,0,0.1,2.7-0.5,3.3c-1.4,0.9-3,1.6-4.7,1.9c-2.1,0.5-4.7,2.6-6.5,4.2s-4.3,2.8-8.9,3.4
			c-3.2,0.5-6.5-0.3-9.2-2.2c-0.7-0.7-1-1.8-0.6-2.8L148.7,285.3z"/>
		<path class="st14" d="M146.5,276.2c-0.3,0.2-0.6,0.4-0.9,0.6c-0.3,0.3-0.6,0.5-0.8,0.9c-0.4,0.6-0.9,1.2-1.4,1.7
			c-0.1,0.1-0.3,0.3-0.5,0.1s-0.1-0.4,0-0.5c0.1-0.3,0.2-0.6,0.2-0.9c0-0.9-1-1.3-1.7-1.6c-0.8-0.4-1.7-0.6-2.5-0.8
			c-0.3-0.1-0.7,0-1,0.1c-0.4,0.3-0.6,0.7-0.8,1.1c-1.5,3.6-4.7,6.5-7.9,8.5c-1.2,0.8-4.7,2.8-5.7,3.3c-5.2,2.4-6.1,3.7-5,5.7
			c0.9,1.6,4.9,2.8,8.5,2.8c3.5-0.3,6.9-1.5,9.7-3.6c2-1.7,4.1-3.1,6.5-4.1c2-0.8,5.2-1.7,5.4-3.1c0.2-2.2,0-4.3-0.5-6.5
			c-0.3-1.2-0.5-3.3-0.6-4.1c-0.1-0.3-0.4-0.6-0.7-0.6C146.8,275.5,146.9,275.9,146.5,276.2z"/>
		<path class="st15" d="M126.9,297.1c-4.6,0-7.5-1.3-8.4-2.9c-1.1-2-0.3-3.2,5-5.7c0.2-0.1,0.6-0.3,1-0.5l0,0c1.6,0.2,5.5,2,5.5,2.4
			c-0.5,1-0.1,2.3,0.8,2.9c2.5,1.7,8.7-2.1,8.7-2.1l0,0c-1,0.7-2,1.4-2.9,2.1C134.4,295.2,129.9,297.1,126.9,297.1z"/>
		<path class="st13" d="M143.4,279.3c0.5-0.5,1-1.1,1.4-1.7c0.2-0.3,0.5-0.6,0.8-0.9c0.3-0.2,0.6-0.4,0.9-0.6
			c0.3-0.3,0.3-0.7,0.3-1.1c0.3,0,0.6,0.3,0.7,0.6c0.1,0.4,0.1,1,0.2,1.7c-0.5,0.4-1,0.9-1.5,1.3c-1.3,1-3.6,4.2-7,6.8
			s-8.9,5.9-9.8,5.7s-2.3-0.7,1-2C133.7,287.9,140.6,283,143.4,279.3z"/>
		<path class="st16" d="M129.4,290.7c-1.4-1.4-3.4-2.2-5.4-2.1c-0.2,0-0.3-0.1-0.4-0.3c0,0,0,0,0,0c0-0.2,0.1-0.3,0.3-0.3
			c2.2-0.1,4.4,0.7,6,2.4c0.1,0.1,0.1,0.3,0,0.5c-0.1,0-0.1,0.1-0.2,0.1C129.6,290.8,129.5,290.7,129.4,290.7z"/>
		<path class="st16" d="M132.3,288.9c-1.4-1.4-3.4-2.2-5.4-2.1c-0.2,0-0.3-0.1-0.4-0.3s0.1-0.3,0.3-0.4c2.2-0.1,4.4,0.7,6,2.4
			c0.1,0.1,0.1,0.1,0.1,0.2c0,0.2-0.2,0.3-0.3,0.3C132.5,289,132.4,289,132.3,288.9z"/>
		<path class="st16" d="M135.2,287.2c-1.4-1.4-3.4-2.2-5.4-2.1c-0.2,0-0.3-0.1-0.4-0.3c0,0,0,0,0,0c0-0.2,0.1-0.3,0.3-0.3
			c2.2-0.1,4.4,0.7,6,2.4c0,0.1,0.1,0.1,0.1,0.2c0,0.2-0.1,0.3-0.3,0.3C135.3,287.4,135.2,287.3,135.2,287.2z"/>
		<path class="st16" d="M137.8,285.3c-1.4-1.4-3.4-2.2-5.4-2.1c-0.2,0-0.3-0.1-0.4-0.3c0,0,0,0,0,0c0-0.2,0.1-0.3,0.3-0.3
			c2.2-0.1,4.4,0.7,6,2.4c0.1,0.1,0.1,0.3,0,0.5c-0.1,0-0.1,0.1-0.2,0.1C137.9,285.5,137.8,285.4,137.8,285.3z"/>
		<path class="st16" d="M140.4,283.4c-1.6-1.6-3.8-2.4-6-2.1c-0.2,0-0.3-0.1-0.4-0.3c0,0,0,0,0,0c0-0.2,0.1-0.3,0.3-0.3
			c2.4-0.2,4.8,0.6,6.5,2.4c0.1,0.1,0.1,0.3-0.1,0.5c-0.1,0-0.1,0.1-0.2,0.1C140.6,283.5,140.5,283.5,140.4,283.4z"/>
		<path class="st2" d="M139.3,152.6c-1.5,17.1-3.6,57.1-3.8,69.1c-0.2,10.5,1.7,31.7,1.7,31.7c4.8,4.2,12.6,1.9,12.6,1.9
			s4.1-14.5,3.4-21.9c-0.5-4.7-0.8-10.2-0.8-10.2l4.2-20.4c0,0,1.6,8.8,3,19.8c1.6,12.6,7,38.4,7,38.4c5.6,4.2,13.2,0,13.2,0
			c0.6-7.6,0.9-15.2,0.7-22.8c-0.4-10.7-3.8-15.5-4-17.9c0,0,1.1-10.8,2.2-24.5c1-12.8,2.8-19.8-0.9-29.5
			c-1.8-4.7-7.3-11.7-9.3-15.9L139.3,152.6z"/>
		<path class="st7" d="M139.3,152.6c-1.5,17.1-3.6,57.1-3.8,69.1c-0.2,10.5,1.7,31.7,1.7,31.7c4.8,4.2,12.6,1.9,12.6,1.9
			s4.1-14.5,3.4-21.9c-0.5-4.7-0.8-10.2-0.8-10.2l4.2-20.4c0,0,1.6,8.8,3,19.8c1.6,12.6,7,38.4,7,38.4c5.6,4.2,13.2,0,13.2,0
			c0.6-7.6,0.9-15.2,0.7-22.8c-0.4-10.7-3.8-15.5-4-17.9c0,0,1.1-10.8,2.2-24.5c1-12.8,2.8-19.8-0.9-29.5
			c-1.8-4.7-7.3-11.7-9.3-15.9L139.3,152.6z"/>
		<path class="st3" d="M152.4,223.2L155,202l-3.4-18.8c-7-2.7-8.5-7.8-8.5-7.8c2.8,3.3,6.6,5.6,10.9,6.2l2.6,21.1L152.4,223.2z"/>
		<path class="st16" d="M170.6,303.2c-0.1,0-0.2-0.1-0.3-0.2c-0.1-0.2,0-0.4,0.2-0.4c2.3-0.8,4.9-0.8,7.2,0c0.2,0.1,0.2,0.2,0.2,0.4
			s-0.2,0.2-0.4,0.2c-2.2-0.8-4.6-0.8-6.8,0C170.7,303.2,170.6,303.2,170.6,303.2L170.6,303.2z"/>
		<path class="st16" d="M169.9,299.6c-0.1-0.2,0-0.3,0.2-0.4c2.6-0.8,5.4-0.8,8,0c0,0,0,0,0,0c0.2,0.1,0.3,0.2,0.2,0.4c0,0,0,0,0,0
			c-0.1,0.2-0.2,0.3-0.4,0.2c-2.5-0.8-5.1-0.8-7.6,0h-0.1C170.1,299.8,170,299.7,169.9,299.6z"/>
		<path class="st16" d="M177.8,296.6c-3.5-1.6-7.5,0-7.5,0c-0.2,0.1-0.4,0-0.4-0.2c-0.1-0.2,0-0.3,0.2-0.4c2.6-1,5.4-1,8,0
			c0.2,0.1,0.2,0.3,0.2,0.4c-0.1,0.1-0.2,0.2-0.3,0.2C177.9,296.6,177.9,296.6,177.8,296.6z"/>
		<path class="st16" d="M177.9,293.6c-2.4-1.1-5.2-1.1-7.6-0.1c0,0,0,0,0,0c-0.2,0.1-0.4,0-0.4-0.2c-0.1-0.2,0-0.3,0.1-0.4
			c2.6-1.1,5.6-1.1,8.1,0.1c0.1,0.1,0.2,0.2,0.2,0.3c0,0.2-0.1,0.3-0.3,0.3C178,293.6,178,293.6,177.9,293.6z"/>
		<path class="st16" d="M178,290.3c-3.6-1.8-7.6,0-7.6,0c0,0,0,0,0,0c-0.2,0.1-0.4,0-0.4-0.2c-0.1-0.2,0-0.4,0.2-0.4
			c0.2-0.1,4.3-1.9,8.2,0c0.2,0.1,0.2,0.3,0.1,0.4c-0.1,0.1-0.2,0.2-0.3,0.2L178,290.3z"/>
		<path class="st15" d="M151.7,105.1c-2.6-1-5-2.6-6.9-4.7c-2.7-3.1-4.7-6.7-5.8-10.6c-1.2-3.7-1.8-7.8-0.4-11.4
			c1.3-3.1,3.9-5.5,7.1-6.5c0.8-0.2,1.4-0.3,2.3-0.5s1.7-0.7,2.5-1c1.9-0.6,3.8-0.9,5.8-0.9c10.3,0,18.6,8.3,18.6,18.6
			c0,9.2-7.1,16.8-16.3,17.4c-1.2,0.1-2.4,0.2-3.5,0.2C153.9,105.7,152.8,105.5,151.7,105.1z"/>
		<path class="st15" d="M171.4,97.6c0.1,0,0.2,0.1,0.2,0.1c3.2,2,4.2,6.3,2.2,9.5c3.1,3.1,1.1,5.8,1.1,5.8c4,1.7,2,5.7,2,5.7
			c3.5,2.3,1.1,5.8,1.1,5.8c2.4,4.5-0.6,6.3-0.6,6.3c1.5,1.7,0.5,3.1-0.5,4.3c-0.6,0.8-0.5,1.9,0.2,2.6c-1.6-0.3-2.7-2.5-2.6-4.2
			c0.1-1.1,0.5-2.1,1.3-2.9c-2.4-2.2-0.4-5.9-0.4-5.9c-1.6-1.1-2.4-3.2-1.8-5.1c-3.2-1.4-2.1-5.2-2.1-5.2c-3.8-1.5-2.3-5.4-2.3-5.4
			c-3.3-1.3-3.4-4.1-3.6-5.9L171.4,97.6z"/>
		<path class="st12" d="M146.8,110.8c-5.2-0.7-8.8-0.3-14.9,8.9c-6.1,9.2-7.2,11.2-7.2,11.2s-6.3-9.2-8.3-12.2
			c-2.5-3.7-3.2-5.7-3.4-7.1c-0.2-2.2-0.2-4.4,0.1-6.6c0.1-0.9,0.2-1.9,0.3-2.9c0.1-0.6,0.5-1.6-0.5-1.6c-0.2,0-0.5,0.1-0.7,0.2
			c-0.7,0.5-1.2,1.1-1.6,1.9c-0.3,0.6-0.5,1.3-0.7,2c-0.1,0.4-0.2,0.8-0.7,0.6c-0.2-0.1-0.3-0.3-0.5-0.5c-1.6-2.7-2.6-5.7-3-8.8
			c0-0.4-0.1-0.9-0.3-1.3c-0.1-0.2-0.2-0.3-0.3-0.5c-0.5-0.5-1.3-0.5-1.8,0c-0.2,0.3-0.4,0.6-0.6,0.9c-0.6,0.7-1.2,1.3-1.9,1.8
			c-1.5,1.6-2.3,3.7-2.3,5.8c0,2.1,0.6,4.3,1.6,6.2c0.7,1.3,1.4,2.5,2.2,3.7c0.8,1.1,1.3,2.2,2.1,3.4s10.2,19.8,14.5,26.1
			c3.7,5.4,7.6,3.5,9.4,2.1c3.3-2.6,14.9-17.5,14.9-17.5L146.8,110.8"/>
		<path class="st14" d="M139.4,150.7l-2.5,13.5c0,0,5.8,10.4,17.5,9.8s16.4-7.7,16.4-7.7c2.2,2.4,5.4,3.9,8.7,4
			c-1.4-5.8-3.7-11.3-6.6-16.5c-0.9-1.4-1.7-2.9-2.3-4.5c-1.2-3.4-1.4-6.7,0.1-10l3.4-7.6c1-7.1,1.3-8.1,1.1-12.3
			c-0.2-3.9-0.7-6.6-4.4-7.4c-1.4-0.3-5.6-0.6-11.6-1.3h-12.4c-2,0-6.7,4.2-11.1,13.3c-2.2,4.5-3.9,10.7,2.1,16.4
			C138.2,143.8,138.9,148.3,139.4,150.7z"/>
		<path class="st8" d="M153.6,144.1c-8.4,0.1-8.8-7.1-8.8-7.1c1.8,3.2,5.1,5.3,8.8,5.4c3.8,0.2,7.4-1.8,9.2-5.2
			C162.8,137.1,162.1,144,153.6,144.1z"/>
		<path class="st12" d="M151.9,88.3c2.7,1.2,5.7,1.7,8.6,1.6c1.5,3.1,3.2,3,3.2,3c0.2-0.4,0.4-0.7,0.7-1c1.5-1.6,4.1-1.6,5.7-0.1
			c1.7,1.8,0.9,5.2-1.4,7.1c-2.8,2.4-4.4,0.7-4.4,0.7l-0.2,11.9c-0.6,2.2-1.9,4.2-3.7,5.6c-2.8,2.1-6.8,4-10,3.5
			c-6.4-1,1.5-9.2,1.5-9.2l0.1-5.5c-2.8,0.4-5.6,0.7-7.1,0s-4.4-3-4.4-12.1c0-10.7,2.6-15.8,4.7-16.9
			C144.3,79.3,144.6,85,151.9,88.3z"/>
		<path class="st13" d="M152.2,91.3c0.1-0.7,0.7-1.1,1.3-1c0.7,0.1,1.1,0.7,1,1.3c-0.1,0.7-0.7,1.1-1.3,1c0,0,0,0,0,0
			C152.6,92.5,152.2,91.9,152.2,91.3C152.2,91.3,152.2,91.3,152.2,91.3z"/>
		<path class="st17" d="M150.1,101.5C150.1,101.5,150,101.5,150.1,101.5c-1.1,0.3-2.1-0.4-2.4-1.4l3.7-1.1
			C151.7,100.1,151.1,101.2,150.1,101.5z"/>
		<path class="st13" d="M142.4,85.6C142.5,85.5,142.5,85.5,142.4,85.6c0.7-0.4,1.5-0.2,1.9,0.4l-2.4,1.5
			C141.6,86.8,141.8,86,142.4,85.6z"/>
		<path class="st13" d="M155.4,85.9C155.4,85.9,155.5,85.9,155.4,85.9c0.7,0.4,1,1.2,0.7,1.8l-2.6-1.1
			C153.9,85.9,154.7,85.6,155.4,85.9z"/>
		<path class="st13" d="M142.5,90.8c0.1-0.7,0.7-1.1,1.3-1.1c0.7,0.1,1.1,0.7,1.1,1.3c-0.1,0.7-0.7,1.1-1.3,1.1
			C143,92,142.5,91.5,142.5,90.8C142.5,90.8,142.5,90.8,142.5,90.8z"/>
		<polygon class="st17" points="144.1,96 147.7,97.2 148,90.3 		"/>
		<path class="st17" d="M151.9,107.8c0,0,6-1.6,7.8-3.1c1-0.7,1.8-1.8,2.2-3c-1,2.4-7.1,3.9-10,4.3L151.9,107.8z"/>
		<path class="st15" d="M160.4,89.8l-0.1,4.4c0,0,0,0,0,0c0,1.8,1.4,3.3,3.2,3.3l0,0l0.1-4.8L160.4,89.8z"/>
		<g id="freepik--Trophy--inject-2">
			<path class="st13" d="M152.8,178.8l-14.6-8.4v25.2c0.3,0,0.6-0.1,0.8-0.2l13.8-8c0.2-0.1,0.3-0.3,0.3-0.5v-7.6
				C153.2,179.1,153,178.9,152.8,178.8z"/>
			<path class="st15" d="M138.2,195.5v-25.2l-0.7-0.4c-0.5-0.3-1.1-0.3-1.6,0l-13.8,8c-0.2,0.1-0.3,0.3-0.3,0.5v7.6
				c0,0.2,0.2,0.4,0.3,0.5l15.4,8.9C137.6,195.5,137.9,195.5,138.2,195.5z"/>
			<path class="st14" d="M137.3,187.8l-15.4-8.9c-0.3,0-0.5-0.2-0.5-0.5s0.2-0.5,0.5-0.5l13.8-8c0.5-0.3,1.1-0.3,1.6,0l15.4,8.8
				c0.2,0,0.3,0.2,0.3,0.3c0.1,0.3-0.1,0.5-0.3,0.6l-13.8,8C138.5,188,137.9,188,137.3,187.8z"/>
			<path class="st2" d="M129.6,180.6l0.3,0.4l0,0c0.1,0.1,0.2,0.2,0.4,0.4l0.1,0.1c0.1,0.1,0.2,0.2,0.4,0.3l0.1,0.1
				c0.2,0.1,0.3,0.2,0.5,0.4c3.8,1.9,8.3,1.9,12.1,0l0.6-0.4l0.1-0.1l0.4-0.3l0.1-0.1c0.1-0.1,0.3-0.2,0.4-0.4l0,0
				c0.1-0.1,0.2-0.3,0.3-0.4l0,0c0.1-0.1,0.2-0.3,0.2-0.4v-0.1c0.1-0.1,0.1-0.2,0.1-0.4v-0.1c0.1-0.3,0.1-0.6,0.1-0.9
				c0,0,0-0.1,0-0.1c0-0.1,0-0.2,0-0.3c0,0,0-0.1,0-0.1c0-0.1,0-0.2-0.1-0.3v-0.1c-0.1-0.1-0.1-0.3-0.2-0.4c0,0,0-0.1-0.1-0.1
				c-0.1-0.1-0.1-0.2-0.2-0.3l-0.1-0.1c0,0-0.1-0.1-0.1-0.1l-0.1-0.2l-0.1-0.1c-1.8-2.1-4.5-2.8-7.5-2.8s-5.7,0.7-7.5,2.8l-0.1,0.1
				l-0.1,0.2l-0.1,0.1l-0.1,0.2l0,0.3c0,0-0.1,0.1-0.1,0.1c-0.1,0.1-0.1,0.3-0.2,0.4l0,0.1c0,0.1-0.1,0.2-0.1,0.3c0,0.1,0,0.1,0,0.2
				c0,0.1,0,0.2,0,0.3v0.1c0,0.1,0,0.3,0,0.4l0,0c0,0.1,0.1,0.4,0.1,0.4s0,0,0,0.1s0.1,0.2,0.1,0.3v0.1
				C129.3,180.4,129.4,180.5,129.6,180.6L129.6,180.6z"/>
			<g class="st18">
				<path d="M129.6,180.6l0.3,0.4l0,0c0.1,0.1,0.2,0.2,0.4,0.4l0.1,0.1c0.1,0.1,0.2,0.2,0.4,0.3l0.1,0.1c0.2,0.1,0.3,0.2,0.5,0.4
					c3.8,1.9,8.3,1.9,12.1,0l0.6-0.4l0.1-0.1l0.4-0.3l0.1-0.1c0.1-0.1,0.3-0.2,0.4-0.4l0,0c0.1-0.1,0.2-0.3,0.3-0.4l0,0
					c0.1-0.1,0.2-0.3,0.2-0.4v-0.1c0.1-0.1,0.1-0.2,0.1-0.4v-0.1c0.1-0.3,0.1-0.6,0.1-0.9c0,0,0-0.1,0-0.1c0-0.1,0-0.2,0-0.3
					c0,0,0-0.1,0-0.1c0-0.1,0-0.2-0.1-0.3v-0.1c-0.1-0.1-0.1-0.3-0.2-0.4c0,0,0-0.1-0.1-0.1c-0.1-0.1-0.1-0.2-0.2-0.3l-0.1-0.1
					c0,0-0.1-0.1-0.1-0.1l-0.1-0.2l-0.1-0.1c-1.8-2.1-4.5-2.8-7.5-2.8s-5.7,0.7-7.5,2.8l-0.1,0.1l-0.1,0.2l-0.1,0.1l-0.1,0.2l0,0.3
					c0,0-0.1,0.1-0.1,0.1c-0.1,0.1-0.1,0.3-0.2,0.4l0,0.1c0,0.1-0.1,0.2-0.1,0.3c0,0.1,0,0.1,0,0.2c0,0.1,0,0.2,0,0.3v0.1
					c0,0.1,0,0.3,0,0.4l0,0c0,0.1,0.1,0.4,0.1,0.4s0,0,0,0.1s0.1,0.2,0.1,0.3v0.1C129.3,180.4,129.4,180.5,129.6,180.6L129.6,180.6z
					"/>
			</g>
			<path class="st2" d="M137.1,175.9c-0.3,0-0.6,0.2-0.7,0.4c-0.7,1.8-1.3,3.6-1.8,5.4c0,0,0,0.1,0,0.1c-0.1,0.4,0.2,0.8,0.6,0.9
				c1.5,0.3,3.1,0.3,4.6,0c0,0,0.1,0,0.1,0c0.4-0.1,0.6-0.5,0.5-0.9c-0.5-1.9-1.1-3.7-1.8-5.4c-0.1-0.3-0.4-0.5-0.7-0.4h-0.4H137.1z
				"/>
			<path class="st2" d="M135.7,175.5c-0.4-0.1-0.8,0-1.1,0.2c-1.5,1-2.9,2.3-4,3.7c-0.2,0.4-0.2,0.9,0.1,1.2c0.7,0.5,1.4,1,2.2,1.3
				c0,0,0.1,0,0.1,0c0.4,0.1,0.8-0.1,0.9-0.5c0.5-1.7,1.1-3.4,1.8-5.1C136,176,136,175.6,135.7,175.5z"/>
			<path class="st2" d="M135,174.8c0-0.1-0.4-0.2-0.8-0.1c-1.4,0.4-2.8,1.1-3.9,2.1c-0.4,0.3-0.7,0.8-0.7,1.3c0,0.2,0,0.4,0.1,0.6
				c0.1,0.4,0.5,0.5,0.8,0.1c1.1-1.4,2.5-2.5,4-3.5C134.7,175.2,135,175,135,174.8z"/>
			<path class="st2" d="M134.2,174.5c-1.4,0.3-2.7,0.9-3.9,1.9c-0.4,0.3-0.5,0.2-0.2-0.1c0.3-0.4,0.7-0.7,1.1-1.1
				c0.8-0.6,1.8-1.1,2.9-1.2c0.2,0,0.4,0,0.6,0c0.3,0,0.5,0.1,0.4,0.2C134.8,174.4,134.5,174.5,134.2,174.5z"/>
			<path class="st2" d="M139.2,175.5c0.4-0.1,0.7,0,1,0.2c1.6,1,2.9,2.3,4,3.7c0.2,0.4,0.2,0.9-0.1,1.2c-0.7,0.5-1.4,1-2.2,1.3
				c0,0-0.1,0-0.1,0c-0.4,0.1-0.8-0.2-0.9-0.6c-0.5-1.7-1.1-3.4-1.8-5.1C138.9,176,138.9,175.6,139.2,175.5z"/>
			<path class="st2" d="M139.9,174.8c0-0.1,0.4-0.2,0.8-0.1c1.4,0.4,2.8,1.1,3.9,2.1c0.4,0.3,0.7,0.8,0.7,1.3c0,0.2,0,0.4-0.1,0.6
				c-0.1,0.4-0.5,0.5-0.8,0.1c-1.1-1.4-2.5-2.5-4-3.5C140.1,175.2,139.9,175,139.9,174.8z"/>
			<path class="st2" d="M140.7,174.5c1.4,0.3,2.7,0.9,3.9,1.9c0.4,0.3,0.5,0.2,0.2-0.1c-0.3-0.4-0.7-0.7-1.1-1.1
				c-0.8-0.6-1.8-1.1-2.9-1.2c-0.2,0-0.4,0-0.6,0c-0.3,0-0.5,0.1-0.4,0.2C140.1,174.4,140.4,174.5,140.7,174.5z"/>
			<path class="st2" d="M128.1,159.3c0,0,0-0.1,0-0.1c0-0.4,0.3-0.7,0.7-0.8s0.7,0.3,0.8,0.7c0.1,0.4,0.4,0.7,0.8,0.8
				c0.1,0,0.2-0.2,0.2-0.4c0.2-1.4-1-4-4.8-7c-4.6-3.7-8.5-7.1-8.8-12.2c-0.1-2.3,0.9-4.2,2.5-4.7c0.8-0.3,2.9-0.6,5.2,2.8
				c1,1.4,1.5,3.7,0.6,4.7c-0.5,0.5-1.2,0.6-1.8,0.3c-0.4-0.2-0.5-0.6-0.3-0.9c0.2-0.4,0.6-0.5,0.9-0.3l0.2,0.1
				c0.1-1-0.1-2.1-0.8-2.9c-1.2-1.7-2.6-2.6-3.6-2.2s-1.6,1.7-1.5,3.3c0.2,4.5,3.9,7.7,8.2,11.2c5.1,4.1,5.4,7.1,5.3,8.3
				c0,0.9-0.7,1.6-1.5,1.6h-0.1C129.2,161.2,128.3,160.4,128.1,159.3z"/>
			<g class="st19">
				<path d="M128.1,159.3c0,0,0-0.1,0-0.1c0-0.4,0.3-0.7,0.7-0.8s0.7,0.3,0.8,0.7c0.1,0.4,0.4,0.7,0.8,0.8c0.1,0,0.2-0.2,0.2-0.4
					c0.2-1.4-1-4-4.8-7c-4.6-3.7-8.5-7.1-8.8-12.2c-0.1-2.3,0.9-4.2,2.5-4.7c0.8-0.3,2.9-0.6,5.2,2.8c1,1.4,1.5,3.7,0.6,4.7
					c-0.5,0.5-1.2,0.6-1.8,0.3c-0.4-0.2-0.5-0.6-0.3-0.9c0.2-0.4,0.6-0.5,0.9-0.3l0.2,0.1c0.1-1-0.1-2.1-0.8-2.9
					c-1.2-1.7-2.6-2.6-3.6-2.2s-1.6,1.7-1.5,3.3c0.2,4.5,3.9,7.7,8.2,11.2c5.1,4.1,5.4,7.1,5.3,8.3c0,0.9-0.7,1.6-1.5,1.6h-0.1
					C129.2,161.2,128.3,160.4,128.1,159.3z"/>
			</g>
			<path class="st2" d="M121.7,144.7c0,7.8,2.7,11.7,5.8,16.3c3.7,5.5,8.6,9.4,8.7,13.3l0,0c0,0.2,0.2,0.4,0.4,0.5
				c0.6,0.3,1.2,0.3,1.8,0c0.2-0.1,0.4-0.3,0.4-0.5c0.2-3.9,5.1-7.7,8.7-13.3c3.1-4.7,5.7-8.6,5.7-16.3L121.7,144.7z"/>
			<path class="st8" d="M153.1,144.7h-1c-1.5,0.6-4.9,2.6-4.9,2.6c0,5.7-1.8,11.3-5.2,15.9c-2.5,3.4-3.9,7.5-4,11.8
				c0.1,0,0.3-0.1,0.4-0.1c0.2-0.1,0.4-0.3,0.4-0.5c0.2-3.9,5.1-7.7,8.7-13.3c3.1-4.6,5.7-8.6,5.7-16.2
				C153.2,144.8,153.1,144.7,153.1,144.7z"/>
			<path class="st2" d="M148.6,138.3c-6.2-3.6-16.1-3.6-22.3,0c-6.1,3.6-6.2,9.3,0,12.9c6.2,3.5,16.1,3.5,22.3,0
				C154.7,147.6,154.7,141.9,148.6,138.3z"/>
			<path class="st20" d="M148.6,138.3c-6.2-3.6-16.1-3.6-22.3,0c-6.1,3.6-6.2,9.3,0,12.9c6.2,3.5,16.1,3.5,22.3,0
				C154.7,147.6,154.7,141.9,148.6,138.3z"/>
			<path class="st2" d="M146.4,139.5c-4.9-2.9-13-2.9-18,0c-5,2.9-4.9,7.6,0,10.4c4.9,2.9,13,2.9,18,0
				C151.4,147.1,151.4,142.4,146.4,139.5z"/>
			<path class="st3" d="M146.4,139.5c-4.9-2.9-13-2.9-18,0c-5,2.9-4.9,7.6,0,10.4c4.9,2.9,13,2.9,18,0
				C151.4,147.1,151.4,142.4,146.4,139.5z"/>
			<path class="st3" d="M143.5,151.2c1-0.3,2-0.7,3-1.3c5-2.9,5-7.5,0-10.4c-1.2-0.7-2.5-1.2-3.9-1.5
				C145,139.3,147,145.2,143.5,151.2z"/>
			<path class="st2" d="M144.2,169.4c-1.1-0.1-2.4-1.7-2.5-3.3c-0.2-1,0.2-2,0.9-2.6c1-0.8,2.7-0.8,5,0.1c2.6,1,5.3,1.8,6.6,1
				c0.6-0.6,1-1.4,0.9-2.3c-0.1-2.9-1.3-5.6-3.4-7.6c-0.6-0.6-1.4-0.8-2.2-0.6c-0.2,0.1-0.3,0.3-0.4,0.7c-0.1,0.9,0.2,1.7,0.9,2.2
				c0.3,0.2,0.4,0.7,0.2,1c-0.2,0.3-0.7,0.4-1,0.2c-1.2-0.8-1.7-2.2-1.5-3.6c0.1-0.8,0.6-1.6,1.4-1.9c1.2-0.3,2.5,0.1,3.4,0.9
				c2.5,2.3,3.9,5.5,3.9,8.8c0.1,1.3-0.5,2.6-1.5,3.4c-1.8,1.1-4.6,0.3-7.9-0.9c-2.4-0.9-3.3-0.6-3.7-0.3c-0.4,0.4-0.5,0.9-0.4,1.4
				c0.1,0.8,0.5,1.5,1.1,2c0.2-0.2,0.5-0.3,0.7-0.3c0.4,0.1,0.6,0.5,0.5,0.8C145.2,169,144.8,169.4,144.2,169.4L144.2,169.4z"/>
			<g class="st5">
				<path d="M144.2,169.4c-1.1-0.1-2.4-1.7-2.5-3.3c-0.2-1,0.2-2,0.9-2.6c1-0.8,2.7-0.8,5,0.1c2.6,1,5.3,1.8,6.6,1
					c0.6-0.6,1-1.4,0.9-2.3c-0.1-2.9-1.3-5.6-3.4-7.6c-0.6-0.6-1.4-0.8-2.2-0.7c-0.2,0.1-0.3,0.3-0.4,0.7c-0.1,0.9,0.2,1.7,0.9,2.2
					c0.3,0.2,0.4,0.7,0.2,1c-0.2,0.3-0.7,0.4-1,0.2c-1.2-0.8-1.7-2.2-1.5-3.6c0.1-0.8,0.6-1.6,1.4-1.9c1.2-0.3,2.5,0.1,3.4,0.9
					c2.5,2.3,3.9,5.5,3.9,8.8c0.1,1.3-0.5,2.6-1.5,3.4c-1.8,1.1-4.6,0.3-7.9-0.9c-2.4-0.9-3.3-0.6-3.7-0.3c-0.4,0.4-0.5,0.9-0.4,1.4
					c0.1,0.8,0.5,1.5,1.1,2c0.2-0.2,0.5-0.3,0.7-0.3c0.4,0.1,0.6,0.5,0.5,0.8C145.2,169,144.8,169.4,144.2,169.4L144.2,169.4z"/>
			</g>
		</g>
		<path class="st12" d="M168.9,128l8.4,18.7c0,0-9.8,6.4-12.9,8c-0.8,0.5-1.7,0.8-2.6,1.1c-0.3,0.1-0.7,0.2-1,0.3
			c-0.5,0-1.1-0.1-1.6-0.3c-1.4-0.4-2.9-0.6-4.4-0.6c-0.2,0-0.4,0.1-0.6,0.2c0,0,0.5,0.8,0.6,1c0.2,0.3,0.3,0.6,0.4,0.8
			c0.2,0.3,0.4,0.7,0.2,1c-0.2,0.4-0.6,0.5-0.9,0.4c-0.3-0.1-0.3-0.3-0.5-0.7s-0.5-0.9-0.6-1.1s-0.4-0.6-0.4-0.6
			c-0.3-0.1-0.5,0.3-0.7,0.5c-0.6,0.6-1.1,1.3-1.5,2c-0.4,1.1-0.5,2.3-0.3,3.5c0.2,1.6,0.3,3.7,1.5,4.8c1.1,1,2.5,1.6,3.9,1.8
			c0.8,0.2,1.7,0.3,2.6,0.2c2.3-0.5,4-2.4,6-3.6c1.7-1.2,3.5-2.2,5.4-3.1c2.2-0.9,8.6-3.4,9.7-3.9c2.7-1.2,5.8-2.5,7.9-3.7
			c3.2-1.8,4.2-2.9,2.9-7.5s-7.9-22.7-9.9-27.6c-2.1-5.1-4.1-7.4-10.4-7.4C166,114.9,168.9,128,168.9,128z"/>
	</g>
</g>
<g id="freepik--podium-2--inject-2">
	<g id="freepik--podium--inject-2">
		<polygon class="st2" points="171.1,370.7 171.1,309.9 254.5,358.1 254.5,418.9 		"/>
		<polygon class="st21" points="171.1,370.7 171.1,309.9 254.5,358.1 254.5,418.9 		"/>
		<polygon class="st2" points="254.5,358.1 254.5,418.9 315.9,383.4 315.9,322.6 		"/>
		<polygon class="st10" points="254.5,358.1 254.5,418.9 315.9,383.4 315.9,322.6 		"/>
		<path class="st8" d="M252.2,365.7c0.7,0.4,1.5,0.6,2.3,0.6c0.8,0,1.6-0.2,2.3-0.6l59.1-34.1v-9l-61.4,35.5l-83.4-48.1v9
			L252.2,365.7z"/>
		<path class="st2" d="M163.7,309.9c0.1,0.6,0.4,1.1,1,1.4l87.5,50.5c1.5,0.7,3.2,0.7,4.7,0l65.5-37.8c0.6-0.2,0.9-0.8,1-1.4v-10.1
			c-0.1-0.6-0.4-1.1-1-1.4l-87.5-50.5c-1.5-0.7-3.2-0.7-4.7,0l-65.5,37.8c-0.6,0.2-0.9,0.7-1,1.4L163.7,309.9z"/>
		<path class="st8" d="M322.4,311.1l-72.3-41.7l4.4,92.9c0.8,0,1.6-0.2,2.3-0.6l65.5-37.8c0.6-0.2,0.9-0.8,1-1.4v-10.1
			C323.3,311.9,322.9,311.3,322.4,311.1z"/>
		<path class="st7" d="M254.5,362.3l-4.4-92.9l-15.2-8.8c-1.5-0.7-3.2-0.7-4.7,0l-65.5,37.8c-0.6,0.2-0.9,0.7-1,1.4v10.1
			c0.1,0.6,0.4,1.1,1,1.4l87.5,50.5C252.9,362.2,253.7,362.4,254.5,362.3z"/>
		<path class="st2" d="M164.7,301.1l87.5,50.5c1.5,0.7,3.2,0.7,4.7,0l65.5-37.8c1.3-0.8,1.3-2,0-2.7l-87.5-50.5
			c-1.5-0.7-3.2-0.7-4.7,0l-65.5,37.8C163.4,299.2,163.4,300.4,164.7,301.1z"/>
	</g>
	<ellipse id="freepik--shadow--inject-2_2_" class="st11" cx="247.1" cy="308.6" rx="37.3" ry="21.5"/>
</g>
<g id="freepik--character-2--inject-2">
	<g id="freepik--character--inject-2">
		<path class="st22" d="M220.8,108.9c0.1,2.6,0.7,5.1,1.7,7.5c5.8,13.2,14.6,22.4,18.5,31c5.7,0.1,14.3-8.8,10.5-14.9
			c-4.7-2.4-17-18.1-18.4-25.2c-0.9-4.7-3.3-15.3-2.7-20.7c0.1-0.9,0.5-1.7,1.2-2.3c1.9-1.8,2-3.3,3.3-5.3c1-1.6,2-2.1,1.7-2.5
			c-0.7-0.9-1.9-1-2.8-0.4c-0.8,0.5-1.6,1.2-2.3,1.9c0.2-1,0.7-1.9,1.4-2.6c0.4-0.3,0.6-0.7,0.8-1.2c0.1-0.5,0.1-1.1-0.1-1.6
			c-0.3-0.8-0.9-1.5-1.7-2c-1.7-1-3.7-1.4-5.6-1.2c-0.8,0.1-1.6,0.5-2.2,1c-0.3,0.2-0.5,0.4-0.7,0.7c-0.2,0.4-0.4,0.8-0.5,1.2
			c-0.6,1.8-1,3.6-1.2,5.4c-0.3,2.6-0.5,5.5-0.8,11.5C220.4,95.9,220.4,102.4,220.8,108.9z"/>
		<path class="st23" d="M225.5,71.2c1,0,2,0,3,0.1c1.1,0,2.3,0.2,3.4,0.4c0.6,0.1,1.6,0.3,1.9,1c0.1,0.5,0.1,0.9,0.1,1.4
			c0.1,0.6,0.3,1.1,0.4,1.7c0.2,1.6-0.7,3.2-2.2,3.9c-0.9,0.4-1.8,0.4-2.7,0.2c-0.4-0.1-0.8-0.3-1.2-0.4s-1-0.2-1.5-0.3
			c-0.5-0.1-1.1-0.3-1.5-0.6c-0.3-0.3-0.5-0.6-0.8-0.8s-0.6-0.3-0.9-0.5c-0.8-0.7-0.7-2.3-0.6-3.3c0.1-0.4,0.3-0.9,0.3-1.3
			s-0.1-0.7,0.1-1.1c0.2-0.3,0.5-0.4,0.8-0.4C224.5,71.2,225,71.2,225.5,71.2z"/>
		<g id="freepik--trophy--inject-2">
			<path class="st13" d="M214.4,87.7l-4.7-21.3l-24,21.8c0.2,0.3,0.6,0.5,0.9,0.6l19.6,6.3c0.2,0.1,0.5,0.1,0.8-0.1l7.3-6.6
				C214.4,88.2,214.5,87.9,214.4,87.7z"/>
			<path class="st15" d="M185.8,88.2l24-21.8l-0.2-1c-0.2-0.7-0.7-1.3-1.4-1.6l-19.6-6.3c-0.2-0.1-0.5-0.1-0.8,0.1l-7.3,6.6
				c-0.2,0.2-0.2,0.5-0.2,0.7l4.9,22.3C185.3,87.6,185.5,88,185.8,88.2z"/>
			<path class="st14" d="M192.5,80.7l-4.9-22.3c-0.1-0.7,0.3-1,0.9-0.8l19.6,6.3c0.7,0.3,1.2,0.8,1.4,1.6l4.9,22.3
				c0.1,0.7-0.3,1-0.9,0.8l-19.6-6.3C193.2,82,192.7,81.4,192.5,80.7z"/>
			<path class="st2" d="M192.5,67.1c0,0.2-0.1,0.5-0.1,0.7c0,0,0,0,0,0.1c0,0.2,0,0.4,0,0.6v0.2c0,0.2,0,0.4,0,0.6
				c0,0.1,0,0.1,0,0.2c0,0.3,0.1,0.5,0.1,0.8c1.5,5.3,5.3,9.5,10.5,11.5c0.3,0.1,0.6,0.2,0.8,0.2h0.1c0.2,0,0.4,0.1,0.6,0.1h0.2
				c0.2,0,0.4,0,0.7,0h0c0.2,0,0.5,0,0.7,0l0,0c0.2,0,0.4-0.1,0.6-0.1h0.1l0.5-0.2h0.1c0.4-0.1,0.7-0.4,1-0.6l0.1-0.1
				c0.1-0.1,0.2-0.2,0.3-0.3l0.1-0.1c0.1-0.1,0.2-0.2,0.2-0.3l0.1-0.2c0.1-0.2,0.2-0.3,0.2-0.5c0,0,0-0.1,0-0.2
				c0.1-0.1,0.1-0.3,0.1-0.4c0-0.1,0-0.2,0-0.2c0-0.1,0-0.1,0-0.2v-0.3c0,0,0-0.1,0-0.1c0.4-3.6-1.2-6.7-3.8-9.6s-5.6-4.8-9.2-4.7
				h-0.4h-0.2h-0.3l-0.4,0.1l-0.2,0c-0.2,0-0.4,0.1-0.5,0.2l-0.2,0.1l-0.3,0.2l-0.2,0.1c-0.1,0.1-0.2,0.2-0.3,0.2l-0.1,0.1
				c-0.1,0.1-0.3,0.3-0.4,0.4l0,0c-0.1,0.1-0.2,0.3-0.3,0.5c0,0-0.1,0.1-0.1,0.1c-0.1,0.1-0.1,0.3-0.2,0.4c0,0,0,0.1,0,0.1
				c-0.1,0.2-0.1,0.4-0.2,0.6C192.4,67,192.4,67.1,192.5,67.1z"/>
			<g class="st18">
				<path d="M192.5,67.1c0,0.2-0.1,0.5-0.1,0.7c0,0,0,0,0,0.1c0,0.2,0,0.4,0,0.6v0.2c0,0.2,0,0.4,0,0.6c0,0.1,0,0.1,0,0.2
					c0,0.3,0.1,0.5,0.1,0.8c1.5,5.3,5.3,9.5,10.5,11.5c0.3,0.1,0.6,0.2,0.8,0.2h0.1c0.2,0,0.4,0.1,0.6,0.1h0.2c0.2,0,0.4,0,0.7,0h0
					c0.2,0,0.5,0,0.7,0l0,0c0.2,0,0.4-0.1,0.6-0.1h0.1l0.5-0.2h0.1c0.4-0.1,0.7-0.4,1-0.6l0.1-0.1c0.1-0.1,0.2-0.2,0.3-0.3l0.1-0.1
					c0.1-0.1,0.2-0.2,0.2-0.3l0.1-0.2c0.1-0.2,0.2-0.3,0.2-0.5c0,0,0-0.1,0-0.2c0.1-0.1,0.1-0.3,0.1-0.4c0-0.1,0-0.2,0-0.2
					c0-0.1,0-0.1,0-0.2v-0.3c0,0,0-0.1,0-0.1c0.4-3.6-1.2-6.7-3.8-9.6s-5.6-4.8-9.2-4.7h-0.4h-0.2h-0.3l-0.4,0.1l-0.2,0
					c-0.2,0-0.4,0.1-0.5,0.2l-0.2,0.1l-0.3,0.2l-0.2,0.1c-0.1,0.1-0.2,0.2-0.3,0.2l-0.1,0.1c-0.1,0.1-0.3,0.3-0.4,0.4l0,0
					c-0.1,0.1-0.2,0.3-0.3,0.5c0,0-0.1,0.1-0.1,0.1c-0.1,0.1-0.1,0.3-0.2,0.4c0,0,0,0.1,0,0.1c-0.1,0.2-0.1,0.4-0.2,0.6
					C192.4,67,192.4,67.1,192.5,67.1z"/>
			</g>
			<path class="st2" d="M203.5,70c-0.2-0.3-0.6-0.4-1-0.3c-2.3,0.9-4.6,1.9-6.8,3c0,0,0,0,0,0c-0.5,0.3-0.6,0.9-0.4,1.4
				c0.5,0.8,1.1,1.6,1.8,2.4c0.7,0.7,1.4,1.4,2.2,2c0,0,0,0,0,0c0.5,0.3,1.1,0.2,1.4-0.3c1.3-2.1,2.5-4.2,3.6-6.5
				c0.2-0.3,0.1-0.7-0.2-1l-0.3-0.3C203.7,70.3,203.6,70.2,203.5,70z"/>
			<path class="st2" d="M202.7,68.5c-0.2-0.4-0.7-0.7-1.1-0.8c-2.3-0.6-4.7-0.8-7.1-0.6c-0.6,0.1-1,0.6-1.1,1.2
				c0.1,1.1,0.3,2.2,0.7,3.2c0,0,0,0,0,0c0.2,0.5,0.8,0.7,1.3,0.5c2.1-1,4.2-1.9,6.4-2.7C202.4,69.2,202.8,68.8,202.7,68.5z"/>
			<path class="st2" d="M202.7,67.2c0.1-0.1-0.2-0.5-0.6-0.8c-1.6-1-3.5-1.7-5.4-1.9c-0.7-0.1-1.4,0.1-1.9,0.4
				c-0.2,0.2-0.4,0.4-0.5,0.6c-0.3,0.5,0,0.8,0.6,0.8c2.3-0.1,4.6,0.2,6.8,0.8C202.1,67.3,202.6,67.3,202.7,67.2z"/>
			<path class="st2" d="M202.3,66.2c-1.5-1.1-3.3-1.8-5.1-2.1c-0.6-0.1-0.6-0.2-0.1-0.3c0.7,0,1.3,0,2,0.2c1.3,0.3,2.6,0.8,3.7,1.7
				c0.2,0.2,0.4,0.3,0.5,0.5c0.3,0.3,0.3,0.6,0.1,0.6C202.9,66.7,202.6,66.5,202.3,66.2z"/>
			<path class="st2" d="M205.6,71.8c0.4,0.3,0.7,0.7,0.7,1.2c0.4,2.3,0.4,4.7-0.1,7.1c-0.1,0.6-0.7,1-1.3,0.9
				c-1.1-0.2-2.1-0.5-3.1-1c0,0,0,0,0,0c-0.5-0.3-0.6-0.9-0.3-1.4c1.2-2,2.3-4,3.2-6.1C205,72,205.4,71.7,205.6,71.8z"/>
			<path class="st2" d="M207,71.9c0.1-0.1,0.5,0.2,0.8,0.7c0.9,1.7,1.3,3.6,1.4,5.6c0,0.7-0.2,1.3-0.6,1.9c-0.2,0.2-0.4,0.3-0.7,0.5
				c-0.5,0.3-0.9-0.1-0.8-0.7c0.3-2.3,0.3-4.6-0.1-6.9C206.8,72.5,206.8,72,207,71.9z"/>
			<path class="st2" d="M208,72.4c0.9,1.6,1.5,3.4,1.6,5.3c0,0.6,0.2,0.6,0.3,0.1c0.1-0.7,0.1-1.3,0-2c-0.1-1.4-0.6-2.7-1.3-3.8
				c-0.1-0.2-0.3-0.4-0.5-0.6c-0.3-0.3-0.6-0.4-0.6-0.2C207.5,71.7,207.7,72.1,208,72.4z"/>
			<path class="st2" d="M211.5,47.2c0.3-0.4,0.9-0.5,1.3-0.2c0.4,0.3,0.5,0.9,0.2,1.3c-0.3,0.4-0.4,1-0.1,1.5c0.1,0.1,0.3,0,0.5-0.1
				c1.5-1.1,3-4.5,2.5-10.6c-0.5-7.6-0.6-14.3,4.1-18.9c2.1-2.1,4.7-2.8,6.7-1.7c0.9,0.5,3.1,2.3,1.9,7.4c-0.5,2.2-2.2,4.6-3.9,4.7
				c-0.9,0-1.7-0.6-1.8-1.5c-0.1-0.5,0.1-1,0.6-1.1c0.5-0.1,1,0.1,1.1,0.6c0,0.1,0,0.1,0.1,0.2c1.1-0.8,1.9-1.9,2.1-3.2
				c0.6-2.7,0.2-4.7-1-5.4s-3-0.1-4.5,1.4c-4.1,4.1-4,10.3-3.5,17.5c0.6,8.4-2.1,11.3-3.3,12.2c-0.8,0.7-2.1,0.7-2.9-0.1l-0.1-0.1
				C210.6,49.9,210.6,48.3,211.5,47.2z"/>
			<g class="st19">
				<path d="M211.5,47.2c0.3-0.4,0.9-0.5,1.3-0.2c0.4,0.3,0.5,0.9,0.2,1.3c-0.3,0.4-0.4,1-0.1,1.5c0.1,0.1,0.3,0,0.5-0.1
					c1.5-1.1,3-4.5,2.5-10.6c-0.5-7.6-0.6-14.3,4.1-18.9c2.1-2.1,4.7-2.8,6.7-1.7c0.9,0.5,3.1,2.3,1.9,7.4c-0.5,2.2-2.2,4.6-3.9,4.7
					c-0.9,0-1.7-0.6-1.8-1.5c-0.1-0.5,0.1-1,0.6-1.1c0.5-0.1,1,0.1,1.1,0.6c0,0.1,0,0.1,0.1,0.2c1.1-0.8,1.9-1.9,2.1-3.2
					c0.6-2.7,0.2-4.7-1-5.4s-3-0.1-4.5,1.4c-4.1,4.1-4,10.3-3.5,17.5c0.6,8.4-2.1,11.3-3.3,12.2c-0.8,0.7-2.1,0.7-2.9-0.1l-0.1-0.1
					C210.6,49.9,210.6,48.3,211.5,47.2z"/>
			</g>
			<path class="st2" d="M219.9,28.5c-7.4,6.7-8.8,12.6-10.6,19.6c-2.1,8.3-1.4,16.3-5.1,19.8l0,0c-0.2,0.2-0.3,0.5-0.2,0.8
				c0.2,0.8,0.8,1.4,1.6,1.7c0.3,0.1,0.6,0.1,0.8-0.1c3.9-3.2,11.8-1.9,20.2-3.2c7.1-1.1,13.2-2,20.5-8.7L219.9,28.5z"/>
			<path class="st8" d="M247.1,58.5l-0.9-1c-2-0.9-6.8-2.4-6.8-2.4c-5.4,4.9-12.3,8-19.6,8.8c-5.4,0.6-10.5,2.8-14.7,6.3
				c0.1,0.1,0.3,0.2,0.5,0.2c0.3,0.1,0.6,0.1,0.8-0.1c3.9-3.2,11.8-1.9,20.2-3.2C233.7,66.1,239.7,65.2,247.1,58.5L247.1,58.5z"/>
			<path class="st2" d="M249.3,48.5c-1.9-8.9-10.6-18.4-19.3-21.2s-14.2,2.2-12.2,11.1s10.6,18.4,19.3,21.2
				C245.7,62.4,251.2,57.5,249.3,48.5z"/>
			<path class="st20" d="M249.3,48.5c-1.9-8.9-10.6-18.4-19.3-21.2s-14.2,2.2-12.2,11.1s10.6,18.4,19.3,21.2
				C245.7,62.4,251.2,57.5,249.3,48.5z"/>
			<path class="st2" d="M246.3,47.6c-1.6-7.2-8.6-14.9-15.6-17.2s-11.5,1.8-9.9,9s8.6,14.9,15.6,17.2
				C243.4,58.8,247.9,54.8,246.3,47.6z"/>
			<path class="st3" d="M246.3,47.6c-1.6-7.2-8.6-14.9-15.6-17.2s-11.5,1.8-9.9,9s8.6,14.9,15.6,17.2
				C243.4,58.8,247.9,54.8,246.3,47.6z"/>
			<path class="st3" d="M232.6,54.9c1.2,0.7,2.5,1.3,3.8,1.7c7.1,2.3,11.5-1.8,9.9-9c-0.4-1.7-1-3.4-1.9-5
				C245.3,45.9,241.4,53,232.6,54.9z"/>
			<path class="st2" d="M215.7,71.3c-0.9-1.2-0.4-3.8,1-5.3c0.8-1,2-1.5,3.3-1.4c1.6,0.3,3.1,1.9,4.3,4.8c1.4,3.4,2.9,6.7,4.8,7.2
				c0.9,0.2,1.9-0.1,3-1.1c2.7-2.6,4.3-6.1,4.3-9.8c0-1-0.4-2-1.3-2.6c-0.2-0.1-0.6,0-1,0.2c-0.9,0.6-1.5,1.7-1.4,2.8
				c0.1,0.5-0.3,1-0.8,1c-0.5,0.1-1-0.3-1-0.8c-0.2-1.8,0.6-3.6,2.1-4.6c0.9-0.7,2-0.8,3-0.3c1.3,0.9,2.1,2.4,2.1,4
				c0,4.3-1.8,8.4-5,11.3c-1.6,1.3-3.1,1.8-4.6,1.4c-2.7-0.7-4.3-4.1-6-8.2c-1.3-3-2.4-3.7-2.9-3.8c-0.6,0-1.3,0.3-1.6,0.8
				c-0.6,0.7-1,1.7-0.9,2.7c0.4,0,0.7,0.1,0.9,0.5c0,0,0,0,0,0c0.2,0.4,0.1,1-0.4,1.2c-0.6,0.4-1.4,0.3-1.9-0.2
				C215.8,71.3,215.7,71.3,215.7,71.3z"/>
			<g class="st5">
				<path d="M215.7,71.3c-0.9-1.2-0.4-3.8,1-5.3c0.8-1,2-1.5,3.3-1.4c1.6,0.3,3.1,1.9,4.3,4.8c1.4,3.4,2.9,6.7,4.8,7.2
					c0.9,0.2,1.9-0.1,3-1.1c2.7-2.6,4.3-6.1,4.3-9.8c0-1-0.4-2-1.3-2.6c-0.2-0.1-0.6,0-1,0.2c-0.9,0.6-1.5,1.7-1.4,2.8
					c0.1,0.5-0.3,1-0.8,1c-0.5,0.1-1-0.3-1-0.8c-0.2-1.8,0.6-3.6,2.1-4.6c0.9-0.7,2-0.8,3-0.3c1.3,0.9,2.1,2.4,2.1,4
					c0,4.3-1.8,8.4-5,11.3c-1.6,1.3-3.1,1.8-4.6,1.4c-2.7-0.7-4.3-4.1-6-8.2c-1.3-3-2.4-3.7-2.9-3.8c-0.6,0-1.3,0.3-1.6,0.8
					c-0.6,0.7-1,1.7-0.9,2.7c0.4,0,0.7,0.1,0.9,0.5c0,0,0,0,0,0c0.2,0.4,0.1,1-0.4,1.2c-0.6,0.4-1.4,0.3-1.9-0.2L215.7,71.3z"/>
			</g>
		</g>
		<path class="st13" d="M278.3,102.8c-1.9-3.7-6.6-7.4-10.8-4.7c-2.5,1.5-4.7,3.6-6.3,6.1c-2.2,3.5-3.6,7.4-4.1,11.5
			c-0.4,2.4-0.2,4.8-0.6,7.2c-0.3,2.3-0.4,4.7-0.1,7c1.3,13,11.2,23.5,24.2,25.5c2.9,0.5,6,0.4,8.8-0.5c3.5-1.1,6.2-3.9,7.1-7.5
			c0.6-2.5,0.1-5.2-1.4-7.3c0.3-0.1,0.6-0.2,1-0.4c2.8-1.3,3.9-4.7,2.6-7.4c-1-2-2.6-3.7-4.6-4.8c-1.9-1.2-4-2.1-5.9-3.3
			c-3.2-2-5.4-5.3-6.1-9c-0.9-3.9-1.6-7.9-3.3-11.6C278.6,103.4,278.4,103.1,278.3,102.8z"/>
		<path class="st22" d="M266.8,190.4l-22.5,47.5c5.6,8.9,6.7,13,8.5,25.4c2,13.9,4.6,26.1,4.6,26.1l0.5,3.9l0,0l0.1,0.2l0,0
			c0.1,2-2.6,8.1-4,12.1c-0.9,2.6-3.1,6.3-6.5,7.8c-3.3,1.4-5.3,0.9-3.8-2.3c0.6-1.1,1.2-2.2,1.6-3.3c1.5-3.2,2.5-6.6,3-10.1
			c0.3-2.3,0-4.7-0.9-6.9c0,0-10.4-25.8-16.7-42c-1.1-2.8-3.5-10.1-3.1-13c1.7-11.7,4.1-23.3,7.2-34.7c2-6.7,2.8-9.8,5.4-21
			L266.8,190.4z"/>
		<path class="st15" d="M256.4,301.9c-1.8,2-3.7,4-5.5,6c-0.8,1-1.8,2-2.8,2.9c-1.1,0.8-2.4,1.5-3.7,2c-1.6,0.6-3.2,1.1-4.8,1.6
			c-0.8,0.3-1.6,0.6-1.8,1.4c-0.1,0.7,0.2,1.5,0.8,1.9c1.4,1.1,3.1,1.7,4.9,1.7c2.3,0.2,4.7-0.2,6.8-1.2c1.1-0.4,2.1-1.1,2.9-1.9
			c0.3-0.4,0.5-0.8,0.7-1.2c0.3-0.5,0.5-1,0.7-1.5c0.8-2.4,2.1-6.3,3.4-8.1s4.4-3.8,5-6.7c0-0.8-0.3-1.6-0.7-2.3
			C261.7,296,256.8,301.5,256.4,301.9z"/>
		<path class="st14" d="M257,288.5l0.2,0.8c0,0.1,0,0.1,0,0.2c-0.1,2.3-2.1,4.1-4.4,4c-0.8-0.1-1.7-0.4-2.5-0.4
			c-1-0.2-1.9-0.1-2.9,0.2c-0.3,0.1-0.6,0.4-0.7,0.8c0,0.6,0.1,1.2,0.3,1.8c0.3,1.2-0.6,3.7-1.1,5.4c-0.8,2.5-1.5,4.8-3.5,6.6
			c-1.1,1-2.3,1.9-3.3,2.9c-0.7,0.6-1.2,1.4-1.6,2.2c-0.3,0.9-0.2,1.9,0.3,2.6c0.7,0.7,1.5,1.1,2.5,1.2c2.3,0.6,4.8,0.6,7.1,0.2
			c2.4-0.5,5-1.9,6-4.2c0.8-1.8,1.3-3.8,2.2-5.7c0.4-1.1,0.9-2.2,1.6-3.2c1.5-1.8,3.8-3.9,4.7-6.1c1.1-2.6-1.2-4.8-2.2-6.3
			C258.9,290,257.9,287.9,257,288.5z"/>
		<path class="st14" d="M227,234.1c-0.9,6.6,0.6,9.1,3.6,16.5s15,36.2,15,36.2s1.7,1.4,5.4,0c2.1-0.7,3.9-2.1,5.1-4
			c0,0-3.1-19-4.1-27s-5.3-16-7.2-17.8l23-48.4L240.2,179c-2.3,6-9.8,36.2-9.8,36.2C228.8,223.8,228,227.5,227,234.1z"/>
		<path class="st15" d="M250.8,221.3l-6,16.6l7.9-16.7l-3-20.7c-3.8-1.3-7.1-3.9-9.2-7.3c1.1,4.4,4,8.2,8,10.4L250.8,221.3z"/>
		<path class="st15" d="M309.7,226.3c1.8-0.8,2.9-2.5,3-4.4c0.3-3.5-1-6.9-3.5-9.4c-1.9-1.6-5.3-4-6.5-5.9s-1.6-5.1-3.6-7.5
			c-1.6-1.8-4-2.6-6.4-2c-1.1,0.5-2,1.4-2.6,2.5L309.7,226.3z"/>
		<path class="st14" d="M287.5,203.1c-0.4,0.6-0.6,1.2-0.2,1.6c1.7,1.4,2.2,8.1,2.5,8.8c0.3,0.8,2.5,1.6,4.6,2.6
			c0.2,0.1,0.4,0.2,0.6,0.3c1.7,1,3.3,2.2,4.8,3.6c1.1,1.1,2.1,2.3,2.9,3.7c0.4,0.7,0.9,1.4,1.4,2.1c0.1,0.2,0.3,0.4,0.5,0.6
			c1.4,1.4,3.7,1.4,5.1,0c1.5-1.3,2-4.2,1.9-6.2c-0.1-1.3-0.5-2.5-1-3.7c-0.5-1.1-1.1-2.1-1.8-3c-0.9-1.1-3.6-3.1-4.6-4.1
			c-0.9-0.8-1.8-1.7-2.4-2.7c-1.1-2-2.3-4.9-4.1-6.6c-2-1.9-4.9-2.3-6.5-1.6C289.4,199.4,287.9,202.5,287.5,203.1z"/>
		<path class="st22" d="M251.4,181.9l1,26.8c-0.2,5.4,0.2,10.9,1.1,16.2c1.6,9.9,3.4,16.4,5.8,21.8s9.1,6.2,12.2,3.6
			s3.2-8.7,3.8-16.8s1.7-24.9,1.9-32.1c0.2-10.8-0.8-16-3.8-25.2L251.4,181.9z"/>
		<path class="st22" d="M272.9,219.6c2.5-3,6.2-6.1,9.1-9.3c3.2-3.4,6-7,6-7s2.1-1.8,5.4,1.5c2.9,3,1.4,7.2,1.4,7.2
			s-11.1,22.1-16.4,30.4s-7.6,9.6-11.2,9.3C267.2,251.8,271.1,221.7,272.9,219.6z"/>
		<path class="st14" d="M280.1,212.4c2.2,0.4,4.3,1.4,6,2.9c2,1.8,3.3,4.2,3.6,6.9c0,0-6.6,14-9.5,18.4s-6.9,13.1-14,11.9
			s-8.8-6.7-12.4-24l-4.1-27.9c0,0-10.7-6-11-17.3l34.7-6.9c2.4,5.4,3.8,11.2,4.3,17.1c0.5,9.1-1.1,22.2-1.1,22.2L280.1,212.4z"/>
		<path class="st15" d="M278.9,213.6c-0.1,4.9-0.4,9.7-1.1,14.6c-0.5,5.1-1.6,10.1-3.2,14.9c0.9-7.1,2-27.3,2-27.3L278.9,213.6z"/>
		<path class="st2" d="M237.2,188.1c0,0,5.7,5.9,19.4,5.8c13-0.1,21.4-3,21.4-3c-0.8-11.1-5.7-18.4-6.8-20.8l1-5.4l5.1-10.7
			c0.8-3.9,0.9-8,0.5-11.9c-0.2-3.9,0-6.5-3.6-7.3c-1.4-0.3-5.5-1.1-11.4-1.8l-10.8-0.9c-3.9-0.2-8.2,4.8-12.7,13.8
			c-2.2,4.5-4,10.6,1.9,16.3c0,1.2-0.1,5.1,0,7.5L237.2,188.1z"/>
		<path class="st8" d="M256.9,165.9c-8.4,0-8.6-7.1-8.6-7.1c1.7,3.2,5,5.3,8.6,5.4c3.8,0.3,7.4-1.7,9.2-5.1
			C266.1,159.1,265.3,165.9,256.9,165.9z"/>
		<path class="st13" d="M244.2,103.4c-2,1.4-1.8,4.8-1.1,6.8c0.4,1,0.9,2,1.5,2.9c0.7,0.8,1.3,1.6,1.9,2.5c0.4,0.8,0.7,1.7,1.1,2.5
			c0.5,1,1.1,1.9,1.8,2.8c1.3,1.8,3.3,4.4,5.6,5.1c0.4,0.1,4.8,1,4.8,0.5c7.9,0.7,13.5-2,16.9-6.9c3.2-4.7,0.4-12.1-1.5-17.4
			c-2.9-8.4-8.2-9.7-16.2-10.5c-2.6-0.3-5.1-0.7-7.6-1.3c-1.8-0.4-3.8-0.9-5.5-0.2c-4.4,2-3.5,9.2-2,12.9
			C244.1,103.2,244.1,103.3,244.2,103.4z"/>
		<path class="st22" d="M257.2,109.9c2.2,1.6,4.8,2.5,7.6,2.4c1.3,3.2,3,3.2,3,3.2c0.2-0.3,0.4-0.6,0.7-0.9c1.6-1.5,4.2-1.4,5.7,0.2
			c1.6,2,0.5,5.2-1.9,7c-3,2.1-4.4,0.4-4.4,0.4l-1,11.7c-0.8,2.2-2.1,4-4,5.4c-2.9,1.9-7,3.5-10.1,2.8c-6.2-1.4,2.1-9,2.1-9l0.5-5.4
			c-2.8,0.2-5.7,0.3-7.1-0.4s-4.1-3.3-3.5-12.3c0.8-10.6,3.7-15.5,5.8-16.5C251.1,103,253.5,107.1,257.2,109.9z"/>
		<path class="st13" d="M256.6,113c0.1-0.6,0.7-1,1.4-0.9s1,0.7,0.9,1.4c0,0.1,0,0.1,0,0.2c-0.1,0.6-0.7,1-1.4,0.9s-1-0.7-0.9-1.4
			C256.6,113.2,256.6,113.1,256.6,113z"/>
		<path class="st24" d="M253.8,123.1C253.8,123.1,253.8,123.1,253.8,123.1c-1.4,0.3-2.7-0.6-3-2l5-1.1
			C256.1,121.4,255.2,122.8,253.8,123.1z"/>
		<path class="st23" d="M255.8,121.1c-0.2-0.1-0.5-0.1-0.8-0.1c-1.2,0-2.3,0.9-2.4,2.2c0.4,0.1,0.8,0.1,1.2,0
			C254.8,122.9,255.6,122.1,255.8,121.1z"/>
		<path class="st13" d="M247.2,106.8C247.3,106.8,247.3,106.8,247.2,106.8c0.7-0.4,1.5-0.1,1.9,0.6l-2.4,1.4
			C246.3,108.1,246.6,107.2,247.2,106.8z"/>
		<path class="st13" d="M260.4,108.8C260.5,108.8,260.5,108.8,260.4,108.8c0.7,0.4,0.9,1.2,0.6,1.9l-2.5-1.2
			C258.9,108.7,259.7,108.5,260.4,108.8z"/>
		<path class="st13" d="M248.3,111.1c0.6,0.1,1,0.6,1,1.3c-0.1,0.6-0.6,1.1-1.3,1c-0.6-0.1-1.1-0.6-1-1.3
			C247.1,111.5,247.7,111,248.3,111.1z"/>
		<polygon class="st23" points="248.2,117.3 251.7,118.7 252.5,111.9 		"/>
		<path class="st23" d="M255,129.5c0,0,6.1-1.2,8-2.5c1.1-0.7,1.9-1.7,2.4-2.8c-1.2,2.3-7.3,3.4-10.2,3.5L255,129.5z"/>
		<path class="st13" d="M264.8,112.3l-0.4,4.4c0,0,0,0,0,0c-0.2,1.8,1.1,3.3,2.9,3.5l0,0l0.4-4.7L264.8,112.3z"/>
		<path class="st22" d="M299.8,113.4c0.8-5.7,1.7-11.9,2.3-18.8c0.2-3.8,0.3-7.5,0.1-11.3c-0.6-8.9-3.8-11.8-7.5-12.8
			c-5.9-1.6-6.4,0.6-4.4,5c0.9,2.3,1.5,4.7,1.7,7.2c-0.6-0.8-1.3-1.5-2.1-2.1c-0.9-0.7-2.1-0.6-2.8,0.2c-0.3,0.4,0.7,1,1.6,2.6
			c1.1,2.1,1.1,3.6,2.9,5.5c0.6,0.6,1,1.5,1,2.4c0.1,5.3-2.9,16.4-5,22.8c-2.3,6.9-15.8,20.2-15.8,20.2c-4.2,5.9-3.6,20.2,5.7,19.7
			c5.5-10.4,11.6-15,19.8-31.6C298.4,119.5,299.3,116.5,299.8,113.4z"/>
		<path class="st22" d="M224.4,69.5c-0.1-0.2,0.5-0.5,0.6-0.5c0.3-0.1,0.7-0.3,1-0.3c0.7-0.1,1.5-0.1,2.2,0c1.2,0.2,2.4,0.5,3.5,1
			c0.6,0.2,1.1,0.4,1.6,0.8c0.5,0.5,0.9,1.1,1,1.8c0.1,0.5,0.2,1.1,0.3,1.7c0.1,0.5,0,1-0.1,1.4c-0.3,1.2-0.9,2.3-1.8,3.2
			c-0.9,0.9-2.2,1.2-3.4,0.8c-0.5-0.2-1.1-0.7-1.6-0.7c-0.3,0-0.5,0.1-0.8,0c-0.3,0-0.5-0.1-0.7-0.3c-0.4-0.3-0.8-0.6-1.1-0.9
			c-0.4-0.3-0.8-0.6-1.2-0.9c-0.4-0.5-0.6-1.1-0.5-1.7c0-0.6,0.2-1.2,0.5-1.7l0.3,0.5c0.6-0.1,0.9-0.7,0.9-1.3c0-0.1,0-0.2,0-0.4
			C225,71.1,224.8,70.2,224.4,69.5z"/>
	</g>
</g>
<g id="freepik--podium-1--inject-2">
	<g id="freepik--podium--inject-2_1_">
		<polygon class="st2" points="258.9,416.3 258.9,380.9 341.9,428.8 341.9,464.3 		"/>
		<polygon class="st9" points="258.9,416.3 258.9,380.9 341.9,428.8 341.9,464.3 		"/>
		<polygon class="st2" points="341.9,428.8 341.9,464.3 399,431.3 399,395.9 		"/>
		<polygon class="st25" points="341.9,428.8 341.9,464.3 399,431.3 399,395.9 		"/>
		<path class="st10" d="M339.6,436.5c1.5,0.7,3.2,0.7,4.7,0l54.7-31.6v-9l-57,32.9l-83-48v9L339.6,436.5z"/>
		<path class="st2" d="M257.9,384.6c0.1,0.6,0.4,1.1,1,1.4l80.7,46.6c1.5,0.7,3.2,0.7,4.7,0l61.1-35.3c0.6-0.2,0.9-0.8,1-1.4v-10.1
			c-0.1-0.6-0.4-1.1-1-1.4l-80.7-46.6c-1.5-0.7-3.2-0.7-4.7,0l-61.1,35.3c-0.6,0.2-0.9,0.8-1,1.4L257.9,384.6z"/>
		<path class="st3" d="M341.9,433.1l-4-87.7l-13.2-7.6c-1.5-0.7-3.2-0.7-4.7,0l-61.1,35.3c-0.6,0.2-0.9,0.7-1,1.4v10.1
			c0.1,0.6,0.4,1.1,1,1.4l80.7,46.6C340.3,432.9,341.1,433.1,341.9,433.1z"/>
		<path class="st9" d="M405.4,384.4l-67.5-39l4,87.7c0.8,0,1.6-0.2,2.3-0.6l61.1-35.3c0.6-0.2,0.9-0.8,1-1.4v-10.1
			C406.4,385.1,406,384.6,405.4,384.4z"/>
		<path class="st2" d="M258.9,375.8l80.7,46.6c1.5,0.7,3.2,0.7,4.7,0l61.1-35.3c1.3-0.8,1.3-2,0-2.7l-80.7-46.6
			c-1.5-0.7-3.2-0.7-4.7,0l-61.1,35.3C257.6,373.8,257.6,375,258.9,375.8z"/>
		<path class="st26" d="M258.9,375.8l80.7,46.6c1.5,0.7,3.2,0.7,4.7,0l61.1-35.3c1.3-0.8,1.3-2,0-2.7l-80.7-46.6
			c-1.5-0.7-3.2-0.7-4.7,0l-61.1,35.3C257.6,373.8,257.6,375,258.9,375.8z"/>
	</g>
	<ellipse id="freepik--shadow--inject-2_3_" class="st11" cx="340.9" cy="381.7" rx="39.7" ry="22.9"/>
</g>
<g id="freepik--character-1--inject-2">
	<g id="freepik--character--inject-2_1_">
		<path class="st24" d="M314.1,164c-0.4-5.7-0.7-12-0.8-18.9c0.1-3.8,0.3-7.5,0.9-11.3c1.3-8.8,4.7-11.5,8.5-12.1
			c6-1.1,6.3,1.2,4,5.4c-1.1,2.2-1.9,4.6-2.2,7c0.7-0.7,1.5-1.4,2.3-1.9c0.9-0.6,2.1-0.4,2.8,0.4c0.2,0.4-0.8,0.9-1.8,2.5
			c-1.3,2-1.4,3.5-3.3,5.2c-0.7,0.6-1.1,1.4-1.2,2.3c-0.6,5.3,1.6,16.6,3.1,23.1c1.7,7.1,16.9,23.2,16.9,23.2
			c3.8,6.2,0.5,17.6-8.7,16.5c-4.7-10.8-12.8-19.8-18.5-32.2C314.9,170.2,314.3,167.1,314.1,164z"/>
		<path class="st2" d="M331,207.6c0,0,0.1-4.9-4-11.3c-4.8-7.5-9.5-13.7-9.5-13.7c0.9-11.3,10.6-12.8,10.6-12.8s5.4,6.9,8.3,10
			c2.9,3.1,8.8,8.6,8.8,8.6C346.8,201.1,331,207.6,331,207.6z"/>
		<path class="st9" d="M331,207.6c0,0,0.1-4.9-4-11.3c-4.8-7.5-9.5-13.7-9.5-13.7c0.9-11.3,10.6-12.8,10.6-12.8s5.4,6.9,8.3,10
			c2.9,3.1,8.8,8.6,8.8,8.6C346.8,201.1,331,207.6,331,207.6z"/>
		<path class="st13" d="M346.4,391.4c-1.5,1.4-2.3,3.3-2.2,5.4c0.1,1.1,1.1,2.3,4.8,2.8c4.4,0.4,8.7-0.6,12.4-3
			c3.7-2.4,4.3-6,4.9-8.2s3.2-4,4.5-5.1c1.3-1.1,1.4-1.6,1-3.5C371.8,379.8,348.4,389.5,346.4,391.4z"/>
		<polygon class="st24" points="369.9,361.5 359.8,361.2 360.9,377.5 369.9,377.5 		"/>
		<polygon class="st24" points="342.4,345.8 331.8,346.1 333.1,363.7 342.4,365.6 		"/>
		<path class="st15" d="M329,247.1c0,0-2.1,52.7-2,58.4c0.1,5,5.2,51.5,5.2,51.5c3.4,1.1,7.2,0.8,10.4-0.8c0,0,2.7-32,3-37.4
			c0.3-4.4-0.1-8.8-1-13.1L349,274c0,0,2.4,29.3,3.6,39.6c1.4,11.7,7.2,55.2,7.2,55.2c5,2.2,10.3-0.2,10.3-0.2s2-29.1,2.6-40.9
			c0.4-8.7-2-18-2.2-20.2c0,0,1.8-51.4,0-72.3L329,247.1z"/>
		<path class="st15" d="M361.1,371.8c1.1,0.2,2.2,0.8,3,1.6c0.8,0.7,1.4,1.7,2.4,1.9c1.1,0.1,2.2-0.4,2.8-1.2c0.2-0.3,0.4-0.6,0.5-1
			c0-0.1,0.3-1.4,0.1-1.4c0.9,0.2,1.2,2.6,1.4,3.3c0.4,1.8,0.8,3.9,0.5,4.9c-0.6,1.8-4.2,4.7-5.3,6.3c-1,1.5-1.7,4.6-3,6.7
			s-6.9,4.9-10,5.3c-5.2,0.7-10.1-1.1-9.2-4.1c1-3,5.7-7.1,8.4-10c2.9-3.1,5-6.9,6.2-10.9c0.1-0.4,0.2-0.7,0.4-1
			c0.4-0.3,1-0.5,1.5-0.4L361.1,371.8z"/>
		<path class="st13" d="M310.3,374.6c-2,0.6-1.6,3.5-0.7,4.6c0.9,1,2.5,1.8,7.4,2.4c3.8,0.5,7.7-0.4,11-2.5c2.5-1.4,5.3-2.1,8.1-2.2
			c2.1,0.1,6.4-0.5,7.1-0.9c0.7-0.5,0.8-0.8,0.7-2.3C344,373.7,312.3,374,310.3,374.6z"/>
		<path class="st15" d="M335.3,362.1c0.7,0.8,1.6,1.5,2.5,2c1,0.2,2,0,2.8-0.6c0.8-0.6,1.3-1.4,1.7-2.4c0-0.1,0.3-1.1,0.1-1.1
			c0.9-0.2,1.6,4.1,2.2,6.8c0.7,2.3,0.5,4.7-0.6,6.8c-1.9,1.4-8.9,1.6-11.4,2.2c-2.8,0.6-6.7,2.8-9.8,3.6c-5.8,1.4-10.5,0.4-12.5-1
			c-2-1.4-2.1-3.8-0.2-4.7c3.1-1.4,9.9-4.2,13.4-6.1c1.5-0.7,2.8-1.5,4.1-2.5c1.2-1.1,2.2-2.4,2.9-3.8c0.2-0.5,0.5-1,1-1.2
			c0.4-0.1,0.8,0,1.1,0.2l0.3,0.1C333.7,360.9,334.5,361.5,335.3,362.1z"/>
		<path class="st13" d="M337.8,364.1c-1-0.5-1.9-1.2-2.5-2c-0.7-0.7-1.5-1.2-2.4-1.6l-0.3-0.1c-0.3-0.2-0.7-0.2-1.1-0.2
			c-0.5,0.2-0.8,0.7-1,1.2c-0.7,1.4-1.7,2.7-2.9,3.8c-1.2,1-2.6,1.8-4.1,2.5c-1.4,0.7-3.3,1.6-5.3,2.5l0,0c0,0,0.5,1.2,3.4,0.6
			s7.6-3.9,10.2-5.9C334.3,362.8,335.8,363.5,337.8,364.1z"/>
		<path class="st13" d="M349,274l-3.9,28.7l1.3-33c-7.6-4-8.6-8.8-8.6-8.8c3.1,3,6.8,5.4,10.8,7L349,274z"/>
		<path class="st14" d="M373,191.6l-12.3-2.1c0,0-8.2-0.9-14.5-1.1c-6-0.2-11.6,5.5-14.1,14c-3.4,11.9-3.6,49.4-3.6,49.4
			c11.7,9.4,31.7,9.7,43.3,4.3l-1.3-23.8c0,0,2.7-14.5,5.5-22.8C378.9,201.3,373,191.6,373,191.6z"/>
		<path class="st2" d="M380.3,189.6c0,0,8.9,4.1,9.6,3.1s0.6-5.3-1.7-8.4s-7.2-6.9-8-6.5L380.3,189.6z"/>
		<path class="st27" d="M380.3,189.6c0,0,8.9,4.1,9.6,3.1s0.6-5.3-1.7-8.4s-7.2-6.9-8-6.5L380.3,189.6z"/>
		<path class="st24" d="M398.3,169.4c0.8-5.7,1.7-11.9,2.3-18.8c0.2-3.8,0.2-7.6,0-11.3c-0.1-2.6-0.6-5.3-1.6-7.7
			c-1.2-2.2-3.5-3.7-6-4c-1-0.2-1.9,0.1-2.7,0.6c-0.8,0.8-1.3,1.8-1.3,2.9c-0.2,1.1,0.4,2.2,0.7,3.3c0.4,1.4,0.6,2.9,0.7,4.4
			c-0.6-0.8-1.3-1.5-2.2-2.1c-0.9-0.7-2.1-0.6-2.8,0.2c-0.3,0.4,0.7,1,1.6,2.6c1.1,2.1,1.1,3.6,2.9,5.5c0.6,0.6,1,1.5,1,2.4
			c0.1,5.3-2.9,16.4-5,22.8c-2.3,6.9-16.2,21.4-16.2,21.4c-2.5,6.2,0.3,18.1,6.1,18.6c5.5-10.4,11.6-15,19.8-31.6
			C396.9,175.5,397.8,172.5,398.3,169.4z"/>
		<path class="st2" d="M368.8,203.6c1,6.1,5.4,9.6,7.1,6.9l14-17.8c-9.4-2.9-9.6-14.9-9.6-14.9l-10.9,13.7
			C369.3,191.5,367.3,195.1,368.8,203.6z"/>
		<path class="st9" d="M368.8,203.6c1,6.1,5.4,9.6,7.1,6.9l14-17.8c-9.4-2.9-9.6-14.9-9.6-14.9l-10.9,13.7
			C369.3,191.5,367.3,195.1,368.8,203.6z"/>
		<path class="st13" d="M356.1,158.9c0.3-5.7-4.1-10.6-9.9-10.9c-5.7-0.3-10.6,4.1-10.9,9.9c-0.3,5.7,4.1,10.6,9.9,10.9
			C350.9,169,355.8,164.6,356.1,158.9C356.1,158.9,356.1,158.9,356.1,158.9z"/>
		<path class="st13" d="M369.4,158.2c0.3,0.8,0.5,1.6,0.4,2.5c0.1,2.8-1.2,4.8-2.2,7.4c-0.7,1.8-1.6,4.1-2.2,5.8
			c-0.6,1.7-1,3.6-1.7,5.4c-0.3,0.8-1,1.4-1.9,1.5l0.4-16.6l2,1.8c0-0.6,0.1-1.3,0.3-1.9c0.3-2,0.5-4,0.8-6c0.1-0.6-0.1-1.5,0.2-2
			c0.5-0.8,1.4-0.2,2.1,0.2c0.6,0.3,1,0.7,1.4,1.2C369.2,157.8,369.3,158,369.4,158.2z"/>
		<path class="st24" d="M359.4,153c-6.5-4.6-19-5-20.8,5.6c-1.6,9.7-1.3,13.8-0.1,18.8c0.7,3.1,2.4,5.4,5.3,6c1.7,0.2,3.5,0.2,5.3,0
			l-0.2,5.3c-5.9,6.2,8.6,8.8,13.7,2.8l0,0l0.8-16.3c0,0,0.7,2,3.6,1c2.2-0.8,5.2-4.6,3.9-7.7s-4.2-2-5.1-1.1s-2,2.2-2.7,1.7
			C362.8,169.1,365.9,157.5,359.4,153z"/>
		<path class="st13" d="M337.3,154.3c-0.7-0.5-1.2-1.2-1.6-1.9c-0.4-0.8-0.3-1.7,0.1-2.4c0,0,0,0,0-0.1c0.6-0.7,1.6-0.7,2.2-0.2
			c-1.2-1.7-1.7-3.8-1.3-5.8c0-0.6,0.4-1.1,0.9-1.4c0.6-0.2,1.3,0.2,1.8,0.6c2.6,1.8,6,2.3,9.2,2.4c3.2,0.1,6.4-0.1,9.6,0.6
			s6.2,2.4,7.6,5.4c1.6,3.4,0.2,7.2,0.3,10.7c0,1.1,0,2.3,0,3.4c0,0.6-0.1,1.5-0.5,1.9c-0.7,0.6-2.1,3.3-3.1,2.2
			c-0.2-0.3-0.4-0.6-0.4-0.9c-0.8-2.6-0.7-5.4,0.1-8c-0.1,0-0.1,0-0.2,0c-2.8,0.2-5.3-1.9-5.5-4.7c-2.9,1.9-6.4,2.7-9.8,2.3
			c-2.2-0.2-4.4-0.9-6.3-2C339.2,155.7,338.2,155.1,337.3,154.3z"/>
		<path class="st28" d="M348.8,185.1c0,0,8.4-1.2,10.1-3.2c0.9-1.1,1.4-2.4,1.6-3.8c-0.9,1.5-2.1,2.7-3.6,3.5c-2.3,1.1-8,1.8-8,1.8
			L348.8,185.1z"/>
		<path class="st13" d="M351.3,167c0-0.7,0.6-1.3,1.3-1.3c0.7,0,1.2,0.6,1.2,1.3c0,0.7-0.6,1.3-1.3,1.3S351.3,167.7,351.3,167
			C351.3,167,351.3,167,351.3,167z"/>
		<path class="st13" d="M352.9,162.1c0.4-0.7,1.4-1,2.1-0.5c0.7,0.5,1,1.5,0.5,2.2L352.9,162.1C352.9,162.2,352.9,162.2,352.9,162.1
			z"/>
		<path class="st28" d="M349.5,177.7C349.5,177.7,349.5,177.7,349.5,177.7c-1.4,0.4-2.7-0.4-3.1-1.7l4.8-1.5
			C351.6,175.8,350.8,177.2,349.5,177.7z"/>
		<path class="st13" d="M340.5,160.4C340.5,160.4,340.5,160.4,340.5,160.4c0.8-0.5,1.7-0.3,2.1,0.4l-2.6,1.8
			C339.6,161.9,339.7,160.9,340.5,160.4z"/>
		<path class="st13" d="M340.7,165.9c0.1-0.7,0.7-1.2,1.4-1.1s1.2,0.7,1.1,1.4c0,0.1,0,0.1,0,0.2c-0.1,0.7-0.7,1.2-1.4,1.1
			s-1.2-0.7-1.1-1.4C340.6,166,340.6,166,340.7,165.9z"/>
		<polygon class="st28" points="342.5,171.3 346.4,172.9 347.2,165.2 		"/>
		<path class="st13" d="M366.4,375.2c-1-0.2-1.7-1.2-2.4-1.9c-0.8-0.8-1.9-1.3-3-1.6h-0.2c-0.5-0.1-1.1,0-1.5,0.4
			c-0.2,0.3-0.4,0.6-0.5,1c-1.2,4.1-3.3,7.8-6.2,10.9c-0.3,0.4-0.8,0.8-1.2,1.2c-0.2,0.4-0.3,0.9-0.4,1.3c-0.1,0.9,2.4,2.2,5.5-0.6
			C359.8,383.2,364.4,375.1,366.4,375.2z"/>
		<g id="freepik--trophy--inject-2_1_">
			<path class="st13" d="M434,155.8l-18.6-2.6l10.5,25.9c0.3-0.1,0.6-0.3,0.8-0.5l10.9-13.9c0.2-0.2,0.2-0.4,0.2-0.6l-3.2-7.9
				C434.4,155.9,434.2,155.8,434,155.8z"/>
			<path class="st15" d="M425.9,179l-10.5-25.9l-0.9-0.1c-0.6-0.1-1.3,0.2-1.7,0.7l-10.9,14c-0.2,0.2-0.2,0.4-0.1,0.6l3.2,7.9
				c0.1,0.2,0.3,0.3,0.6,0.4l19.5,2.7C425.3,179.2,425.6,179.2,425.9,179z"/>
			<path class="st14" d="M421.8,171.4l-19.5-2.7c-0.6-0.1-0.8-0.5-0.4-1l10.9-14c0.4-0.5,1.1-0.7,1.7-0.7l19.5,2.7
				c0.6,0.1,0.8,0.5,0.4,1l-10.9,13.9C423.1,171.2,422.5,171.5,421.8,171.4z"/>
			<path class="st2" d="M410.8,167.4c0.2,0.1,0.3,0.2,0.5,0.3h0.1c0.2,0.1,0.3,0.1,0.5,0.2l0.1,0.1l0.5,0.1h0.1
				c0.2,0.1,0.5,0.1,0.7,0.1c4.7,0.4,9.3-1.5,12.4-5c0.1-0.2,0.3-0.4,0.4-0.6c0,0,0.1-0.1,0.1-0.1c0.1-0.2,0.2-0.3,0.3-0.5l0.1-0.1
				c0.1-0.2,0.2-0.4,0.2-0.5l0,0c0.1-0.2,0.1-0.4,0.2-0.6l0,0c0-0.2,0.1-0.3,0.1-0.5c0,0,0-0.1,0-0.1c0-0.1,0-0.3,0-0.4v-0.1
				c0-0.3-0.1-0.7-0.2-1c0,0,0-0.1-0.1-0.1c0-0.1-0.1-0.2-0.2-0.3l-0.1-0.1c-0.1-0.1-0.1-0.2-0.2-0.3l-0.1-0.1
				c-0.1-0.1-0.2-0.2-0.4-0.4l-0.1-0.1l-0.3-0.2l-0.2-0.1l-0.1-0.1l-0.2-0.1l-0.1-0.1c-2.8-1.4-5.8-1-8.9,0.3s-5.6,3.1-6.6,6
				c0,0,0.1,0.1,0,0.1s-0.1,0.1-0.1,0.2c0,0.1,0,0.1,0,0.2l-0.1,0.2l-0.1,0.4c0,0.1,0,0.1,0,0.2c0,0.2,0,0.4,0,0.5s0,0.1,0,0.2
				c0.1,0.1,0.1,0.2,0.1,0.3v0.2c0,0.1,0.1,0.2,0.1,0.3v0.1c0.1,0.1,0.1,0.3,0.2,0.4l0,0c0.1,0.1,0.2,0.3,0.3,0.4l0.1,0.1
				c0.1,0.1,0.2,0.2,0.3,0.3l0.1,0.1C410.5,167.2,410.6,167.3,410.8,167.4L410.8,167.4z"/>
			<g class="st18">
				<path d="M410.8,167.4c0.2,0.1,0.3,0.2,0.5,0.3h0.1c0.2,0.1,0.3,0.1,0.5,0.2l0.1,0.1l0.5,0.1h0.1c0.2,0.1,0.5,0.1,0.7,0.1
					c4.7,0.4,9.3-1.5,12.4-5c0.1-0.2,0.3-0.4,0.4-0.6c0,0,0.1-0.1,0.1-0.1c0.1-0.2,0.2-0.3,0.3-0.5l0.1-0.1c0.1-0.2,0.2-0.4,0.2-0.5
					l0,0c0.1-0.2,0.1-0.4,0.2-0.6l0,0c0-0.2,0.1-0.3,0.1-0.5c0,0,0-0.1,0-0.1c0-0.1,0-0.3,0-0.4v-0.1c0-0.3-0.1-0.7-0.2-1
					c0,0,0-0.1-0.1-0.1c0-0.1-0.1-0.2-0.2-0.3l-0.1-0.1c-0.1-0.1-0.1-0.2-0.2-0.3l-0.1-0.1c-0.1-0.1-0.2-0.2-0.4-0.4l-0.1-0.1
					l-0.3-0.2l-0.2-0.1l-0.1-0.1l-0.2-0.1l-0.1-0.1c-2.8-1.4-5.8-1-8.9,0.3s-5.6,3.1-6.6,6c0,0,0.1,0.1,0,0.1s-0.1,0.1-0.1,0.2
					c0,0.1,0,0.1,0,0.2l-0.1,0.2l-0.1,0.4c0,0.1,0,0.1,0,0.2c0,0.2,0,0.4,0,0.5s0,0.1,0,0.2c0.1,0.1,0.1,0.2,0.1,0.3v0.2
					c0,0.1,0.1,0.2,0.1,0.3v0.1c0.1,0.1,0.1,0.3,0.2,0.4l0,0c0.1,0.1,0.2,0.3,0.3,0.4l0.1,0.1c0.1,0.1,0.2,0.2,0.3,0.3l0.1,0.1
					C410.5,167.2,410.6,167.3,410.8,167.4L410.8,167.4z"/>
			</g>
			<path class="st2" d="M416.5,159.3c-0.3,0.1-0.5,0.4-0.5,0.7c0,2.1,0.1,4.2,0.4,6.4c0,0,0,0.1,0,0.1c0.1,0.4,0.5,0.7,1,0.6
				c0.8-0.2,1.7-0.4,2.5-0.8c0.8-0.3,1.6-0.7,2.3-1.2c0,0,0.1,0,0.1-0.1c0.4-0.3,0.4-0.8,0.1-1.2c-1.3-1.7-2.7-3.3-4.1-4.9
				c-0.2-0.2-0.6-0.3-0.9-0.1l-0.4,0.2L416.5,159.3z"/>
			<path class="st2" d="M415,159.6c-0.4,0.1-0.8,0.3-1,0.7c-1.2,1.7-2.1,3.5-2.6,5.5c-0.1,0.5,0.2,1,0.6,1.2
				c0.9,0.3,1.9,0.4,2.8,0.4c0,0,0.1,0,0.1,0c0.5-0.1,0.8-0.5,0.7-0.9c-0.2-2-0.3-4-0.2-6C415.5,159.9,415.3,159.5,415,159.6z"/>
			<path class="st2" d="M414,159.2c-0.1-0.1-0.5,0-0.9,0.3c-1.3,1-2.4,2.3-3.1,3.8c-0.3,0.5-0.3,1.1-0.2,1.7
				c0.1,0.2,0.2,0.4,0.3,0.6c0.3,0.4,0.7,0.3,0.9-0.2c0.6-1.9,1.5-3.7,2.7-5.3C413.9,159.6,414,159.3,414,159.2z"/>
			<path class="st2" d="M413,159.2c-1.3,0.9-2.4,2.1-3.2,3.5c-0.3,0.4-0.4,0.4-0.3,0c0.2-0.5,0.4-1.1,0.7-1.6c0.6-1,1.4-1.8,2.4-2.5
				c0.2-0.1,0.4-0.2,0.6-0.3c0.3-0.2,0.5-0.1,0.5,0C413.8,158.6,413.4,158.9,413,159.2z"/>
			<path class="st2" d="M418.6,158.1c0.3-0.2,0.8-0.3,1.2-0.2c2,0.4,3.9,1.1,5.7,2.2c0.4,0.3,0.6,0.8,0.4,1.3
				c-0.5,0.8-1.1,1.6-1.8,2.2c0,0,0,0-0.1,0.1c-0.4,0.3-0.9,0.2-1.1-0.2c-1.2-1.6-2.6-3.1-4-4.4
				C418.4,158.7,418.4,158.3,418.6,158.1z"/>
			<path class="st2" d="M419.1,157.1c0-0.1,0.3-0.3,0.8-0.4c1.7-0.2,3.3,0,4.9,0.5c0.6,0.2,1,0.6,1.3,1.1c0.1,0.2,0.2,0.4,0.2,0.7
				c0.1,0.4-0.3,0.7-0.8,0.4c-1.8-0.9-3.6-1.6-5.6-1.9C419.4,157.4,419.1,157.2,419.1,157.1z"/>
			<path class="st2" d="M419.7,156.5c1.6-0.3,3.2-0.2,4.8,0.3c0.5,0.2,0.6,0.1,0.2-0.2c-0.5-0.3-1-0.5-1.6-0.6
				c-1.1-0.3-2.3-0.3-3.5-0.1c-0.2,0.1-0.4,0.1-0.6,0.2c-0.3,0.1-0.4,0.3-0.3,0.4C419,156.6,419.4,156.5,419.7,156.5z"/>
			<path class="st2" d="M400.5,146.1c-0.2-0.4-0.1-0.8,0.2-1c0.4-0.3,0.8-0.2,1.1,0.2c0.2,0.4,0.7,0.6,1.1,0.5c0.1-0.1,0-0.3,0-0.4
				c-0.4-1.5-2.7-3.7-7.8-5.2c-6.3-1.8-11.7-3.8-14.1-8.9c-1.1-2.3-0.9-4.7,0.6-5.9c0.7-0.6,2.8-1.8,6.5,0.7c1.6,1,3.1,3.2,2.6,4.5
				c-0.3,0.7-1,1.2-1.8,1c0,0,0,0,0,0c-0.4,0-0.8-0.4-0.7-0.8c0-0.4,0.4-0.8,0.8-0.7c0.1,0,0.1,0,0.2,0c-0.3-1.1-1-2.1-2-2.7
				c-2-1.3-3.8-1.5-4.7-0.8s-0.9,2.4-0.2,4.1c2.1,4.5,7.2,6.3,13.1,8.1c7,2,8.5,5.1,8.9,6.3c0.3,0.9-0.1,1.9-0.9,2.3h-0.1
				C402.4,147.6,401.2,147.1,400.5,146.1z"/>
			<g class="st19">
				<path d="M400.5,146.1c-0.2-0.4-0.1-0.8,0.2-1c0.4-0.3,0.8-0.2,1.1,0.2c0.2,0.4,0.7,0.6,1.1,0.5c0.1-0.1,0-0.3,0-0.4
					c-0.4-1.5-2.7-3.7-7.8-5.2c-6.3-1.8-11.7-3.8-14.1-8.9c-1.1-2.3-0.9-4.7,0.6-5.9c0.7-0.6,2.8-1.8,6.5,0.7c1.6,1,3.1,3.2,2.6,4.5
					c-0.3,0.7-1,1.2-1.8,1c0,0,0,0,0,0c-0.4,0-0.8-0.4-0.7-0.8c0-0.4,0.4-0.8,0.8-0.7c0.1,0,0.1,0,0.2,0c-0.3-1.1-1-2.1-2-2.7
					c-2-1.3-3.8-1.5-4.7-0.8s-0.9,2.4-0.2,4.1c2.1,4.5,7.2,6.3,13.1,8.1c7,2,8.5,5.1,8.9,6.3c0.3,0.9-0.1,1.9-0.9,2.3h-0.1
					C402.4,147.6,401.2,147.1,400.5,146.1z"/>
			</g>
			<path class="st2" d="M387.8,133.7c3.2,8,7.6,10.9,12.7,14.4c6,4.2,12.8,6,14.5,10l0,0c0.1,0.2,0.3,0.4,0.6,0.4
				c0.7,0.1,1.4-0.2,1.9-0.8c0.2-0.2,0.2-0.4,0.2-0.7c-1.4-4.1,2-10.1,3.4-17.3c1.2-6.1,2.3-11.3-0.9-19.2L387.8,133.7z"/>
			<path class="st8" d="M420.1,120.6l-1,0.4c-1.4,1.3-4,4.8-4,4.8c2.4,5.9,2.8,12.3,1.3,18.5c-1.1,4.6-0.9,9.3,0.7,13.8
				c0.1-0.1,0.2-0.2,0.3-0.3c0.2-0.2,0.2-0.4,0.2-0.7c-1.4-4.1,2-10.1,3.4-17.3c1.2-6.1,2.3-11.2-0.8-19.1L420.1,120.6z"/>
			<path class="st2" d="M412.7,115.9c-7.8-1.1-18,3.1-22.9,9.3c-4.8,6.2-2.4,12.1,5.4,13.2s18-3.1,22.9-9.3
				C422.9,122.9,420.5,117,412.7,115.9z"/>
			<path class="st20" d="M412.7,115.9c-7.8-1.1-18,3.1-22.9,9.3c-4.8,6.2-2.4,12.1,5.4,13.2s18-3.1,22.9-9.3
				C422.9,122.9,420.5,117,412.7,115.9z"/>
			<path class="st2" d="M411.1,118.1c-6.3-0.9-14.6,2.5-18.5,7.5c-3.9,5-2,9.8,4.3,10.7s14.6-2.5,18.5-7.5
				C419.3,123.8,417.4,119,411.1,118.1z"/>
			<path class="st3" d="M411.1,118.1c-6.3-0.9-14.6,2.5-18.5,7.5c-3.9,5-2,9.8,4.3,10.7s14.6-2.5,18.5-7.5
				C419.3,123.8,417.4,119,411.1,118.1z"/>
			<path class="st3" d="M412.9,131.3c0.9-0.8,1.8-1.6,2.5-2.6c3.9-5,2-9.8-4.4-10.7c-1.5-0.2-3.1-0.2-4.6,0
				C409.4,118.4,414,123.6,412.9,131.3z"/>
			<path class="st2" d="M421.2,149.8c-1.2,0.4-3.2-0.8-4-2.4c-0.6-0.9-0.6-2.1-0.1-3.1c0.7-1.2,2.5-1.9,5.2-2
				c3.1-0.1,6.3-0.3,7.2-1.7c0.4-0.9,0.4-1.9,0-2.7c-1.3-2.9-3.7-5.2-6.7-6.4c-0.8-0.3-1.7-0.2-2.5,0.2c-0.1,0.1-0.2,0.5-0.1,0.9
				c0.2,0.9,0.9,1.7,1.9,1.9c0.4,0.1,0.6,0.5,0.5,0.8c0,0.4-0.4,0.8-0.9,0.7c-1.5-0.4-2.7-1.6-3.1-3.1c-0.3-0.9,0-1.9,0.7-2.5
				c1.1-0.8,2.6-1,3.9-0.5c3.5,1.3,6.3,4,7.7,7.4c0.6,1.3,0.5,2.9-0.2,4.1c-1.4,2-4.6,2.3-8.5,2.4c-2.8,0.1-3.6,0.8-3.9,1.3
				c-0.2,0.5-0.1,1.1,0.2,1.6c0.4,0.7,1.1,1.3,1.9,1.6c0.1-0.3,0.3-0.5,0.6-0.6c0.4-0.1,0.8,0.2,0.9,0.6
				C422.1,148.9,421.8,149.5,421.2,149.8L421.2,149.8z"/>
			<g class="st5">
				<path d="M421.2,149.8c-1.2,0.4-3.2-0.8-4-2.4c-0.6-0.9-0.6-2.1-0.1-3.1c0.7-1.2,2.5-1.9,5.2-2c3.1-0.1,6.3-0.3,7.2-1.7
					c0.4-0.9,0.4-1.9,0-2.7c-1.3-2.9-3.7-5.2-6.7-6.4c-0.8-0.3-1.7-0.2-2.5,0.2c-0.1,0.1-0.2,0.5-0.1,0.9c0.2,0.9,0.9,1.7,1.9,1.9
					c0.4,0.1,0.6,0.5,0.5,0.8c0,0.4-0.4,0.8-0.9,0.7c-1.5-0.4-2.7-1.6-3.1-3.1c-0.3-0.9,0-1.9,0.7-2.5c1.1-0.8,2.6-1,3.9-0.5
					c3.5,1.3,6.3,4,7.7,7.4c0.6,1.3,0.5,2.9-0.2,4.1c-1.4,2-4.6,2.3-8.5,2.4c-2.8,0.1-3.6,0.8-3.9,1.3c-0.2,0.5-0.1,1.1,0.2,1.6
					c0.4,0.7,1.1,1.3,1.9,1.6c0.1-0.3,0.3-0.5,0.6-0.6c0.4-0.1,0.8,0.2,0.9,0.6C422.1,148.9,421.8,149.5,421.2,149.8L421.2,149.8z"
					/>
			</g>
		</g>
	</g>
</g>
<g id="freepik--Confetti--inject-2">
	<g id="freepik--confetti--inject-2">
		<path class="st2" d="M196.2,28.7c-0.2-0.1-0.6,0.1-0.4,0.3c1.9,2.1,2,5.1,1.1,7.7c-0.7,1.9-2.2,4-4.5,3.6
			c-1.4-0.4-2.6-1.4-3.2-2.8c-0.3-0.7-0.9-3.4,0.4-3.4c0.6,0,1.8,1.6,2,2.2c0.3,0.6,0.4,1.3,0.4,2c-0.2,1.2-1,2.3-2.1,2.9
			c-2.9,1.9-6.4,1.1-9.1-0.7c-0.1-0.1-0.5,0.1-0.3,0.3c2.8,2.6,7,3,10.2,0.9c3.5-2.5,2.1-6.2-1-8.3c-0.2-0.1-0.4-0.1-0.6,0
			c-2.9,2.7,0.3,7.3,3.6,7.7C198.5,41.7,199.7,31.8,196.2,28.7L196.2,28.7z"/>
		<path class="st2" d="M222.6,145.2c0.1,0.1,0.1,0,0.1-0.1c-0.4-2.3-0.6-4.9-2.3-6.6c-1.5-1.3-3.4-2-5.3-2c-1.9-0.1-6.3-0.3-6.9,2.3
			c-0.5,2.3,2.2,4.3,3.7,2.1c5-7.3-10.7-12.6-14-5c-0.1,0.2,0.1,0.4,0.3,0.2c2.8-3.5,7.7-4.3,11.5-1.9c1.7,1.1,2.6,3.2,2.1,5.2
			c-0.3,1.1-1.1,2.3-2.2,1.3c-0.7-0.6-0.9-1.7-0.4-2.6c1.4-1.7,5.9-1.2,7.7-0.8C221.3,138.5,221.2,141.9,222.6,145.2L222.6,145.2z"
			/>
		<path class="st2" d="M80.5,31.9c0.1,0,0.2-0.3,0.1-0.3c-4.1-1.5-11-0.5-12.3,4.5c0,0.1,0,0.1-0.1,0.2c-0.5,1.8,0.6,3.6,2.4,4.1
			c1.7,0.5,5.1,0.1,5.9-1.7c0.5-1.2-0.3-2.1-1.4-2.5c-1.9-0.8-3.9,0.2-5.2,1.6c-4.9,5.1,1.2,10.1,6.7,9.6c0.2,0,0.2-0.4,0-0.4
			c-3.2,0-7.7-1.3-7.8-5.2c-0.1-2.6,2.5-5.5,5.3-5.1c0.9,0.1,2.1,0.8,1.8,1.9c-0.5,1.6-4.2,1.6-5.4,1.1c-2.9-1.2-1.8-4.7,0.2-6.3
			C73.1,31.2,77.4,31,80.5,31.9L80.5,31.9z"/>
		<path class="st2" d="M304.2,164.6c0.1,0,0.2-0.3,0.1-0.3c-4.1-1.5-11-0.4-12.3,4.5c0,0.1,0,0.1-0.1,0.2c-0.5,1.8,0.6,3.6,2.4,4.1
			c1.7,0.5,5.1,0.2,5.9-1.7c0.5-1.1-0.3-2.1-1.4-2.5c-1.9-0.8-3.9,0.2-5.2,1.6c-4.8,5.1,1.2,10.1,6.7,9.6c0.2,0,0.2-0.4,0-0.4
			c-3.2,0-7.7-1.3-7.8-5.2c-0.1-2.6,2.5-5.5,5.3-5.1c0.9,0.1,2.1,0.8,1.8,1.9c-0.5,1.6-4.3,1.6-5.4,1.1c-2.9-1.2-1.8-4.7,0.2-6.3
			C296.9,163.9,301.1,163.7,304.2,164.6L304.2,164.6z"/>
		<path class="st2" d="M55.5,157.6c0.1,0,0.2-0.3,0.1-0.3c-4.1-1.5-11-0.5-12.3,4.5c0,0.1-0.1,0.2-0.1,0.2c-0.5,1.8,0.6,3.6,2.4,4
			c1.7,0.5,5.1,0.2,5.9-1.7c0.5-1.2-0.3-2.1-1.4-2.5c-1.9-0.8-3.9,0.2-5.2,1.6c-4.8,5.1,1.2,10.1,6.7,9.6c0.2,0,0.2-0.4,0-0.4
			c-3.2,0-7.7-1.3-7.8-5.2c-0.1-2.6,2.5-5.5,5.3-5.1c0.9,0.1,2.1,0.8,1.8,1.9c-0.5,1.6-4.2,1.6-5.4,1.1c-2.9-1.2-1.8-4.7,0.2-6.3
			C48.1,156.9,52.4,156.7,55.5,157.6L55.5,157.6z"/>
		<path class="st2" d="M62.7,88.8c-0.1,0-0.2,0.2-0.1,0.3c3.4,1.9,7.1,8.8,1.8,10.6c-1.5,0.5-3.9,0.7-5-0.7
			c-0.7-0.9-0.9-2.3,0.3-2.4c0.6,0,1.2,0.2,1.6,0.6c1.7,1.4,1.7,4.5,0.8,6.4c-1.7,3.5-5.5,2.3-8.3,0.9c-0.2-0.1-0.2,0.2-0.1,0.3
			c3.3,2.4,8,2.5,9.2-2.1c0.8-3-0.5-7.4-4.3-6.5c-0.1,0-0.2,0.1-0.2,0.2c-1,4.8,4.9,5.3,7.8,2.8C69.8,96.3,66.4,89.9,62.7,88.8
			L62.7,88.8z"/>
		<path class="st2" d="M77.4,132.7c-0.2,0-0.4,0.5-0.1,0.5c3.9,0.1,9.6,1.6,10.6,6.1c0.5,2.2-1,4.1-3,4.8c-0.9,0.4-2,0.4-3,0.1
			c-0.4-0.1-0.9-0.4-1.1-0.8c-0.3-0.6-0.3,0.1,0.2-0.5c1.1-1.2,4.2-0.4,5.5,0.2c1.6,0.8,3,2.1,4,3.6c0,0,0.1,0.1,0.1,0.1
			c2.3,3.4,1.5,8.1-2,10.4c-0.2,0.1-0.2,0.6,0.1,0.5c9.6-5.4,0.1-20.1-8.9-15c-0.2,0.1-0.3,0.3-0.2,0.5c1.9,3.6,7.7,1.6,9-1.6
			C91,135.8,81.7,132.1,77.4,132.7L77.4,132.7z"/>
		<path class="st14" d="M121.1,32.8c-1.3,5.2-3.8,6.4-3.8,6.4l3.8,1.2c3.6-2.7,3.3-7.5,3.3-7.5L121.1,32.8z"/>
		<path class="st14" d="M215.9,157.7c-1.3,5.2-3.8,6.4-3.8,6.4l3.8,1.1c3.6-2.7,3.3-7.5,3.3-7.5H215.9z"/>
		<path class="st14" d="M42.1,55.4c3.7,3.9,6.5,3.6,6.5,3.6l-2.7,2.9c-4.4-0.5-6.6-4.8-6.6-4.8L42.1,55.4z"/>
		<path class="st14" d="M72.6,196.4c3.7,3.9,6.5,3.6,6.5,3.6l-2.7,2.9c-4.5-0.5-6.6-4.8-6.6-4.8L72.6,196.4z"/>
		<path class="st2" d="M194.5,177.7c3.7,3.9,6.5,3.6,6.5,3.6l-2.7,2.9c-4.5-0.5-6.6-4.9-6.6-4.9L194.5,177.7z"/>
		<path class="st2" d="M83.7,70.7c5.3-0.9,6.6-3.3,6.6-3.3l0.9,3.8c-2.9,3.4-7.7,2.8-7.7,2.8L83.7,70.7z"/>
		<path class="st2" d="M153.4,47.1c5.3-0.9,6.6-3.3,6.6-3.3l0.9,3.8c-2.9,3.4-7.7,2.8-7.7,2.8L153.4,47.1z"/>
		<path class="st2" d="M100.2,174.9c5.2-0.9,6.6-3.3,6.6-3.3l0.9,3.8c-2.9,3.4-7.7,2.8-7.7,2.8L100.2,174.9z"/>
		<path class="st2" d="M193,110.5c5.3-0.9,6.6-3.3,6.6-3.3l0.9,3.8c-2.9,3.4-7.7,2.8-7.7,2.8L193,110.5z"/>
		<path class="st2" d="M32.8,136.9c5.2-0.9,6.6-3.3,6.6-3.3l0.9,3.8c-2.9,3.4-7.7,2.8-7.7,2.8L32.8,136.9z"/>
		<path class="st2" d="M463.4,127.5c5.3-0.9,6.6-3.3,6.6-3.3l0.9,3.8c-2.9,3.4-7.7,2.8-7.7,2.8L463.4,127.5z"/>
		<path class="st14" d="M118.7,71.7c3.7,3.8,7,3.3,7,3.3l-2.7,2.8c-4.4-0.5-6.6-4.8-6.6-4.8L118.7,71.7z"/>
		<path class="st2" d="M25.8,206.3c4.9-2,5.7-5.2,5.7-5.2l1.7,3.6c-2.2,3.9-7,4.4-7,4.4L25.8,206.3z"/>
		<path class="st15" d="M114.2,78.7c1.3,2.3,3.3,4.1,5.7,5.2l-3.4,2c-4.1-1.8-5-6.6-5-6.6L114.2,78.7z"/>
		<path class="st2" d="M280.6,36.9c0.2,0,0.3,0.5,0.1,0.5c-2.9,0.1-5.1,2.1-6.4,4.5c-0.9,1.8-1.4,4.4,0.5,5.7
			c1.3,0.8,2.8,0.9,4.2,0.4c0.7-0.2,3-1.7,2.2-2.6c-0.4-0.5-2.4-0.2-3,0c-0.7,0.2-1.2,0.6-1.7,1.1c-0.7,1-1,2.3-0.7,3.5
			c0.6,3.4,3.6,5.4,6.8,6.1c0.1,0,0.2,0.4,0,0.4c-3.8-0.2-7-3-7.7-6.8c-0.6-4.3,3-5.8,6.7-5c0.2,0,0.4,0.2,0.4,0.4
			c0.1,3.9-5.5,4.8-8,2.7C269.5,44.2,275.9,36.4,280.6,36.9L280.6,36.9z"/>
		<path class="st2" d="M450,180.1c-0.1,0.1-0.2,0-0.2-0.1c0.4-2.3,0.6-4.9,2.3-6.6c1.5-1.3,3.4-2,5.3-2c1.9-0.1,6.3-0.3,6.9,2.3
			c0.5,2.3-2.2,4.2-3.7,2.1c-5-7.2,10.7-12.5,14-4.9c0.1,0.2-0.1,0.4-0.3,0.2c-2.8-3.5-7.8-4.3-11.5-1.8c-1.7,1.1-2.6,3.2-2.1,5.2
			c0.3,1.1,1.1,2.3,2.2,1.3c0.7-0.7,0.9-1.7,0.4-2.6c-1.4-1.7-5.9-1.2-7.8-0.8C451.3,173.4,451.5,176.8,450,180.1L450,180.1z"/>
		<path class="st2" d="M410.9,31.9c-0.1,0-0.2-0.3-0.1-0.3c4.1-1.5,11-0.5,12.3,4.5c0,0.1,0,0.1,0.1,0.2c0.5,1.8-0.6,3.6-2.4,4.1
			c-1.7,0.5-5.1,0.1-5.9-1.7c-0.5-1.2,0.3-2.1,1.4-2.5c1.9-0.8,3.9,0.2,5.2,1.6c4.8,5.1-1.2,10.1-6.7,9.6c-0.2,0-0.2-0.4,0-0.4
			c3.2,0,7.7-1.3,7.8-5.2c0.1-2.6-2.5-5.5-5.3-5.1c-0.9,0.1-2.1,0.8-1.8,1.9c0.4,1.6,4.2,1.6,5.4,1.1c2.9-1.2,1.8-4.7-0.2-6.3
			C418.2,31.2,414,31,410.9,31.9L410.9,31.9z"/>
		<path class="st2" d="M409.6,271.3c-0.1,0-0.2-0.3-0.1-0.3c4.1-1.5,11-0.5,12.3,4.5c0,0.1,0.1,0.2,0.1,0.2c0.5,1.8-0.6,3.6-2.4,4
			c-1.7,0.5-5.1,0.2-5.9-1.7c-0.5-1.2,0.3-2.1,1.4-2.5c1.9-0.8,3.9,0.2,5.2,1.6c4.8,5.1-1.2,10.1-6.7,9.6c-0.1,0-0.2-0.4,0-0.4
			c3.2,0,7.7-1.3,7.8-5.2c0.1-2.6-2.5-5.5-5.3-5.1c-0.9,0.1-2.1,0.8-1.8,1.9c0.5,1.6,4.2,1.6,5.4,1.1c2.9-1.2,1.8-4.7-0.2-6.3
			C416.9,270.6,412.7,270.4,409.6,271.3L409.6,271.3z"/>
		<path class="st2" d="M438.8,90.9c-3.4,1.9-7.1,8.8-1.8,10.6c1.5,0.5,3.9,0.7,5-0.7c0.7-0.9,0.9-2.3-0.3-2.4
			c-0.6,0-1.2,0.2-1.6,0.7c-1.7,1.4-1.7,4.5-0.8,6.4c1.7,3.5,5.5,2.3,8.3,0.9c0.2-0.1,0.2,0.2,0.1,0.3c-3.4,2.4-8,2.5-9.2-2.1
			c-0.8-3,0.5-7.4,4.3-6.5c0.1,0,0.2,0.1,0.2,0.2c1,4.8-4.9,5.3-7.8,2.8c-3.4-2.9,0-9.4,3.7-10.5C438.9,90.6,438.9,90.9,438.8,90.9z
			"/>
		<path class="st2" d="M434.2,207.8c-0.1,0-0.1-0.3,0-0.3c4-0.1,5,4.3,4.6,7.6c-0.3,2.6-1.4,6.8-4.6,7.4c-3.1,0.6-6-4.1-1.9-4.7
			c4.5-0.7,5.8,6.8,3.8,9.6c-2.6,3.5-8.3,3.8-11.8,1.6c-0.1-0.1-0.1-0.4,0.1-0.3c3.2,1.6,8.1,1.5,10.7-1.3c1.6-1.9,1.8-4.7,0.5-6.8
			c-0.4-0.8-3.8-3.3-4.4-1.3c-0.1,0.9,0.4,1.8,1.1,2.4c0.6,0.3,1.3,0.3,1.9,0.1C439.3,220.1,440.4,208.3,434.2,207.8L434.2,207.8z"
			/>
		<path class="st2" d="M357.2,74.9c0.2,0,0.4,0.5,0.1,0.5c-3.9,0.1-9.6,1.6-10.6,6.1c-0.6,2.2,1,4.1,3,4.8c1,0.4,2,0.4,3,0.1
			c0.4-0.1,0.9-0.4,1.1-0.8c0.3-0.7,0.3,0-0.2-0.5c-1.1-1.2-4.2-0.4-5.5,0.2c-1.6,0.8-3,2.1-4,3.6c0,0-0.1,0.1-0.1,0.1
			c-2.3,3.4-1.5,8.1,2,10.4c0.2,0.1,0.2,0.6-0.1,0.5c-9.6-5.4-0.1-20.1,8.9-15c0.2,0.1,0.3,0.3,0.2,0.5c-1.9,3.6-7.7,1.6-9-1.6
			C343.5,78,352.8,74.3,357.2,74.9L357.2,74.9z"/>
		<path class="st14" d="M369.8,41.6c1.3,5.2,3.8,6.4,3.8,6.4l-3.8,1.2c-3.6-2.7-3.3-7.5-3.3-7.5L369.8,41.6z"/>
		<path class="st14" d="M450.9,55.4c-3.7,3.9-6.5,3.6-6.5,3.6l2.7,2.9c4.5-0.5,6.6-4.8,6.6-4.8L450.9,55.4z"/>
		<path class="st14" d="M400.4,225.7c-3.7,3.9-6.5,3.6-6.5,3.6l2.7,2.9c4.4-0.5,6.6-4.9,6.6-4.9L400.4,225.7z"/>
		<path class="st14" d="M464,289.4c-3.7,3.9-6.5,3.6-6.5,3.6l2.7,2.9c4.5-0.5,6.6-4.9,6.6-4.9L464,289.4z"/>
		<path class="st2" d="M357.1,124.8c-3.7,3.8-6.5,3.6-6.5,3.6l2.7,2.9c4.5-0.5,6.6-4.9,6.6-4.9L357.1,124.8z"/>
		<path class="st14" d="M321.8,70.4c-3.7,3.8-6.5,3.6-6.5,3.6l2.7,2.8c4.4-0.5,6.6-4.8,6.6-4.8L321.8,70.4z"/>
		<path class="st2" d="M409.3,70.7c-5.3-0.9-6.6-3.3-6.6-3.3l-0.9,3.8c2.9,3.4,7.7,2.8,7.7,2.8L409.3,70.7z"/>
		<path class="st2" d="M327.2,33.2c-5.3-0.9-6.6-3.3-6.6-3.3l-0.9,3.8c2.9,3.4,7.7,2.8,7.7,2.8L327.2,33.2z"/>
		<path class="st2" d="M324.5,99.2c-5.3-0.9-6.6-3.3-6.6-3.3l-0.9,3.8c2.9,3.4,7.7,2.8,7.7,2.8L324.5,99.2z"/>
		<path class="st2" d="M467.2,244.5c-5.2-0.9-6.6-3.3-6.6-3.3l-0.9,3.8c2.9,3.4,7.7,2.8,7.7,2.8L467.2,244.5z"/>
		<path class="st2" d="M391.4,305.4c-5.3-0.9-6.6-3.3-6.6-3.3l-0.9,3.8c2.9,3.4,7.7,2.8,7.7,2.8L391.4,305.4z"/>
		<path class="st14" d="M382.5,92.5c-3.7,3.8-7,3.3-7,3.3l2.7,2.9c4.5-0.5,6.6-4.8,6.6-4.8L382.5,92.5z"/>
		<path class="st15" d="M387,99.7c-1.3,2.3-3.3,4.1-5.7,5.2l3.4,2c4.1-1.8,5-6.6,5-6.6L387,99.7z"/>
		<path class="st14" d="M253.4,19.8c3.7,3.9,7,3.3,7,3.3l-2.7,2.9c-4.4-0.5-6.6-4.9-6.6-4.9L253.4,19.8z"/>
		<path class="st15" d="M260,69.8c1.3,2.3,3.3,4.1,5.7,5.2l-3.4,2c-4.1-1.8-5-6.6-5-6.6L260,69.8z"/>
	</g>
</g>
</svg>
