<?xml version="1.0" encoding="utf-8"?>
<!-- Generator: Adobe Illustrator 22.1.0, SVG Export Plug-In . SVG Version: 6.00 Build 0)  -->
<svg version="1.1" id="Layer_1" xmlns="http://www.w3.org/2000/svg" xmlns:xlink="http://www.w3.org/1999/xlink" x="0px" y="0px"
	 viewBox="0 0 629 353.8" style="enable-background:new 0 0 629 353.8;" xml:space="preserve">
<style type="text/css">
	.st0{fill:#EAFBF3;}
	.st1{clip-path:url(#SVGID_2_);}
	.st2{fill:#FFFFFF;}
	.st3{fill:#37474F;}
	.st4{fill:#455A64;}
	.st5{fill:#2BBF6D;}
	.st6{opacity:0.15;fill:url(#SVGID_3_);enable-background:new    ;}
	.st7{opacity:0.15;fill:url(#SVGID_4_);enable-background:new    ;}
	.st8{opacity:0.15;fill:url(#SVGID_5_);enable-background:new    ;}
	.st9{opacity:0.15;fill:url(#SVGID_6_);enable-background:new    ;}
	.st10{opacity:0.15;fill:url(#SVGID_7_);enable-background:new    ;}
	.st11{opacity:0.15;fill:url(#SVGID_8_);enable-background:new    ;}
	.st12{opacity:0.15;fill:url(#SVGID_9_);enable-background:new    ;}
	.st13{opacity:0.15;fill:url(#SVGID_10_);enable-background:new    ;}
	.st14{fill:url(#SVGID_11_);}
	.st15{opacity:0.15;fill:url(#SVGID_12_);enable-background:new    ;}
	.st16{opacity:0.15;fill:url(#SVGID_13_);enable-background:new    ;}
	.st17{opacity:0.15;fill:url(#SVGID_14_);enable-background:new    ;}
	.st18{opacity:0.15;fill:url(#SVGID_15_);enable-background:new    ;}
	.st19{opacity:0.15;fill:url(#SVGID_16_);enable-background:new    ;}
	.st20{opacity:0.15;fill:url(#SVGID_17_);enable-background:new    ;}
	.st21{opacity:0.15;fill:url(#SVGID_18_);enable-background:new    ;}
	.st22{opacity:0.15;fill:url(#SVGID_19_);enable-background:new    ;}
	.st23{fill:#5BD897;}
	.st24{fill:#30DD8A;}
	.st25{opacity:0.15;enable-background:new    ;}
	.st26{fill:url(#SVGID_20_);}
	.st27{opacity:0.2;enable-background:new    ;}
	.st28{fill:none;stroke:#342C20;stroke-width:0.96;stroke-linecap:round;stroke-linejoin:round;}
	.st29{opacity:0.4;fill:#FFFFFF;enable-background:new    ;}
	.st30{opacity:0.5;fill:#FDFFFE;enable-background:new    ;}
	.st31{opacity:0.6;fill:#FFFFFF;enable-background:new    ;}
	.st32{fill:none;stroke:#212121;stroke-width:1.08;stroke-linecap:round;stroke-linejoin:round;}
</style>
<title>aMesa de trabajo 1</title>
<g id="OBJECTS">
	<polygon class="st0" points="0,0 629,0 629,353.8 0,353.8 	"/>
	<g>
		<g>
			<g>
				<defs>
					<rect id="SVGID_1_" width="628.9" height="353.8"/>
				</defs>
				<clipPath id="SVGID_2_">
					<use xlink:href="#SVGID_1_"  style="overflow:visible;"/>
				</clipPath>
				<g class="st1">
					<path class="st2" d="M94.3,77.4l2,0.2c1.1-8.3,8.7-14.2,17-13.1c5.4,0.7,10,4.2,12.1,9.2h2.3c6.3,0,11.9,4.2,13.7,10.3
						c0.5,1.6-0.4,3.3-2,3.8c-0.3,0.1-0.6,0.1-0.9,0.1H87.6c-1.7,0-3.1-1.4-3.1-3.1c0-0.4,0.1-0.9,0.3-1.3
						C86.5,79.8,90.2,77.4,94.3,77.4z"/>
					<path class="st2" d="M446.6,72.4h1.2c0.8-5.2,5.7-8.7,10.9-7.9c3.2,0.5,5.9,2.6,7.2,5.6h1.3c4,0,7.5,2.6,8.5,6.4
						c0.3,0.9-0.2,2-1.1,2.3c-0.2,0.1-0.5,0.1-0.7,0.1h-31.4c-1.1,0-2-1-1.9-2.1c0-0.2,0.1-0.4,0.1-0.6
						C441.8,73.9,444.1,72.4,446.6,72.4z"/>
					<path class="st2" d="M234.1,29.8h0.8c0.4-3.1,3-5.4,6.1-5.4c2.5,0,4.8,1.5,5.8,3.8h0.9c2.6,0,4.9,1.7,5.6,4.2
						c0.2,0.7-0.3,1.4-1,1.6c-0.1,0-0.2,0-0.2,0h-20.8c-0.7-0.1-1.3-0.7-1.2-1.4c0-0.1,0-0.3,0.1-0.4
						C230.9,30.7,232.4,29.8,234.1,29.8z"/>
					<path class="st2" d="M167.7,73.9h0.2c0.6-1.2,1.9-1.9,3.2-1.9c0.5,0,0.9,0.1,1.3,0.3c0.9-1.8,2.7-2.9,4.7-2.9
						c2.1,0,4,1.2,4.8,3.1h0.4c1.7,0,3.2,1,3.9,2.6c0.2,0.6-0.2,1.3-0.9,1.5c-0.1,0-0.2,0-0.2,0h-18.6c-0.6,0-1.1-0.4-1.2-1
						c0-0.3,0.1-0.5,0.3-0.8C166.1,74.2,166.9,73.9,167.7,73.9z"/>
					<path class="st2" d="M485.7,128.3h0.6c1.9-3.4,5.6-5.5,9.5-5.5c1.3,0,2.6,0.3,3.8,0.7c3.9-7.6,13.2-10.7,20.8-6.9
						c3.3,1.6,5.8,4.4,7.3,7.8h1.3c5,0,9.4,3.1,11.2,7.7c0.7,1.6-0.1,3.5-1.8,4.2c-0.4,0.2-0.8,0.2-1.2,0.2h-55.1
						c-1.8,0.1-3.3-1.2-3.4-3c0-0.8,0.2-1.7,0.8-2.3C481,129.4,483.3,128.3,485.7,128.3z"/>
					<path class="st2" d="M606.7,93.8h-0.4c-1.1-1.9-3.2-3.1-5.4-3.1c-0.8,0-1.5,0.1-2.2,0.4c-1.5-3-4.5-4.9-7.9-4.9
						c-3.5,0-6.7,2.2-8.1,5.4H582c-2.8,0-5.4,1.7-6.4,4.4c-0.4,0.9,0,2,1,2.4c0.2,0.1,0.5,0.1,0.7,0.1h31.4c1,0.1,1.9-0.6,2-1.6
						c0-0.5-0.1-1-0.5-1.4C609.3,94.4,608.1,93.8,606.7,93.8z"/>
					<path class="st2" d="M364.2,141.4h0.3c0.9-1.6,2.6-2.7,4.5-2.7c0.7,0,1.3,0.2,1.9,0.4c1.8-3.6,6.1-5.1,9.8-3.4
						c1.6,0.8,2.9,2.1,3.5,3.8h0.7c2.3,0,4.4,1.4,5.3,3.6c0.3,0.8,0,1.6-0.8,2c-0.2,0.1-0.4,0.1-0.6,0.1h-26.3
						c-0.8,0-1.5-0.6-1.6-1.4c0-0.4,0.1-0.8,0.4-1.1C362,141.9,363.1,141.4,364.2,141.4z"/>
					<path class="st2" d="M46.5,120.6h-0.4c-1.3-2.2-3.6-3.5-6.1-3.5c-0.8,0-1.6,0.1-2.4,0.4c-2.5-4.9-8.4-6.8-13.3-4.4
						c-2,1-3.7,2.8-4.6,4.9h-0.8c-3.2,0-6.1,1.9-7.2,4.9c-0.4,1.1,0.2,2.3,1.3,2.7c0.2,0.1,0.4,0.1,0.6,0.1h35.2
						c1.1,0.1,2.1-0.7,2.2-1.8c0.1-0.6-0.2-1.2-0.6-1.6C49.4,121.2,48,120.5,46.5,120.6z"/>
					<path class="st2" d="M144.4,107.6c0.9,0,1.7,0.1,2.5,0.4c2.1-3.2,5.6-5.2,9.4-5.2c4.7,0,8.9,2.9,10.6,7.2
						c0.6-0.2,1.2-0.4,1.9-0.4c2.5,0,4.6,1.8,5.2,4.2c0.1,0.5-0.2,1.1-0.8,1.2c-0.1,0-0.1,0-0.2,0h-34.9c-0.6,0-1-0.4-1-1
						c0-0.1,0-0.1,0-0.2C137.6,110.2,140.8,107.6,144.4,107.6z"/>
					<path class="st2" d="M515.3,46.4l1,0.2c0.8-1.3,2.2-2.1,3.7-2.1c1.9,0,3.6,1.1,4.3,2.9l0.7-0.2c1,0,1.9,0.7,2.1,1.7
						c0.1,0.2-0.1,0.5-0.4,0.5h-14c-0.2,0-0.4-0.3-0.4-0.5C512.6,47.5,513.8,46.4,515.3,46.4z"/>
					<path class="st2" d="M27.6,42.3c0.5,0,1,0.1,1.5,0.3c2.1-3.3,6.4-4.2,9.7-2.1c1.2,0.8,2.2,2,2.7,3.3l1.2-0.2
						c1.5,0,2.8,1.1,3.2,2.6c0.1,0.3-0.2,0.6-0.5,0.7h-0.1H23.6c-0.3-0.1-0.6-0.3-0.6-0.7C23.4,44,25.3,42.3,27.6,42.3z"/>
					<polygon class="st3" points="81.7,52.3 0,253.5 0,298.3 217.7,301.5 					"/>
					<polygon class="st3" points="566.4,59.1 434,301.5 629,303.8 630,235 					"/>
					<polygon class="st4" points="81.7,52.3 59.4,156.9 95,131.8 88.8,210.2 117.8,194.8 88.6,301.5 217.7,301.5 					"/>
					<polygon class="st3" points="198.9,119.3 99.3,301.5 298.4,301.5 					"/>
					<polygon class="st3" points="428,133.5 336.3,301.5 519.7,301.5 					"/>
					<polygon class="st4" points="198.9,119.3 182.7,180.2 206.4,183.1 198.9,211.4 228.7,240.4 212,271.2 243.2,301.5 298.4,301.5 
											"/>
					<polygon class="st4" points="428,133.5 418.4,186.7 435.2,180.3 431.3,227.9 452,217 441.5,266.5 467.8,263.2 449.1,301.5 
						519.7,301.5 					"/>
					<polygon class="st4" points="566.5,58.3 548.2,125.3 575,118.5 569.6,186.7 599.7,170.9 593.5,242.6 619.3,295.5 629.3,297.5 
						629.3,233 					"/>
					<path class="st5" d="M433.5,217.1c1.7-2.9,2.6-6.2,2.6-9.6c0-5.6-2.4-10.8-6.6-14.5c4.7-6.9,2.9-16.3-4-21
						c-2.5-1.7-5.5-2.6-8.6-2.6c-8.4,0-15.2,6.9-15.1,15.3c0,3,0.9,5.9,2.5,8.3c-4.2,3.7-6.6,8.9-6.6,14.5c0,3.4,0.9,6.7,2.6,9.6
						c-10,9.2-10.7,24.7-1.6,34.8c9.2,10,24.7,10.7,34.8,1.6s10.7-24.7,1.6-34.8C434.6,218.1,434,217.6,433.5,217.1z"/>
					
						<linearGradient id="SVGID_3_" gradientUnits="userSpaceOnUse" x1="416.9" y1="-582.6" x2="441.47" y2="-582.6" gradientTransform="matrix(1 0 0 -1 0 -368)">
						<stop  offset="0" style="stop-color:#477D18"/>
						<stop  offset="1" style="stop-color:#3B6B02"/>
					</linearGradient>
					<path class="st6" d="M433.5,217.1c1.7-2.9,2.6-6.2,2.6-9.6c0-5.6-2.4-10.8-6.6-14.5c4.7-6.9,2.9-16.3-4-21
						c-2.5-1.7-5.5-2.6-8.6-2.6v90.4c13.6,0,24.6-11.1,24.5-24.7C441.4,228.3,438.5,221.7,433.5,217.1L433.5,217.1z"/>
					<polygon class="st3" points="417.9,240 417.5,214 427.2,202.7 417.4,211 416.9,181 416.6,198.6 409.6,189.3 416.5,202.5 
						416.1,227.3 409.6,218.7 416.1,231 415.2,282.3 418.6,282.3 417.9,242.8 427.2,232.1 					"/>
					<polygon class="st5" points="384.4,259.8 359.1,216.1 370.2,216.1 341.7,166.8 313.3,216.1 324.3,216.1 299.1,259.8 					"/>
					
						<linearGradient id="SVGID_4_" gradientUnits="userSpaceOnUse" x1="341.7" y1="-581.3" x2="384.35" y2="-581.3" gradientTransform="matrix(1 0 0 -1 0 -368)">
						<stop  offset="0" style="stop-color:#3B6B02"/>
						<stop  offset="1" style="stop-color:#477D18"/>
					</linearGradient>
					<polygon class="st7" points="341.7,166.8 341.7,259.8 384.4,259.8 359.1,216.1 370.2,216.1 					"/>
					<polygon class="st3" points="355.8,238.2 342.9,247.3 342.3,214.6 351.6,199 342.2,210.8 341.7,184.5 340.9,230.5 332.1,217.9 
						340.8,234.5 340,278.2 343.5,278.2 342.9,249.9 					"/>
					<polygon class="st5" points="501.1,259.9 475.8,216.1 486.9,216.1 458.5,166.9 430,216.1 441.1,216.1 415.8,259.9 					"/>
					
						<linearGradient id="SVGID_5_" gradientUnits="userSpaceOnUse" x1="458.5" y1="-581.4" x2="501.15" y2="-581.4" gradientTransform="matrix(1 0 0 -1 0 -368)">
						<stop  offset="0" style="stop-color:#3B6B02"/>
						<stop  offset="1" style="stop-color:#477D18"/>
					</linearGradient>
					<polygon class="st8" points="458.5,166.9 458.5,259.9 501.1,259.9 475.8,216.1 486.9,216.1 					"/>
					<polygon class="st3" points="472.5,238.3 459.6,247.3 459,214.7 468.3,199.1 458.9,210.9 458.5,184.6 457.6,230.6 448.8,218 
						457.5,234.5 456.7,278.3 460.2,278.3 459.7,250 					"/>
					<polygon class="st5" points="609.1,271.7 583.8,228 594.9,228 566.4,178.7 538,228 549.1,228 523.8,271.7 					"/>
					
						<linearGradient id="SVGID_6_" gradientUnits="userSpaceOnUse" x1="566.4" y1="-593.2" x2="609.05" y2="-593.2" gradientTransform="matrix(1 0 0 -1 0 -368)">
						<stop  offset="0" style="stop-color:#3B6B02"/>
						<stop  offset="1" style="stop-color:#477D18"/>
					</linearGradient>
					<polygon class="st9" points="566.4,178.7 566.4,271.7 609.1,271.7 583.8,228 594.9,228 					"/>
					<polygon class="st3" points="580.5,250.2 567.6,259.2 567,226.5 576.3,211 566.9,222.8 566.4,196.4 565.6,242.4 556.8,229.8 
						565.5,246.4 564.7,290.1 568.2,290.1 567.7,261.9 					"/>
					<polygon class="st5" points="235,264.6 209.7,220.9 220.8,220.9 192.4,171.6 163.9,220.9 175,220.9 149.7,264.6 					"/>
					
						<linearGradient id="SVGID_7_" gradientUnits="userSpaceOnUse" x1="192.4" y1="-586.1" x2="235.05" y2="-586.1" gradientTransform="matrix(1 0 0 -1 0 -368)">
						<stop  offset="0" style="stop-color:#3B6B02"/>
						<stop  offset="1" style="stop-color:#477D18"/>
					</linearGradient>
					<polygon class="st10" points="192.4,171.6 192.4,264.6 235,264.6 209.7,220.9 220.8,220.9 					"/>
					<polygon class="st3" points="206.4,243.1 193.5,252.1 192.9,219.4 202.2,203.9 192.8,215.6 192.4,189.3 191.5,235.3 
						182.7,222.7 191.4,239.3 190.6,283 194.1,283 193.6,254.8 					"/>
					<polygon class="st5" points="315.4,262.5 291.4,221 301.9,221 275,174.4 248,221 258.5,221 234.6,262.5 					"/>
					
						<linearGradient id="SVGID_8_" gradientUnits="userSpaceOnUse" x1="275" y1="-586.45" x2="315.4" y2="-586.45" gradientTransform="matrix(1 0 0 -1 0 -368)">
						<stop  offset="0" style="stop-color:#3B6B02"/>
						<stop  offset="1" style="stop-color:#477D18"/>
					</linearGradient>
					<polygon class="st11" points="275,174.4 275,262.5 315.4,262.5 291.4,221 301.9,221 					"/>
					<polygon class="st3" points="288.3,242.1 276.1,250.6 275.5,219.7 284.3,204.9 275.4,216.1 275,191.2 274.2,234.7 265.8,222.8 
						274.1,238.5 273.3,279.9 276.6,279.9 276.1,253.1 					"/>
					<ellipse class="st5" cx="115.8" cy="232" rx="16.4" ry="45.3"/>
					
						<linearGradient id="SVGID_9_" gradientUnits="userSpaceOnUse" x1="115.78" y1="-600" x2="132.22" y2="-600" gradientTransform="matrix(1 0 0 -1 0 -368)">
						<stop  offset="0" style="stop-color:#3B6B02"/>
						<stop  offset="1" style="stop-color:#477D18"/>
					</linearGradient>
					<path class="st12" d="M132.2,232c0-25-7.3-45.3-16.4-45.3v90.6C124.9,277.3,132.2,257,132.2,232z"/>
					<polygon class="st3" points="124,244.9 116.6,256.1 115.8,217.7 115.3,240.3 108.4,228.4 115.2,244.8 114.1,293.9 117.5,293.9 
						116.7,260 					"/>
					<ellipse class="st5" cx="230.1" cy="217.9" rx="17.6" ry="48.4"/>
					
						<linearGradient id="SVGID_10_" gradientUnits="userSpaceOnUse" x1="230.15" y1="-585.95" x2="247.73" y2="-585.95" gradientTransform="matrix(1 0 0 -1 0 -368)">
						<stop  offset="0" style="stop-color:#3B6B02"/>
						<stop  offset="1" style="stop-color:#477D18"/>
					</linearGradient>
					<path class="st13" d="M247.7,217.9c0-26.7-7.8-48.4-17.6-48.4v96.9C239.9,266.4,247.7,244.7,247.7,217.9z"/>
					
						<linearGradient id="SVGID_11_" gradientUnits="userSpaceOnUse" x1="222.22" y1="-611.4" x2="238.94" y2="-611.4" gradientTransform="matrix(1 0 0 -1 0 -368)">
						<stop  offset="0" style="stop-color:#315500"/>
						<stop  offset="1" style="stop-color:#2B4700"/>
					</linearGradient>
					<polygon class="st14" points="238.9,231.7 231,243.6 230.1,202.7 229.6,226.8 222.2,214 229.5,231.6 228.4,284.1 231.9,284.1 
						231.1,247.8 					"/>
					<ellipse class="st5" cx="383.6" cy="217" rx="17.6" ry="48.4"/>
					
						<linearGradient id="SVGID_12_" gradientUnits="userSpaceOnUse" x1="383.55" y1="-585" x2="401.13" y2="-585" gradientTransform="matrix(1 0 0 -1 0 -368)">
						<stop  offset="0" style="stop-color:#3B6B02"/>
						<stop  offset="1" style="stop-color:#477D18"/>
					</linearGradient>
					<path class="st15" d="M401.1,217c0-26.7-7.8-48.4-17.5-48.4v96.8C393.3,265.4,401.1,243.8,401.1,217z"/>
					<polygon class="st4" points="392.3,230.8 384.5,242.7 383.6,201.7 383,225.8 375.6,213.1 382.9,230.7 381.8,283.2 385.3,283.2 
						384.5,246.9 					"/>
					<ellipse class="st5" cx="525.9" cy="221" rx="17.6" ry="48.4"/>
					
						<linearGradient id="SVGID_13_" gradientUnits="userSpaceOnUse" x1="525.95" y1="-588.95" x2="543.53" y2="-588.95" gradientTransform="matrix(1 0 0 -1 0 -368)">
						<stop  offset="0" style="stop-color:#3B6B02"/>
						<stop  offset="1" style="stop-color:#477D18"/>
					</linearGradient>
					<path class="st16" d="M543.5,221c0-26.8-7.8-48.5-17.6-48.5v96.9C535.7,269.4,543.5,247.7,543.5,221z"/>
					<polygon class="st4" points="534.7,234.8 526.8,246.7 525.9,205.7 525.4,229.8 518,217.1 525.3,234.7 524.2,287.1 527.7,287.1 
						526.9,250.9 					"/>
					<path class="st5" d="M86.2,224.1c5-8.9,3.2-20.1-4.5-26.9c1.9-2.8,2.8-6.1,2.8-9.4c-0.7-9.3-8.8-16.3-18.1-15.6
						c-8.3,0.6-14.9,7.2-15.6,15.6c0,3.3,0.9,6.6,2.8,9.4c-4.7,4.1-7.3,10-7.3,16.2c0,3.8,1,7.5,2.9,10.7
						c-11.2,10.2-12.1,27.5-1.9,38.7s27.5,12.1,38.7,1.9c5.8-5.2,9-12.6,9-20.4C95,236.6,91.8,229.3,86.2,224.1z"/>
					
						<linearGradient id="SVGID_14_" gradientUnits="userSpaceOnUse" x1="67.8475" y1="-589.65" x2="95.2375" y2="-589.65" gradientTransform="matrix(1 0 0 -1 0 -368)">
						<stop  offset="0" style="stop-color:#477D18"/>
						<stop  offset="1" style="stop-color:#3B6B02"/>
					</linearGradient>
					<path class="st17" d="M86.4,224.4c5-8.9,3.2-20.1-4.5-26.9c1.9-2.8,2.8-6.1,2.8-9.4c0-9.3-7.5-16.8-16.8-16.8l0,0V272
						c15.2-0.1,27.4-12.6,27.2-27.8C95,236.7,91.9,229.5,86.4,224.4z"/>
					<polygon class="st3" points="68.8,249.6 68.3,220.7 79.1,208 68.2,217.3 67.7,183.9 67.3,203.4 59.5,193.1 67.3,207.9 
						66.8,235.5 59.5,225.9 66.7,239.6 65.8,296.8 69.6,296.8 68.8,252.8 79.1,240.8 					"/>
					<path class="st5" d="M173.6,225c1.7-2.9,2.6-6.2,2.6-9.6c0-5.6-2.4-10.8-6.6-14.5c4.6-7,2.7-16.3-4.3-20.9s-16.3-2.7-20.9,4.3
						c-3.3,5-3.3,11.6,0,16.6c-6.9,6-8.6,16.1-4,24.1c-10,9.2-10.7,24.7-1.6,34.8c9.2,10,24.7,10.7,34.8,1.6
						c10-9.2,10.7-24.7,1.6-34.8C174.7,226,174.1,225.5,173.6,225z"/>
					
						<linearGradient id="SVGID_15_" gradientUnits="userSpaceOnUse" x1="157" y1="-590.5" x2="181.57" y2="-590.5" gradientTransform="matrix(1 0 0 -1 0 -368)">
						<stop  offset="0" style="stop-color:#477D18"/>
						<stop  offset="1" style="stop-color:#3B6B02"/>
					</linearGradient>
					<path class="st18" d="M173.6,225c1.7-2.9,2.6-6.2,2.6-9.6c0-5.6-2.4-10.8-6.6-14.5c4.7-6.9,2.9-16.3-4-21
						c-2.5-1.7-5.5-2.6-8.6-2.6v90.4c13.6,0,24.6-11.1,24.5-24.7C181.5,236.2,178.6,229.6,173.6,225z"/>
					<polygon class="st3" points="158,247.9 157.6,221.9 167.3,210.6 157.5,218.9 157,188.9 156.7,206.5 149.7,197.2 156.7,210.4 
						156.2,235.2 149.7,226.6 156.2,238.9 155.3,290.2 158.7,290.2 158.1,250.7 167.3,240 					"/>
					<path class="st5" d="M322.5,223.9c4.3-7.3,2.7-16.6-3.7-22.1c4.3-6.4,2.7-15-3.7-19.3s-15-2.7-19.3,3.7
						c-1.6,2.3-2.4,5.1-2.4,7.9c0,2.7,0.8,5.4,2.3,7.7c-6.3,5.6-7.8,14.8-3.6,22.1c-9.2,8.4-9.8,22.6-1.4,31.8
						c8.4,9.2,22.6,9.8,31.8,1.4c9.2-8.4,9.8-22.6,1.4-31.8C323.4,224.8,323,224.3,322.5,223.9L322.5,223.9z"/>
					
						<linearGradient id="SVGID_16_" gradientUnits="userSpaceOnUse" x1="307.3" y1="-589.65" x2="329.84" y2="-589.65" gradientTransform="matrix(1 0 0 -1 0 -368)">
						<stop  offset="0" style="stop-color:#477D18"/>
						<stop  offset="1" style="stop-color:#3B6B02"/>
					</linearGradient>
					<path class="st19" d="M322.5,223.9c4.3-7.3,2.7-16.6-3.7-22.1c4.3-6.3,2.7-14.9-3.6-19.2c-2.3-1.6-5.1-2.4-7.9-2.4v82.9
						c12.5-0.1,22.5-10.3,22.5-22.7C329.7,234.1,327.1,228.1,322.5,223.9L322.5,223.9z"/>
					<polygon class="st3" points="308.2,244.9 307.8,221.1 316.7,210.7 307.7,218.4 307.3,190.8 307,206.9 300.6,198.4 307,210.6 
						306.6,233.3 300.6,225.4 306.5,236.7 305.7,283.8 308.8,283.8 308.2,247.6 316.7,237.7 					"/>
					<path class="st5" d="M513.6,226.3c1.5-2.7,2.3-5.7,2.3-8.8c0-5.1-2.2-9.9-6-13.3c1.5-2.3,2.3-5,2.3-7.7c0.7-7.6-5-14.4-12.7-15
						c-7.6-0.7-14.4,5-15,12.7c-0.1,0.8-0.1,1.6,0,2.4c0,2.7,0.8,5.4,2.3,7.7c-3.8,3.4-6,8.2-6,13.3c0,3.1,0.8,6.1,2.3,8.8
						c-9.2,8.4-9.9,22.7-1.4,31.9c8.4,9.2,22.7,9.9,31.9,1.4c9.2-8.4,9.9-22.7,1.4-31.9C514.6,227.2,514.1,226.8,513.6,226.3
						L513.6,226.3z"/>
					
						<linearGradient id="SVGID_17_" gradientUnits="userSpaceOnUse" x1="498.4333" y1="-590.95" x2="520.9733" y2="-590.95" gradientTransform="matrix(1 0 0 -1 0 -368)">
						<stop  offset="0" style="stop-color:#477D18"/>
						<stop  offset="1" style="stop-color:#3B6B02"/>
					</linearGradient>
					<path class="st20" d="M513.7,225.2c1.5-2.7,2.3-5.7,2.3-8.8c0-5.1-2.2-9.9-6-13.3c1.5-2.3,2.3-5,2.3-7.7
						c0.1-7.6-6.1-13.8-13.7-13.9h-0.1v82.9c12.5-0.1,22.5-10.3,22.5-22.7C520.9,235.4,518.3,229.5,513.7,225.2z"/>
					<polygon class="st3" points="499.3,247.4 498.9,223.5 507.8,213.1 498.8,220.8 498.4,193.3 498.1,209.3 491.6,200.9 498,213 
						497.6,235.7 491.6,227.8 497.6,239.1 496.8,286.2 499.9,286.2 499.3,250 507.8,240.1 					"/>
					<path class="st5" d="M615.1,235.2c4.2-7.3,2.7-16.5-3.6-22.1c1.5-2.3,2.3-5,2.3-7.7c0.1-7.7-6.1-13.9-13.8-14
						s-13.9,6.1-14,13.8c0,2.8,0.8,5.6,2.4,7.9c-6.4,5.5-8,14.8-3.7,22.1c-9.2,8.5-9.7,22.8-1.3,31.9c4.2,4.6,10.2,7.2,16.5,7.3
						c12.4,0.1,22.6-10,22.6-22.4C622.6,245.6,619.9,239.5,615.1,235.2z"/>
					
						<linearGradient id="SVGID_18_" gradientUnits="userSpaceOnUse" x1="599.9" y1="-600.9504" x2="622.4398" y2="-600.9504" gradientTransform="matrix(1 0 0 -1 0 -368)">
						<stop  offset="0" style="stop-color:#477D18"/>
						<stop  offset="1" style="stop-color:#3B6B02"/>
					</linearGradient>
					<path class="st21" d="M615.1,235.2c4.2-7.3,2.7-16.5-3.6-22.1c1.5-2.3,2.3-5,2.3-7.7c0-7.7-6.2-13.9-13.9-13.9l0,0v82.9
						c12.4,0.1,22.6-10,22.6-22.4C622.6,245.6,619.9,239.5,615.1,235.2z"/>
					<polygon class="st3" points="600.8,256.2 600.4,232.4 609.4,222 600.4,229.6 599.9,202.1 599.6,218.2 593.2,209.7 599.6,221.9 
						599.2,244.6 593.2,236.7 599.1,248 598.4,295.1 601.5,295.1 600.9,258.8 609.4,248.9 					"/>
					<polygon class="st5" points="66,278.1 40.7,234.4 51.8,234.4 23.3,185.1 -5.1,234.4 5.9,234.4 -19.3,278.1 					"/>
					
						<linearGradient id="SVGID_19_" gradientUnits="userSpaceOnUse" x1="23.3" y1="-599.6" x2="65.95" y2="-599.6" gradientTransform="matrix(1 0 0 -1 0 -368)">
						<stop  offset="0" style="stop-color:#3B6B02"/>
						<stop  offset="1" style="stop-color:#477D18"/>
					</linearGradient>
					<polygon class="st22" points="23.3,185.1 23.3,278.1 66,278.1 40.7,234.4 51.8,234.4 					"/>
					<polygon class="st3" points="37.4,256.6 24.5,265.6 23.9,233 33.2,217.4 23.8,229.2 23.3,202.8 22.5,248.8 13.7,236.2 
						22.4,252.8 21.6,296.5 25.1,296.5 24.5,268.3 					"/>
					<path class="st23" d="M0,292.6c0,0,351-46.8,629,0l0.1,61.2H-0.1L0,292.6z"/>
					<polygon class="st24" points="577.6,274.2 559.2,242.3 567.2,242.3 546.5,206.5 525.8,242.3 533.9,242.3 515.5,274.2 					"/>
					<polygon class="st25" points="546.5,206.5 546.5,274.2 577.6,274.2 559.2,242.3 567.2,242.3 					"/>
					<polygon class="st4" points="556.7,258.5 547.4,265 546.9,241.3 553.7,229.9 546.9,238.5 546.5,219.4 545.9,252.8 539.5,243.7 
						545.8,255.7 545.3,287.6 547.8,287.6 547.4,267 					"/>
					<ellipse class="st24" cx="376.7" cy="225.2" rx="13.7" ry="37.7"/>
					<path class="st25" d="M390.4,225.2c0-20.8-6.1-37.7-13.7-37.7V263C384.3,263,390.4,246.1,390.4,225.2z"/>
					<polygon class="st4" points="383.6,236 377.4,245.3 376.7,213.3 376.3,232.1 370.5,222.2 376.2,235.9 375.3,276.8 378.1,276.8 
						377.5,248.5 					"/>
					<ellipse class="st24" cx="464.6" cy="231.3" rx="13.7" ry="37.7"/>
					<path class="st25" d="M478.3,231.3c0-20.9-6.1-37.8-13.7-37.8V269C472.2,269,478.3,252.1,478.3,231.3z"/>
					<polygon class="st4" points="471.5,242 465.3,251.3 464.6,219.4 464.2,238.2 458.5,228.2 464.1,241.9 463.2,282.8 466,282.8 
						465.4,254.6 					"/>
					<ellipse class="st24" cx="599.6" cy="244.2" rx="13.7" ry="37.7"/>
					<path class="st25" d="M613.3,244.2c0-20.9-6.2-37.8-13.7-37.8v75.5C607.1,281.9,613.3,265,613.3,244.2z"/>
					<polygon class="st4" points="606.4,254.9 600.3,264.2 599.6,232.3 599.2,251.1 593.4,241.2 599.1,254.9 598.2,295.7 601,295.7 
						600.4,267.5 					"/>
					<ellipse class="st24" cx="519.1" cy="234.4" rx="13.7" ry="37.7"/>
					<path class="st25" d="M532.8,234.4c0-20.8-6.1-37.7-13.7-37.7v75.5C526.7,272.2,532.8,255.3,532.8,234.4z"/>
					<polygon class="st4" points="525.9,245.2 519.8,254.5 519.1,222.5 518.7,241.3 512.9,231.4 518.6,245.1 517.7,286 520.5,286 
						519.9,257.7 					"/>
					<path class="st24" d="M329.2,226.8c1.4-2.4,2.1-5.1,2.1-7.9c0-4.5-1.9-8.7-5.3-11.7c1.3-2.1,2-4.5,2-6.9
						c0-6.8-5.5-12.3-12.3-12.3l0,0v73.5c11,0,20-9,19.9-20.1C335.6,235.9,333.3,230.6,329.2,226.8z"/>
					
						<linearGradient id="SVGID_20_" gradientUnits="userSpaceOnUse" x1="316.95" y1="-647.9" x2="316.95" y2="-565.4" gradientTransform="matrix(1 0 0 -1 0 -368)">
						<stop  offset="0" style="stop-color:#387D04"/>
						<stop  offset="1" style="stop-color:#2D6600"/>
					</linearGradient>
					<polygon class="st26" points="316.5,245.4 316.2,224.3 324.1,215.1 316.1,221.8 315.7,197.4 315.5,211.7 309.8,204.2 
						315.4,214.9 315.1,235.1 309.8,228.1 315,238.1 314.3,279.9 317.1,279.9 316.6,247.7 324.1,239 					"/>
					<polygon class="st24" points="298.6,267.5 276.7,229.6 286.3,229.6 261.7,187 237.1,229.6 246.6,229.6 224.8,267.5 					"/>
					<polygon class="st25" points="261.7,187 261.7,267.5 298.6,267.5 276.7,229.6 286.3,229.6 					"/>
					<polygon class="st4" points="273.8,248.8 262.7,256.6 262.2,228.4 270.2,214.9 262.1,225.1 261.7,202.3 260.9,242.1 
						253.3,231.2 260.9,245.6 260.2,283.4 263.2,283.4 262.7,259 					"/>
					<polygon class="st24" points="464.6,266.2 446.2,234.3 454.3,234.3 433.6,198.5 412.9,234.3 420.9,234.3 402.5,266.2 					"/>
					<polygon class="st25" points="433.6,198.5 433.6,266.2 464.6,266.2 446.2,234.3 454.3,234.3 					"/>
					<polygon class="st4" points="443.8,250.5 434.4,257 434,233.3 440.8,221.9 433.9,230.5 433.6,211.4 433,244.8 426.6,235.7 
						432.9,247.7 432.3,279.6 434.9,279.6 434.5,259 					"/>
					<path class="st24" d="M152.1,229.5c1.4-2.6,2.2-5.5,2.2-8.4c0-4.8-2.1-9.4-5.7-12.6c4-6.1,2.4-14.3-3.7-18.3
						c-6.1-4-14.3-2.4-18.3,3.7c-1.4,2.2-2.2,4.7-2.2,7.3s0.8,5.2,2.3,7.3c-3.7,3.1-5.8,7.8-5.8,12.6c0,3,0.8,5.9,2.3,8.4
						c-8.7,8-9.4,21.5-1.4,30.2s21.5,9.4,30.2,1.4c4.5-4.1,7-9.8,7-15.9C159,239.3,156.5,233.6,152.1,229.5z"/>
					<path class="st25" d="M152.1,229.5c1.4-2.6,2.2-5.5,2.2-8.4c0-4.8-2.1-9.4-5.7-12.6c4-6.1,2.4-14.3-3.7-18.3
						c-2.2-1.4-4.7-2.2-7.3-2.2v78.7c11.8,0,21.4-9.5,21.5-21.3C159.1,239.3,156.6,233.6,152.1,229.5L152.1,229.5z"/>
					<polygon class="st4" points="138.5,249.5 138.1,226.8 146.6,217 138,224.2 137.6,198.1 137.4,213.4 131.2,205.3 137.3,216.8 
						136.9,238.4 131.2,230.9 136.9,241.6 136.1,286.3 139.1,286.3 138.5,251.9 146.6,242.5 					"/>
					<path class="st24" d="M242.4,231.7c3.4-5.9,2.1-13.3-3-17.8c3.5-5.1,2.2-12.1-2.9-15.6c-5.1-3.5-12.1-2.2-15.6,2.9
						c-2.6,3.8-2.6,8.8,0,12.6c-5.1,4.5-6.4,11.9-3,17.8c-7.4,6.8-8,18.3-1.2,25.7s18.3,8,25.7,1.2c7.4-6.8,8-18.3,1.2-25.7
						C243.2,232.5,242.8,232.1,242.4,231.7z"/>
					<path class="st25" d="M242.4,231.7c3.4-5.9,2.1-13.3-3-17.8c3.4-5.2,2-12.1-3.1-15.5c-1.8-1.2-4-1.9-6.2-1.9v66.7
						c10,0.1,18.2-8,18.2-18C248.4,240.1,246.2,235.2,242.4,231.7L242.4,231.7z"/>
					<polygon class="st4" points="230.9,248.6 230.6,229.4 237.8,221 230.5,227.2 230.1,205.1 229.9,218 224.8,211.2 229.9,220.9 
						229.6,239.2 224.8,232.9 229.5,242 228.9,279.9 231.4,279.9 230.9,250.7 237.8,242.7 					"/>
					<path class="st24" d="M413.9,230.8c1.3-2.1,2-4.6,2-7.1c0-4.1-1.8-8-4.9-10.7c1.3-1.8,1.9-4,1.9-6.2c0-6.2-5-11.2-11.2-11.2
						s-11.2,5-11.2,11.2l0,0c0,2.2,0.6,4.4,1.9,6.2c-5.1,4.5-6.4,11.9-3,17.8c-7.3,6.8-7.8,18.2-1,25.6c6.8,7.3,18.2,7.8,25.6,1
						c3.7-3.4,5.8-8.2,5.8-13.2C419.8,239.1,417.7,234.2,413.9,230.8z"/>
					<path class="st25" d="M413.9,230.8c1.3-2.1,2-4.6,2-7.1c0-4.1-1.8-8-4.9-10.7c1.3-1.8,1.9-4,1.9-6.2c0-6.2-5-11.2-11.2-11.2
						l0,0v66.7c10,0,18.1-8.1,18.1-18.1l0,0C419.8,239.1,417.7,234.2,413.9,230.8z"/>
					<polygon class="st4" points="402.4,247.7 402.1,228.6 409.3,220.2 402.1,226.3 401.7,204.2 401.5,217.1 396.3,210.3 
						401.4,220.1 401.1,238.4 396.3,232 401.1,241.1 400.4,279 402.9,279 402.5,249.8 409.3,241.9 					"/>
					<path class="st24" d="M506.2,238.6c3.4-5.9,2.1-13.3-3-17.8c3.5-5.1,2.2-12.1-2.9-15.6s-12.1-2.2-15.6,2.9
						c-2.6,3.8-2.6,8.8,0,12.6c-5.1,4.5-6.4,11.9-3,17.8c-7.4,6.8-8,18.3-1.2,25.7c6.8,7.4,18.3,8,25.7,1.2s8-18.3,1.2-25.7
						C507,239.4,506.6,239,506.2,238.6z"/>
					<path class="st25" d="M506.2,238.6c3.4-5.9,2.1-13.3-3-17.8c3.4-5.2,2-12.1-3.1-15.5c-1.8-1.2-3.9-1.8-6.1-1.9v66.7
						c10,0,18.1-8.1,18.1-18.1C512.1,246.9,510,242,506.2,238.6z"/>
					<polygon class="st4" points="494.7,255.5 494.4,236.3 501.6,227.9 494.3,234.1 494,211.9 493.7,224.9 488.6,218.1 493.7,227.8 
						493.4,246.1 488.6,239.8 493.3,248.9 492.7,286.8 495.2,286.8 494.7,257.6 501.6,249.6 					"/>
					<path class="st24" d="M587.1,243.8c1.3-2.1,1.9-4.6,1.9-7.1c0-4.1-1.7-8-4.8-10.7c3.4-5.1,2.1-12.1-3.1-15.5
						c-5.1-3.4-12.1-2.1-15.5,3.1c-2.5,3.8-2.5,8.7,0,12.5c-5.1,4.5-6.4,11.9-3,17.8c-7.3,6.8-7.8,18.2-1,25.6
						c6.8,7.3,18.2,7.8,25.6,1c3.7-3.4,5.8-8.2,5.8-13.2C593,252.1,590.9,247.2,587.1,243.8z"/>
					<path class="st25" d="M587.1,243.8c1.3-2.1,1.9-4.6,1.9-7.1c0-4.1-1.7-8-4.8-10.7c3.4-5.2,2-12.1-3.1-15.5
						c-1.8-1.2-4-1.9-6.2-1.9v66.7c10,0,18.1-8.1,18.1-18.1C593,252.1,590.9,247.2,587.1,243.8z"/>
					<polygon class="st4" points="575.6,260.7 575.3,241.5 582.5,233.2 575.3,239.3 574.9,217.2 574.7,230.1 569.5,223.3 
						574.6,233.1 574.3,251.4 569.5,245 574.3,254.1 573.6,292 576.1,292 575.6,262.8 582.5,254.9 					"/>
					<ellipse class="st24" cx="202.8" cy="227.9" rx="14.5" ry="39.9"/>
					<path class="st25" d="M217.3,227.9c0-22-6.5-39.9-14.5-39.9v79.8C210.8,267.8,217.3,249.9,217.3,227.9z"/>
					<polygon class="st4" points="210,239.3 203.5,249.1 202.8,215.3 202.4,235.2 196.3,224.7 202.3,239.2 201.3,282.4 204.3,282.4 
						203.6,252.6 					"/>
					<ellipse class="st24" cx="290.3" cy="232.4" rx="12.4" ry="34.2"/>
					<path class="st25" d="M302.7,232.4c0-18.9-5.6-34.2-12.4-34.2v68.3C297.1,266.5,302.7,251.2,302.7,232.4z"/>
					<polygon class="st4" points="296.5,242.1 290.9,250.5 290.3,221.6 289.9,238.6 284.7,229.6 289.8,242 289,279 291.5,279 
						291,253.5 					"/>
					<ellipse class="st24" cx="66.7" cy="238.2" rx="14.5" ry="39.9"/>
					<path class="st25" d="M81.2,238.2c0-22.1-6.5-39.9-14.5-39.9v79.8C74.7,278.1,81.2,260.2,81.2,238.2z"/>
					<polygon class="st4" points="74,249.5 67.5,259.4 66.7,225.6 66.3,245.5 60.2,235 66.2,249.5 65.2,292.7 68.2,292.7 
						67.5,262.8 					"/>
					<polygon class="st24" points="205.2,272.4 186.6,240.2 194.8,240.2 173.8,203.9 152.8,240.2 161,240.2 142.4,272.4 					"/>
					<polygon class="st25" points="173.8,203.9 173.8,272.4 205.2,272.4 186.6,240.2 194.8,240.2 					"/>
					<polygon class="st4" points="184.1,256.6 174.7,263.2 174.2,239.1 181.1,227.7 174.2,236.4 173.8,217 173.2,250.8 166.7,241.5 
						173.1,253.8 172.5,286 175.1,286 174.7,265.2 					"/>
					<polygon class="st24" points="376.7,266 359.8,236.8 367.2,236.8 348.2,203.9 329.2,236.8 336.6,236.8 319.7,266 					"/>
					<polygon class="st25" points="348.2,203.9 348.2,266 376.7,266 359.8,236.8 367.2,236.8 					"/>
					<polygon class="st4" points="357.6,251.6 349,257.7 348.6,235.8 354.8,225.4 348.5,233.3 348.2,215.7 347.6,246.4 341.7,238 
						347.6,249.1 347,278.3 349.4,278.3 349,259.4 					"/>
					<polygon class="st24" points="136.3,278.2 114.4,240.3 124,240.3 99.3,197.6 74.7,240.3 84.3,240.3 62.4,278.2 					"/>
					<polygon class="st25" points="99.3,197.6 99.3,278.2 136.3,278.2 114.4,240.3 124,240.3 					"/>
					<polygon class="st4" points="111.5,259.5 100.3,267.3 99.8,239 107.9,225.6 99.8,235.8 99.3,213 98.6,252.8 91,241.9 
						98.5,256.2 97.8,294.1 100.8,294.1 100.4,269.6 					"/>
					<polygon class="st24" points="35.8,283.3 14.6,246.6 23.9,246.6 0,205.2 -23.9,246.6 -14.6,246.6 -35.8,283.3 					"/>
					<path class="st24" d="M53.1,252.4c1.4-2.3,2.1-4.9,2.1-7.5c0-4.3-1.9-8.5-5.2-11.3c1.3-1.9,2-4.2,2-6.6
						c-0.6-6.5-6.4-11.4-12.9-10.8c-5.7,0.5-10.2,5-10.8,10.8c0,2.3,0.7,4.6,2,6.6c-3.2,2.9-5.1,7-5.1,11.3c0,2.6,0.7,5.2,2,7.5
						c-3.9,3.7-6.2,8.8-6.2,14.2c0,10.6,8.6,19.2,19.2,19.2s19.2-8.6,19.2-19.2C59.4,261.4,57,257.8,53.1,252.4L53.1,252.4z"/>
					<path class="st25" d="M53.5,253.3c1.4-2.3,2.1-4.9,2.1-7.5c0-4.3-1.9-8.5-5.2-11.3c1.3-1.9,2-4.2,2-6.6
						c0-6.5-5.3-11.8-11.8-11.8l0,0v70.6c10.6,0,19.2-8.6,19.2-19.2C59.7,262.1,57.5,256.9,53.5,253.3z"/>
					<polygon class="st4" points="40.9,269.3 40.6,249 48.2,240.2 40.6,246.7 40.2,223.3 39.9,237 34.5,229.7 39.9,240.1 
						39.6,259.4 34.5,252.7 39.5,262.3 38.9,302.4 41.5,302.4 41,271.6 48.2,263.1 					"/>
					<ellipse class="st27" cx="314.5" cy="314.1" rx="185.9" ry="31.5"/>
					<path class="st3" d="M341.9,173.9c-1.5,3.3-5.2,4.6-8.5,4.3s-6.4-1.8-9.7-2.4s-7-0.1-9.1,2.8v-11.4c2.1-2.8,5.9-3.3,9.1-2.7
						s6.4,2,9.7,2.3s7-0.9,8.5-4.3V173.9z"/>
					<line class="st28" x1="314.6" y1="199.5" x2="314.6" y2="166.1"/>
					<path class="st3" d="M470.1,317.8l-3.5-1c-0.4,1.7,0.1,9.3,0.5,11.2c1.4-1.4,5.9-7.5,6.4-9.2L470.1,317.8z"/>
					<path class="st4" d="M473.5,318.8c-0.1,0.5-1.8,0.4-3.7-0.1s-3.3-1.4-3.2-1.9s1.8-0.4,3.7,0.1S473.6,318.3,473.5,318.8z"/>
					<polygon class="st25" points="35.8,283.3 14.6,246.6 23.9,246.6 0,205.2 -23.9,246.6 -14.6,246.6 -35.8,283.3 					"/>
					<path class="st24" d="M314.5,183.1c0,0-26,69.4-89.8,138.7h179.5C340.4,252.5,314.5,183.1,314.5,183.1z"/>
					<path class="st29" d="M314.5,183.2c0,0-26,69.4-89.8,138.7h179.5C340.4,252.6,314.5,183.2,314.5,183.2z"/>
					<path class="st30" d="M314.5,194.8c0,0-23.8,63.5-82.2,127h164.4C338.2,258.3,314.5,194.8,314.5,194.8z"/>
					<path class="st4" d="M314.5,241.3c0,6.3-11,69.2-37.7,80.5h75.3C325.4,310.5,314.5,247.6,314.5,241.3z"/>
					<path class="st31" d="M347,293.8l-0.7-0.4h-0.1c-20.8-11-31.7-52-31.7-52c0,5.2,7.5,49.6,25.5,71c5.2-3.6,8.2-9.6,8.2-15.9
						C348.2,294.8,347.7,294.2,347,293.8z"/>
					<path class="st31" d="M281.9,293.8l0.7-0.4h0.1c20.9-11,31.8-52,31.8-52c0,5.2-7.6,49.6-25.5,71c-5.2-3.6-8.3-9.6-8.3-15.9
						C280.7,294.8,281.2,294.2,281.9,293.8z"/>
					<polygon class="st4" points="11.8,264.7 1,272.3 0.5,244.9 8.3,231.8 0.4,241.7 0,219.6 -0.7,258.2 -8.1,247.6 -0.8,261.5 
						-1.5,298.2 1.5,298.2 1,274.5 					"/>
					<path class="st32" d="M314.5,183.1c0,0,69,110.6,157.4,138.7"/>
					<path class="st3" d="M455.2,288.3l-3.4-1c-0.5,1.7,0.1,9.2,0.5,11.2c1.3-1.4,5.9-7.6,6.3-9.2L455.2,288.3z"/>
					<path class="st4" d="M458.6,289.3c-0.1,0.5-1.7,0.4-3.6-0.1s-3.4-1.4-3.2-1.9s1.8-0.5,3.7,0.1S458.8,288.8,458.6,289.3z"/>
					<path class="st32" d="M314.5,183.1c0,0,54.2,81.1,142.5,109.2"/>
					<path class="st3" d="M173.7,288.3l3.4-1c0.5,1.7-0.1,9.2-0.5,11.2c-1.3-1.4-5.8-7.6-6.3-9.2L173.7,288.3z"/>
					<path class="st4" d="M170.3,289.3c0.1,0.5,1.8,0.4,3.7-0.1s3.3-1.4,3.1-1.9s-1.8-0.5-3.6,0.1S170.1,288.8,170.3,289.3z"/>
					<path class="st32" d="M314.5,183.1c0,0-54.2,81.1-142.6,109.2"/>
					<path class="st3" d="M158.9,317.8l3.4-1c0.5,1.7-0.1,9.3-0.5,11.2c-1.4-1.4-5.9-7.5-6.4-9.2L158.9,317.8z"/>
					<path class="st4" d="M155.4,318.8c0.2,0.5,1.8,0.4,3.7-0.1s3.3-1.4,3.2-1.9s-1.8-0.4-3.7,0.1S155.3,318.3,155.4,318.8z"/>
					<path class="st32" d="M314.5,183.1c0,0-69.1,110.6-157.5,138.7"/>
					<path class="st3" d="M329.2,294.6h-29.5c-5.7,12.4-13.3,23.2-22.9,27.2h75.3C342.5,317.8,334.9,307,329.2,294.6z"/>
					<path class="st27" d="M46.9,343.3c0,0.6-2.2,1-4.8,1s-4.7-0.4-4.7-1s2.1-1.1,4.7-1.1S46.9,342.7,46.9,343.3z"/>
					<path class="st27" d="M66.4,304c0,0.3-1.2,1.6-2.7,1.6S61,304.3,61,304s1.2-0.6,2.7-0.6C65.2,303.4,66.4,303.7,66.4,304z"/>
					<path class="st27" d="M131.6,338.8c0,2.8-1.3,0.6-2.7,0.6s-2.8-0.3-2.8-0.6s1.3-0.6,2.8-0.6S131.6,338.5,131.6,338.8z"/>
					<path class="st27" d="M214.7,348.9c0,0.3-1.2,1.6-2.7,1.6s-2.7-1.3-2.7-1.6s1.2-0.6,2.7-0.6S214.7,348.5,214.7,348.9z"/>
					<path class="st27" d="M128.9,290.2c0,0.4-1.3,0.7-2.8,0.7s-2.7-0.3-2.7-0.7s1.3-0.6,2.7-0.6S128.9,292.4,128.9,290.2z"/>
					<path class="st27" d="M116.2,317c0,0.6-2.1,1.1-4.7,1.1s-4.8-0.5-4.8-1.1s2.2-1.1,4.8-1.1S116.2,316.4,116.2,317z"/>
					<path class="st27" d="M517.7,328c0,0.6-2.2,1.1-4.8,1.1s-4.7-0.5-4.7-1.1s2.1-1.1,4.7-1.1C515.5,326.9,517.7,327.4,517.7,328z"
						/>
					<path class="st27" d="M566.8,299.6c0,0.6-2.1,1-4.8,1s-4.7-0.4-4.7-1c0,1.9,2.1-1.1,4.7-1.1S566.8,299,566.8,299.6z"/>
					<path class="st27" d="M598.2,339.3c0,0.6-2.2,1.1-4.8,1.1s-4.8-0.5-4.8-1.1s2.2-1.1,4.8-1.1S598.2,338.7,598.2,339.3z"/>
					<path class="st27" d="M174.1,342.2c0,0.6-2.2,1.1-4.8,1.1s-4.7-0.5-4.7-1.1s2.1-1.1,4.7-1.1S174.1,341.6,174.1,342.2z"/>
					<ellipse class="st27" cx="81.7" cy="338.8" rx="7.7" ry="1.8"/>
					<ellipse class="st27" cx="466.5" cy="344.6" rx="7.7" ry="1.8"/>
					<path class="st27" d="M570.7,322.4c0,1-3.4,1.8-7.7,1.8s-7.7-0.8-7.7-1.8s3.4-1.8,7.7-1.8S570.7,321.4,570.7,322.4z"/>
					<path class="st27" d="M610.8,307.8c0,1-3.5,1.8-7.7,1.8s-7.8-0.8-7.8-1.8s3.5-1.7,7.8-1.7S610.8,306.9,610.8,307.8z"/>
					<ellipse class="st27" cx="497.7" cy="293.9" rx="7.7" ry="1.8"/>
					<ellipse class="st27" cx="21" cy="318.8" rx="7.7" ry="1.8"/>
					<path class="st27" d="M418.5,344.6c0,0.3-1.2,0.6-2.7,0.6s-2.7-0.3-2.7-0.6s1.2-0.7,2.7-0.7S418.5,344.2,418.5,344.6z"/>
					<path class="st27" d="M538.2,343.9c0,0.4-1.2,0.7-2.7,0.7s-2.7-0.3-2.7-0.7s1.2-0.6,2.7-0.6S538.2,343.6,538.2,343.9z"/>
					<path class="st27" d="M618.7,322.5c0,0.3-1.2,0.6-2.7,0.6s-2.7-0.3-2.7-0.6s1.2,0.3,2.7,0.3S618.7,322.1,618.7,322.5z"/>
					<path class="st27" d="M526.5,306.8c0,0.4-1.2,0.6-2.7,0.6s-2.7-0.2-2.7-0.6s1.2,0.4,2.7,0.4S526.5,306.5,526.5,306.8z"/>
				</g>
			</g>
		</g>
	</g>
	<polygon class="st24" points="664.8,282.8 643.6,246.1 652.8,246.1 629,204.7 605.1,246.1 614.4,246.1 593.2,282.8 	"/>
	<polygon class="st4" points="640.8,264.7 630,272.2 629.5,244.9 637.3,231.8 629.4,241.7 629,219.6 628.3,258.2 620.9,247.6 
		628.2,261.5 627.5,298.2 630.4,298.2 630,274.5 	"/>
</g>
<rect x="627.9" y="298.1" class="st23" width="9.7" height="56.9"/>
<rect x="-8.3" y="298.3" class="st23" width="9.8" height="56"/>
<rect x="-1.2" y="233.5" class="st4" width="1.5" height="64.7"/>
</svg>
