<?xml version="1.0" encoding="utf-8"?>
<!-- Generator: Adobe Illustrator 22.1.0, SVG Export Plug-In . SVG Version: 6.00 Build 0)  -->
<svg version="1.1" id="Layer_1" xmlns="http://www.w3.org/2000/svg" xmlns:xlink="http://www.w3.org/1999/xlink" x="0px" y="0px"
	 viewBox="0 0 512 512" style="enable-background:new 0 0 512 512;" xml:space="preserve">
<style type="text/css">
	.st0{fill:#66C7ED;}
	.st1{fill:#FDAE2F;}
	.st2{fill:#FECF32;}
	.st3{fill:#DD104F;}
	.st4{fill:#17A388;}
	.st5{fill:#FB3A4A;}
	.st6{fill:#3FC37C;}
	.st7{fill:#2F373B;}
	.st8{fill:#FFFFFF;}
</style>
<path class="st0" d="M512,256c0,18.1-1.9,35.8-5.5,52.9v0c-15.7,74.7-63.9,137.4-129.2,172.6c-2.8,1.5-5.5,2.9-8.4,4.3
	C334.9,502.6,296.5,512,256,512s-78.9-9.4-113-26.2c-6.3-3.1-12.4-6.4-18.4-10c-25.9-15.5-48.8-35.4-67.6-58.7
	C32,386.2,14,349.3,5.5,308.9C1.9,291.8,0,274.1,0,256C0,114.6,114.6,0,256,0S512,114.6,512,256z"/>
<path class="st1" d="M394.3,151.1c0,76.4-61.9,138.3-138.3,138.3s-138.3-61.9-138.3-138.3S179.6,12.8,256,12.8
	S394.3,74.7,394.3,151.1z"/>
<path class="st2" d="M394.3,151.1c0,69.9-51.8,127.7-119.1,137C207.8,278.8,156,221,156,151.1c0-69.9,51.8-127.7,119.2-137
	C342.5,23.5,394.3,81.2,394.3,151.1z"/>
<path class="st3" d="M506.5,308.9C506.5,308.9,506.5,308.9,506.5,308.9c-15.7,74.7-63.9,137.4-129.2,172.6c-2.8,1.5-5.5,2.9-8.4,4.3
	c-74.2-2.5-133.6-63.4-133.6-138.2c0-76.4,61.9-138.3,138.3-138.3C436.6,209.3,489.8,251.3,506.5,308.9z"/>
<path class="st4" d="M276.6,347.6c0,69.9-51.8,127.7-119.2,137c-4.7,0.7-9.6,1.1-14.4,1.2c-69.5-34.2-121.2-99-137.6-176.9
	c16.7-57.6,69.9-99.6,132.8-99.6c6.5,0,12.9,0.4,19.2,1.3C224.8,219.9,276.6,277.7,276.6,347.6z"/>
<path class="st5" d="M506.5,308.9c-15.7,74.7-63.9,137.4-129.2,172.6c-59.6-15.4-103.6-69.5-103.6-133.9
	c0-69.9,51.8-127.7,119.2-137C447.2,218.1,491.5,257.3,506.5,308.9z"/>
<path class="st6" d="M276.6,347.6c0,69.9-51.8,127.7-119.2,137c-11.4-1.6-22.4-4.6-32.8-8.8c-25.9-15.5-48.8-35.4-67.6-58.7
	c-11.9-20.4-18.7-44.2-18.7-69.5c0-69.9,51.8-127.7,119.2-137C224.8,219.9,276.6,277.7,276.6,347.6z"/>
<path class="st7" d="M94.4,306.5c0,10.7-8.7,19.4-19.4,19.4s-19.4-8.7-19.4-19.4s8.7-19.4,19.4-19.4S94.4,295.8,94.4,306.5z"/>
<path class="st7" d="M220.9,306.5c0,10.7-8.7,19.4-19.4,19.4s-19.4-8.7-19.4-19.4s8.7-19.4,19.4-19.4S220.9,295.8,220.9,306.5z"/>
<path class="st8" d="M90.4,303.1c0,4.6-3.7,8.3-8.3,8.3c-4.6,0-8.3-3.7-8.3-8.3c0-4.6,3.7-8.3,8.3-8.3
	C86.7,294.8,90.4,298.5,90.4,303.1z"/>
<path class="st8" d="M217.9,303.1c0,4.6-3.7,8.3-8.3,8.3c-4.6,0-8.3-3.7-8.3-8.3c0-4.6,3.7-8.3,8.3-8.3
	C214.2,294.8,217.9,298.5,217.9,303.1z"/>
<path class="st7" d="M329.8,306.5c0,10.7-8.7,19.4-19.4,19.4s-19.4-8.7-19.4-19.4s8.7-19.4,19.4-19.4S329.8,295.8,329.8,306.5z"/>
<path class="st7" d="M456.3,306.5c0,10.7-8.7,19.4-19.4,19.4s-19.4-8.7-19.4-19.4s8.7-19.4,19.4-19.4S456.3,295.8,456.3,306.5z"/>
<path class="st8" d="M325.8,303.1c0,4.6-3.7,8.3-8.3,8.3c-4.6,0-8.3-3.7-8.3-8.3c0-4.6,3.7-8.3,8.3-8.3
	C322.1,294.8,325.8,298.5,325.8,303.1z"/>
<path class="st8" d="M453.3,303.1c0,4.6-3.7,8.3-8.3,8.3c-4.6,0-8.3-3.7-8.3-8.3c0-4.6,3.7-8.3,8.3-8.3
	C449.6,294.8,453.3,298.5,453.3,303.1z"/>
<path class="st7" d="M212.1,106.2c0,10.7-8.7,19.4-19.4,19.4s-19.4-8.7-19.4-19.4s8.7-19.4,19.4-19.4S212.1,95.5,212.1,106.2z"/>
<path class="st7" d="M338.6,106.2c0,10.7-8.7,19.4-19.4,19.4s-19.4-8.7-19.4-19.4s8.7-19.4,19.4-19.4S338.6,95.5,338.6,106.2z"/>
<g>
	<path class="st8" d="M208.1,102.8c0,4.6-3.7,8.3-8.3,8.3c-4.6,0-8.3-3.7-8.3-8.3s3.7-8.3,8.3-8.3
		C204.4,94.5,208.1,98.2,208.1,102.8z"/>
	<path class="st8" d="M335.6,102.8c0,4.6-3.7,8.3-8.3,8.3c-4.6,0-8.3-3.7-8.3-8.3s3.7-8.3,8.3-8.3
		C331.9,94.5,335.6,98.2,335.6,102.8z"/>
	<path class="st8" d="M82.1,351.9c0,31.1,25.2,56.2,56.2,56.2s56.2-25.2,56.2-56.2"/>
</g>
<path class="st3" d="M424.9,395.3c-4,0-7.8-2.3-9.5-6.1c-7.4-16.3-23.8-26.8-41.7-26.8s-34.3,10.5-41.7,26.8
	c-2.4,5.3-8.6,7.6-13.8,5.2s-7.6-8.6-5.2-13.8c10.8-23.7,34.6-39,60.7-39c26.1,0,49.9,15.3,60.7,39c2.4,5.3,0.1,11.4-5.2,13.8
	C427.8,395,426.3,395.3,424.9,395.3z"/>
<path class="st1" d="M307.2,175.8H204.8c-5.8,0-10.4-4.7-10.4-10.4c0-5.8,4.7-10.4,10.4-10.4h102.4c5.8,0,10.4,4.7,10.4,10.4
	C317.6,171.1,313,175.8,307.2,175.8z"/>
</svg>
