<svg id="Layer_1" enable-background="new 0 0 512 512" height="512" viewBox="0 0 512 512" width="512" xmlns="http://www.w3.org/2000/svg"><g><path d="m355.498 21.061-64.404-18.548c-11.463-1.645-23.176-2.513-35.094-2.513s-23.631.868-35.094 2.513l-64.403 18.548c-85.727 38.146-145.505 124.057-145.505 223.941 0 135.311 109.691 245.003 245.002 245.003s245.002-109.691 245.002-245.003c0-99.884-59.778-185.795-145.504-223.941z" fill="#45304c"/><path d="m220.906 2.513c-22.612 3.244-44.226 9.57-64.403 18.548l56.88 134.523c1.204 2.848 3.996 4.699 7.089 4.699h5.939l30.602-72.376z" fill="#ff4155"/><path d="m238.169 43.341s1.015 55.683-48.702 55.683l23.915 56.56c1.204 2.848 3.996 4.699 7.089 4.699h5.939l30.602-72.376z" fill="#e80054"/><ellipse cx="256" cy="360.435" fill="#ffdd7b" rx="151.565" ry="151.565" transform="matrix(.707 -.707 .707 .707 -179.885 286.588)"/><path d="m328.815 493.389c-.6-.666-1.423-1.141-2.391-1.259-12.872-1.571-14.076-10.446-13.646-15.609.16-1.921-1.172-3.692-3.07-4.028-8.098-1.432-9.089-7.628-8.845-11.616.118-1.924-1.176-3.663-3.071-4.018-33.652-6.299-30.981-36.936-29.877-44.101.153-.993-.095-2.001-.685-2.815l-41.227-56.825c-.491-.677-1.205-1.146-2.008-1.381-14.74-4.314-15.291-17.827-14.784-23.728.136-1.577-.705-3.067-2.12-3.776-3.446-1.724-4.145-4.128-4.054-5.984.084-1.71-1.083-3.214-2.697-3.781-15.542-5.468-18.086-21.105-18.435-28.009-.091-1.811-1.448-3.3-3.241-3.574-8.124-1.24-9.193-7.258-8.954-11.295.119-2.009-1.368-3.73-3.364-3.99-12.973-1.69-13.794-11.713-13.481-16.252.041-.593-.063-1.172-.278-1.702-29.624 27.664-48.151 67.06-48.151 110.79-.001 83.706 67.857 151.564 151.564 151.564 26.391 0 51.204-6.751 72.815-18.611z" fill="#ffc839"/><path d="m339.942 234.228c-.098-.011-24.338-2.787-17.272 19.095 7.08 21.927 54.961 140.826 54.961 140.826s6.735 18.518 24.424 6.897c3.586-12.926 5.511-26.543 5.511-40.612-.001-52.659-26.861-99.04-67.624-126.206z" fill="#fcedb1"/><path d="m339.942 234.228c-.098-.011-24.338-2.787-17.272 19.095 1.076 3.332 3.098 8.913 5.747 15.967 10.025 10.459 22.711 21.188 32.573 21.188 18.979 0 19.193-16.472 19.195-16.92-10.848-15.476-24.503-28.84-40.243-39.33z" fill="#fff7d7"/><ellipse cx="256" cy="360.435" fill="#ffb332" rx="126.206" ry="126.206" transform="matrix(1 -.026 .026 1 -9.387 6.854)"/><path d="m309.708 472.493c-8.098-1.432-9.089-7.628-8.845-11.616.118-1.924-1.176-3.663-3.071-4.018-33.652-6.299-30.981-36.936-29.877-44.101.153-.993-.095-2.001-.685-2.815l-41.227-56.825c-.491-.677-1.205-1.146-2.008-1.381-14.74-4.314-15.291-17.827-14.784-23.728.136-1.577-.705-3.067-2.12-3.776-3.446-1.724-4.145-4.128-4.054-5.984.084-1.71-1.083-3.214-2.697-3.781-15.542-5.468-18.086-21.105-18.435-28.009-.091-1.811-1.448-3.3-3.241-3.574-8.124-1.24-9.193-7.258-8.954-11.295.055-.92-.24-1.772-.754-2.458-24.114 23-39.161 55.427-39.161 91.303 0 69.59 56.615 126.207 126.206 126.207 20.006 0 38.935-4.687 55.76-13.008-.535-.575-1.236-.996-2.053-1.141z" fill="#ffa219"/><g><path d="m310.353 225.933c-2.761 0-5-2.238-5-5v-56.188c0-2.157-1.755-3.912-3.911-3.912h-90.884c-2.157 0-3.911 1.755-3.911 3.912v56.188c0 2.762-2.239 5-5 5s-5-2.238-5-5v-56.188c0-7.671 6.241-13.912 13.911-13.912h90.884c7.671 0 13.911 6.241 13.911 13.912v56.188c0 2.762-2.238 5-5 5z" fill="#ffc839"/></g><path d="m353.536 404.696c-19.456-.847-21.74-5.22-45.322-5.22-26.109 0-26.109 5.361-52.218 5.361-26.108 0-26.108-5.361-52.216-5.361-23.579 0-25.864 4.373-45.315 5.22 16.847 37.049 54.183 62.81 97.536 62.81 43.352 0 80.688-25.761 97.535-62.81z" fill="#ffc839"/><path d="m297.792 456.86c-33.652-6.299-30.981-36.936-29.877-44.101.153-.993-.095-2.001-.685-2.815l-3.827-5.275c-2.226.106-4.666.168-7.407.168-26.108 0-26.108-5.361-52.216-5.361-23.579 0-25.864 4.373-45.315 5.22 16.847 37.049 54.183 62.81 97.536 62.81 15.653 0 30.513-3.373 43.916-9.409-.537-.62-1.264-1.076-2.125-1.237z" fill="#ffb332"/><path d="m355.719 321.29c-15.625-39.794-54.382-67.967-99.719-67.967s-84.094 28.173-99.719 67.967c21.497-.603 23.066-5.298 47.499-5.298 26.108 0 26.108 5.361 52.216 5.361 26.109 0 26.109-5.361 52.218-5.361 24.436 0 26.003 4.696 47.505 5.298z" fill="#ffc839"/><path d="m202.367 316.001c-.484-.693-1.195-1.239-2.029-1.533-15.542-5.468-18.086-21.105-18.435-28.009-.046-.911-.413-1.74-.994-2.375-10.623 10.452-19.086 23.092-24.628 37.206 21.07-.591 23.01-5.11 46.086-5.289z" fill="#ffb332"/><path d="m356.957 396.225c3.972-11.197 6.134-23.251 6.134-35.81 0-10.593-1.538-20.827-4.403-30.491-24.378-.234-24.96-5.353-50.474-5.353-26.109 0-26.109 5.362-52.218 5.362-26.108 0-26.108-5.362-52.216-5.362-25.512 0-26.095 5.119-50.467 5.353-2.865 9.664-4.403 19.898-4.403 30.491 0 12.559 2.162 24.613 6.134 35.81 22.684-.454 23.843-5.328 48.737-5.328 26.108 0 26.108 5.362 52.216 5.362 26.109 0 26.109-5.362 52.218-5.362 24.895 0 26.053 4.875 48.742 5.328z" fill="#ffc839"/><path d="m255.996 396.259c.447 0 .867-.005 1.299-.008l-31.292-43.131c-.491-.677-1.205-1.146-2.008-1.381-14.74-4.314-15.291-17.827-14.784-23.728.115-1.336-.475-2.604-1.517-3.393-1.242-.028-2.534-.046-3.914-.046-25.512 0-26.095 5.119-50.467 5.353-2.865 9.664-4.403 19.898-4.403 30.491 0 12.559 2.162 24.613 6.134 35.81 22.684-.454 23.843-5.328 48.737-5.328 26.106-.001 26.106 5.361 52.215 5.361z" fill="#ffb332"/><path d="m358.846 330.462c-.961-3.307-2.078-6.547-3.342-9.714-21.298-.628-22.937-5.292-47.291-5.292-26.109 0-26.109 5.362-52.218 5.362-26.108 0-26.108-5.362-52.216-5.362-24.351 0-25.991 4.664-47.284 5.292-1.263 3.166-2.38 6.407-3.342 9.714 24.528-.213 25.059-5.355 50.626-5.355 26.108 0 26.108 5.362 52.216 5.362 26.109 0 26.109-5.362 52.218-5.362 25.571 0 26.1 5.142 50.633 5.355z" fill="#ffdd7b"/><path d="m208.275 325.165c-.326-.376-.721-.699-1.186-.931-3.446-1.724-4.145-4.128-4.054-5.984.052-1.067-.383-2.053-1.109-2.782-22.589.231-24.694 4.669-45.431 5.281-1.263 3.166-2.38 6.407-3.342 9.714 24.528-.213 25.058-5.355 50.626-5.355 1.593-.001 3.086.02 4.496.057z" fill="#ffc839"/><path d="m353.295 405.221c1.43-3.099 2.715-6.279 3.849-9.529-22.87-.43-23.966-5.332-48.931-5.332-26.109 0-26.109 5.362-52.218 5.362-26.108 0-26.108-5.362-52.216-5.362-24.962 0-26.059 4.901-48.924 5.331 1.134 3.251 2.419 6.43 3.849 9.529 19.23-.873 21.594-5.209 45.075-5.209 26.108 0 26.108 5.362 52.216 5.362 26.109 0 26.109-5.362 52.218-5.362 23.485.001 25.847 4.338 45.082 5.21z" fill="#ffdd7b"/><path d="m255.996 405.373c2.897 0 5.457-.069 7.783-.186l-6.871-9.47c-.306.001-.598.006-.912.006-26.108 0-26.108-5.362-52.216-5.362-24.962 0-26.059 4.901-48.924 5.331 1.133 3.251 2.419 6.43 3.849 9.529 19.23-.873 21.594-5.209 45.075-5.209 26.107 0 26.107 5.361 52.216 5.361z" fill="#ffc839"/><path d="m230.617 300.831c-7.707-12.241-16.989-19.944-22.148-23.625-1.591-1.135-3.758.181-3.485 2.116.886 6.275 3.439 18.065 10.745 30.549.451.771 1.092 1.413 1.852 1.882l6.241 3.862c.475.294 1.075.297 1.552.007l5.897-3.581c.477-.29.752-.823.71-1.38l-.548-7.319c-.066-.89-.34-1.755-.816-2.511z" fill="#fcedb1"/><path d="m227.74 306.354c-2.71-.161-5.139-1.72-6.532-4.051-2.417-4.045-7.047-11.839-9.209-15.803-1.657-3.038-.948-5.232.017-6.592-1.315-1.062-2.517-1.966-3.548-2.702-1.591-1.135-3.758.181-3.485 2.116.886 6.275 3.439 18.065 10.745 30.549.451.771 1.092 1.413 1.852 1.882l6.241 3.862c.475.294 1.075.297 1.552.007l5.897-3.581c.477-.29.752-.823.71-1.38l-.352-4.702c-1.428.371-2.739.463-3.888.395z" fill="#ffdd7b"/><path d="m281.383 300.831c7.707-12.241 16.989-19.944 22.148-23.625 1.591-1.135 3.758.181 3.485 2.116-.886 6.275-3.439 18.065-10.745 30.549-.451.771-1.092 1.413-1.851 1.882l-6.241 3.862c-.475.294-1.075.297-1.552.007l-5.897-3.581c-.478-.29-.752-.823-.71-1.38l.548-7.319c.065-.89.339-1.755.815-2.511z" fill="#fcedb1"/><path d="m293.556 311.727c-3.353-2.509-4.093-7.251-1.963-10.857 3.009-5.094 8.178-13.848 9.657-16.37 1.104-1.883 3.351-2.211 5.259-2.094.209-1.13.378-2.171.507-3.084.273-1.935-1.894-3.251-3.485-2.116-5.159 3.681-14.441 11.384-22.148 23.625-.476.755-.75 1.621-.816 2.511l-.548 7.319c-.042.557.233 1.09.71 1.38l5.897 3.581c.477.29 1.077.287 1.552-.007l5.809-3.594c-.146-.096-.294-.191-.431-.294z" fill="#ffdd7b"/><g fill="#fcedb1"><path d="m296.946 418.617-16.73-27.554c-1.14 2.494-2.408 4.914-3.796 7.251-.29.508-.585 1.012-.886 1.513l14.103 23.228c1.225 2.018 3.855 2.661 5.873 1.435 2.019-1.226 2.662-3.855 1.436-5.873z"/><path d="m231.784 391.063-16.73 27.554c-1.225 2.018-.583 4.647 1.436 5.873 2.018 1.225 4.648.583 5.873-1.435l14.103-23.227c-.303-.503-.599-1.01-.89-1.52-1.387-2.336-2.654-4.753-3.792-7.245z"/><path d="m237.061 319.987-5.228-8.609c-1.225-2.018-3.855-2.661-5.873-1.435-2.018 1.225-2.661 3.855-1.435 5.873l7.854 12.936c1.367-3.024 2.933-5.953 4.682-8.765z"/><path d="m286.039 309.942c-2.018-1.225-4.648-.583-5.873 1.435l-5.228 8.61c1.749 2.812 3.315 5.741 4.682 8.764l7.854-12.936c1.226-2.018.583-4.647-1.435-5.873z"/></g><path d="m291.094 2.513-66.855 157.755c-.405.956.297 2.015 1.335 2.015h64.955c3.092 0 5.885-1.851 7.089-4.699l57.88-136.523c-20.178-8.978-41.792-15.304-64.404-18.548z" fill="#50dd89"/><g><path d="m310.353 188.577h-108.706c-2.761 0-5-2.238-5-5s2.239-5 5-5h108.706c2.761 0 5 2.238 5 5 0 2.761-2.238 5-5 5z" fill="#ffdd7b"/></g><path d="m315.353 183.577c0-2.762-2.239-5-5-5h-32.04c-2.761 0-5 2.238-5 5s2.239 5 5 5h32.04c2.762 0 5-2.239 5-5z" fill="#fcedb1"/><path d="m417.486 60.764c-24.56 6.447-56.147 20.515-67.773 50.986-20.096 52.667 31.134 104.08 61.408 141.573 47.862 59.273 22.037 116.095 30.921 151.088 36.749-42.849 58.96-98.532 58.96-159.409 0-73.446-32.323-139.336-83.516-184.238z" fill="#543e5b"/><path d="m162.288 111.75c-11.627-30.471-43.214-44.539-67.773-50.986-51.193 44.901-83.517 110.792-83.517 184.238 0 60.876 22.211 116.559 58.96 159.409 8.884-34.993-16.94-91.815 30.921-151.088 30.275-37.493 81.505-88.906 61.409-141.573z" fill="#543e5b"/><path d="m272.375 149.833c-2.515-7.072-2.01-14.865.996-21.742 7.674-17.552 30.164-69.096 39.982-92.675 4.979-11.957 14.978-18.112 24.943-21.228-15.106-5.385-30.893-9.336-47.202-11.676l-66.855 157.755c-.405.956.296 2.016 1.335 2.016h56.124c-4.926-3.485-7.75-8.026-9.323-12.45z" fill="#38c674"/><g><path d="m280.829 329.494c-4.763-10.986-11.987-20.592-20.95-28.074h-7.759c-8.964 7.482-16.187 17.088-20.95 28.074 5.08 9.1 7.986 19.651 7.986 30.901s-2.906 21.801-7.986 30.901c4.762 10.986 11.986 20.592 20.95 28.074h7.759c8.964-7.482 16.188-17.088 20.95-28.075-5.08-9.1-7.986-19.651-7.986-30.901.001-11.249 2.906-21.8 7.986-30.9z" fill="#ffb332"/><g fill="#ffa219"><path d="m263.82 397.563-15.375-6.666c-9.969 3.521-12.964-6.323-12.964-6.323l-1.5 1.011c-.845 1.958-1.781 3.866-2.811 5.711 4.762 10.986 11.986 20.592 20.95 28.074h7.759c5.595-4.671 10.512-10.169 14.576-16.314-8.183 1.994-10.635-5.493-10.635-5.493z"/><path d="m280.362 392.354c4.386-9.713 6.835-20.541 6.835-31.959s-2.449-22.246-6.835-31.959c-5.454 9.336-8.59 20.27-8.59 31.959-.001 11.689 3.136 22.623 8.59 31.959z"/><path d="m231.639 392.354c5.454-9.336 8.59-20.27 8.59-31.959s-3.137-22.623-8.59-31.959c-4.386 9.713-6.835 20.541-6.835 31.959 0 11.417 2.449 22.246 6.835 31.959z"/></g><path d="m256 353.145c1.148 0 2.241.232 3.235.652 2.742-4.6 4.651-14.868 4.651-26.797 0-10.97-1.614-20.536-4.007-25.58-.407-.34-.817-.675-1.231-1.006-1.55-1.239-3.747-1.239-5.297 0-.414.331-.824.667-1.231 1.006-2.392 5.045-4.007 14.61-4.007 25.58 0 11.929 1.909 22.197 4.651 26.797.995-.42 2.088-.652 3.236-.652z" fill="#ffdd7b"/><path d="m256 367.645c-1.147 0-2.241-.232-3.235-.652-2.742 4.6-4.651 14.868-4.651 26.797 0 10.97 1.614 20.536 4.006 25.58.407.34.817.675 1.231 1.006 1.55 1.239 3.747 1.239 5.297 0 .414-.331.824-.667 1.231-1.006 2.392-5.045 4.007-14.61 4.007-25.581 0-11.929-1.909-22.197-4.651-26.797-.994.42-2.088.653-3.235.653z" fill="#ffc839"/><path d="m248.445 335.438c.659 8.197 2.252 14.89 4.319 18.359.995-.42 2.088-.652 3.235-.652 1.148 0 2.241.232 3.235.652 1.127-1.891 2.11-4.752 2.881-8.28-10.604 1.428-13.643-9.954-13.67-10.079z" fill="#ffc839"/><circle cx="256" cy="360.395" fill="#ffdd7b" r="8.322"/></g></g></svg>