<svg viewBox="0 0 512 512" xmlns="http://www.w3.org/2000/svg"><path d="m512 256c0 63.292969-22.980469 121.210938-61.039062 165.890625-14.234376 10.960937-27.285157 23.386719-38.921876 37.050781-43.199218 33.261719-97.304687 53.058594-156.039062 53.058594-58.65625 0-112.699219-19.742188-155.867188-52.925781-11.539062-13.457031-24.457031-25.695313-38.527343-36.511719-38.398438-44.773438-61.605469-102.953125-61.605469-166.5625 0-141.386719 114.613281-256 256-256s256 114.613281 256 256zm0 0" fill="#463b83"/><path d="m441 390h-370c-5.523438 0-10-4.476562-10-10v-130c0-5.523438 4.476562-10 10-10h370c5.523438 0 10 4.476562 10 10v130c0 5.523438-4.476562 10-10 10zm0 0" fill="#d6bf01"/><path d="m430 67.0625v282.9375h-340.753906v-312.9375h310.753906c16.570312 0 30 13.429688 30 30zm0 0" fill="#98e5fb"/><path d="m89.246094 350v-312.9375h26.078125v312.9375zm0 0" fill="#62dafa"/><path d="m377.84375 63.140625v15.382813c0 1.105468-.894531 2-2 2h-310.675781c-1.105469 0-2-.894532-2-2v-15.382813c0-14.402344 11.675781-26.078125 26.078125-26.078125h314.675781c-14.402344 0-26.078125 11.675781-26.078125 26.078125zm0 0" fill="#c7eefd"/><path d="m89.246094 63.140625v17.382813h-24.078125c-1.105469 0-2-.894532-2-2v-15.382813c0-14.402344 11.675781-26.078125 26.078125-26.078125h26.078125c-14.402344 0-26.078125 11.675781-26.078125 26.078125zm0 0" fill="#98e5fb"/><path d="m451 421.847656c-12.023438 14.121094-25.550781 26.921875-40.34375 38.152344h-309.3125c-14.792969-11.230469-28.320312-24.03125-40.34375-38.152344v-171.847656c0-3.1875 1.496094-6.015625 3.816406-7.847656l191.183594 107.847656 191.183594-107.847656c2.320312 1.832031 3.816406 4.660156 3.816406 7.847656zm0 0" fill="#fded32"/><path d="m107.621094 440.566406c7.183594 6.90625 14.769531 13.398438 22.722656 19.433594h-29c-14.792969-11.230469-28.320312-24.03125-40.34375-38.152344v-171.847656c0-3.1875 1.496094-6.015625 3.816406-7.847656l25.183594 14.207031v142.824219c0 15.617187 6.363281 30.5625 17.621094 41.382812zm247.378906-60.566406c-13.808594 0-25 11.191406-25 25s11.191406 25 25 25 25-11.191406 25-25-11.191406-25-25-25zm0 0" fill="#e8ce00"/><path d="m182.886719 277.382812-48.5625-80.121093c-13.71875-22.636719-10.207031-51.710938 8.511719-70.429688 22.441406-22.441406 58.832031-22.441406 81.277343 0 18.714844 18.71875 22.226563 47.792969 8.507813 70.429688l-48.558594 80.121093c-.269531.441407-.910156.441407-1.175781 0zm0 0" fill="#fd3980"/><path d="m184.8125 130.28125 9.28125 18.808594c.21875.441406.640625.746094 1.125.816406l20.757812 3.019531c1.226563.175781 1.714844 1.679688.828126 2.546875l-15.023438 14.640625c-.351562.34375-.511719.835938-.425781 1.320313l3.542969 20.675781c.210937 1.21875-1.070313 2.152344-2.164063 1.574219l-18.566406-9.761719c-.4375-.226563-.957031-.226563-1.390625 0l-18.566406 9.761719c-1.097657.578125-2.375-.355469-2.167969-1.574219l3.546875-20.675781c.082031-.484375-.078125-.976563-.429688-1.320313l-15.019531-14.640625c-.886719-.867187-.398437-2.371094.828125-2.546875l20.757812-3.019531c.484376-.070312.90625-.375 1.121094-.816406l9.285156-18.808594c.550782-1.109375 2.132813-1.109375 2.679688 0zm0 0" fill="#c7eefd"/><path d="m266 181.855469v-16c0-1.101563.894531-2 2-2h88.308594c1.101562 0 2 .898437 2 2v16c0 1.105469-.898438 2-2 2h-88.308594c-1.105469 0-2-.894531-2-2zm90.308594 62h-88.308594c-1.105469 0-2 .898437-2 2v16c0 1.105469.894531 2 2 2h88.308594c1.101562 0 2-.894531 2-2v-16c0-1.101563-.898438-2-2-2zm27.691406-120h-116c-1.105469 0-2 .898437-2 2v16c0 1.105469.894531 2 2 2h116c1.105469 0 2-.894531 2-2v-16c0-1.101563-.894531-2-2-2zm0 80h-116c-1.105469 0-2 .898437-2 2v16c0 1.105469.894531 2 2 2h116c1.105469 0 2-.894531 2-2v-16c0-1.101563-.894531-2-2-2zm0 0" fill="#01bff9"/><path d="m370 405c0-13.808594 11.191406-25 25-25s25 11.191406 25 25-11.191406 25-25 25-25-11.191406-25-25zm0 0" fill="#fd3980"/></svg>