<?xml version="1.0" encoding="utf-8"?>
<!-- Generator: Adobe Illustrator 22.1.0, SVG Export Plug-In . SVG Version: 6.00 Build 0)  -->
<svg version="1.1" id="Layer_1" xmlns="http://www.w3.org/2000/svg" xmlns:xlink="http://www.w3.org/1999/xlink" x="0px" y="0px"
	 viewBox="0 0 400 400" style="enable-background:new 0 0 400 400;" xml:space="preserve">
<style type="text/css">
	.st0{fill:#E8F3F0;}
	.st1{fill:#D5E0DC;}
	.st2{fill:#444444;}
	.st3{fill:#5A5A5A;}
</style>
<title>aArtboard 1</title>
<path class="st0" d="M400,200c0.1,110.4-89.4,199.9-199.8,200H200C89.6,400,0,310.5,0,200S89.6,0,200,0S400,89.6,400,200z"/>
<path class="st1" d="M200,0c110.4,0,200,89.6,200,200l0,0c0,110.5-89.6,200-200,200"/>
<rect x="123" y="38.9" class="st0" width="77" height="315.7"/>
<g>
	<path class="st2" d="M295.7,200c0-4.6-0.3-9.3-1-13.8l29.7-20.6l-32.4-56.1l-32.7,15.4c-7.3-5.8-15.3-10.4-23.9-13.8l-3-36.1h-64.7
		l-3,36.1c-8.6,3.4-16.6,8.1-23.9,13.8l-32.7-15.4l-32.4,56.1l29.7,20.6c-0.7,4.6-1,9.2-1,13.8c0,4.6,0.3,9.3,1,13.8l-29.7,20.6
		l32.4,56.1l32.7-15.4c8,6.3,16.8,11.3,26.4,14.8v-32.2c-9.3-5.3-17.2-12.8-23-21.9c-6.8-10.7-10.5-23.1-10.5-35.8
		c0-28.8,18.4-54.2,45.8-63.1l9.6-3.1v48.1l11,8.8l11-8.8v-48.1l9.6,3.1c27.4,8.9,45.8,34.3,45.8,63.1c0,12.7-3.6,25.1-10.5,35.8
		c-5.8,9.1-13.7,16.6-23,21.9v32.2c9.5-3.5,18.4-8.4,26.4-14.8l32.7,15.4l32.4-56.1l-29.7-20.6C295.4,209.3,295.7,204.6,295.7,200
		L295.7,200z"/>
	<path class="st2" d="M218.3,248.6l4.1-2c17.8-8.6,29.3-26.9,29.3-46.6c0-18.9-10.2-35.9-26.1-45v33.9L200,209.4l-25.6-20.5V155
		c-16,9.1-26.1,26.1-26.1,45c0,19.8,11.5,38.1,29.3,46.6l4.1,2V325h36.6V248.6z"/>
</g>
<g>
	<path class="st3" d="M200,75"/>
	<path class="st3" d="M200,75h-32.4l-3,36.1c-8.6,3.4-16.6,8.1-23.9,13.8l-32.7-15.4l-32.4,56.1l29.7,20.6c-0.7,4.6-1,9.2-1,13.8
		c0,4.6,0.3,9.3,1,13.8l-29.7,20.6l32.4,56.1l32.7-15.4c8,6.3,16.8,11.3,26.4,14.8v-32.2c-9.3-5.3-17.2-12.8-23-21.9
		c-6.8-10.7-10.5-23.1-10.5-35.8c0-28.8,18.4-54.2,45.8-63.1l9.6-3.1v48.1l11,8.8"/>
	<path class="st3" d="M200,209.4l-25.6-20.5V155c-16,9.1-26.1,26.1-26.1,45c0,19.8,11.5,38.1,29.3,46.6l4.1,2V325H200"/>
</g>
</svg>
