<?xml version="1.0" encoding="utf-8"?>
<!-- Generator: Adobe Illustrator 22.1.0, SVG Export Plug-In . SVG Version: 6.00 Build 0)  -->
<svg version="1.1" id="Layer_1" xmlns="http://www.w3.org/2000/svg" xmlns:xlink="http://www.w3.org/1999/xlink" x="0px" y="0px"
	 viewBox="0 0 400 400" style="enable-background:new 0 0 400 400;" xml:space="preserve">
<style type="text/css">
	.st0{fill:#E8F3F0;}
	.st1{fill:#D5E0DC;}
	.st2{fill:#5A5A5A;}
	.st3{fill:#444444;}
</style>
<title>aArtboard 1</title>
<path class="st0" d="M400,200c0.1,110.4-89.4,199.9-199.8,200H200C89.6,400,0,310.5,0,200S89.6,0,200,0S400,89.6,400,200z"/>
<path class="st1" d="M200.1,0c110.4,0,200,89.6,200,200l0,0c0,110.5-89.6,200-200,200"/>
<path class="st2" d="M287.9,96.1h-54.4c-6.4-18.7-26.7-28.8-45.5-22.4c-10.5,3.6-18.8,11.9-22.4,22.4h-54.4c-6.1,0-11,4.9-11.1,11
	v153.8c0,0.6,0.1,1.1,0.2,1.7c0.1,0.4,0.1,0.6,0.2,1c0.2,0.7,0.4,1.4,0.8,2c0.1,0.3,0.3,0.7,0.5,1c0.4,0.7,0.8,1.3,1.3,1.9l0.3,0.3
	l65.7,64.8c2.1,2,4.8,3.2,7.7,3.2h111.1c6,0,11-4.8,11-10.8c0-0.1,0-0.1,0-0.2V107.1C298.9,101,293.9,96.1,287.9,96.1z M199.6,93.8
	c7.4-0.6,13.8,4.9,14.4,12.3c0.6,7.4-4.9,13.8-12.3,14.4c-0.7,0.1-1.5,0.1-2.2,0c-7.4,0.6-13.8-4.9-14.4-12.3
	c-0.6-7.4,4.9-13.8,12.3-14.4C198.1,93.7,198.8,93.7,199.6,93.8z M165.8,299.3l-27.7-27.3h27.7V299.3z M276.8,314.5h-88.9v-53.6
	c0-6.1-5-11.1-11.1-11.1l0,0h-54.6V118.2h43.3l0.3,0.4c0.5,1.4,1,2.8,1.7,4.1l0.4,0.8c0.7,1.4,1.6,2.8,2.5,4.1l0.6,0.8
	c0.9,1.3,2,2.5,3.1,3.5c0,0.1,0,0.1,0.1,0.2c1.2,1.2,2.4,2.2,3.7,3.2l0.9,0.6c1.3,0.9,2.7,1.8,4.1,2.5l0.6,0.4
	c1.4,0.7,2.7,1.2,4.2,1.7l0.8,0.4c1.6,0.5,3.2,0.9,4.8,1.2l1.1,0.2c1.7,0.3,3.5,0.4,5.2,0.4c1.7,0,3.4-0.2,5.1-0.4l1.1-0.2
	c1.6-0.3,3.2-0.7,4.8-1.2l0.8-0.3l4.2-1.8l0.6-0.4c1.4-0.7,2.8-1.6,4.2-2.5l0.8-0.6c1.3-1,2.6-2,3.7-3.2h0.1
	c1.1-1.2,2.1-2.4,3.1-3.6l0.6-0.8c0.9-1.3,1.7-2.7,2.5-4.1c0.2-0.2,0.3-0.5,0.4-0.8c0.7-1.3,1.3-2.7,1.8-4.1
	c0.1-0.2,0.2-0.3,0.2-0.4h43.3L276.8,314.5z"/>
<path class="st3" d="M200.2,93.8c7.2,0.4,13.5,6.3,13.5,13.4c0,7.1-6.1,13.1-13.5,13.3c0,7.3,0.1,14.6,0,22c1.7,0,3.3-0.2,5-0.4h1.1
	c1.6-0.3,3.3-0.7,4.9-1.2l0.7-0.3c1.4-0.5,2.8-1,4.2-1.7l0.6-0.4c1.5-0.7,2.9-1.6,4.2-2.6l0.8-0.5c1.3-1,2.5-2.1,3.7-3.2h0.1
	c1.1-1.2,2.1-2.4,3.1-3.6l0.6-0.8c0.9-1.3,1.7-2.7,2.5-4.1c0.2-0.2,0.3-0.5,0.4-0.8c0.8-1.4,1.4-3,2-4.5h43.3v196l-77.1,0.4
	c0,7.9-0.1,11.4,0,19c0,0.2,0.1,2.8,0,2.9l88.2-0.3c6,0,10.9-4.9,10.9-10.9V107.2c0-6.1-4.8-11-10.9-11.1c0,0-0.1,0-0.1,0h-54.3
	C229,81.5,215.4,71.7,200,71.7h0.2"/>
<path class="st2" d="M242.6,159.9h-85.4c-6.1,0-11,4.9-11,11v6.1c0,6,4.8,11,10.8,11c0.1,0,0.1,0,0.2,0h85.4c6,0,11-4.8,11-10.8
	c0-0.1,0-0.1,0-0.2v-6.1C253.6,164.8,248.7,159.9,242.6,159.9z"/>
<path class="st2" d="M243,204.4h-85.4c-6.1,0-11,4.9-11,11v6.1c0,6.1,4.9,11,11,11H243c6.1,0,11-4.9,11.1-11v-6.1
	C254.1,209.3,249.1,204.4,243,204.4C243,204.4,243,204.4,243,204.4z"/>
<path class="st3" d="M242.6,250h-30.3c-6.1,0-11,4.9-11.1,11v6.1c0,6.1,5,11,11.1,11h30.3c6.1,0,11-4.9,11-11V261
	C253.6,255,248.7,250,242.6,250L242.6,250z"/>
<path class="st3" d="M243,204.3v28.2c6.1,0,11.1-5,11.1-11.1l0,0v-6C254.1,209.3,249.1,204.3,243,204.3L243,204.3z"/>
<rect x="200.1" y="204.4" class="st3" width="42.9" height="28.1"/>
<path class="st3" d="M242.6,159.9V188c6.1,0,11-4.9,11-11v-6.1C253.6,164.8,248.7,159.9,242.6,159.9z"/>
<rect x="200.1" y="159.9" class="st3" width="42.5" height="28.1"/>
</svg>
