<?xml version="1.0" encoding="utf-8"?>
<!-- Generator: Adobe Illustrator 22.1.0, SVG Export Plug-In . SVG Version: 6.00 Build 0)  -->
<svg version="1.1" id="Layer_1" xmlns="http://www.w3.org/2000/svg" xmlns:xlink="http://www.w3.org/1999/xlink" x="0px" y="0px"
	 viewBox="0 0 400 400" style="enable-background:new 0 0 400 400;" xml:space="preserve">
<style type="text/css">
	.st0{fill:#E8F3F0;}
	.st1{fill:#D5E0DC;}
	.st2{fill:#5A5A5A;}
	.st3{fill:#444444;}
</style>
<title>xdfArtboard 1</title>
<path class="st0" d="M400,200c0.1,110.4-89.4,199.9-199.8,200c-0.1,0-0.1,0-0.2,0C89.6,400,0,310.5,0,200S89.6,0,200,0
	S400,89.6,400,200z"/>
<path class="st1" d="M200,0c110.4,0,200,89.6,200,200l0,0c0,110.5-89.6,200-200,200"/>
<rect x="123" y="38.9" class="st0" width="77" height="315.7"/>
<path class="st2" d="M190.8,199.9c0-61.9,53.8-112,120.2-112c4.7,0,9.3,0.2,14,0.7c-61.5-55.3-156.2-50.3-211.6,11.2
	S63.1,256,124.6,311.4c57,51.3,143.4,51.3,200.4,0c-4.6,0.5-9.3,0.8-14,0.7C244.6,312.1,190.8,261.9,190.8,199.9z"/>
<path class="st3" d="M200,157c18.1-40.5,61-69,111-69c4.7,0,9.3,0.2,14,0.7C289.7,56.9,243.5,45,200,52.3"/>
<path class="st3" d="M200,347.7c43.7,7.3,89.9-4.8,125-36.4c-4.6,0.5-9.3,0.8-14,0.7c-50.1,0-93-28.5-111-69.1"/>
<path class="st3" d="M200,243c0,34.9,0,69.8,0,104.7"/>
<path class="st3" d="M200,52.3c0,34.9,0,69.7,0,104.6c0,0,0,0.1,0,0.1"/>
</svg>
