<svg id="Layer_1" data-name="Layer 1" xmlns="http://www.w3.org/2000/svg" width="400" height="400" viewBox="0 0 400 400"><defs><style>.cls-1{fill:#e8f3f0;}.cls-2{fill:#d5e0dc;}.cls-3{fill:#5a5a5a;}.cls-4{fill:#444;}</style></defs><title>aArtboard 1</title><path class="cls-1" d="M400,200c.1,110.4-89.4,199.9-199.8,200H200C89.6,400,0,310.5,0,200S89.6,0,200,0,400,89.6,400,200Z"/><path class="cls-2" d="M200,0C310.4,0,400,89.6,400,200h0c0,110.5-89.6,200-200,200"/><path class="cls-3" d="M177.1,286.7a3.1,3.1,0,0,1-.4-2.1c.2-.6-.2-1.1-1.1-1.5s-1.2-.6-1.2-.8-.7-.4-1.9-.5l-1.8-.2H120.9a25.5,25.5,0,0,1-25.5-25.5V143.8a25.6,25.6,0,0,1,25.5-25.5h51a4.8,4.8,0,0,0,3.3-1,5.2,5.2,0,0,0,1.6-3.1,15.8,15.8,0,0,0,.4-3.8,29.4,29.4,0,0,0,0-4.2c-.1-1.7-.1-2.7-.1-3.2a5.3,5.3,0,0,0-5.2-5.1h-51a44,44,0,0,0-32.4,13.5A44,44,0,0,0,75,143.8V256.1A45.9,45.9,0,0,0,120.9,302h51a4.8,4.8,0,0,0,3.3-1,5.2,5.2,0,0,0,1.6-3.1,15.5,15.5,0,0,0,.4-3.7,29.4,29.4,0,0,0,0-4.2c-.1-1.8-.1-2.9-.1-3.3Z"/><path class="cls-3" d="M322,192.8,235.2,106a9.8,9.8,0,0,0-7.1-3,10.2,10.2,0,0,0-7.2,3,9.8,9.8,0,0,0-3,7.2v46H146.4a10.3,10.3,0,0,0-10.2,10.2v61.2a10.4,10.4,0,0,0,10.2,10.2h71.5v45.9a9.8,9.8,0,0,0,3,7.2,9.4,9.4,0,0,0,7.2,3,9.1,9.1,0,0,0,7.1-3L322,207.2a10.1,10.1,0,0,0,0-14.4Z"/><path class="cls-4" d="M322,192.8,235.2,106a9.8,9.8,0,0,0-7.1-3,10.2,10.2,0,0,0-7.2,3,9.8,9.8,0,0,0-3,7.2v46H146.4a10.3,10.3,0,0,0-10.2,10.2v61.2a10.4,10.4,0,0,0,10.2,10.2h71.5v45.9a9.8,9.8,0,0,0,3,7.2,9.4,9.4,0,0,0,7.2,3,9.1,9.1,0,0,0,7.1-3L322,207.2a10.1,10.1,0,0,0,0-14.4Z"/><path class="cls-3" d="M200.1,159.2H146.4a9.4,9.4,0,0,0-7.2,3,10.2,10.2,0,0,0-3,7.2v61.2a10.4,10.4,0,0,0,10.2,10.2H200"/></svg>