<svg id="Layer_1" data-name="Layer 1" xmlns="http://www.w3.org/2000/svg" width="400" height="400" viewBox="0 0 400 400"><defs><style>.cls-1{fill:#e8f3f0;}.cls-2{fill:#d5e0dc;}.cls-3{fill:#444;}.cls-4{fill:#5a5a5a;}</style></defs><title>aArtboard 1</title><path class="cls-1" d="M400,200c.1,110.4-89.4,199.9-199.8,200H200C89.6,400,0,310.5,0,200S89.6,0,200,0,400,89.6,400,200Z"/><path class="cls-2" d="M200,0C310.4,0,400,89.6,400,200h0c0,110.5-89.6,200-200,200"/><rect class="cls-1" x="123" y="38.9" width="77" height="315.67"/><path class="cls-3" d="M200,60.6l-46.9,74.7L200,210a74.7,74.7,0,0,0,0-149.4Z"/><path class="cls-4" d="M125.3,135.3A74.7,74.7,0,0,0,200,210V60.6a74.6,74.6,0,0,0-74.7,74.7Z"/><path class="cls-3" d="M320,256.5a74.9,74.9,0,0,0-56-25.2H200l-42.7,54.1,42.7,54a139.9,139.9,0,0,0,121.2-70.5l3.8-6.7Z"/><path class="cls-4" d="M136,231.3a74.9,74.9,0,0,0-56,25.2l-5,5.7,3.7,6.7A139.7,139.7,0,0,0,200,339.4V231.3Z"/></svg>