<svg id="Layer_1" data-name="Layer 1" xmlns="http://www.w3.org/2000/svg" width="400" height="400" viewBox="0 0 400 400"><defs><style>.cls-1{fill:#e8f3f0;}.cls-2{fill:#d5e0dc;}.cls-3{fill:#5a5a5a;}.cls-4{fill:#444;}</style></defs><title>aArtboard 1</title><path class="cls-1" d="M400,200c.1,110.4-89.4,199.9-199.8,200H200C89.6,400,0,310.5,0,200S89.6,0,200,0,400,89.6,400,200Z"/><path class="cls-2" d="M200,0C310.4,0,400,89.6,400,200h0c0,110.5-89.6,200-200,200"/><rect class="cls-1" x="123" y="38.9" width="77" height="315.67"/><path class="cls-3" d="M325,220.6V179.4l-33.9-6.8a101.4,101.4,0,0,0-7.3-17.7l18.9-28.3L273.4,97.3l-28.3,18.9a101.4,101.4,0,0,0-17.7-7.3L220.6,75H179.4l-6.8,33.9a101.4,101.4,0,0,0-17.7,7.3L126.6,97.3,97.3,126.6l18.9,28.3a101.4,101.4,0,0,0-7.3,17.7L75,179.4v41.2l33.9,6.8a101.4,101.4,0,0,0,7.3,17.7L97.3,273.4l29.3,29.3,28.3-18.9a101.4,101.4,0,0,0,17.7,7.3l6.8,33.9h41.2l6.8-33.9a101.4,101.4,0,0,0,17.7-7.3l28.3,18.9,29.3-29.3-18.9-28.3a101.4,101.4,0,0,0,7.3-17.7ZM200,251.3A51.3,51.3,0,1,1,251.3,200h0A51.3,51.3,0,0,1,200,251.3Z"/><path class="cls-4" d="M291.1,227.4a101.4,101.4,0,0,1-7.3,17.7l18.9,28.3-29.3,29.3-28.3-18.9a101.4,101.4,0,0,1-17.7,7.3L220.6,325H200V251.3a51.3,51.3,0,0,0,3.7-102.5,22.8,22.8,0,0,0-3.7,0V75h20.6l6.8,33.9a101.4,101.4,0,0,1,17.7,7.3l28.3-18.9,29.3,29.3-18.9,28.3a101.4,101.4,0,0,1,7.3,17.7l33.9,6.8v41.2Z"/></svg>