<?xml version="1.0" encoding="utf-8"?>
<!-- Generator: Adobe Illustrator 22.1.0, SVG Export Plug-In . SVG Version: 6.00 Build 0)  -->
<svg version="1.1" id="Layer_1" xmlns="http://www.w3.org/2000/svg" xmlns:xlink="http://www.w3.org/1999/xlink" x="0px" y="0px"
	 viewBox="0 0 316.8 136.8" style="enable-background:new 0 0 316.8 136.8;" xml:space="preserve">
<style type="text/css">
	.st0{fill:#D7F4E5;}
	.st1{fill:#A7F2C5;}
	.st2{fill:#AEF4BC;}
	.st3{fill:#FFFFFF;}
	.st4{fill:#F9F9F9;}
</style>
<title>Artboard 86</title>
<g>
	<g id="Layer_1_1_">
		<path class="st0" d="M-139.3-32.8C-92.6-11.2-54.7-38-44.8,9.5c2.9,14.2,3.1,26.5,9.1,37.4c16.9,31.2,61.8,6.5,79.2,33.7
			c11,17.4,24.5,46.2,63,46.7c19.8,0.2,33.5-10.8,50.8-23.6c36.1-26.7,70-7.3,114.6-29.5c38-18.8,49.4-55.1,31.5-85.4
			C283-46,246.7-52.2,202.9-71.5c-38.6-17.1-32.9-54.2-55.3-94c-15.4-27.4-44.6-37.1-75.9-34.7C30.8-197.1,7.1-180-22-160.5
			c-32.2,21.5-58.3,17.6-83,18.1C-181.3-140.7-189.7-56-139.3-32.8z"/>
		<path class="st1" d="M258.1-350.1c-47.1,38.4-38.3,92.4-93.8,78.2c-16.5-4.2-29.8-10.5-44.4-9.9C78-279.9,81-219.6,43.1-215.3
			c-24.1,2.8-61.7,2-82.1,42.7c-10.5,20.9-6,41.1-1.3,66.1c9.7,52-28.4,77.9-28.1,136.7c0.3,50,32.8,80.9,74.1,77.8
			c47.5-3.7,72.9-38.9,116.2-75.4c38.1-32.1,74.5-6.8,128.3-9.8c37.1-2.1,62.4-28,76.1-62.4c17.9-45.1,12-79,6.5-120
			c-6.2-45.2,11.4-70.9,23.7-97.3C394.3-338.8,308.8-391.4,258.1-350.1z"/>
		<path class="st2" d="M247.2-125.5c-32.9,11.8-38.5,42.9-65.9,24.6c-8.2-5.5-14.1-11.3-22.2-13.8c-23-7-33,26.4-54.4,21.5
			c-13.6-3.2-33.9-10.6-52.8,7.5c-9.7,9.3-11.1,21.2-13.3,35.6C33.9-20,8.3-13.2-2.7,18.7C-12.1,46-0.3,68.9,22.7,75.1
			c26.6,7.1,47-7.2,77.5-18.8c26.8-10.2,41.7,10.5,71.6,19.1c20.5,6,39.2-3.3,53.3-19.4c18.2-21,21.6-40.6,26.3-63.9
			c5.3-25.8,19.8-36.4,31.5-48.4C319-93.4,282.6-138.3,247.2-125.5z"/>
		<g>
			<path class="st3" d="M-3.2,104l-0.4-0.1C6.9,40.9,59.9-6.4,123.7-9.6c5.1-0.3,10.4-0.3,15.6-0.3c17.7-0.1,36-0.1,50.1-10.4
				c9.2-6.8,15-17,20.7-27.1c5.7-10,12.7-22,23.1-28.5c8.4-5.3,18.5-7,28.3-8.6c4.9-0.8,10.1-1.7,15-3c25-6.7,45.9-28.1,52.1-53.2
				c6.1-25.1-2.3-53.8-21.1-71.5l0.3-0.3c9.6,9,16.6,20.5,20.3,33.1c3.8,12.6,4.2,26,1.1,38.8c-3.3,12.8-9.9,24.4-19.1,33.8
				S289.4-90.5,276.8-87c-4.9,1.4-10.1,2.2-15.1,3c-9.6,1.5-19.6,3.2-28,8.5c-10.5,6.5-16.8,17.6-23,28.4
				c-6.1,10.8-11.6,20.4-20.9,27.2C175.5-9.5,157-9.5,139.3-9.4c-5.1,0-10.4,0-15.6,0.3C60.1-5.9,7.3,41.2-3.2,104z"/>
		</g>
		<g>
			<path class="st3" d="M177.4,70.2c-25.2,6.6-51.9,2.8-74.2-10.5c-22.4-13.2-38.5-34.8-44.9-60c-6.5-25.1-2.7-51.8,10.5-74.1
				c13.2-22.4,34.8-38.7,60-45c25.1-6.5,51.9-2.7,74.2,10.6c22.4,13.1,38.6,34.7,45,59.9c6.5,25.2,2.7,51.9-10.6,74.3
				C224.2,47.7,202.6,63.9,177.4,70.2z M128.8-119c-52,13.5-83.4,66.5-70.1,118.6c13.4,52.1,66.5,83.5,118.6,70.1
				s83.5-66.5,70.1-118.6C234-100.9,180.9-132.2,128.8-119z"/>
			<path class="st3" d="M174.4,58.4C128.5,70.1,81.8,42.5,70-3.3c-11.6-45.8,16-92.5,61.8-104.3c45.8-11.7,92.4,15.9,104.2,61.7
				C247.8-0.1,220.2,46.6,174.4,58.4z M131.9-107.1C86.3-95.4,58.9-49,70.5-3.4c11.7,45.6,58.2,73,103.8,61.4
				c45.5-11.7,73-58.2,61.3-103.7C223.8-91.3,177.4-118.7,131.9-107.1z"/>
			<path class="st3" d="M171.3,46.6C132,56.7,92,33,81.8-6.3c-10-39.3,13.7-79.3,53-89.4c39.3-10,79.3,13.6,89.4,52.9
				C234.3-3.6,210.6,36.5,171.3,46.6z M134.9-95.3c-39,10.1-62.5,49.8-52.6,88.8c10.1,39,49.9,62.6,88.9,52.6
				c39-10.1,62.5-49.9,52.5-88.9C213.7-81.7,173.9-105.2,134.9-95.3z"/>
			<path class="st3" d="M168.3,34.8c-32.8,8.4-66.2-11.3-74.6-44.1S105-75.5,137.8-84l0,0c32.8-8.4,66.1,11.4,74.6,44.1
				C220.8-7.1,201.1,26.3,168.3,34.8L168.3,34.8z M138-83.5c-32.5,8.4-52.1,41.5-43.8,74s41.5,52.1,74,43.8l0,0
				c32.5-8.4,52.1-41.5,43.8-74C203.5-72.2,170.5-91.8,138-83.5z"/>
			<path class="st3" d="M165.3,23c-26.3,6.7-53-9.1-59.8-35.4c-6.7-26.2,9.1-52.9,35.4-59.7c26.2-6.7,53,9,59.7,35.3
				C207.3-10.6,191.5,16.2,165.3,23z M141-71.6c-26,6.7-41.6,33.1-35,59.1c6.7,26,33.2,41.7,59.2,35l0,0c26-6.7,41.6-33.2,35-59.2
				C193.4-62.6,167-78.2,141-71.6z"/>
		</g>
		<g>
			<polygon class="st4" points="39.7,82 98.4,-17.1 99.2,-16.6 40.6,82.5 			"/>
		</g>
	</g>
</g>
</svg>
