<?xml version="1.0" encoding="utf-8"?>
<!-- Generator: Adobe Illustrator 22.1.0, SVG Export Plug-In . SVG Version: 6.00 Build 0)  -->
<svg version="1.1" id="Layer_1" xmlns="http://www.w3.org/2000/svg" xmlns:xlink="http://www.w3.org/1999/xlink" x="0px" y="0px"
	 viewBox="0 0 374.4 158.4" style="enable-background:new 0 0 374.4 158.4;" xml:space="preserve">
<style type="text/css">
	.st0{fill:#D7F4E5;}
	.st1{fill:#A7F2C5;}
	.st2{fill:#A5F2B9;}
	.st3{fill:#FFFFFF;}
	.st4{fill:url(#SVGID_1_);}
</style>
<title>Artboard 86</title>
<g>
	<g id="Layer_1_1_">
		<path class="st0" d="M475.8,199.3c-49.1-17.5-84.9,13.1-99.1-34c-4.3-14-5.6-26.4-12.6-36.9c-20-30-62.9-0.9-83-26.7
			c-12.7-16.5-28.9-44.4-67.9-41.3c-20,1.6-32.9,13.8-49.1,28.4c-33.8,30.3-69.9,13.8-112.8,40.2c-36.6,22.5-44.7,60.2-24,89.1
			c23.8,33.2,61,36.1,107,51.6c40.5,13.7,38.1,51.7,64.3,89.8c18.1,26.2,48.4,33.3,79.6,28c41-6.9,63.4-26.4,90.9-48.7
			c30.5-24.6,57.2-23.2,82-26C528.1,304.2,528.8,218.1,475.8,199.3z"/>
		<path class="st1" d="M371.9,183.8c-57.9-20.6-100.1,15.4-117-40.1c-5-16.5-6.6-31.3-14.8-43.6c-23.7-35.3-74.3-1-97.9-31.5
			C127.1,49.2,108,16.2,62.1,19.9C38.5,21.8,23.3,36.3,4.2,53.4c-40,35.7-82.4,16.4-133.1,47.6c-43.2,26.5-52.8,70.9-28.4,105
			c28.2,39.2,72,42.6,126.3,61c47.8,16.1,45,61,75.9,105.9c21.3,31,57,39.3,94,33c48.4-8.2,74.7-31.1,107.3-57.4
			c35.9-29.1,67.4-27.3,96.7-30.7C433.7,307.7,434.4,206,371.9,183.8z"/>
		<path class="st2" d="M246.6,174.1c-27.5-22.3-57.3-10.8-55.9-44.1c0.5-9.9,2.3-18.2,0.3-26.5c-6.1-23.6-40.2-14.7-47.2-35.8
			c-4.4-13.4-8.6-34.9-34.2-41.7c-13.2-3.5-24.2,1.5-37.8,7.2C43.3,45,23.9,26.4-9.5,33.6C-38,39.8-51.7,62.1-45,85.2
			c7.8,26.7,30.9,36.9,56.9,57.2c22.9,17.9,12.8,41.7,21,72c5.6,20.9,23.5,32.2,44.8,35.9c27.8,4.7,46.5-2.7,69.1-10.8
			c25.1-8.9,41.9-2,58.4,1.9C256.5,253.2,276.3,198.1,246.6,174.1z"/>
		<g>
			<path class="st3" d="M31.5,73.5l-0.1-0.4c60.1-24,128.8-3,165.2,50.6c3,4.3,5.8,8.9,8.4,13.3c9.4,15.3,19,31.2,35.4,38
				c10.7,4.4,22.7,4.1,34.4,3.7c11.7-0.3,25.7-0.6,36.9,5c9.1,4.5,15.8,12.4,22.3,20c3.3,3.8,6.8,7.9,10.5,11.4
				c18.9,18.1,48.5,25,73.4,17.1s45.4-30.2,50.8-55.9l0.4,0.1c-2.8,13-9,25.1-18,34.9c-8.9,9.9-20.3,17.3-33,21.3
				c-12.8,3.9-26.3,4.3-39.3,1.2c-13-3-24.9-9.4-34.7-18.5c-3.7-3.5-7.2-7.6-10.6-11.4c-6.4-7.5-13.1-15.3-22.1-19.7
				c-11.1-5.7-24.1-5.3-36.6-5c-12.5,0.4-23.7,0.6-34.6-3.8c-16.5-6.8-26.2-22.8-35.6-38.2c-2.7-4.4-5.5-9-8.4-13.3
				C159.9,70.6,91.5,49.6,31.5,73.5z"/>
		</g>
		<g>
			<path class="st3" d="M53.1,233.1C14,194.8,13.4,132.1,51.6,93s101-39.7,140.1-1.5s39.7,101,1.5,140.1
				c-18.4,18.8-43.4,29.5-69.7,29.7C97.2,261.7,71.9,251.6,53.1,233.1z M191.4,91.7C152.4,53.6,90,54.3,51.9,93.2
				s-37.4,101.4,1.6,139.5s101.4,37.4,139.5-1.6C231,192.2,230.3,129.8,191.4,91.7z"/>
			<path class="st3" d="M61.7,224.3c-34.3-33.5-35-88.4-1.5-122.8s88.4-35,122.8-1.5s35,88.4,1.5,122.8c0,0,0,0-0.1,0.1
				C150.9,257,96.1,257.7,61.7,224.3z M182.7,100.6c-34-33.4-88.7-32.8-122.1,1.2s-32.8,88.7,1.2,122.1s88.7,32.8,122.1-1.2l0.1-0.1
				C217.3,188.4,216.7,133.9,182.7,100.6L182.7,100.6z"/>
			<path class="st3" d="M70.4,215.5c-29.5-28.7-30-75.9-1.3-105.3s75.9-30,105.3-1.3s30,75.9,1.3,105.3c0,0,0,0-0.1,0.1
				C146.9,243.5,99.8,244.1,70.4,215.5z M174.1,109.4c-29.2-28.6-76-28.1-104.6,1s-28.1,76,1,104.6c29.2,28.6,76,28.1,104.6-1
				l0.1-0.1C203.7,184.6,203.2,138,174.1,109.4z"/>
			<path class="st3" d="M79.1,206.6c-24.5-24-24.9-63.2-1-87.8s63.2-24.9,87.8-1s24.9,63.2,1,87.8S103.6,230.5,79.1,206.6
				L79.1,206.6z M165.5,118.2c-24.3-23.8-63.3-23.3-87,1s-23.3,63.3,1,87s63.3,23.3,87-1S189.7,142,165.5,118.2z"/>
			<path class="st3" d="M87.7,197.8c-19.6-19.2-20-50.7-0.8-70.3s50.7-20,70.3-0.8s20,50.7,0.8,70.3l0,0
				C138.8,216.6,107.3,217,87.7,197.8z M156.8,127.1c-19.4-19-50.6-18.7-69.6,0.8s-18.7,50.6,0.8,69.6s50.6,18.7,69.6-0.8
				c0,0,0,0,0.1-0.1C176.6,177.2,176.2,146.1,156.8,127.1L156.8,127.1z"/>
		</g>
		<g>
			
				<linearGradient id="SVGID_1_" gradientUnits="userSpaceOnUse" x1="290.2964" y1="398.0277" x2="373.2451" y2="398.0277" gradientTransform="matrix(0.7168 0.7009 -0.7009 0.7168 307.3644 -350.8944)">
				<stop  offset="0" style="stop-color:#CCCCCC"/>
				<stop  offset="3.000000e-02" style="stop-color:#C3C3C3"/>
				<stop  offset="0.22" style="stop-color:#888888"/>
				<stop  offset="0.41" style="stop-color:#575757"/>
				<stop  offset="0.59" style="stop-color:#323232"/>
				<stop  offset="0.75" style="stop-color:#161616"/>
				<stop  offset="0.89" style="stop-color:#060606"/>
				<stop  offset="1" style="stop-color:#000000"/>
			</linearGradient>
			<polygon class="st4" points="207.9,167.1 324.5,165.8 324.5,166.8 207.9,168.1 			"/>
		</g>
	</g>
</g>
</svg>
