<?xml version="1.0" encoding="utf-8"?>
<!-- Generator: Adobe Illustrator 22.1.0, SVG Export Plug-In . SVG Version: 6.00 Build 0)  -->
<svg version="1.1" id="Capa_1" xmlns="http://www.w3.org/2000/svg" xmlns:xlink="http://www.w3.org/1999/xlink" x="0px" y="0px"
	 viewBox="0 0 512 512" style="enable-background:new 0 0 512 512;" xml:space="preserve">
<style type="text/css">
	.st0{fill:#DDDDDD;}
</style>
<g>
	<g>
		<path class="st0" d="M464,64H48C21.5,64,0,85.5,0,112v288c0,26.5,21.5,48,48,48h416c26.5,0,48-21.5,48-48V112
			C512,85.5,490.5,64,464,64z M452.5,96L256,236.3L59.5,96H452.5z M480,400c0,8.8-7.2,16-16,16H48c-8.8,0-16-7.2-16-16V115.7
			L246.7,269c5.6,4,13,4,18.6,0L480,115.7V400z"/>
	</g>
</g>
</svg>
