<?xml version="1.0" encoding="utf-8"?>
<!-- Generator: Adobe Illustrator 22.1.0, SVG Export Plug-In . SVG Version: 6.00 Build 0)  -->
<svg version="1.1" id="Capa_1" xmlns="http://www.w3.org/2000/svg" xmlns:xlink="http://www.w3.org/1999/xlink" x="0px" y="0px"
	 viewBox="0 0 512 512" style="enable-background:new 0 0 512 512;" xml:space="preserve">
<style type="text/css">
	.st0{fill:#DDDDDD;}
</style>
<g>
	<g>
		<path class="st0" d="M467,80.6H45c-24.8,0-45,20.2-45,45v260.8c0,24.8,20.2,45,45,45h422c24.8,0,45-20.2,45-45V125.6
			C512,100.8,491.8,80.6,467,80.6z M461.1,110.6l-6,5L273.9,266.6c-10.3,8.6-25.4,8.6-35.7,0L56.9,115.6l-6-5H461.1z M30,132.3
			l147.7,123L30,353.5V132.3z M467,401.4H45c-7.2,0-13.3-5.2-14.7-12l171.4-114.1l17.2,14.3c10.7,8.9,23.9,13.4,37.1,13.4
			c13.2,0,26.3-4.5,37.1-13.4l17.2-14.3l171.4,114.1C480.3,396.2,474.2,401.4,467,401.4z M482,353.5l-147.7-98.3l147.7-123V353.5z"
			/>
	</g>
</g>
</svg>
