<?xml version="1.0" encoding="utf-8"?>
<!-- Generator: Adobe Illustrator 22.1.0, SVG Export Plug-In . SVG Version: 6.00 Build 0)  -->
<svg version="1.1" id="Layer_1" xmlns="http://www.w3.org/2000/svg" xmlns:xlink="http://www.w3.org/1999/xlink" x="0px" y="0px"
	 viewBox="0 0 96 96" style="enable-background:new 0 0 96 96;" xml:space="preserve">
<style type="text/css">
	.st0{fill:#DDDDDD;}
</style>
<g transform="translate(0.000000,96.000000) scale(0.100000,-0.100000)">
	<path class="st0" d="M412,869c-48-14-109-80-123-131c-23-89,12-182,88-229c57-36,154-34,210,3c62,41,88,90,88,168
		c0,77-26,127-85,166C547,875,465,885,412,869z M548,800c42-26,72-76,72-120s-30-94-72-120c-117-71-259,71-188,188
		c26,42,76,72,120,72C499,820,530,811,548,800z"/>
	<path class="st0" d="M654,338C515,197,512,194,495,127c-24-90-18-96,72-72c67,17,70,20,211,159c125,125,142,146,142,175
		c0,45-46,91-91,91C800,480,779,463,654,338z"/>
	<path class="st0" d="M189,371c-58-59-28-166,65-228c45-31,75-42,152-58c28-5,33-3,41,22c9,27,9,27-61,45c-112,29-172,84-164,153
		l3,30l186,3l186,2l28,30l29,30H436H218L189,371z"/>
</g>
</svg>
