<?xml version="1.0" encoding="utf-8"?>
<!-- Generator: Adobe Illustrator 22.1.0, SVG Export Plug-In . SVG Version: 6.00 Build 0)  -->
<svg version="1.1" id="Layer_1" xmlns="http://www.w3.org/2000/svg" xmlns:xlink="http://www.w3.org/1999/xlink" x="0px" y="0px"
	 viewBox="0 0 512 512" style="enable-background:new 0 0 512 512;" xml:space="preserve">
<style type="text/css">
	.st0{fill:#DDDDDD;}
</style>
<g>
	<path class="st0" d="M432,352c-17.6,0-32-14.4-32-32V208c0-38.6-15-74.8-42.4-102c-16.8-16.8-37.1-28.9-59.2-35.7
		C302,63.7,304,56.1,304,48c0-26.5-21.5-48-48-48s-48,21.5-48,48c0,8.1,2,15.7,5.6,22.5C154.8,88.8,112,144.2,112,209.4V320
		c0,17.6-14.4,32-32,32c-8.8,0-16,7.2-16,16v64c0,8.8,7.2,16,16,16h120.6c-0.4,2.6-0.6,5.3-0.6,8c0,30.9,25.1,56,56,56
		s56-25.1,56-56c0-2.7-0.2-5.4-0.6-8H432c8.8,0,16-7.2,16-16v-64C448,359.2,440.8,352,432,352z M256,32c8.8,0,16,7.2,16,16
		s-7.2,16-16,16s-16-7.2-16-16S247.2,32,256,32z M280,456c0,13.2-10.8,24-24,24s-24-10.8-24-24c0-2.8,0.5-5.5,1.4-8h45.3
		C279.5,450.5,280,453.2,280,456z M416,416H288h-64H96v-34c27.6-7.1,48-32.2,48-62V209.4c0-62.3,50.1-113.2,111.6-113.4
		c0.1,0,0.3,0,0.4,0c29.8,0,57.9,11.6,79.1,32.7C356.3,149.8,368,178,368,208v112c0,29.8,20.4,54.9,48,62L416,416z"/>
	<path class="st0" d="M192,224c-8.8,0-16-7.2-16-16c0-44.1,35.9-80,80-80c8.8,0,16,7.2,16,16s-7.2,16-16,16c-26.5,0-48,21.5-48,48
		C208,216.8,200.8,224,192,224z"/>
</g>
</svg>
