<?xml version="1.0" encoding="utf-8"?>
<!-- Generator: Adobe Illustrator 22.1.0, SVG Export Plug-In . SVG Version: 6.00 Build 0)  -->
<svg version="1.1" id="Capa_1" xmlns="http://www.w3.org/2000/svg" xmlns:xlink="http://www.w3.org/1999/xlink" x="0px" y="0px"
	 viewBox="0 0 512 512" style="enable-background:new 0 0 512 512;" xml:space="preserve">
<style type="text/css">
	.st0{fill:#DDDDDD;}
</style>
<g transform="translate(1 1)">
	<g>
		<g>
			<path class="st0" d="M255,100.2c-10.7,0-19.4,8.7-19.4,19.4v193.5c0,10.7,8.7,19.4,19.4,19.4c10.7,0,19.4-8.7,19.4-19.4V119.5
				C274.4,108.8,265.7,100.2,255,100.2z"/>
			<path class="st0" d="M255,371.1c-10.7,0-19.4,8.7-19.4,19.4c0,10.7,8.7,19.4,19.4,19.4c10.7,0,19.4-8.7,19.4-19.4
				C274.4,379.8,265.7,371.1,255,371.1z"/>
		</g>
	</g>
</g>
<g>
	<g>
		<path class="st0" d="M256,0C114.8,0,0,114.8,0,256s114.8,256,256,256s256-114.9,256-256S397.2,0,256,0z M256,472.3
			c-119.3,0-216.3-97-216.3-216.3S136.7,39.7,256,39.7s216.3,97,216.3,216.3S375.3,472.3,256,472.3z"/>
	</g>
</g>
</svg>
