<?xml version="1.0" encoding="utf-8"?>
<!-- Generator: Adobe Illustrator 22.1.0, SVG Export Plug-In . SVG Version: 6.00 Build 0)  -->
<svg version="1.1" id="Capa_1" xmlns="http://www.w3.org/2000/svg" xmlns:xlink="http://www.w3.org/1999/xlink" x="0px" y="0px"
	 viewBox="0 0 512 512" style="enable-background:new 0 0 512 512;" xml:space="preserve">
<style type="text/css">
	.st0{fill:#DDDDDD;}
</style>
<g>
	<g>
		<path class="st0" d="M482.1,346.9c-8.4,6-18.3,9.2-28.7,9.2c-27.2,0-49.3-22.1-49.3-49.3s22.1-49.3,49.3-49.3
			c10.4,0,20.3,3.2,28.7,9.2l23.8,17.1V101.7H383c2.1-7.2,3.2-14.8,3.2-22.4c0-43.7-35.6-79.3-79.3-79.3s-79.3,35.6-79.3,79.3
			c0,7.7,1.1,15.2,3.2,22.4H108.1v127.8c-7.3-2.2-14.9-3.3-22.6-3.3c-43.7,0-79.3,35.6-79.3,79.3s35.6,79.3,79.3,79.3
			c7.8,0,15.4-1.1,22.6-3.3V512H284l-17.1-23.8c-6-8.4-9.2-18.3-9.2-28.7c0-27.2,22.1-49.3,49.3-49.3s49.3,22.1,49.3,49.3
			c0,10.4-3.2,20.3-9.2,28.7L329.9,512h175.9V329.8L482.1,346.9z M475.8,482H383c2.1-7.2,3.2-14.8,3.2-22.4
			c0-43.7-35.6-79.3-79.3-79.3s-79.3,35.6-79.3,79.3c0,7.7,1.1,15.2,3.2,22.4h-92.9V328.2l-23.8,17.2c-8.4,6.1-18.4,9.3-28.8,9.3
			c-27.2,0-49.3-22.1-49.3-49.3s22.1-49.3,49.3-49.3c10.4,0,20.4,3.2,28.8,9.3l23.8,17.2V131.7H284l-17.1-23.8
			c-6-8.4-9.2-18.3-9.2-28.7c0-27.2,22.1-49.3,49.3-49.3s49.3,22.1,49.3,49.3c0,10.4-3.2,20.3-9.2,28.7l-17.1,23.8h145.9v99.1
			c-7.2-2.1-14.8-3.2-22.4-3.2c-43.7,0-79.3,35.6-79.3,79.3s35.6,79.3,79.3,79.3c7.7,0,15.2-1.1,22.4-3.2V482z"/>
	</g>
</g>
</svg>
