<svg id="Capa_1" enable-background="new 0 0 512 512" height="512" viewBox="0 0 512 512" width="512" xmlns="http://www.w3.org/2000/svg"><g><g><path d="m490.255 341 9.79-7.5c1.566-4.937 2.986-9.938 4.256-15l-3.769-7.5 7.051-7.5c.93-4.953 1.732-9.951 2.372-15l-5.338-7.5 6.776-7.5c.335-4.963.528-9.964.576-15l-8.117-7.5 7.841-7.5c-2.287-47.57-17.564-91.727-42.352-129.02h-8.791v-12.422c-3.03-4.02-6.182-7.943-9.439-11.774h-10.049v-11.165c-46.611-48.751-112.289-79.119-185.062-79.119s-138.451 30.368-185.061 79.119v11.164h-10.049c-3.257 3.831-6.409 7.754-9.439 11.774v12.422h-8.791c-24.788 37.294-40.065 81.451-42.352 129.021l7.841 7.5-8.117 7.5c.048 5.036.241 10.037.576 15l6.776 7.5-5.338 7.5c.64 5.049 1.443 10.047 2.372 15l7.051 7.5-3.769 7.5c1.27 5.062 2.69 10.063 4.256 15l9.789 7.5-4.508 7.5c13.692 35.317 34.984 66.844 61.883 92.561h11.164v10.049c3.831 3.257 7.754 6.409 11.774 9.439h12.422v8.791c26.599 17.68 56.688 30.522 89.02 37.261l7.5-9.048 7.5 11.705c4.955.727 9.957 1.307 15 1.746l7.5-5.749 7.5 6.627c2.492.072 4.991.118 7.5.118s5.008-.046 7.5-.118l7.5-6.627 7.5 5.749c5.043-.439 10.045-1.019 15-1.746l7.5-11.705 7.5 9.048c32.333-6.739 62.421-19.581 89.02-37.261v-8.791h12.422c4.02-3.03 7.943-6.182 11.774-9.439v-10.049h11.164c26.899-25.717 48.191-57.244 61.883-92.561z" fill="#49d88b"/></g><g><g><g><path d="m511.968 258.5c.008-.834.032-1.664.032-2.5 0-4.192-.108-8.358-.308-12.5h-171.372l59.089-59.089c1.237.33 2.53.523 3.871.523 8.284 0 15-6.716 15-15 0-1.341-.193-2.634-.523-3.871l51.584-51.584c-2.811-4.23-5.74-8.374-8.791-12.422l-53.399 53.399c-1.237-.33-2.53-.523-3.871-.523-8.284 0-15 6.716-15 15 0 1.341.193 2.634.523 3.871l-69.697 69.696h-126.212l-141.443-141.442c-3.051 4.048-5.98 8.192-8.791 12.422l129.02 129.02h-101.448c-2.595-4.479-7.428-7.5-12.977-7.5s-10.382 3.021-12.977 7.5h-43.97c-.2 4.142-.308 8.308-.308 12.5 0 .836.024 1.666.032 2.5h44.247c2.595 4.479 7.428 7.5 12.977 7.5s10.382-3.021 12.977-7.5h116.447l45 45h-133.873c-2.595-4.479-7.428-7.5-12.977-7.5s-10.382 3.021-12.977 7.5h-67.436c.948 5.054 2.041 10.056 3.282 15h64.154c2.595 4.479 7.428 7.5 12.977 7.5s10.382-3.021 12.977-7.5h146.3l-142.049 142.049c4.048 3.051 8.192 5.98 12.422 8.791l89.02-89.02v126.282c4.949 1.031 9.951 1.916 15 2.657v-130.759h-13.18l50.68-50.68 108.842 108.841c-.33 1.237-.523 2.53-.523 3.871 0 8.284 6.716 15 15 15 1.341 0 2.634-.193 3.871-.523l14.331 14.331c4.23-2.811 8.374-5.74 12.422-8.791l-16.146-16.146c.33-1.237.523-2.53.523-3.871 0-8.284-6.716-15-15-15-1.341 0-2.634.193-3.871.523l-107.555-107.555h236.408c1.24-4.944 2.333-9.946 3.282-15h-227.264l45-45zm-252.862 45h-6.213l-45-45h96.213z" fill="#38c674"/></g></g><g><path d="m263.5 511.882c5.039-.145 10.038-.446 15-.878v-132.504h-15z" fill="#38c674"/></g></g><g><g><g><path d="m416.704 288.5c2.595 4.479 7.428 7.5 12.977 7.5s10.382-3.021 12.977-7.5h67.298c.628-4.956 1.097-9.96 1.438-15h-68.735c-2.595-4.479-7.428-7.5-12.977-7.5s-10.382 3.021-12.977 7.5h-148.81l148.171-148.171c1.237.33 2.53.523 3.871.523 8.284 0 15-6.716 15-15 0-1.341-.193-2.634-.523-3.871l16.697-16.697c-3.245-3.817-6.589-7.545-10.049-11.164l-17.255 17.255c-1.237-.33-2.53-.523-3.871-.523-8.284 0-15 6.716-15 15 0 1.341.193 2.634.523 3.871l-149.459 149.457-139.619-139.619c.33-1.237.523-2.53.523-3.871 0-8.284-6.716-15-15-15-1.341 0-2.634.193-3.871.523l-27.094-27.093c-3.46 3.619-6.804 7.348-10.049 11.164l26.536 26.536c-.33 1.237-.523 2.53-.523 3.871 0 8.284 6.716 15 15 15 1.341 0 2.634-.193 3.871-.523l138.332 138.332h-243.499c.34 5.04.81 10.044 1.438 15h229.635l-45 45h-174.725c1.609 5.07 3.371 10.072 5.281 15h154.444l-57.817 57.817c-1.237-.33-2.53-.523-3.871-.523-8.284 0-15 6.716-15 15 0 1.341.193 2.634.523 3.871l-16.395 16.396c3.619 3.46 7.348 6.804 11.164 10.049l15.838-15.838c1.237.33 2.53.523 3.871.523 8.284 0 15-6.716 15-15 0-1.341-.193-2.634-.523-3.871l68.423-68.423h126.213l102.61 102.61c3.817-3.245 7.545-6.589 11.164-10.049l-92.56-92.562h106.384c2.595 4.479 7.428 7.5 12.977 7.5s10.382-3.021 12.977-7.5h22.106c1.911-4.928 3.673-9.93 5.281-15h-27.387c-2.595-4.479-7.428-7.5-12.977-7.5s-10.382 3.021-12.977 7.5h-121.384l-45-45zm-112.598 45h-96.213l45-45h6.213z" fill="#73f9a9"/></g></g><g><path d="m248.5 432.214v-53.714h-15v53.714c-4.479 2.595-7.5 7.428-7.5 12.977s3.021 10.382 7.5 12.977v52.836c4.962.432 9.961.733 15 .878v-53.714c4.479-2.595 7.5-7.428 7.5-12.977s-3.021-10.382-7.5-12.977z" fill="#73f9a9"/></g><g><path d="m308.5 462.214v-83.714h-15v83.714c-4.479 2.595-7.5 7.428-7.5 12.977s3.021 10.382 7.5 12.977v21.09c5.049-.741 10.051-1.625 15-2.657v-18.433c4.479-2.595 7.5-7.428 7.5-12.977s-3.021-10.382-7.5-12.977z" fill="#73f9a9"/></g></g><g><g><g><path d="m256 32.25c-49.706 0-90 40.294-90 90v95h45v-95c0-24.853 20.147-45 45-45s45 20.147 45 45v95h45v-95c0-49.706-40.294-90-90-90z" fill="#fff"/></g><g><path d="m233.5 54.75c0-12.426 10.074-22.5 22.5-22.5-49.706 0-90 40.294-90 90v95h45v-95c0-24.853 20.147-45 45-45-12.426 0-22.5-10.074-22.5-22.5z" fill="#d3dcfb"/></g></g><g><path d="m346 408.5h-180c-24.853 0-45-20.147-45-45v-135c0-24.853 20.147-45 45-45h180c24.853 0 45 20.147 45 45v135c0 24.853-20.147 45-45 45z" fill="#2a428c"/></g><g><path d="m166 363.5v-135c0-24.853 20.147-45 45-45h-45c-24.853 0-45 20.147-45 45v135c0 24.853 20.147 45 45 45h45c-24.853 0-45-20.147-45-45z" fill="#1c2e7a"/></g><g><path d="m276 278.5c0-11.408-9.552-20.586-21.094-19.971-10.544.562-18.973 9.542-18.905 20.101.053 8.335 5.211 15.449 12.5 18.402v32.717c0 4.142 3.358 7.5 7.5 7.5 4.142 0 7.5-3.358 7.5-7.5v-32.717c7.326-2.968 12.499-10.141 12.499-18.532z" fill="#1c2e7a"/></g><g><g><path d="m391 258.5h-62.5c-4.142 0-7.5-3.358-7.5-7.5 0-4.142 3.358-7.5 7.5-7.5h62.5z" fill="#1c2e7a"/></g><g><path d="m391 348.5h-62.5c-4.142 0-7.5-3.358-7.5-7.5 0-4.142 3.358-7.5 7.5-7.5h62.5z" fill="#1c2e7a"/></g><g><path d="m391 318.5h-62.5c-4.142 0-7.5-3.358-7.5-7.5 0-4.142 3.358-7.5 7.5-7.5h62.5z" fill="#1c2e7a"/></g><g><path d="m391 288.5h-62.5c-4.142 0-7.5-3.358-7.5-7.5 0-4.142 3.358-7.5 7.5-7.5h62.5z" fill="#1c2e7a"/></g></g><g><g><path d="m121 258.5h62.5c4.142 0 7.5-3.358 7.5-7.5 0-4.142-3.358-7.5-7.5-7.5h-62.5z" fill="#1c2e7a"/></g><g><path d="m121 348.5h62.5c4.142 0 7.5-3.358 7.5-7.5 0-4.142-3.358-7.5-7.5-7.5h-62.5z" fill="#1c2e7a"/></g><g><path d="m121 318.5h62.5c4.142 0 7.5-3.358 7.5-7.5 0-4.142-3.358-7.5-7.5-7.5h-62.5z" fill="#1c2e7a"/></g><g><path d="m121 288.5h62.5c4.142 0 7.5-3.358 7.5-7.5 0-4.142-3.358-7.5-7.5-7.5h-62.5z" fill="#1c2e7a"/></g></g></g></g></svg>