<svg height="512pt" viewBox="0 0 512.00011 512" width="512pt" xmlns="http://www.w3.org/2000/svg"><path d="m512 256c0 14-1.128906 27.742188-3.292969 41.125-6.351562 39.371094-21.691406 75.734375-43.832031 106.925781-22.539062 31.730469-52.117188 58.105469-86.476562 76.839844-33.371094 18.203125-71.238282 29.195313-111.519532 30.875-3.605468.15625-7.230468.230469-10.878906.230469-11.816406 0-23.445312-.804688-34.84375-2.359375-5.476562-.734375-10.890625-1.652344-16.25-2.738281-21.355469-4.328126-41.742188-11.304688-60.8125-20.59375-85.304688-41.527344-144.08984375-129.046876-144.08984375-230.304688 0-141.386719 114.61328175-256 255.99609375-256 111.722656 0 206.722656 71.566406 241.675781 171.351562 3.65625 10.4375 6.65625 21.179688 8.933594 32.195313 3.25 15.535156 5.078125 31.585937 5.347656 48.019531.03125 1.476563.042969 2.949219.042969 4.433594zm0 0" fill="#46b8fc"/><path d="m56.488281 361.6875 7.394531 18.996094c1.050782 2.6875 3.996094 4.105468 6.75 3.234375l15.847657-4.996094c2.257812-.710937 4.695312.128906 6.09375 2.035156 4.335937 5.957031 9.410156 11.210938 15.03125 15.683594 1.859375 1.480469 2.59375 3.957031 1.78125 6.1875l-5.671875 15.617187c-.984375 2.710938.304687 5.722657 2.941406 6.878907l18.679688 8.214843c2.636718 1.15625 5.726562.066407 7.058593-2.488281l7.675781-14.746093c1.09375-2.09375 3.414063-3.234376 5.757813-2.863282 7.101563 1.109375 14.402344 1.300782 21.71875.46875 2.351563-.265625 4.621094.964844 5.621094 3.113282l7.035156 15.054687c1.222656 2.617187 4.261719 3.832031 6.949219 2.789063l18.996094-7.402344c2.683593-1.042969 4.105468-3.996094 3.234374-6.742188l-4.996093-15.847656c-.710938-2.257812.125-4.707031 2.042969-6.101562 5.949218-4.339844 11.191406-9.402344 15.667968-15.027344 1.480469-1.855469 3.953125-2.589844 6.1875-1.777344l15.632813 5.671875c2.710937.976563 5.714843-.308594 6.878906-2.941406l8.207031-18.679688c1.15625-2.644531.066406-5.734375-2.492187-7.0625l-14.742188-7.675781c-2.105469-1.09375-3.242187-3.410156-2.867187-5.757812 1.121094-7.101563 1.300781-14.398438.480468-21.714844-.265624-2.355469.964844-4.621094 3.105469-5.621094l15.050781-7.035156c2.613282-1.222656 3.828126-4.261719 2.78125-6.949219l-7.402343-19.003906c-1.042969-2.6875-3.996094-4.097657-6.742188-3.234375l-15.835937 4.996094c-2.261719.710937-4.699219-.121094-6.09375-2.035157-4.339844-5.949219-9.414063-11.203125-15.035156-15.667969-1.863282-1.480468-2.601563-3.964843-1.789063-6.1875l5.671875-15.632812c.984375-2.703125-.296875-5.71875-2.941406-6.878906l-5.117188-2.242188-13.554687-5.964844c-2.644531-1.164062-5.734375-.078124-7.058594 2.480469l-7.675781 14.75c-1.09375 2.105469-3.421875 3.238281-5.769532 2.867188-7.101562-1.121094-14.390624-1.308594-21.707031-.480469-2.351562.265625-4.621093-.964844-5.621093-3.113281l-4.628907-9.890625-2.40625-5.152344c-1.222656-2.609375-4.261719-3.832031-6.949219-2.789062l-18.996093 7.402343c-2.683594 1.042969-4.105469 3.996094-3.234375 6.75l4.988281 15.839844c.710937 2.257813-.117187 4.695313-2.035156 6.089844-5.949219 4.339843-11.203125 9.414062-15.675781 15.035156-1.480469 1.867187-3.953126 2.59375-6.1875 1.789063l-15.625-5.683594c-2.703126-.984375-5.714844.308594-6.878907 2.945312l-8.207031 18.679688c-1.164062 2.632812-.078125 5.722656 2.480469 7.058594l14.742187 7.675781c2.105469 1.09375 3.246094 3.421875 2.878906 5.757812-1.121093 7.101563-1.3125 14.402344-.480468 21.71875.265625 2.351563-.96875 4.621094-3.117188 5.621094l-15.046875 7.035156c-2.609375 1.214844-3.835937 4.253907-2.78125 6.949219zm90.769531-62.457031c17.140626-5.691407 36.128907 2.652343 43.519532 19.132812 8.636718 19.246094-1.214844 41.65625-21.238282 48.296875-17.136718 5.6875-36.109374-2.644531-43.511718-19.125-8.632813-19.238281 1.207031-41.648437 21.230468-48.304687zm0 0" fill="#35a2da"/><path d="m257.097656 186.15625 7.394532 18.996094c1.050781 2.683594 3.992187 4.105468 6.75 3.234375l15.847656-5c2.257812-.710938 4.695312.128906 6.089844 2.039062 4.339843 5.953125 9.414062 11.207031 15.035156 15.683594 1.855468 1.480469 2.59375 3.953125 1.78125 6.1875l-5.675782 15.617187c-.984374 2.710938.308594 5.722657 2.945313 6.878907l18.679687 8.214843c2.632813 1.152344 5.722657.066407 7.058594-2.492187l7.675782-14.742187c1.09375-2.097657 3.414062-3.234376 5.757812-2.867188 7.101562 1.113281 14.402344 1.300781 21.71875.472656 2.351562-.265625 4.621094.964844 5.621094 3.113282l7.035156 15.050781c1.222656 2.621093 4.257812 3.835937 6.945312 2.789062l18.996094-7.398437c2.6875-1.046875 4.109375-3.996094 3.238282-6.746094l-5-15.84375c-.710938-2.261719.128906-4.707031 2.046874-6.101562 5.945313-4.339844 11.191407-9.40625 15.667969-15.027344 1.480469-1.855469 3.953125-2.589844 6.183594-1.777344l15.636719 5.671875c2.710937.976563 5.714844-.308594 6.878906-2.945313l8.207031-18.679687c1.152344-2.640625.066407-5.730469-2.492187-7.058594l-14.742188-7.675781c-2.105468-1.09375-3.246094-3.414062-2.867187-5.757812 1.121093-7.101563 1.300781-14.402344.480469-21.714844-.265626-2.355469.964843-4.621094 3.105468-5.625l15.050782-7.03125c2.609374-1.226563 3.828124-4.261719 2.78125-6.949219l-7.402344-19.003906c-1.042969-2.6875-3.996094-4.101563-6.742188-3.234375l-15.839844 4.996094c-2.257812.710937-4.695312-.121094-6.089843-2.035157-4.339844-5.949219-9.414063-11.203125-15.035157-15.667969-1.867187-1.484374-2.601562-3.964843-1.789062-6.1875l5.671875-15.636718c.984375-2.703125-.300781-5.714844-2.945313-6.878906l-5.113281-2.242188-13.554687-5.964844c-2.644532-1.164062-5.734375-.074218-7.0625 2.484375l-7.675782 14.75c-1.09375 2.105469-3.421874 3.234375-5.765624 2.867188-7.101563-1.121094-14.394532-1.308594-21.710938-.480469-2.351562.265625-4.617188-.964844-5.621094-3.113281l-4.628906-9.894531-2.402344-5.148438c-1.222656-2.613281-4.261718-3.835938-6.949218-2.792969l-18.996094 7.402344c-2.6875 1.046875-4.105469 3.996094-3.234375 6.753906l4.988281 15.835938c.710938 2.261719-.121094 4.699219-2.035156 6.09375-5.949219 4.339843-11.203125 9.414062-15.679688 15.035156-1.480468 1.863281-3.953125 2.59375-6.183594 1.789063l-15.628906-5.683594c-2.703125-.984375-5.714844.308594-6.878906 2.945312l-8.207031 18.679688c-1.164063 2.632812-.074219 5.722656 2.484375 7.058594l14.742187 7.675781c2.105469 1.09375 3.242188 3.421875 2.875 5.757812-1.121093 7.101563-1.308593 14.402344-.480469 21.714844.265626 2.355469-.964843 4.621094-3.113281 5.625l-15.050781 7.03125c-2.605469 1.21875-3.832031 4.253906-2.777344 6.953125zm90.769532-62.457031c17.140624-5.691407 36.128906 2.652343 43.519531 19.132812 8.632812 19.242188-1.214844 41.652344-21.238281 48.292969-17.140626 5.691406-36.109376-2.644531-43.511719-19.125-8.632813-19.234375 1.207031-41.644531 21.230469-48.300781zm0 0" fill="#35a2da"/><path d="m511.957031 251.566406c-3.25-2.964844-6.582031-5.808594-10.007812-8.523437-4.472657-3.554688-6.238281-9.507813-4.285157-14.839844l8.945313-24.65625c-2.277344-11.015625-5.277344-21.757813-8.933594-32.195313l-5.738281-2.519531-32.507812-14.304687c-6.339844-2.789063-13.75-.1875-16.925782 5.957031l-18.410156 35.378906c-2.621094 5.046875-8.214844 7.753907-13.835938 6.878907-17.03125-2.699219-34.511718-3.148438-52.054687-1.152344-5.644531.628906-11.085937-2.320313-13.488281-7.46875l-11.097656-23.730469-5.769532-12.351563c-2.933594-6.257812-10.21875-9.195312-16.664062-6.6875l-45.558594 17.753907c-6.4375 2.496093-9.84375 9.582031-7.753906 16.183593l11.964844 37.984376c1.703124 5.421874-.292969 11.273437-4.890626 14.617187-14.25 10.40625-26.851562 22.570313-37.585937 36.046875-3.550781 4.484375-9.484375 6.230469-14.835937 4.296875l-37.480469-13.625c-6.476563-2.363281-13.707031.742187-16.5 7.050781l-19.671875 44.804688c-2.792969 6.324218-.191406 13.730468 5.945312 16.929687l35.359375 18.410157c5.054688 2.621093 7.78125 8.203124 6.894531 13.804687-2.683593 17.039063-3.136718 34.542969-1.148437 52.085937.636719 5.640626-2.320313 11.074219-7.472656 13.480469l-36.089844 16.875c-6.257813 2.914063-9.195313 10.195313-6.667969 16.65625l8.402344 21.597657c19.070312 9.289062 39.457031 16.265624 60.8125 20.59375l2.707031-.855469c4.890625-1.539063 10.113281-.066407 13.542969 3.59375 11.398438 1.554687 23.027344 2.359375 34.84375 2.359375 3.648438 0 7.273438-.074219 10.878906-.230469 40.28125-1.679687 78.148438-12.671875 111.519532-30.875-31.992188-.730469-62.230469-19.601563-75.929688-50.125-20.710938-46.128906 2.894531-99.878906 50.90625-115.84375 41.105469-13.648437 86.640625 6.363281 104.375 45.890625 6.34375 14.136719 8.527344 28.984375 7.125 43.238281 22.140625-31.191406 37.480469-67.554687 43.832031-106.925781 2.164063-13.382812 3.292969-27.125 3.292969-41.125 0-1.484375-.011719-2.957031-.042969-4.433594zm0 0" fill="#304e87"/><path d="m508.707031 297.125c-29.632812-38.566406-76.222656-63.425781-128.613281-63.425781-89.515625 0-162.074219 72.570312-162.074219 162.074219 0 45.464843 18.714844 86.546874 48.859375 115.992187 40.28125-1.679687 78.148438-12.671875 111.519532-30.875-31.992188-.730469-62.230469-19.601563-75.929688-50.125-20.710938-46.128906 2.894531-99.878906 50.90625-115.84375 41.105469-13.648437 86.640625 6.363281 104.375 45.890625 6.34375 14.136719 8.527344 28.984375 7.125 43.238281 22.140625-31.191406 37.480469-67.554687 43.832031-106.925781zm0 0" fill="#1f3f72"/><path d="m.695312 241.296875 13.613282 34.980469c1.9375 4.949218 7.355468 7.566406 12.429687 5.957031l29.183594-9.203125c4.160156-1.308594 8.652344.238281 11.21875 3.75 7.988281 10.96875 17.332031 20.644531 27.683594 28.882812 3.421875 2.726563 4.777343 7.28125 3.28125 11.394532l-10.449219 28.753906c-1.8125 4.996094.566406 10.542969 5.421875 12.671875l34.398437 15.125c4.851563 2.128906 10.542969.125 13-4.585937l14.132813-27.148438c2.015625-3.859375 6.289063-5.957031 10.605469-5.277344 13.078125 2.046875 26.519531 2.394532 39.992187.863282 4.332031-.488282 8.507813 1.78125 10.351563 5.738281l12.953125 27.714843c2.25 4.824219 7.847656 7.058594 12.792969 5.136719l34.980468-13.628906c4.949219-1.921875 7.5625-7.359375 5.957032-12.417969l-9.203126-29.179687c-1.308593-4.160157.238282-8.667969 3.765626-11.234375 10.953124-7.988282 20.609374-17.316406 28.851562-27.671875 2.726562-3.417969 7.28125-4.773438 11.394531-3.277344l28.785157 10.449219c4.996093 1.796875 10.527343-.566406 12.671874-5.421875l15.109376-34.398438c2.128906-4.867187.128906-10.554687-4.585938-12.996093l-27.148438-14.136719c-3.875-2.015625-5.972656-6.285157-5.277343-10.605469 2.0625-13.078125 2.394531-26.515625.882812-39.988281-.488281-4.335938 1.78125-8.511719 5.71875-10.355469l27.71875-12.949219c4.804688-2.253906 7.042969-7.847656 5.121094-12.796875l-13.632813-34.996094c-1.921874-4.949218-7.355468-7.546874-12.414062-5.957031l-29.167969 9.203125c-4.160156 1.308594-8.648437-.21875-11.21875-3.75-7.988281-10.949218-17.332031-20.625-27.683593-28.851562-3.4375-2.726563-4.789063-7.296875-3.292969-11.390625l10.445312-28.789063c1.8125-4.980468-.550781-10.527344-5.421875-12.671875l-9.421875-4.128906-24.960937-10.980469c-4.867188-2.144531-10.554688-.140625-12.996094 4.570313l-14.136719 27.164062c-2.015625 3.875-6.300781 5.957031-10.621093 5.277344-13.078126-2.0625-26.503907-2.410156-39.972657-.882813-4.335937.488282-8.511719-1.78125-10.355469-5.734374l-8.523437-18.214844-4.429687-9.488282c-2.25-4.804687-7.84375-7.058593-12.792969-5.136718l-34.980469 13.632812c-4.949219 1.921875-7.5625 7.359375-5.957031 12.433594l9.1875 29.164062c1.308593 4.160157-.21875 8.652344-3.75 11.21875-10.953125 7.988282-20.625 17.332032-28.867188 27.6875-2.726562 3.433594-7.28125 4.773438-11.390625 3.292969l-28.773437-10.464843c-4.980469-1.808594-10.527344.570312-12.667969 5.421874l-15.113281 34.398438c-2.144531 4.851562-.140625 10.542969 4.570312 13l27.148438 14.132812c3.875 2.015626 5.972656 6.304688 5.292969 10.605469-2.0625 13.078125-2.410157 26.519531-.878907 39.992188.488281 4.332031-1.78125 8.507812-5.738281 10.351562l-27.714844 12.953125c-4.808594 2.238282-7.0625 7.828125-5.121094 12.792969zm167.152344-115.011719c31.5625-10.476562 66.523438 4.886719 80.140625 35.234375 15.898438 35.4375-2.238281 76.703125-39.109375 88.929688-31.5625 10.480469-66.496094-4.867188-80.125-35.214844-15.898437-35.421875 2.21875-76.6875 39.09375-88.949219zm0 0" fill="#f2efea"/><path d="m83.5625 188.367188c0 57.882812 46.917969 104.800781 104.800781 104.800781 57.878907 0 104.796875-46.921875 104.796875-104.800781 0-57.875-46.917968-104.796876-104.796875-104.796876-57.882812 0-104.800781 46.921876-104.800781 104.796876zm92.410156-37.496094c19.0625-6.328125 40.179688 2.953125 48.402344 21.28125 9.601562 21.402344-1.351562 46.328125-23.621094 53.710937-19.0625 6.332031-40.160156-2.9375-48.390625-21.269531-9.605469-21.390625 1.339844-46.316406 23.609375-53.722656zm0 0" fill="#e5e1dc"/></svg>