<svg xmlns="http://www.w3.org/2000/svg" viewBox="0 0 500 500"><g id="freepik--Floor--inject-2"><path id="freepik--floor--inject-2" d="M85.89,406.57C177.11,457,325,457,416.21,406.57s91.22-132.13,0-182.54-239.11-50.4-330.32,0S-5.33,356.17,85.89,406.57Z" style="fill:#f5f5f5"></path></g><g id="freepik--Shadows--inject-2"><path id="freepik--Shadow--inject-2" d="M246.25,296.61l92.9,53.63a9.57,9.57,0,0,0,8.66,0l101-58.32c2.39-1.38,2.39-3.62,0-5l-92.89-53.63a9.57,9.57,0,0,0-8.66,0l-101,58.32C243.86,293,243.86,295.23,246.25,296.61Z" style="fill:#e0e0e0"></path><ellipse id="freepik--shadow--inject-2" cx="196.21" cy="240.31" rx="39.11" ry="20.54" style="fill:#e0e0e0"></ellipse><ellipse id="freepik--shadow--inject-2" cx="265.46" cy="396.41" rx="33.33" ry="18.12" style="fill:#e0e0e0"></ellipse><ellipse id="freepik--shadow--inject-2" cx="262.33" cy="208.41" rx="39.11" ry="20.54" style="fill:#e0e0e0"></ellipse><path id="freepik--shadow--inject-2" d="M39.09,355.24l88.83,51.28a9.57,9.57,0,0,0,8.66,0l97-56c2.4-1.38,2.4-3.62,0-5l-88.85-51.3a9.57,9.57,0,0,0-8.66,0l-96.95,56C36.7,351.62,36.7,353.86,39.09,355.24Z" style="fill:#e0e0e0"></path></g><g id="freepik--Trees--inject-2"><g id="freepik--Pine--inject-2"><path d="M202.17,165.76v73.37a3,3,0,0,1-1.74,2.44,9.34,9.34,0,0,1-8.43,0,3,3,0,0,1-1.75-2.44V165.76Z" style="fill:#9a4a4d"></path><path d="M156.72,203.73l36.92-89.14h5.14l36.92,89.15a4.71,4.71,0,0,1-3.44,6.43l-.6.12a4.73,4.73,0,0,0-3.77,5.22h0a4.71,4.71,0,0,1-6.07,5.09L220,220a4.71,4.71,0,0,0-5.68,2.56l-1.84,4.05a4.71,4.71,0,0,1-6.7,2.1l-7.16-4.24a4.71,4.71,0,0,0-4.81,0l-7.17,4.24a4.71,4.71,0,0,1-6.7-2.1l-1.84-4.05a4.71,4.71,0,0,0-5.68-2.56l-1.82.56a4.72,4.72,0,0,1-6.07-5.1h0a4.7,4.7,0,0,0-3.76-5.21l-.61-.12A4.73,4.73,0,0,1,156.72,203.73Z" style="fill:#30DD8A"></path><path d="M156.72,203.73l36.92-89.14h5.14l36.92,89.15a4.71,4.71,0,0,1-3.44,6.43l-.6.12a4.73,4.73,0,0,0-3.77,5.22h0a4.71,4.71,0,0,1-6.07,5.09L220,220a4.71,4.71,0,0,0-5.68,2.56l-1.84,4.05a4.71,4.71,0,0,1-6.7,2.1l-7.16-4.24a4.71,4.71,0,0,0-4.81,0l-7.17,4.24a4.71,4.71,0,0,1-6.7-2.1l-1.84-4.05a4.71,4.71,0,0,0-5.68-2.56l-1.82.56a4.72,4.72,0,0,1-6.07-5.1h0a4.7,4.7,0,0,0-3.76-5.21l-.61-.12A4.73,4.73,0,0,1,156.72,203.73Z" style="opacity:0.1"></path><path d="M165,177.81,193.64,111h5.14l29.4,66.79c1.06,2.15.45,4.71-1.91,5.1a3.56,3.56,0,0,0-3,3.93l.08.69a3.56,3.56,0,0,1-4.82,3.74l-1.82-.69a3.56,3.56,0,0,0-4.53,1.88L210,197.54a3.57,3.57,0,0,1-5.09,1.61L198,195.07a3.58,3.58,0,0,0-3.66,0l-6.12,4.08a3.56,3.56,0,0,1-5.08-1.61l-2.27-5.08a3.55,3.55,0,0,0-4.52-1.88l-1.83.69a3.56,3.56,0,0,1-4.81-3.74l.08-.69a3.57,3.57,0,0,0-3-3.93h0C164.5,182.52,163.9,180,165,177.81Z" style="fill:#30DD8A"></path><path d="M172.1,151.54l21.56-45.32.17-.27a2.74,2.74,0,0,1,4.76,0l.17.28,21.56,45.32a3.22,3.22,0,0,1-1.16,4.49l-.16.09a3.2,3.2,0,0,0-1.63,3.07,3.21,3.21,0,0,1-4,3.38l-1.25-.33a3.22,3.22,0,0,0-3.65,1.59L206.74,167a3.2,3.2,0,0,1-4.32,1.33l-4.72-2.46a3.2,3.2,0,0,0-3,0L190,168.36a3.21,3.21,0,0,1-4.32-1.33L184,163.84a3.21,3.21,0,0,0-3.65-1.59l-1.25.33a3.21,3.21,0,0,1-4-3.38h0a3.19,3.19,0,0,0-1.63-3.07l-.16-.09A3.23,3.23,0,0,1,172.1,151.54Z" style="fill:#30DD8A"></path><path d="M172.1,151.54l21.56-45.32.17-.27a2.74,2.74,0,0,1,4.76,0l.17.28,21.56,45.32a3.22,3.22,0,0,1-1.16,4.49l-.16.09a3.2,3.2,0,0,0-1.63,3.07,3.21,3.21,0,0,1-4,3.38l-1.25-.33a3.22,3.22,0,0,0-3.65,1.59L206.74,167a3.2,3.2,0,0,1-4.32,1.33l-4.72-2.46a3.2,3.2,0,0,0-3,0L190,168.36a3.21,3.21,0,0,1-4.32-1.33L184,163.84a3.21,3.21,0,0,0-3.65-1.59l-1.25.33a3.21,3.21,0,0,1-4-3.38h0a3.19,3.19,0,0,0-1.63-3.07l-.16-.09A3.23,3.23,0,0,1,172.1,151.54Z" style="fill:#fff;opacity:0.2"></path><path d="M199.19,242a5.7,5.7,0,0,1,11.39,0,.92.92,0,0,1,0,.16.81.81,0,0,1,0,.16,2.89,2.89,0,0,1-1.66,2.17,8.88,8.88,0,0,1-8.06,0,3,3,0,0,1-1.67-2.17V242Z" style="fill:#37474f"></path><path d="M200.86,244.44a3,3,0,0,1-1.67-2.17V242a5.68,5.68,0,0,1,3-4.83s-2.84,3.57-.76,5.92c1.43,1.63,6.34,1.92,8.5.64a3.91,3.91,0,0,1-1,.76A8.88,8.88,0,0,1,200.86,244.44Z" style="fill:#263238"></path><path d="M208.4,244.82a4,4,0,0,1,8,0v.23a2.08,2.08,0,0,1-1.18,1.53,6.27,6.27,0,0,1-5.69,0,2.08,2.08,0,0,1-1.18-1.53v-.23Z" style="fill:#455a64"></path><path d="M209.58,246.58a2.08,2.08,0,0,1-1.18-1.53v-.23a4.14,4.14,0,0,1,.27-1.33c-.09,1.72.72,2.77,3.26,3.09s4.21-.75,4.43-1.14a2.36,2.36,0,0,1-1.09,1.14A6.27,6.27,0,0,1,209.58,246.58Z" style="fill:#37474f"></path><path d="M184.64,241.65a4,4,0,0,1,8.05,0v.22a2.06,2.06,0,0,1-1.18,1.53,6.27,6.27,0,0,1-5.69,0,2.06,2.06,0,0,1-1.18-1.53v-.22Z" style="fill:#455a64"></path><path d="M185.82,243.4a2.06,2.06,0,0,1-1.18-1.53v-.22a4,4,0,0,1,.28-1.34c-.1,1.73.71,2.77,3.26,3.1s4.2-.75,4.42-1.15a2.32,2.32,0,0,1-1.09,1.14A6.27,6.27,0,0,1,185.82,243.4Z" style="fill:#37474f"></path></g><g id="freepik--pine--inject-2"><path d="M267.94,133.86v73.38a3,3,0,0,1-1.75,2.43,9.34,9.34,0,0,1-8.43,0,3,3,0,0,1-1.74-2.43V133.86Z" style="fill:#9a4a4d"></path><path d="M222.49,171.84l36.92-89.15h5.14l36.91,89.15a4.72,4.72,0,0,1-3.44,6.44l-.6.12a4.7,4.7,0,0,0-3.76,5.21h0a4.72,4.72,0,0,1-6.07,5.09l-1.82-.56a4.72,4.72,0,0,0-5.69,2.56l-1.83,4.05a4.72,4.72,0,0,1-6.7,2.11l-7.17-4.25a4.71,4.71,0,0,0-4.81,0l-7.16,4.25a4.72,4.72,0,0,1-6.7-2.11l-1.84-4.05a4.71,4.71,0,0,0-5.68-2.56l-1.83.56a4.71,4.71,0,0,1-6.06-5.1h0a4.73,4.73,0,0,0-3.77-5.21l-.6-.12A4.71,4.71,0,0,1,222.49,171.84Z" style="fill:#30DD8A"></path><path d="M222.49,171.84l36.92-89.15h5.14l36.91,89.15a4.72,4.72,0,0,1-3.44,6.44l-.6.12a4.7,4.7,0,0,0-3.76,5.21h0a4.72,4.72,0,0,1-6.07,5.09l-1.82-.56a4.72,4.72,0,0,0-5.69,2.56l-1.83,4.05a4.72,4.72,0,0,1-6.7,2.11l-7.17-4.25a4.71,4.71,0,0,0-4.81,0l-7.16,4.25a4.72,4.72,0,0,1-6.7-2.11l-1.84-4.05a4.71,4.71,0,0,0-5.68-2.56l-1.83.56a4.71,4.71,0,0,1-6.06-5.1h0a4.73,4.73,0,0,0-3.77-5.21l-.6-.12A4.71,4.71,0,0,1,222.49,171.84Z" style="opacity:0.1"></path><path d="M230.72,145.92l28.69-66.8h5.14l29.4,66.8c1.05,2.14.45,4.71-1.91,5.09a3.57,3.57,0,0,0-3,3.94l.08.68a3.56,3.56,0,0,1-4.81,3.74l-1.83-.69a3.56,3.56,0,0,0-4.52,1.88l-2.27,5.08a3.55,3.55,0,0,1-5.08,1.61l-6.83-4.07a3.54,3.54,0,0,0-3.66,0L254,167.25a3.56,3.56,0,0,1-5.09-1.61l-2.26-5.08a3.57,3.57,0,0,0-4.53-1.88l-1.82.69a3.56,3.56,0,0,1-4.82-3.74l.08-.69a3.56,3.56,0,0,0-3-3.93h0C230.27,150.62,229.66,148.06,230.72,145.92Z" style="fill:#30DD8A"></path><path d="M237.87,119.65l21.56-45.33.17-.27a2.74,2.74,0,0,1,4.76,0l.17.28,21.56,45.32a3.21,3.21,0,0,1-1.17,4.49l-.15.09a3.23,3.23,0,0,0-1.64,3.07,3.21,3.21,0,0,1-4,3.38l-1.24-.32a3.2,3.2,0,0,0-3.65,1.59l-1.71,3.19a3.22,3.22,0,0,1-4.32,1.33L263.47,134a3.2,3.2,0,0,0-3,0l-4.72,2.47a3.22,3.22,0,0,1-4.32-1.33L249.74,132a3.21,3.21,0,0,0-3.65-1.59l-1.25.32a3.21,3.21,0,0,1-4-3.38h0a3.2,3.2,0,0,0-1.63-3.07l-.16-.09A3.21,3.21,0,0,1,237.87,119.65Z" style="fill:#30DD8A"></path><path d="M237.87,119.65l21.56-45.33.17-.27a2.74,2.74,0,0,1,4.76,0l.17.28,21.56,45.32a3.21,3.21,0,0,1-1.17,4.49l-.15.09a3.23,3.23,0,0,0-1.64,3.07,3.21,3.21,0,0,1-4,3.38l-1.24-.32a3.2,3.2,0,0,0-3.65,1.59l-1.71,3.19a3.22,3.22,0,0,1-4.32,1.33L263.47,134a3.2,3.2,0,0,0-3,0l-4.72,2.47a3.22,3.22,0,0,1-4.32-1.33L249.74,132a3.21,3.21,0,0,0-3.65-1.59l-1.25.32a3.21,3.21,0,0,1-4-3.38h0a3.2,3.2,0,0,0-1.63-3.07l-.16-.09A3.21,3.21,0,0,1,237.87,119.65Z" style="fill:#fff;opacity:0.2"></path><path d="M265,210.06a5.7,5.7,0,0,1,11.39,0v.32a2.93,2.93,0,0,1-1.66,2.16,8.88,8.88,0,0,1-8.06,0,2.89,2.89,0,0,1-1.67-2.16.92.92,0,0,1,0-.16A.81.81,0,0,1,265,210.06Z" style="fill:#37474f"></path><path d="M266.63,212.54a2.89,2.89,0,0,1-1.67-2.16.92.92,0,0,1,0-.16.81.81,0,0,1,0-.16,5.68,5.68,0,0,1,3-4.84c0,.05-2.83,3.58-.76,5.93,1.43,1.62,6.35,1.92,8.51.63a4.11,4.11,0,0,1-1,.76A8.88,8.88,0,0,1,266.63,212.54Z" style="fill:#263238"></path><path d="M274.17,212.92a4,4,0,0,1,8,0,.49.49,0,0,1,0,.12.41.41,0,0,1,0,.11,2,2,0,0,1-1.17,1.53,6.27,6.27,0,0,1-5.69,0,2.06,2.06,0,0,1-1.18-1.53v-.23Z" style="fill:#455a64"></path><path d="M275.35,214.68a2.06,2.06,0,0,1-1.18-1.53v-.23a3.94,3.94,0,0,1,.27-1.33c-.1,1.72.72,2.77,3.26,3.09s4.2-.75,4.42-1.14a2.34,2.34,0,0,1-1.08,1.14A6.27,6.27,0,0,1,275.35,214.68Z" style="fill:#37474f"></path><path d="M250.41,209.75a4,4,0,0,1,8,0,.41.41,0,0,1,0,.11.49.49,0,0,1,0,.12,2.06,2.06,0,0,1-1.17,1.53,6.33,6.33,0,0,1-5.69,0,2.1,2.1,0,0,1-1.18-1.53v-.23Z" style="fill:#455a64"></path><path d="M251.59,211.51a2.1,2.1,0,0,1-1.18-1.53v-.23a4,4,0,0,1,.27-1.34c-.1,1.73.72,2.78,3.26,3.1s4.2-.75,4.42-1.14a2.42,2.42,0,0,1-1.08,1.14A6.33,6.33,0,0,1,251.59,211.51Z" style="fill:#37474f"></path></g></g><g id="freepik--Tent--inject-2"><g id="freepik--tent--inject-2"><path d="M245.29,278.66V264.59H233.8v14.07a2.86,2.86,0,0,0,1.68,2.35,9,9,0,0,0,8.13,0A2.86,2.86,0,0,0,245.29,278.66Z" style="fill:#37474f"></path><path d="M235.48,262.25a9,9,0,0,1,8.13,0c2.24,1.29,2.24,3.39,0,4.69a9,9,0,0,1-8.13,0C233.24,265.64,233.24,263.54,235.48,262.25Z" style="fill:#455a64"></path><path d="M245.29,268.35v2.16h0a2.64,2.64,0,0,1-1.58,2.12,9.26,9.26,0,0,1-8.33,0,2.66,2.66,0,0,1-1.58-2.12h0v-2.15a3.07,3.07,0,0,0-1,2.16h0a3.56,3.56,0,0,0,2.08,3,10.28,10.28,0,0,0,9.33,0,3.57,3.57,0,0,0,2.08-3A3,3,0,0,0,245.29,268.35Z" style="fill:#f0f0f0"></path><path d="M259.54,281.32a.47.47,0,0,1-.25-.07l-14.56-8.41a.5.5,0,1,1,.5-.86l14.56,8.41a.5.5,0,0,1,.19.68A.52.52,0,0,1,259.54,281.32Z" style="fill:#fafafa"></path><polygon points="343.48 343.36 343.48 329.29 440.97 273 440.97 287.07 343.48 343.36" style="fill:#30DD8A"></polygon><polygon points="343.48 343.36 343.48 329.29 440.97 273 440.97 287.07 343.48 343.36" style="opacity:0.30000000000000004"></polygon><polygon points="254.11 291.76 343.48 343.36 343.48 329.29 298.79 209.68 254.11 277.69 254.11 291.76" style="fill:#30DD8A"></polygon><polygon points="254.11 291.76 343.48 343.36 343.48 329.29 298.79 209.68 254.11 277.69 254.11 291.76" style="opacity:0.1"></polygon><path d="M298.79,209.68l-46.91,71.41s14.22-17.64,25-33.42C288.43,230.79,298.79,209.68,298.79,209.68Z" style="fill:#30DD8A"></path><path d="M319.1,329.29c-13.12-34-19.31-74.43-20.31-119.61-4.44,38.67-10.29,73.32-20.31,96.15Z" style="fill:#455a64"></path><path d="M345.3,332.93a694.21,694.21,0,0,1-46.51-123.25l97.49-56.28a694.11,694.11,0,0,0,46.51,123.24Z" style="fill:#30DD8A"></path><path d="M345.3,332.93,298.79,209.68A694.21,694.21,0,0,0,345.3,332.93Z" style="fill:#30DD8A"></path><path d="M298.79,209.68l-46.91,71.41s14.22-17.64,25-33.42C288.43,230.79,298.79,209.68,298.79,209.68Z" style="fill:#fff;opacity:0.4"></path><path d="M345.3,332.93,298.79,209.68A694.21,694.21,0,0,0,345.3,332.93Z" style="fill:#fff;opacity:0.4"></path><path d="M289.06,271.59c-2.94,13.09-6.39,24.7-10.58,34.24l40.62,23.46c-7.64-19.83-12.92-41.84-16.21-65.69Z" style="fill:#37474f"></path><path d="M367.85,343.86a.45.45,0,0,1-.25-.07l-20.31-11.72a.51.51,0,0,1-.18-.69.49.49,0,0,1,.68-.18l20.31,11.72a.51.51,0,0,1,.18.69A.5.5,0,0,1,367.85,343.86Z" style="fill:#f0f0f0"></path><path d="M373.59,352.74V338.67H362.1v14.07a2.85,2.85,0,0,0,1.69,2.34,8.94,8.94,0,0,0,8.12,0A2.84,2.84,0,0,0,373.59,352.74Z" style="fill:#37474f"></path><path d="M363.79,336.32a9,9,0,0,1,8.12,0c2.24,1.3,2.24,3.4,0,4.69a8.94,8.94,0,0,1-8.12,0C361.54,339.72,361.54,337.62,363.79,336.32Z" style="fill:#455a64"></path><path d="M373.59,342.42v2.16h0A2.63,2.63,0,0,1,372,346.7a9.19,9.19,0,0,1-8.33,0,2.62,2.62,0,0,1-1.57-2.11h0v-2.16a3.06,3.06,0,0,0-1,2.17h0a3.57,3.57,0,0,0,2.07,3,10.36,10.36,0,0,0,9.33,0,3.57,3.57,0,0,0,2.08-3A3,3,0,0,0,373.59,342.42Z" style="fill:#f0f0f0"></path><path d="M461.27,289.72a.59.59,0,0,1-.25-.07l-20.31-11.73a.5.5,0,0,1-.18-.68.5.5,0,0,1,.68-.18l20.31,11.72a.51.51,0,0,1,.19.69A.5.5,0,0,1,461.27,289.72Z" style="fill:#f0f0f0"></path><path d="M467,298.6V284.53H455.53V298.6a2.85,2.85,0,0,0,1.68,2.34,9,9,0,0,0,8.13,0A2.85,2.85,0,0,0,467,298.6Z" style="fill:#37474f"></path><path d="M457.21,282.18a9,9,0,0,1,8.13,0c2.24,1.3,2.24,3.4,0,4.69a9,9,0,0,1-8.13,0C455,285.58,455,283.48,457.21,282.18Z" style="fill:#455a64"></path><path d="M467,288.28v2.16h0a2.64,2.64,0,0,1-1.58,2.11,9.19,9.19,0,0,1-8.33,0,2.64,2.64,0,0,1-1.58-2.11v-2.17a3.07,3.07,0,0,0-1,2.17h0a3.58,3.58,0,0,0,2.08,3,10.36,10.36,0,0,0,9.33,0,3.59,3.59,0,0,0,2.08-3A3,3,0,0,0,467,288.28Z" style="fill:#f0f0f0"></path></g></g><g id="freepik--Characters--inject-2"><g id="freepik--characters--inject-2"><g id="freepik--Legs--inject-2"><path d="M149,365.82a9,9,0,0,1,.55,2.15,4.77,4.77,0,0,1,.18,2.37,4,4,0,0,1-2.68,2.09,5.2,5.2,0,0,1-3.73-.81,10,10,0,0,0-6-2,8.77,8.77,0,0,1-5.23-2.17c-1.44-1.28-1.1-3.56,1.4-3.55,3,0,7.21.55,11.28,0Z" style="fill:#263238"></path><path d="M163.54,361.11a9.53,9.53,0,0,1,.55,2.15,4.74,4.74,0,0,1,.17,2.37,4,4,0,0,1-2.67,2.09,5.22,5.22,0,0,1-3.74-.81,9.88,9.88,0,0,0-6-2,8.77,8.77,0,0,1-5.23-2.17c-1.45-1.28-1.1-3.56,1.4-3.55,3,0,7.21.55,11.28,0Z" style="fill:#263238"></path><path d="M163.54,358v3.68s-.5,1.22-2.6,1.3a3.17,3.17,0,0,1-2.78-1.33V358Z" style="fill:#ffa8a7"></path><path d="M156.53,333.91c0,4.57,1.28,25.66,1.28,25.66s1.87,2.36,5.93,0l1.38-23.4Z" style="fill:#30DD8A"></path><g style="opacity:0.1"><path d="M156.53,333.91c0,4.57,1.28,25.66,1.28,25.66s1.87,2.36,5.93,0l1.38-23.4Z"></path></g><path d="M149.75,362.75l-.73,3.68s-.5,1.22-2.6,1.3a3.16,3.16,0,0,1-2.78-1.33l.3-4.23Z" style="fill:#ffa8a7"></path><path d="M145.58,340.23c-.38,2.11-2,23.25-2,23.25s2.07,2.89,6.13.53l4.34-20.65Z" style="fill:#30DD8A"></path></g><path d="M50.82,353.92V334.81H45.08v19.11a1.42,1.42,0,0,0,.84,1.17,4.47,4.47,0,0,0,4.06,0A1.42,1.42,0,0,0,50.82,353.92Z" style="fill:#37474f"></path><ellipse cx="47.95" cy="334.81" rx="2.87" ry="1.66" style="fill:#455a64"></ellipse><path d="M148.32,297.64V278.53h-5.75v19.11a1.42,1.42,0,0,0,.85,1.17,4.47,4.47,0,0,0,4.06,0A1.42,1.42,0,0,0,148.32,297.64Z" style="fill:#263238"></path><path d="M143.42,277.36a4.47,4.47,0,0,1,4.06,0,1.23,1.23,0,0,1,0,2.34,4.47,4.47,0,0,1-4.06,0A1.23,1.23,0,0,1,143.42,277.36Z" style="fill:#455a64"></path><path d="M37.8,328.45v1.69a2.87,2.87,0,0,0,1.29,2.25l17.72,10.23a2.88,2.88,0,0,0,2.59,0l99-57.13a2.9,2.9,0,0,0,1.3-2.25v-1.69a2.88,2.88,0,0,0-1.3-2.25l-17.72-10.23a2.88,2.88,0,0,0-2.59,0l-99,57.13A2.87,2.87,0,0,0,37.8,328.45Z" style="fill:#37474f"></path><path d="M58.11,338.24v4.69a2.64,2.64,0,0,1-1.3-.32L39.1,332.39a2.87,2.87,0,0,1-1.3-2.25v-1.69a2.87,2.87,0,0,1,1.06-2.08c-.47.4-.39,1,.24,1.33l17.71,10.22A2.64,2.64,0,0,0,58.11,338.24Z" style="fill:#263238"></path><path d="M39.09,327.7l17.72,10.23a2.9,2.9,0,0,0,2.6,0l99-57.13a.79.79,0,0,0,0-1.5l-17.72-10.23a2.88,2.88,0,0,0-2.59,0l-99,57.13A.79.79,0,0,0,39.09,327.7Z" style="fill:#37474f"></path><polygon points="47.66 332.64 149.21 274.02 149.89 274.41 48.34 333.04 47.66 332.64" style="fill:#263238"></polygon><g id="freepik--Character--inject-2"><g id="freepik--Personaje--inject-2"><polygon points="132.02 329.14 136.79 328.65 135.81 321.35 130.64 321.84 132.02 329.14" style="fill:#ffa8a7"></polygon><path d="M136.39,325.69l-.08-.65c.46.18,3.1,5,4.71,7s4.34,3.8,4.94,5.3-3.41,2.56-4.83,2.38c-1.64-.22-4.53-1.24-5.29-2.27s-1.16-2.59-1.78-3.34-3-2.34-3.35-3.65a12.63,12.63,0,0,1,.18-3.47c.18-.86.1-1.79.39-1.72l.13.69a4.51,4.51,0,0,0,2.59.51C134.7,326.45,136.42,326.22,136.39,325.69Z" style="fill:#263238"></path><polygon points="148.18 319.69 153.22 319.19 150.62 311.33 145.27 311.19 148.18 319.69" style="fill:#ffa8a7"></polygon><path d="M152.66,317.51c.24,0,.61.25,1.24.81a52,52,0,0,0,5.35,3.27c1.71.85,5,2.17,6.53,2.84.94.43.9,1.56-.07,2.21a8.24,8.24,0,0,1-6.19,1.38c-1.53-.34-6.38-3-7.64-2.89s-3.62.06-4.56-.59-.5-2.92-.23-4.09,0-2.66.46-2.57l.3.88c.55.83,5.11.18,5-.57Z" style="fill:#263238"></path><path d="M106.33,276.9c-.34,7.49-1,10.2,6.29,15.75,4.06,3.11,12,8.08,12,8.08a21.07,21.07,0,0,0,.78,8.83C127,314.9,131,324.28,131,324.28a6.8,6.8,0,0,0,5.35-.2s-1.22-7.83-1.78-13.43c-.89-8.85-1.66-11.84-2.05-13.47-.34-1.45-8-9.48-9.62-11.9l15.56,7.82s.08,4.81,1,7.39c2.43,6.68,7.58,16.84,7.58,16.84s3.92.4,5.56-.88c0,0-5-24.48-5.61-26.55-1.09-3.61-14.28-13.1-17-15.38-1.54-1.31-3.26-2.7-3.26-2.7Z" style="fill:#30DD8A"></path><path d="M122.94,285.28a10.48,10.48,0,0,0,3.32-4.72,24.28,24.28,0,0,1-.52,3.59c-.39,1.57,12.76,9,12.76,9Z" style="opacity:0.1"></path><path d="M142,282.84a5.73,5.73,0,0,0,2.56.32,6.83,6.83,0,0,0,3-1.27,3.85,3.85,0,0,0,1.06-1,1.5,1.5,0,0,0,.24-1.23c-.17-.38-.71-.45-1.07-.49a10.58,10.58,0,0,1-1.85-.43c-.3-.09-.6-.18-.9-.3s-.68-.32-1-.47c-.19-.09-.7-.34-.54-.62a.52.52,0,0,1,.3-.2c.36-.13.73-.21,1.09-.34a2,2,0,0,0,.91-.65.63.63,0,0,0,.14-.49.55.55,0,0,0-.35-.36,1.48,1.48,0,0,0-.51-.09l-1.58-.12a8.91,8.91,0,0,1-3.09-.28,5.75,5.75,0,0,1-1.77-1.49c-1.77-1.86-7.56-9.95-7.56-9.95l-3.47-11.49s-.86-6.07-5.48-7.15c-.92,1.43-2.47,1.49-.47,8.3,1.44,4.87,2.9,11.75,4.06,13.57a14.57,14.57,0,0,0,1.69,2.16c3.35,3.57,6.34,6.55,9.6,10.17.28.3.49.66.77,1A9.24,9.24,0,0,0,142,282.84Z" style="fill:#ffa8a7"></path><path d="M119.89,244.36a3.15,3.15,0,0,1,.56,2.61,18.5,18.5,0,0,0,.87,6.83c.91,2.92,3.38,11.23,3.38,11.23a8.25,8.25,0,0,0,6.75-1.76L128.12,251S126.1,242.64,119.89,244.36Z" style="fill:#e0e0e0"></path><path d="M107.59,248.28s-1.6,1.31-1.6,5.45v8.93l.23,15c3.2,3.48,17.58,2.16,21.13-5.43,0,0-.51-16.05-1-19.57-.66-4.78-1.86-8.23-6.47-8.33l-7,1.64Z" style="fill:#ebebeb"></path><path d="M103.41,291.69a5.9,5.9,0,0,0,2,1.66,6.86,6.86,0,0,0,3.24.55,3.8,3.8,0,0,0,1.42-.26,1.53,1.53,0,0,0,.87-.91c.07-.41-.36-.76-.64-1a11.4,11.4,0,0,1-1.33-1.36,8.19,8.19,0,0,1-.59-.73c-.22-.31-.41-.64-.62-1s-.41-.65-.12-.8a.5.5,0,0,1,.36,0c.37.08.73.22,1.1.29a1.83,1.83,0,0,0,1.11-.05.62.62,0,0,0,.38-.34.54.54,0,0,0-.09-.49,1.57,1.57,0,0,0-.38-.35l-1.28-.95a8.91,8.91,0,0,1-2.45-1.9,5.55,5.55,0,0,1-.69-2.21c-.5-2.52-1-12.45-1-12.45l3.25-11.56s3-6.19-.33-9.59c-1.54.71-3.33.55-5.3,7.36-1.41,4.88-3.88,11.47-3.88,13.62a14.86,14.86,0,0,0,.26,2.74c.91,4.81,1.83,8.92,2.63,13.73.07.41.06.83.13,1.23A9.27,9.27,0,0,0,103.41,291.69Z" style="fill:#ffa8a7"></path><path d="M107.59,248.28a5.59,5.59,0,0,0-3.06,1.59,18.34,18.34,0,0,0-2.93,6.22c-.8,3-3.19,11.29-3.19,11.29a8.24,8.24,0,0,0,6.63,2.14l3.82-12.18S111.14,250.34,107.59,248.28Z" style="fill:#e0e0e0"></path><path d="M114.06,231.7a6.48,6.48,0,1,0,6.47-6.47A6.48,6.48,0,0,0,114.06,231.7Z" style="fill:#263238"></path><path d="M109.94,235.57a52.64,52.64,0,0,0,1.39,5.43,2.08,2.08,0,0,0,1.22,1l-.07-3.28Z" style="fill:#263238"></path><path d="M111.18,228.88a2.3,2.3,0,0,0-1.9.67c-.82.84-.36,3.45.66,6l1.87.21Z" style="fill:#263238"></path><path d="M112.37,235.78c-.38.23-.91-.49-1.37-1a1.64,1.64,0,0,0-2.73.44c-.77,1.62.67,3.76,1.85,4.13,2,.65,2.36-.67,2.36-.67l.16,7.39c1.76,2,7.8,1.5,6.66-.19v-2.25a12.91,12.91,0,0,0,2.76.14c1.51-.23,2.45-1.42,2.91-3,.73-2.62,1-4.74.39-9.89-.68-5.65-7.25-5.71-10.8-3.47S112.37,235.78,112.37,235.78Z" style="fill:#ffa8a7"></path><path d="M112.37,236.41c-.19,0-.91-1.18-1.37-1.61-.65-.59.18-5.92.18-5.92a2.51,2.51,0,0,1,.63-2.69c.88-1,2.37-1.09,4.89-1.48,1.33-.21,3.34-.58,4.67-.83,1.58-.3,2.89-.61,4,.36a2.81,2.81,0,0,1,.77,3.15,2.72,2.72,0,0,1-.45.67,2.65,2.65,0,0,1-1.14.78s-.69.61-3.09.91a35.45,35.45,0,0,1-6.64-.13c-.7-.09-.85.58-1.22,2.42C113.28,233.66,113,236.4,112.37,236.41Z" style="fill:#263238"></path><path d="M111.19,229.3l-2.27-1.22a1.26,1.26,0,0,1,1.72-.57A1.37,1.37,0,0,1,111.19,229.3Z" style="fill:#263238"></path><path d="M119.3,243.65a25.42,25.42,0,0,1-4.54-1.31,3.84,3.84,0,0,1-1.63-1.6,5.25,5.25,0,0,0,.93,1.89c.86,1.1,5.24,1.91,5.24,1.91Z" style="fill:#f28f8f"></path><path d="M118.49,234.94a.68.68,0,1,1-.68-.7A.69.69,0,0,1,118.49,234.94Z" style="fill:#263238"></path><path d="M117.41,232.15,116,233a.87.87,0,0,1,.34-1.15A.81.81,0,0,1,117.41,232.15Z" style="fill:#263238"></path><path d="M119,239.6l1.54.58a.8.8,0,0,1-1,.51A.87.87,0,0,1,119,239.6Z" style="fill:#f28f8f"></path><path d="M124.67,232.74l-1.31-1a.8.8,0,0,1,1.14-.17A.86.86,0,0,1,124.67,232.74Z" style="fill:#263238"></path><path d="M124.09,234.75a.67.67,0,1,1-.67-.7A.68.68,0,0,1,124.09,234.75Z" style="fill:#263238"></path><polygon points="120.76 234.21 120.84 238.3 123.26 237.76 120.76 234.21" style="fill:#f28f8f"></polygon></g></g><path d="M69.74,279c1.1.34,3-.67,6,4,1.72,2.66,6.56,9.16,6.56,9.16S89.79,285,90.2,284s.07-1.52.55-3.61.74-2.72.68-3.42,1.1-.32,1.22.58-.29,1.88.1,1.85,1.59-2,2-3.61,1.29-1.62,1.37-1a2.75,2.75,0,0,1-.05,1.05,2.06,2.06,0,0,1,1.48,1.43,6.84,6.84,0,0,1-.66,5c-1,2.21-2.64,2.9-3.26,3.83s-6,8.59-8.77,11.1c-1.74,1.58-2.84,2.24-4.75.58s-9.37-10.38-9.37-10.38Z" style="fill:#b16668"></path><path d="M84.41,336.44c-.36.38-.78.83-.73,1.31a4.86,4.86,0,0,0,1.3,2.74,9.5,9.5,0,0,1,1.87,4.6c.18,1.42.31,5,2.11,6.46s6.16,2.14,6.16-.5-5.2-12.78-5.2-12.78Z" style="fill:#263238"></path><path d="M86.83,338.13a40,40,0,0,1,1.76,5.67c.45,2.12,1.07,3.61,2.15,4.18s2.69.46,2.09-1-2.91-8.73-2.91-8.73Z" style="fill:#9a4a4d"></path><path d="M72.84,302.49s8.62,3.54,12.79,5.78,8.14,4.43,9,6.23.65,6.45.19,10.82-1.41,12.22-1.41,12.22l-12.21-18.3L68.9,311.13Z" style="fill:#30DD8A"></path><path d="M88.73,321.35c-1.2-2.8-3.83-4.67-6.29-6.19-2-1.25-7-4.16-8.76-5.16a8.9,8.9,0,0,0,.64-3,26.73,26.73,0,0,1-1.82,3.46l12.57,9.38,8.61,15.42S89.94,324.15,88.73,321.35Z" style="opacity:0.1"></path><path d="M94.42,351.25c-.35.23-.3,1.1-.27,1.74s-.43,1.48.5,2.47,2.5,1.07,3.77,2.42,3.21,3.84,6.7,4,5.88-1.35,6.35-2.45-.25-2-2.6-2.86c-2.5-.94-3.21-1.22-3.21-1.22Z" style="fill:#263238"></path><path d="M97,343.73s2.35,4.25,3.67,6.16a23.55,23.55,0,0,0,5.22,5.18c.44.34,1.41.94,1.77,1.21a.66.66,0,0,1,.14,1c-.59.85-3.64,1.65-5.63.72s-4.21-3.06-5.45-3.89L95,353a1.44,1.44,0,0,1-.62-1.26c0-.14,0-.31,0-.5,0-1.05-2.13-4.87-2.13-4.87Z" style="fill:#b16668"></path><path d="M55.51,307.14c0,3.48-.1,6.39,1.94,9.44s5,3.91,10.23,5.67c4.36,1.47,10.59,3.82,11.86,4.1s1.53.95,1.83,3.2,1.81,5.73,5.21,9.76a106.81,106.81,0,0,1,6.91,9.37s3.56,0,4.92-2.37c0,0-9.9-23.35-11.48-26s-14.43-9.82-14.43-9.82.22-4.83.39-8.35Z" style="fill:#30DD8A"></path><path d="M61.83,279.61l-3.68.83s1.82,2.57.53,7.71c-.91,3.64-1.78,3.84-3.79,4.63.15,6.65.62,14.36.62,14.36s4.08,3,12.41,1.77c7.32-1,7.21-5.48,7.21-5.48l-2.71-2.75.07-5.61a7.24,7.24,0,0,0,2.25-6.48c-.45-4.4-5-9.62-5-9.62H68.4Z" style="fill:#30DD8A"></path><path d="M61.83,279.61l-3.68.83s1.82,2.57.53,7.71c-.91,3.64-1.78,3.84-3.79,4.63.15,6.65.62,14.36.62,14.36s4.08,3,12.41,1.77c7.32-1,7.21-5.48,7.21-5.48l-2.71-2.75.07-5.61a7.24,7.24,0,0,0,2.25-6.48c-.45-4.4-5-9.62-5-9.62H68.4Z" style="opacity:0.5"></path><path d="M73.54,306.61c-3.76.85-9.22.32-11.2-1.52s-3.24-6.37-2.51-9.09a25.62,25.62,0,0,0,0-10.5l-.68-.29a14.87,14.87,0,0,1-.44,2.94c-.91,3.64-1.78,3.84-3.79,4.63,0,6.79.62,14.36.62,14.36s4.08,3,12.41,1.77a10.11,10.11,0,0,0,5.62-2.3Z" style="opacity:0.2"></path><path d="M67.66,275.79l-3.47.09a8.75,8.75,0,0,1-9-8.51h0a10.48,10.48,0,0,1,10.2-10.77h0a10.49,10.49,0,0,1,10.77,10.2h0A8.76,8.76,0,0,1,67.66,275.79Z" style="fill:#263238"></path><path d="M62.63,254.19c1.55,2.17,0,3.72-2.17,5.27s-4.14,2.51-5.69.34-.78-4.65,1.39-6.2S61.08,252,62.63,254.19Z" style="fill:#263238"></path><path d="M57.39,261.14l-2.18,1.69a1.34,1.34,0,0,1,.19-1.93A1.45,1.45,0,0,1,57.39,261.14Z" style="fill:#263238"></path><path d="M72,261.12c1.12.62,2.57,3.37,2.59,9.21,0,5-1.55,6.22-2.35,6.6s-2.35.2-3.87,0l0,2.05s2.72,3,2.63,4.35-3.49,2.07-5.48.79a15.83,15.83,0,0,1-3.71-3.79l-.15-6.86s-.86.88-2.4-.39c-1.28-1.06-1.75-2.88-.8-3.89a2.16,2.16,0,0,1,3.46.59,11.93,11.93,0,0,0,5.57-1.83A9,9,0,0,0,72,261.12Z" style="fill:#b16668"></path><path d="M69,269.24a.63.63,0,0,1-.57.69.65.65,0,0,1-.1-1.29A.65.65,0,0,1,69,269.24Z" style="fill:#263238"></path><path d="M69.31,273.43l1.46.42a.75.75,0,0,1-.93.55A.8.8,0,0,1,69.31,273.43Z" style="fill:#9a4a4d"></path><path d="M74.08,267.19l-1.28-.84a.74.74,0,0,1,1-.24A.81.81,0,0,1,74.08,267.19Z" style="fill:#263238"></path><path d="M73.83,268.66a.63.63,0,0,1-.57.69.65.65,0,0,1-.1-1.29A.64.64,0,0,1,73.83,268.66Z" style="fill:#263238"></path><polygon points="71.01 268.07 71.09 272.13 73.04 271.46 71.01 268.07" style="fill:#9a4a4d"></polygon><path d="M68.37,276.92c-1.6-.17-4.9-1-5.44-2.3a3.33,3.33,0,0,0,1.19,1.62,17.29,17.29,0,0,0,4.26,1.67Z" style="fill:#9a4a4d"></path><path d="M110.91,345.71,85.39,364.12l-7,5-3.31,1.91h0a1.56,1.56,0,0,1-.33.14L78,368.9l7.22-5.21,21.67-15.64Z" style="fill:#263238"></path><path d="M98.15,385.23l-.15-.08-2.47-1.42a3.9,3.9,0,0,1-1.31-1.4l-28-57.73,4.06,2.34,26.65,55,1.67,3.42A1.52,1.52,0,0,1,98.15,385.23Z" style="fill:#37474f"></path><path d="M101.92,383.73l-2.45,1.41a1.41,1.41,0,0,1-.86.19l-1.67-3.42-26.65-55,4.06-2.34,28,57.73A1.09,1.09,0,0,1,101.92,383.73Z" style="fill:#263238"></path><polygon points="87.35 362.12 91.41 359.77 110.91 345.7 106.85 348.05 87.35 362.12"></polygon><path d="M85.18,363.69,78,368.9l-3.22,2.32a1.45,1.45,0,0,1-1.11-.14l-2.47-1.42a.6.6,0,0,1-.06-1.09l31.74-22.83,4,2.31Z" style="fill:#37474f"></path><path d="M79.22,368.57c-.45.33-1.2.81-1.68,1.09l-2.44,1.41a2,2,0,0,1-.36.15L78,368.9l7.22-5.21.21.43Z"></path><path d="M204.33,291.77l-25.52,18.41-7,5-3.31,1.91h0a1.56,1.56,0,0,1-.33.14l3.22-2.32,7.22-5.21,21.67-15.64Z" style="fill:#263238"></path><path d="M191.57,331.29l-.15-.08L189,329.79a4,4,0,0,1-1.31-1.4l-28-57.73,4.06,2.34,26.65,55,1.67,3.42A1.52,1.52,0,0,1,191.57,331.29Z" style="fill:#37474f"></path><path d="M195.34,329.79l-2.45,1.41a1.41,1.41,0,0,1-.86.19L190.36,328l-26.65-55,4.06-2.34,28,57.73A1.08,1.08,0,0,1,195.34,329.79Z" style="fill:#263238"></path><polygon points="180.77 308.18 184.83 305.83 204.33 291.76 200.27 294.11 180.77 308.18"></polygon><path d="M178.6,309.75,171.38,315l-3.22,2.32a1.45,1.45,0,0,1-1.11-.14l-2.47-1.42a.6.6,0,0,1-.06-1.09l31.74-22.83,4,2.31Z" style="fill:#37474f"></path><path d="M172.64,314.63c-.45.33-1.2.81-1.68,1.09l-2.44,1.41a2,2,0,0,1-.36.15l3.22-2.32,7.22-5.21.21.43Z"></path><path d="M211.4,291.18a1.46,1.46,0,0,0-.24-.17L165,264.37a2.9,2.9,0,0,0-2.6,0L70.28,317.56l-6.82,3.94a.76.76,0,0,0-.17.13.43.43,0,0,0-.12.11l0,0a.36.36,0,0,0-.08.09,2.83,2.83,0,0,0-.89,1.9v1.69a2.87,2.87,0,0,0,1.29,2.25l46.15,26.64a2.8,2.8,0,0,0,2.6,0l99-57.13a2.86,2.86,0,0,0,1.3-2.25v-1.69A2.89,2.89,0,0,0,211.4,291.18Z" style="fill:#455a64"></path><path d="M212.46,293.26V295a2.86,2.86,0,0,1-1.3,2.25l-98.95,57.13a2.64,2.64,0,0,1-1.3.32V350a2.63,2.63,0,0,0,1.3-.31l99-57.13c.63-.36.71-.92.24-1.33A2.89,2.89,0,0,1,212.46,293.26Z" style="fill:#37474f"></path><path d="M110.91,350v4.7a2.64,2.64,0,0,1-1.3-.32L63.46,327.69a2.87,2.87,0,0,1-1.29-2.25v-1.69a2.83,2.83,0,0,1,.89-1.9c-.27.39-.13.84.4,1.15l46.15,26.64A2.63,2.63,0,0,0,110.91,350Z" style="fill:#263238"></path><polygon points="74.35 329.29 175.91 270.66 176.58 271.05 75.03 329.68 74.35 329.29" style="fill:#263238"></polygon><polygon points="86.54 336.32 188.09 277.69 188.77 278.08 87.21 336.71 86.54 336.32" style="fill:#263238"></polygon><polygon points="98.72 343.36 200.28 284.73 200.95 285.12 99.39 343.75 98.72 343.36" style="fill:#263238"></polygon><path d="M128,398.48V379.37h-5.75v19.11a1.42,1.42,0,0,0,.84,1.17,4.49,4.49,0,0,0,4.07,0A1.42,1.42,0,0,0,128,398.48Z" style="fill:#37474f"></path><ellipse cx="125.12" cy="379.37" rx="2.87" ry="1.66" style="fill:#455a64"></ellipse><path d="M225.5,342.2V323.09h-5.75V342.2a1.41,1.41,0,0,0,.84,1.17,4.47,4.47,0,0,0,4.06,0A1.43,1.43,0,0,0,225.5,342.2Z" style="fill:#263238"></path><path d="M220.59,321.92a4.47,4.47,0,0,1,4.06,0,1.23,1.23,0,0,1,0,2.34,4.47,4.47,0,0,1-4.06,0A1.23,1.23,0,0,1,220.59,321.92Z" style="fill:#455a64"></path><path d="M115,373v1.69a2.86,2.86,0,0,0,1.3,2.25L134,387.18a2.9,2.9,0,0,0,2.6,0l98.95-57.13a2.86,2.86,0,0,0,1.3-2.25v-1.69a2.86,2.86,0,0,0-1.3-2.25l-17.71-10.23a2.9,2.9,0,0,0-2.6,0l-98.95,57.13A2.87,2.87,0,0,0,115,373Z" style="fill:#37474f"></path><path d="M135.28,382.79v4.7a2.64,2.64,0,0,1-1.3-.32L116.27,377a2.87,2.87,0,0,1-1.3-2.25V373a2.87,2.87,0,0,1,1.06-2.08c-.47.4-.39,1,.24,1.33L134,382.48A2.63,2.63,0,0,0,135.28,382.79Z" style="fill:#263238"></path><path d="M116.27,372.26,134,382.49a2.9,2.9,0,0,0,2.6,0l98.95-57.13a.79.79,0,0,0,0-1.5l-17.71-10.23a2.9,2.9,0,0,0-2.6,0l-98.95,57.13C115.55,371.18,115.55,371.85,116.27,372.26Z" style="fill:#455a64"></path><polygon points="124.84 377.21 226.39 318.58 227.07 318.97 125.52 377.6 124.84 377.21" style="fill:#263238"></polygon><path d="M68.17,311.73c-2.7-.79-12.32-3.94-15.25-4.89-2-.66-3.14-1.13-3.2-2.89s2.39-15.08,3.27-18.4c.77-2.9,2.68-4.89,5.53-5.2,1.93,1.53,2.24,9.4-.07,11.44-.86,3.42-2.09,9.51-2.09,9.51s5.17,2.68,9.09,4.57c2,.94,4.61,2.29,6.17,2.46s3.54.21,5,1.16a9.82,9.82,0,0,1,2,1.8c.48.54.94,1.11,1.39,1.69a2.14,2.14,0,0,1,.57,1.26,1.46,1.46,0,0,1-1.09,1.26,3.28,3.28,0,0,1-2.42-.27,16.48,16.48,0,0,0-2.53-1.41c-1.1-.41-3-.19-4.08-.78Z" style="fill:#b16668"></path><g id="freepik--character--inject-2"><path d="M190.61,339.48s-18-5.68-21.31-6.59-9.61-2.42-11.46-1.59-2.78,1.79-3,4.45c0,.5,0,2.94,0,2.94s9.16,2.83,16.66,2.83S190.61,339.48,190.61,339.48Z" style="fill:#30DD8A"></path><g style="opacity:0.1"><path d="M190.61,339.48c1.28.4-17.92-5.66-21.31-6.59s-9.61-2.42-11.46-1.59-2.78,1.79-3,4.45c0,.5,0,2.94,0,2.94s9.16,2.83,16.66,2.83S190.61,339.48,190.61,339.48Z"></path></g><polygon points="175.55 307.3 175.41 314.21 182.07 316.4 182.98 307.02 175.55 307.3" style="fill:#ffa8a7"></polygon><path d="M170.28,300.67s-1.46,2.56-1.22,2.79a5,5,0,0,0,1.47.39Z" style="fill:#f28f8f"></path><path d="M173.85,292.24c-1.43,1-3,2.83-3.56,8.18-.65,5.85.76,7.74,1.41,8.23,1,.72,4.84.6,6.21,0,1.73-.8,5.11-3,6.55-6.19,1.68-3.81,1.51-8.56-1.21-10.08A10.18,10.18,0,0,0,173.85,292.24Z" style="fill:#ffa8a7"></path><path d="M171.42,294.36a9.7,9.7,0,0,0,2.72,2.21c.67,1.05-.4,3.95,1.06,4.65,0,0,.67-2.19,2.52-1.83s2,2.76.77,4.17-2.33.79-2.33.79a4.3,4.3,0,0,0,1.68,3.85,5.41,5.41,0,0,0,5,.58,10.21,10.21,0,0,0,4.55-4.58c2.49-4.95,3.07-9-.1-10.51a3.85,3.85,0,0,0-3.29-3.85c-4.45-1.23-8.06,1.5-11.81.73C170.21,290.17,170.31,293,171.42,294.36Z" style="fill:#263238"></path><path d="M184,292l2.31-1a1.26,1.26,0,1,0-2.31,1Z" style="fill:#263238"></path><path d="M190.91,337.3c0,3.64.46,7.56-1,10.23s-7.93,8-15.67,6.65c-5.06-.85-21.41-7.08-21.41-7.08s-7.23-2.67-7.27-4.58c0-.46,0-.95,0-1.45.16-2.53,1.18-5.26,6.48-5.12,5.78.15,22.94,3,22.94,3Z" style="fill:#30DD8A"></path><path d="M190.32,314.32c-.63-1.9-3.21-4.58-5.62-4.13-4.43.82-9.28,2.26-10.57,2.63h0s.58,9.77-4.44,12.73l-.18,17.17a5.17,5.17,0,0,0,2.28,2.44c2.07,1.32,6.08,1.9,11.12.53,6.77-1.83,8.17-5.84,8.17-5.84s-.22-11.39-.17-16.66C191,318.43,190.75,315.63,190.32,314.32Z" style="fill:#30DD8A"></path><g style="opacity:0.5"><path d="M190.32,314.32c-.63-1.9-3.21-4.58-5.62-4.13-4.43.82-9.28,2.26-10.57,2.63h0s.58,9.77-4.44,12.73l-.18,17.17a5.17,5.17,0,0,0,2.28,2.44c2.07,1.32,6.08,1.9,11.12.53,6.77-1.83,8.17-5.84,8.17-5.84s-.22-11.39-.17-16.66C191,318.43,190.75,315.63,190.32,314.32Z"></path></g><g style="opacity:0.2"><path d="M169.67,327.85a16.13,16.13,0,0,0,3.44-5.76s.14,4.7-3.46,7.19Z"></path></g><path d="M174.13,312.82c-2.74.83-4.4,1-7.43,5.63s-9.87,13.37-10.52,14.48a5.87,5.87,0,0,0-.3,5.3c.74,1.32,2.5.54,5.51-2.09s9-9.55,9-9.55A49.43,49.43,0,0,0,174.13,312.82Z" style="fill:#ffa8a7"></path><path d="M174.13,312.82a21.47,21.47,0,0,0-4,1.26,7.17,7.17,0,0,0-3.37,2.32c-2.46,3.29-5.63,8.84-5.63,8.84s.57,4.3,5.86,5.82l2.6-3.17a15.74,15.74,0,0,0,2.81-4.18C173.63,321.09,175,316.94,174.13,312.82Z" style="fill:#30DD8A"></path><g style="opacity:0.4"><path d="M174.13,312.82a21.47,21.47,0,0,0-4,1.26,7.17,7.17,0,0,0-3.37,2.32c-2.46,3.29-5.63,8.84-5.63,8.84s.57,4.3,5.86,5.82l2.6-3.17a15.74,15.74,0,0,0,2.81-4.18C173.63,321.09,175,316.94,174.13,312.82Z"></path></g><path d="M156.8,338.88c-2.53-.31-8-8-9.68-10.58a18.69,18.69,0,0,0-5.12-5.41c-2.68-2-2.29-5-1.12-7.8.41-1,1.78-.34,1.78-.34l.48,1.32.84,2.29c.57.53.89.7.93.54s-.42-1.52-.41-2.81c0-1.54,1.1-.53,1.42,0a18.89,18.89,0,0,1,1.14,2.56c.54,1.38.32,2.78,1,3.72s9.48,9.39,9.48,9.39Z" style="fill:#ffa8a7"></path></g></g></g><g id="freepik--Fire--inject-2"><g id="freepik--fire--inject-2"><path d="M259.84,390.67l20-11.48h0a2.89,2.89,0,0,1,2.87.3,9,9,0,0,1,4.07,7.06,2.86,2.86,0,0,1-1.19,2.64h0l-19.83,11.39-.36-.6a4,4,0,0,1-1.17-.46,9,9,0,0,1-4.08-7.06,4.81,4.81,0,0,1,.12-1.05Z" style="fill:#b16668"></path><path d="M262.81,390.91a9,9,0,0,1,4.07,7.06c0,2.6-1.82,3.66-4.07,2.36a9,9,0,0,1-4.08-7.07C258.73,390.66,260.55,389.61,262.81,390.91Z" style="fill:#9a4a4d"></path><path d="M284.38,398.61l-33.69-19.42h0a2.87,2.87,0,0,0-2.86.3,9,9,0,0,0-4.08,7.06,2.86,2.86,0,0,0,1.19,2.64h0l33.54,19.33.36-.61a4.18,4.18,0,0,0,1.17-.45,9,9,0,0,0,4.08-7.07,4.17,4.17,0,0,0-.13-1Z" style="fill:#9a4a4d"></path><path d="M281.41,398.84a9,9,0,0,0-4.08,7.07c0,2.6,1.83,3.65,4.08,2.35a9,9,0,0,0,4.08-7.06C285.49,398.6,283.66,397.54,281.41,398.84Z" style="fill:#b16668"></path><path d="M246.18,398.59l13.71-7.9h0a2.86,2.86,0,0,1,2.87.29,9,9,0,0,1,4.08,7.06,2.87,2.87,0,0,1-1.19,2.64h0l-13.56,7.8-.36-.6a4.23,4.23,0,0,1-1.17-.46,9,9,0,0,1-4.08-7.06,4.25,4.25,0,0,1,.13-1.05Z" style="fill:#b16668"></path><path d="M249.15,398.83a9,9,0,0,1,4.08,7.06c0,2.6-1.83,3.66-4.08,2.36a9,9,0,0,1-4.08-7.07C245.07,398.58,246.9,397.53,249.15,398.83Z" style="fill:#9a4a4d"></path><path d="M265.4,396.41c-5.81,0-14.66-3.28-15.28-13.6s5.58-14.66,5.58-14.66.67,4.14,2.84,5.29c0,0-2.44-12.21,4.08-16.55,0,0-.43,6.37,2.16,6.93s3.59-10.39,1.3-15.71c0,0,3.76,1.6,6.07,7.62s1.42,15.51,1.42,15.51a7.67,7.67,0,0,0,3-5.88s4.64,9,4,17.32S273.2,396.41,265.4,396.41Z" style="fill:#30DD8A"></path><path d="M265.35,391.47c-5.35,0-9.08-7.39-3.89-14.75,0,0,.31,4.95,3,5s3-9.47,2.63-11.62c0,0,4.86,6.08,4.86,12.49C272,387.23,270.37,391.48,265.35,391.47Z" style="fill:#fff;opacity:0.8"></path></g></g></svg>