<?xml version="1.0" standalone="no"?>
<!DOCTYPE svg PUBLIC "-//W3C//DTD SVG 20010904//EN"
 "http://www.w3.org/TR/2001/REC-SVG-20010904/DTD/svg10.dtd">
<svg version="1.0" xmlns="http://www.w3.org/2000/svg"
 width="96.000000pt" height="96.000000pt" viewBox="0 0 96.000000 96.000000"
 preserveAspectRatio="xMidYMid meet">

<g transform="translate(0.000000,96.000000) scale(0.100000,-0.100000)"
fill="#000000" stroke="none">
<path d="M412 869 c-48 -14 -109 -80 -123 -131 -23 -89 12 -182 88 -229 57
-36 154 -34 210 3 62 41 88 90 88 168 0 77 -26 127 -85 166 -43 29 -125 39
-178 23z m136 -69 c42 -26 72 -76 72 -120 0 -44 -30 -94 -72 -120 -117 -71
-259 71 -188 188 26 42 76 72 120 72 19 0 50 -9 68 -20z"/>
<path d="M654 338 c-139 -141 -142 -144 -159 -211 -24 -90 -18 -96 72 -72 67
17 70 20 211 159 125 125 142 146 142 175 0 45 -46 91 -91 91 -29 0 -50 -17
-175 -142z"/>
<path d="M189 371 c-58 -59 -28 -166 65 -228 45 -31 75 -42 152 -58 28 -5 33
-3 41 22 9 27 9 27 -61 45 -112 29 -172 84 -164 153 l3 30 186 3 186 2 28 30
29 30 -218 0 -218 0 -29 -29z"/>
</g>
</svg>
