<svg xmlns="http://www.w3.org/2000/svg" viewBox="0 0 500 500"><g id="freepik--Clouds--inject-2"><g id="freepik--clouds--inject-2"><path d="M356.6,68.91l4.64,2.68c0-.21,0-.41,0-.61V69.63c0-2.39,1.68-3.36,3.75-2.16a7.14,7.14,0,0,1,2.24,2.15c.34-3,2.7-4.13,5.57-2.48a12.43,12.43,0,0,1,5.61,9.72v2a5.19,5.19,0,0,1-.48,2.33l3.86,2.23a4.61,4.61,0,0,1,2.08,3.6c0,1.33-.94,1.87-2.08,1.2L356.6,73.72a4.61,4.61,0,0,1-2.08-3.61C354.52,68.79,355.45,68.25,356.6,68.91Z" style="fill:#ebebeb"></path><path d="M390.47,49.89l2.56,1V45.24c0-4.47,3.57-5.54,7.44-3.31h0a15.49,15.49,0,0,1,7,12.14v.82a3.79,3.79,0,0,1,3.26.5h0a11.16,11.16,0,0,1,5,8.74v.37l3.57,2.06a7.35,7.35,0,0,1,3.32,5.75c0,2.12-1.49,3-3.32,1.92L390.47,57.56a7.35,7.35,0,0,1-3.32-5.75C387.15,49.69,388.64,48.83,390.47,49.89Z" style="fill:#ebebeb"></path></g></g><g id="freepik--Sun--inject-2"><circle id="freepik--sun--inject-2" cx="94.12" cy="67.01" r="15.12" transform="translate(-19.81 86.18) rotate(-45)" style="fill:#f0997a"></circle></g><g id="freepik--Mountains--inject-2"><g id="freepik--mountains--inject-2"><path d="M44.87,286.68v-109l37.4-56.14a4.07,4.07,0,0,1,6.66-.16L120,163.56,171.45,62.37a4.07,4.07,0,0,1,7.15-.19L215.47,126,232.07,105a4.07,4.07,0,0,1,6.72.48l27.45,39.36,35.11-63.91a4.07,4.07,0,0,1,7.11-.08l43.08,75.72,16.93-25.41a4.06,4.06,0,0,1,6.77,0l16.92,25.41,26.78-36.09a4.07,4.07,0,0,1,6.79.39l29.4,50.92V286.68Z" style="fill:#e6e6e6"></path><path d="M232.07,105l-6.93,8.8,2.34,2.71a2.81,2.81,0,0,0,4.31-.07l1.52-1.86a2.81,2.81,0,0,1,4.29-.1h0a2.81,2.81,0,0,0,4.55-.48l1.15-2-4.51-6.48A4.07,4.07,0,0,0,232.07,105Z" style="fill:#fafafa"></path><path d="M301.35,80.89l-13.14,23.92,1.63,3.27a3.08,3.08,0,0,0,5.35.28l2.92-4.56a3.08,3.08,0,0,1,5-.3h0a3.08,3.08,0,0,0,4.86-.14l3-4.12a3.09,3.09,0,0,1,4.4-.59l5.92,4.69L308.46,80.81A4.07,4.07,0,0,0,301.35,80.89Z" style="fill:#fafafa"></path><path d="M368.47,131.12l-7.55,11.33,6-3.45a2,2,0,0,1,2.62.52l1.63,2.11a2,2,0,0,0,3,.21l1.38-1.35a2,2,0,0,1,2.82,0l8.72,8.41h0l-11.84-17.78A4.06,4.06,0,0,0,368.47,131.12Z" style="fill:#fafafa"></path><path d="M171.45,62.37l-8.62,17,.94,1.53a3.77,3.77,0,0,0,6,.54l2.54-2.84a3.77,3.77,0,0,1,5.61,0l5.45,6a3.76,3.76,0,0,0,5.66-.07l1.47-1.71L178.6,62.18A4.07,4.07,0,0,0,171.45,62.37Z" style="fill:#fafafa"></path><path d="M425.73,120.83a4.07,4.07,0,0,0-6.79-.39l-7.74,10.43,3.6,6.24a2.36,2.36,0,0,0,3.89.28l2.86-3.63a2.36,2.36,0,0,1,3.68,0l1,1.22a2.36,2.36,0,0,0,4-.58l1.38-3.37Z" style="fill:#fafafa"></path><path d="M85.65,134.35l3.67,2.12A3.59,3.59,0,0,0,93.5,136l3.76-3.37-8.33-11.33a4.07,4.07,0,0,0-6.66.16L72.18,136.63l.8.88a3.58,3.58,0,0,0,5,.31l3.55-3.08A3.56,3.56,0,0,1,85.65,134.35Z" style="fill:#fafafa"></path><g style="opacity:0.07"><polygon points="88.93 121.33 77.73 155.14 83.45 156.53 75.32 179.98 97.29 155.13 111.48 180.32 120 163.56 88.93 121.33"></polygon><polygon points="178.6 62.18 188.92 109.7 172.81 128.38 170.63 183 215.47 126.04 178.6 62.18"></polygon><polygon points="238.79 105.44 233.74 123.69 241.87 123.69 227.27 160.93 250 142.46 260.37 155.48 266.24 144.8 238.79 105.44"></polygon><polygon points="351.54 156.53 308.46 80.81 319.04 119 305.2 139.15 339.36 149.49 328.37 161.91 334.14 169.08 325.25 196 351.54 156.53"></polygon><polygon points="375.24 131.12 368.28 152.12 377.66 150.83 377.54 176.22 392.16 156.53 375.24 131.12"></polygon><polygon points="425.74 120.83 438.5 159.08 423.38 174.55 435.19 186.98 423.38 225.27 455.13 171.75 425.74 120.83"></polygon></g></g><g id="freepik--mountains--inject-2"><path d="M44.87,286.68V255.57l74.81-126.66a3.35,3.35,0,0,1,5.75,0l32.22,54.46,20.11-25.76a3.34,3.34,0,0,1,5.33.08l73,99.9v29.1Z" style="fill:#30DD8A"></path><path d="M44.87,286.68V255.57l74.81-126.66a3.35,3.35,0,0,1,5.75,0l32.22,54.46,20.11-25.76a3.34,3.34,0,0,1,5.33.08l73,99.9v29.1Z" style="fill:#fff;opacity:0.6000000000000001"></path><path d="M103.55,171.06a3.94,3.94,0,0,0,5.48-.19l9.4-9.77a3.93,3.93,0,0,1,5.77.11l2.14,2.4a3.94,3.94,0,0,0,5.75.13,3.94,3.94,0,0,1,6.08.55l1.37,2a3.94,3.94,0,0,0,7.1-1.33l0-.16-21.25-35.92a3.35,3.35,0,0,0-5.75,0l-21.83,37Z" style="fill:#fff;opacity:0.7000000000000001"></path><path d="M165.27,174.81l5.35-2.19a2.54,2.54,0,0,1,3.14,1l1,1.56a2.55,2.55,0,0,0,3.91.54l1.13-1.06a2.55,2.55,0,0,1,3.92.56l1.86,3.11a2.54,2.54,0,0,0,4.55-.35l.7-1.71a2.54,2.54,0,0,1,3.38-1.38,2.49,2.49,0,0,0,1.6.14l-12.68-17.36a3.34,3.34,0,0,0-5.33-.08L164.19,175A2.44,2.44,0,0,0,165.27,174.81Z" style="fill:#fff;opacity:0.7000000000000001"></path><polygon points="164 183.37 177.76 157.61 157.65 183.37 173.9 207.21 164 183.37" style="opacity:0.1"></polygon></g><g id="freepik--mountains--inject-2"><path d="M455,251.57,394,148.22a3,3,0,0,0-5.1,0l-28.56,48.29-17.84-22.85a3,3,0,0,0-4.72.08l-64.7,88.58v24.36H455.13Z" style="fill:#30DD8A"></path><path d="M455,251.57,394,148.22a3,3,0,0,0-5.1,0l-28.56,48.29-17.84-22.85a3,3,0,0,0-4.72.08l-64.7,88.58v24.36H455.13Z" style="fill:#fff;opacity:0.6000000000000001"></path><path d="M408.27,185.59a3.49,3.49,0,0,1-4.86-.17l-8.33-8.66a3.48,3.48,0,0,0-5.12.1l-1.9,2.12a3.48,3.48,0,0,1-5.1.12,3.48,3.48,0,0,0-5.38.49l-1.22,1.8a3.49,3.49,0,0,1-6.29-1.18l0-.15,18.84-31.84a3,3,0,0,1,5.1,0L413.33,181Z" style="fill:#fff;opacity:0.7000000000000001"></path><path d="M353.55,188.91,348.8,187a2.26,2.26,0,0,0-2.78.91l-.85,1.38a2.26,2.26,0,0,1-3.47.48l-1-.94a2.26,2.26,0,0,0-3.48.5l-1.64,2.76a2.26,2.26,0,0,1-4-.31l-.62-1.53a2.26,2.26,0,0,0-3-1.22,2.2,2.2,0,0,1-1.42.13l11.25-15.39a3,3,0,0,1,4.72-.08l12,15.42A2.17,2.17,0,0,1,353.55,188.91Z" style="fill:#fff;opacity:0.7000000000000001"></path><polygon points="354.68 196.51 342.47 173.66 360.31 196.51 345.89 217.64 354.68 196.51" style="opacity:0.1"></polygon></g></g><g id="freepik--Floor--inject-2"><g id="freepik--Shrubbery--inject-2"><path id="freepik--shrubbery--inject-2" d="M222.56,220.22c-2.44,2.39-7.11,4.55-11.81,6.22-45.58,4.51-89.27,16.93-124.46,37.24C63.87,276.62,47,291.56,35.72,307.5a13.68,13.68,0,0,1-4.19-.47,5.3,5.3,0,0,1-3.26-3.69,4.36,4.36,0,0,1,1.49-3.56,11.79,11.79,0,0,1,1.83-1.16c-4-.41-4.54-5.25-3.45-7.18,2-3.57,6.57-5,10.41-5.1-.35-1.46-1.29-2.73-1.45-4.27a8.5,8.5,0,0,1,1.32-5.27,6.58,6.58,0,0,1,5.41-2.93,10.6,10.6,0,0,1,4.56.62c-5.37-11,5.35-19.58,15-10.93-2-3.51-2.43-7.4.39-10.07s8.61-1.46,11,.58c-2.81-5.35-2.07-11.82,3.08-15.25,4.46-3,6.84-.06,8.94,4.17.07-8.11,13.15-14.13,16.47-5.27,2.25-7.94,9.85-15.59,15.93-6.45-.08-11.65,14-11.8,19.4-4.38-.87-9.87,10.44-12.06,14.85-4.19-.25-11.07,13.86-16.82,15.61-4.21.71-9.34,10.93-6.5,12.59.76,2-5.92,12.34-10.12,13.85-2.41.81-3.78,5.18-8.43,9.49-7.2a7.7,7.7,0,0,1,5.08,5.22c.43-6.51,7.43-4.14,7.43.1C222.34,212.36,224.71,218.11,222.56,220.22Z" style="fill:#455a64"></path><path id="freepik--shrubbery--inject-2" d="M472.56,302.53c3.08,1.46,5.66,5.57,2.52,8.67-1.57,1.56-4.66,1.63-6.69,1.13a10.16,10.16,0,0,1-1.07-.33c-11.22-17.63-29.08-34.17-53.6-48.32-38.81-22.4-88-35.2-138.61-38.38H275c-2.07-.26-4.14-.52-6.19-.84-6.28-1-13.08-1.58-18.38-5.53a8,8,0,0,1-2.26-4,7.6,7.6,0,0,1,.82-5.44c2-3.7,8.57-5.39,14.36-3.58,1.21.38,8.77,5.3,7.82,6.84,1.66-2.68,5.37-5.65,5.36-.1,2.49-1.71,5.69-2.78,6.22,1.32,1.56-2.35,2.86-5.07,5.15-6.82s6.46-2.06,8.41.41a7.24,7.24,0,0,1,1.28,3.25,2.9,2.9,0,0,1,3.82-1.7c1.27.38,1.62,1.07,2.06,2.21.76-1.8,3.44-3,5.31-2.85,1.42.13,2.35,1.54,2.76,2.79.49,1.49-.15,2.37-.23,3.75a3.48,3.48,0,0,1,3.09-1.16c1.26.3,1.53,1.51,1.87,2.55.59-1.85,3.38-3,5.16-3.4a9.71,9.71,0,0,1,4.64,0,2.85,2.85,0,0,1,2,1.55,2,2,0,0,1-.24,2c-.29.4-1.37,2-1.85,2.12,3.37-.71,9-.82,8.43,4.12,2.94-4.29,11.38-3.94,11.91,2.2,4.81-6.31,10.8-8.59,11,.79,4.51-5.64,9.66,0,10.18,4.86,1.43-2.8,6.5-3.62,9.26-2.55,2.49,1,3.05,2.82,4,5.29,6.05-5.68,12.95-2.11,14.53,5.27,4-3,14.69-5.28,14.11,4.87,2.88-3.16,9.05-4.57,12.46-.62,1.61,1.86,1.32,6.17,1.13,8.47,2.71-4.94,11.07-3.8,14.6-.32,3.17,3.12,1.7,5.95,1.38,9.6,3.53-3.7,11.78-1.32,14.07,2.76,1.69,3,.36,6.12-.56,9.17.67-2.22,4.82-1.37,6.34-.94a9.85,9.85,0,0,1,6,4.5c2.34,4.1,3.95,9.41,1.62,13.1,3.52.11,7.62,1.4,9.87,4.39a5.24,5.24,0,0,1,.36,5.49C475.67,300.82,473.9,301.65,472.56,302.53Z" style="fill:#455a64"></path></g><ellipse id="freepik--Grass--inject-2" cx="250" cy="348.82" rx="231.53" ry="133.67" style="fill:#30DD8A"></ellipse></g><g id="freepik--Trees--inject-2"><g id="freepik--Pine--inject-2"><path d="M343.38,228.14v20.21a1,1,0,0,1-.56.78,3,3,0,0,1-2.7,0,1,1,0,0,1-.56-.78V228.14Z" style="fill:#263238"></path><path d="M325.18,236l15.23-36.77h2.12L357.76,236a2,2,0,0,1-1.42,2.66l-.25.05a1.93,1.93,0,0,0-1.55,2.15h0A2,2,0,0,1,352,243l-.76-.23a1.94,1.94,0,0,0-2.34,1l-.76,1.67a1.94,1.94,0,0,1-2.76.87l-3-1.75a2,2,0,0,0-2,0l-3,1.75a1.94,1.94,0,0,1-2.76-.87l-.76-1.67a1.94,1.94,0,0,0-2.34-1l-.76.23a2,2,0,0,1-2.5-2.1h0a1.94,1.94,0,0,0-1.55-2.15l-.25-.05A2,2,0,0,1,325.18,236Z" style="fill:#30DD8A"></path><path d="M325.18,236l15.23-36.77h2.12L357.76,236a2,2,0,0,1-1.42,2.66l-.25.05a1.93,1.93,0,0,0-1.55,2.15h0A2,2,0,0,1,352,243l-.76-.23a1.94,1.94,0,0,0-2.34,1l-.76,1.67a1.94,1.94,0,0,1-2.76.87l-3-1.75a2,2,0,0,0-2,0l-3,1.75a1.94,1.94,0,0,1-2.76-.87l-.76-1.67a1.94,1.94,0,0,0-2.34-1l-.76.23a2,2,0,0,1-2.5-2.1h0a1.94,1.94,0,0,0-1.55-2.15l-.25-.05A2,2,0,0,1,325.18,236Z" style="opacity:0.5"></path><path d="M347.59,211.48,342.53,200h-2.12l-8.36,19.46-3.67,8.87a1.18,1.18,0,0,0,1,1.32h0a1.48,1.48,0,0,1,1.23,1.63l0,.28a1.47,1.47,0,0,0,2,1.54l.75-.28a1.47,1.47,0,0,1,1.87.77l.93,2.1a1.47,1.47,0,0,0,2.1.66l2.53-1.68a1.44,1.44,0,0,1,1.5,0l2.82,1.68a1.47,1.47,0,0,0,2.1-.66l.93-2.1a1.47,1.47,0,0,1,1.87-.77l.75.28a1.47,1.47,0,0,0,2-1.54l0-.28a1.48,1.48,0,0,1,1.22-1.63,1.11,1.11,0,0,0,.92-.77Z" style="opacity:0.1"></path><path d="M328.58,225.35l11.83-27.55h2.12l12.13,27.55c.43.89.18,1.94-.79,2.1a1.47,1.47,0,0,0-1.22,1.62l0,.29a1.47,1.47,0,0,1-2,1.54l-.75-.29a1.49,1.49,0,0,0-1.87.78l-.93,2.1a1.48,1.48,0,0,1-2.1.66l-2.82-1.68a1.44,1.44,0,0,0-1.5,0l-2.53,1.68a1.48,1.48,0,0,1-2.1-.66l-.93-2.1a1.49,1.49,0,0,0-1.87-.78l-.75.29a1.48,1.48,0,0,1-2-1.54l0-.29a1.47,1.47,0,0,0-1.23-1.62h0C328.39,227.29,328.14,226.23,328.58,225.35Z" style="fill:#30DD8A"></path><path d="M328.58,225.35l11.83-27.55h2.12l12.13,27.55c.43.89.18,1.94-.79,2.1a1.47,1.47,0,0,0-1.22,1.62l0,.29a1.47,1.47,0,0,1-2,1.54l-.75-.29a1.49,1.49,0,0,0-1.87.78l-.93,2.1a1.48,1.48,0,0,1-2.1.66l-2.82-1.68a1.44,1.44,0,0,0-1.5,0l-2.53,1.68a1.48,1.48,0,0,1-2.1-.66l-.93-2.1a1.49,1.49,0,0,0-1.87-.78l-.75.29a1.48,1.48,0,0,1-2-1.54l0-.29a1.47,1.47,0,0,0-1.23-1.62h0C328.39,227.29,328.14,226.23,328.58,225.35Z" style="opacity:0.4"></path><path d="M351.31,217.75l-8.78-19.95h-2.12l-8.64,20.11a1.88,1.88,0,0,0,.23.16l.07,0a1.32,1.32,0,0,1,.67,1.27h0a1.32,1.32,0,0,0,1.66,1.39l.52-.13a1.31,1.31,0,0,1,1.5.65l.71,1.32a1.33,1.33,0,0,0,1.78.55l1.95-1a1.32,1.32,0,0,1,1.22,0l1.95,1a1.33,1.33,0,0,0,1.78-.55l.71-1.32a1.31,1.31,0,0,1,1.5-.65l.52.13a1.32,1.32,0,0,0,1.66-1.39,1.32,1.32,0,0,1,.67-1.27l.07,0A1.14,1.14,0,0,0,351.31,217.75Z" style="opacity:0.1"></path><path d="M331.52,214.51l8.9-18.69.07-.12a1.13,1.13,0,0,1,2,0l.07.12,8.9,18.69a1.35,1.35,0,0,1-.48,1.86l-.07,0a1.33,1.33,0,0,0-.67,1.27,1.33,1.33,0,0,1-1.66,1.4l-.52-.14a1.32,1.32,0,0,0-1.5.66l-.71,1.31a1.32,1.32,0,0,1-1.78.55l-1.95-1a1.32,1.32,0,0,0-1.22,0l-1.95,1a1.32,1.32,0,0,1-1.78-.55l-.71-1.31a1.32,1.32,0,0,0-1.5-.66l-.52.14a1.34,1.34,0,0,1-1.66-1.4h0a1.33,1.33,0,0,0-.67-1.27l-.07,0A1.35,1.35,0,0,1,331.52,214.51Z" style="fill:#30DD8A"></path><path d="M331.52,214.51l8.9-18.69.07-.12a1.13,1.13,0,0,1,2,0l.07.12,8.9,18.69a1.35,1.35,0,0,1-.48,1.86l-.07,0a1.33,1.33,0,0,0-.67,1.27,1.33,1.33,0,0,1-1.66,1.4l-.52-.14a1.32,1.32,0,0,0-1.5.66l-.71,1.31a1.32,1.32,0,0,1-1.78.55l-1.95-1a1.32,1.32,0,0,0-1.22,0l-1.95,1a1.32,1.32,0,0,1-1.78-.55l-.71-1.31a1.32,1.32,0,0,0-1.5-.66l-.52.14a1.34,1.34,0,0,1-1.66-1.4h0a1.33,1.33,0,0,0-.67-1.27l-.07,0A1.35,1.35,0,0,1,331.52,214.51Z" style="opacity:0.30000000000000004"></path></g><g id="freepik--pine--inject-2"><path d="M459.36,243.09v58.63a2.2,2.2,0,0,1-1.29,1.81,7,7,0,0,1-6.25,0,2.2,2.2,0,0,1-1.29-1.81V243.09Z" style="fill:#37474f"></path><path d="M417.21,267.29l35.28-86.2h4.91l35.28,86.21a4.5,4.5,0,0,1-3.29,6.14l-.57.12a4.51,4.51,0,0,0-3.6,5h0a4.51,4.51,0,0,1-5.8,4.87l-1.74-.54a4.5,4.5,0,0,0-5.43,2.45l-1.76,3.86a4.5,4.5,0,0,1-6.4,2l-6.85-4.06a4.5,4.5,0,0,0-4.59,0l-6.85,4.06a4.5,4.5,0,0,1-6.4-2l-1.76-3.86a4.5,4.5,0,0,0-5.43-2.45l-1.74.53a4.5,4.5,0,0,1-5.8-4.86h0a4.52,4.52,0,0,0-3.6-5l-.58-.11A4.51,4.51,0,0,1,417.21,267.29Z" style="fill:#30DD8A"></path><path d="M417.21,267.29l35.28-86.2h4.91l35.28,86.21a4.5,4.5,0,0,1-3.29,6.14l-.57.12a4.51,4.51,0,0,0-3.6,5h0a4.51,4.51,0,0,1-5.8,4.87l-1.74-.54a4.5,4.5,0,0,0-5.43,2.45l-1.76,3.86a4.5,4.5,0,0,1-6.4,2l-6.85-4.06a4.5,4.5,0,0,0-4.59,0l-6.85,4.06a4.5,4.5,0,0,1-6.4-2l-1.76-3.86a4.5,4.5,0,0,0-5.43-2.45l-1.74.53a4.5,4.5,0,0,1-5.8-4.86h0a4.52,4.52,0,0,0-3.6-5l-.58-.11A4.51,4.51,0,0,1,417.21,267.29Z" style="opacity:0.30000000000000004"></path><path d="M469.11,209.38,457.4,182.77h-4.91l-19.37,45.09-8.51,21.55a2.75,2.75,0,0,0,2.29,3.06h0a3.4,3.4,0,0,1,2.83,3.76l-.07.65a3.4,3.4,0,0,0,4.59,3.58l1.75-.66a3.41,3.41,0,0,1,4.33,1.79l2.16,4.86a3.4,3.4,0,0,0,4.86,1.54l5.85-3.9a3.41,3.41,0,0,1,3.49,0l6.53,3.9a3.4,3.4,0,0,0,4.86-1.54l2.16-4.86a3.41,3.41,0,0,1,4.33-1.79l1.75.66a3.4,3.4,0,0,0,4.59-3.58l-.07-.65a3.4,3.4,0,0,1,2.83-3.76,2.58,2.58,0,0,0,2.13-1.79Z" style="opacity:0.1"></path><path d="M425.07,242.52l27.42-64.83h4.91l28.1,64.83c1,2,.43,4.5-1.83,4.87a3.4,3.4,0,0,0-2.83,3.76l.07.65a3.4,3.4,0,0,1-4.59,3.58l-1.75-.66a3.41,3.41,0,0,0-4.33,1.79l-2.16,4.86a3.4,3.4,0,0,1-4.86,1.54l-6.53-3.9a3.41,3.41,0,0,0-3.49,0l-5.85,3.9a3.4,3.4,0,0,1-4.86-1.54l-2.16-4.86a3.41,3.41,0,0,0-4.33-1.79l-1.75.66a3.4,3.4,0,0,1-4.59-3.58l.07-.65a3.4,3.4,0,0,0-2.83-3.76h0C424.64,247,424.06,244.57,425.07,242.52Z" style="fill:#30DD8A"></path><path d="M425.07,242.52l27.42-64.83h4.91l28.1,64.83c1,2,.43,4.5-1.83,4.87a3.4,3.4,0,0,0-2.83,3.76l.07.65a3.4,3.4,0,0,1-4.59,3.58l-1.75-.66a3.41,3.41,0,0,0-4.33,1.79l-2.16,4.86a3.4,3.4,0,0,1-4.86,1.54l-6.53-3.9a3.41,3.41,0,0,0-3.49,0l-5.85,3.9a3.4,3.4,0,0,1-4.86-1.54l-2.16-4.86a3.41,3.41,0,0,0-4.33-1.79l-1.75.66a3.4,3.4,0,0,1-4.59-3.58l.07-.65a3.4,3.4,0,0,0-2.83-3.76h0C424.64,247,424.06,244.57,425.07,242.52Z" style="opacity:0.2"></path><path d="M477.75,223.91,457.4,177.69h-4.91l-20,46.59a3.39,3.39,0,0,0,.53.38l.16.08a3.08,3.08,0,0,1,1.56,2.94h0a3.08,3.08,0,0,0,3.85,3.23l1.19-.31a3.08,3.08,0,0,1,3.49,1.52l1.63,3a3.08,3.08,0,0,0,4.13,1.27l4.51-2.36a3.12,3.12,0,0,1,2.85,0l4.51,2.36a3.08,3.08,0,0,0,4.13-1.27l1.63-3a3.08,3.08,0,0,1,3.49-1.52l1.19.31a3.07,3.07,0,0,0,3.84-3.23,3.08,3.08,0,0,1,1.56-2.94l.16-.08A3.14,3.14,0,0,0,477.75,223.91Z" style="opacity:0.1"></path><path d="M431.9,216.41l20.61-43.31.16-.26a2.62,2.62,0,0,1,4.55,0l.17.26L478,216.41a3.08,3.08,0,0,1-1.11,4.3l-.16.08a3.08,3.08,0,0,0-1.56,2.94,3.07,3.07,0,0,1-3.84,3.23l-1.19-.31a3.07,3.07,0,0,0-3.49,1.52l-1.63,3a3.07,3.07,0,0,1-4.13,1.28l-4.51-2.36a3.06,3.06,0,0,0-2.85,0L449,232.49a3.08,3.08,0,0,1-4.13-1.27l-1.63-3.05a3.07,3.07,0,0,0-3.49-1.52l-1.19.31a3.08,3.08,0,0,1-3.85-3.23h0a3.08,3.08,0,0,0-1.56-2.94l-.16-.08A3.08,3.08,0,0,1,431.9,216.41Z" style="fill:#30DD8A"></path><path d="M431.9,216.41l20.61-43.31.16-.26a2.62,2.62,0,0,1,4.55,0l.17.26L478,216.41a3.08,3.08,0,0,1-1.11,4.3l-.16.08a3.08,3.08,0,0,0-1.56,2.94,3.07,3.07,0,0,1-3.84,3.23l-1.19-.31a3.07,3.07,0,0,0-3.49,1.52l-1.63,3a3.07,3.07,0,0,1-4.13,1.28l-4.51-2.36a3.06,3.06,0,0,0-2.85,0L449,232.49a3.08,3.08,0,0,1-4.13-1.27l-1.63-3.05a3.07,3.07,0,0,0-3.49-1.52l-1.19.31a3.08,3.08,0,0,1-3.85-3.23h0a3.08,3.08,0,0,0-1.56-2.94l-.16-.08A3.08,3.08,0,0,1,431.9,216.41Z" style="opacity:0.1"></path></g><g id="freepik--Tree--inject-2"><g id="freepik--tree--inject-2"><path d="M168.69,165.07a8.32,8.32,0,0,0-4.87-4.75c-3.6-1.37-9.3-1.37-11.34,2.59-.75,1.47-.78,3.25-1.34,4.79-.8,2.18-3,3.45-4.82,4.72A9.43,9.43,0,0,0,143,182.81c.68,1.91,2.19,3.51,2.53,5.56.4,2.35-1.25,4.74-1.78,7a18.37,18.37,0,0,0-.32,6.1c.63,5.3,6.14,8.59,10.89,9.67,5.48,1.25,11.93,1.06,17-1.5,2.83-1.43,5.32-3.13,6.37-6.25a9.51,9.51,0,0,0-1.23-7.79c-1.47-2.37-3.13-4.39-1.33-7.05,1.11-1.64,2.46-3.06,3.15-4.94a7.94,7.94,0,0,0-.13-5.05,9.38,9.38,0,0,0-3.45-4c-1.57-1.21-3.81-2.24-4.62-4.16-.52-1.27-.4-2.56-.81-3.83A13,13,0,0,0,168.69,165.07Z" style="fill:#30DD8A"></path><path d="M168.69,165.07a8.32,8.32,0,0,0-4.87-4.75c-3.6-1.37-9.3-1.37-11.34,2.59-.75,1.47-.78,3.25-1.34,4.79-.8,2.18-3,3.45-4.82,4.72A9.43,9.43,0,0,0,143,182.81c.68,1.91,2.19,3.51,2.53,5.56.4,2.35-1.25,4.74-1.78,7a18.37,18.37,0,0,0-.32,6.1c.63,5.3,6.14,8.59,10.89,9.67,5.48,1.25,11.93,1.06,17-1.5,2.83-1.43,5.32-3.13,6.37-6.25a9.51,9.51,0,0,0-1.23-7.79c-1.47-2.37-3.13-4.39-1.33-7.05,1.11-1.64,2.46-3.06,3.15-4.94a7.94,7.94,0,0,0-.13-5.05,9.38,9.38,0,0,0-3.45-4c-1.57-1.21-3.81-2.24-4.62-4.16-.52-1.27-.4-2.56-.81-3.83A13,13,0,0,0,168.69,165.07Z" style="opacity:0.05"></path><path d="M168.69,165.07a8.32,8.32,0,0,0-4.87-4.75c-3.6-1.37-9.3-1.37-11.34,2.59-.75,1.47-.78,3.25-1.34,4.79-.8,2.18-3,3.45-4.82,4.72A9.43,9.43,0,0,0,143,182.81c.68,1.91,2.19,3.51,2.53,5.56.4,2.35-1.25,4.74-1.78,7a18.37,18.37,0,0,0-.32,6.1c.63,5.3,6.14,8.59,10.89,9.67,5.48,1.25,11.93,1.06,17-1.5,2.83-1.43,5.32-3.13,6.37-6.25a9.51,9.51,0,0,0-1.23-7.79c-1.47-2.37-3.13-4.39-1.33-7.05,1.11-1.64,2.46-3.06,3.15-4.94a7.94,7.94,0,0,0-.13-5.05,9.38,9.38,0,0,0-3.45-4c-1.57-1.21-3.81-2.24-4.62-4.16-.52-1.27-.4-2.56-.81-3.83A13,13,0,0,0,168.69,165.07Z" style="opacity:0.4"></path><path d="M173.25,208.54c-6.16,1.47-12.17,3.09-18.35.2-4.47-2.08-10.2-6.44-7.46-11.91,1.31-2.62,3.53-5.06,3.16-8.2-.33-2.74-2.2-4-4.09-5.8a11.08,11.08,0,0,1-3.57-5.57,8.92,8.92,0,0,0,0,5.55c.68,1.91,2.19,3.51,2.53,5.56.4,2.35-1.25,4.74-1.78,7a18.37,18.37,0,0,0-.32,6.1c.63,5.3,6.14,8.59,10.89,9.67,5.48,1.25,11.93,1.06,17-1.5C172,209.28,172.63,208.93,173.25,208.54Z" style="opacity:0.1"></path><path d="M159.92,159.51a9.32,9.32,0,0,1,4.32,2,4.67,4.67,0,0,1,1.59,4.06c-.3,1.37-1.49,2.63-1.36,4.09a4,4,0,0,0,2,3.08c2.24,1.24,5,1.05,7.63,1.38-1.5-1.05-3.34-2.05-4.05-3.75-.52-1.27-.4-2.56-.81-3.83a13,13,0,0,0-.57-1.46,8.32,8.32,0,0,0-4.87-4.75A13.24,13.24,0,0,0,159.92,159.51Z" style="opacity:0.1"></path><path d="M177.09,196.77a12.32,12.32,0,0,0-.64-1.19c-1.47-2.37-3.13-4.39-1.33-7.05.35-.51.72-1,1.08-1.49-2.49.71-5.89,1.8-5.07,4.88C171.68,194,175,195.38,177.09,196.77Z" style="opacity:0.1"></path></g><path d="M152.43,200.35l7.78,15.42v-7.1l.79-30.23,1.15,30.23v4.77l8.55-14.94-8.55,18.35v19.26a.47.47,0,0,1-.28.39,1.5,1.5,0,0,1-1.37,0,.49.49,0,0,1-.29-.39V219.7Z" style="fill:#37474f"></path></g><g id="freepik--pine--inject-2"><path d="M135.53,215.54V250.3a1.28,1.28,0,0,1-.75,1,4,4,0,0,1-3.64,0,1.29,1.29,0,0,1-.76-1V215.54Z" style="fill:#263238"></path><path d="M111,226.21l20.57-49.66h2.86L155,226.21A2.64,2.64,0,0,1,153,229.8l-.33.06a2.63,2.63,0,0,0-2.1,2.91h0a2.63,2.63,0,0,1-3.38,2.83l-1-.31a2.61,2.61,0,0,0-3.16,1.43L142,239a2.63,2.63,0,0,1-3.73,1.18l-4-2.37a2.63,2.63,0,0,0-2.68,0l-4,2.37A2.63,2.63,0,0,1,123.9,239l-1-2.25a2.61,2.61,0,0,0-3.16-1.43l-1,.31a2.63,2.63,0,0,1-3.38-2.84h0a2.62,2.62,0,0,0-2.09-2.9l-.34-.07A2.63,2.63,0,0,1,111,226.21Z" style="fill:#30DD8A"></path><path d="M111,226.21l20.57-49.66h2.86L155,226.21A2.64,2.64,0,0,1,153,229.8l-.33.06a2.63,2.63,0,0,0-2.1,2.91h0a2.63,2.63,0,0,1-3.38,2.83l-1-.31a2.61,2.61,0,0,0-3.16,1.43L142,239a2.63,2.63,0,0,1-3.73,1.18l-4-2.37a2.63,2.63,0,0,0-2.68,0l-4,2.37A2.63,2.63,0,0,1,123.9,239l-1-2.25a2.61,2.61,0,0,0-3.16-1.43l-1,.31a2.63,2.63,0,0,1-3.38-2.84h0a2.62,2.62,0,0,0-2.09-2.9l-.34-.07A2.63,2.63,0,0,1,111,226.21Z" style="opacity:0.4"></path><path d="M141.22,193l-6.83-15.51h-2.86l-11.29,26.29-5,12a1.59,1.59,0,0,0,1.33,1.79h0a2,2,0,0,1,1.65,2.19l0,.38a2,2,0,0,0,2.68,2.09l1-.39a2,2,0,0,1,2.52,1l1.26,2.83a2,2,0,0,0,2.83.9l3.41-2.27a2,2,0,0,1,2,0l3.8,2.27a2,2,0,0,0,2.84-.9l1.26-2.83a2,2,0,0,1,2.52-1l1,.39a2,2,0,0,0,2.68-2.09l0-.38a2,2,0,0,1,1.66-2.19,1.51,1.51,0,0,0,1.24-1Z" style="opacity:0.1"></path><path d="M115.55,211.77l16-37.21h2.86l16.38,37.21c.59,1.2.25,2.62-1.06,2.84a2,2,0,0,0-1.66,2.19l0,.38a2,2,0,0,1-2.68,2.09l-1-.39a2,2,0,0,0-2.52,1.05l-1.26,2.83a2,2,0,0,1-2.84.9l-3.8-2.28a2,2,0,0,0-2,0l-3.41,2.28a2,2,0,0,1-2.83-.9l-1.26-2.83a2,2,0,0,0-2.52-1.05l-1,.39a2,2,0,0,1-2.68-2.09l0-.38a2,2,0,0,0-1.65-2.19h0C115.29,214.39,115,213,115.55,211.77Z" style="fill:#30DD8A"></path><path d="M115.55,211.77l16-37.21h2.86l16.38,37.21c.59,1.2.25,2.62-1.06,2.84a2,2,0,0,0-1.66,2.19l0,.38a2,2,0,0,1-2.68,2.09l-1-.39a2,2,0,0,0-2.52,1.05l-1.26,2.83a2,2,0,0,1-2.84.9l-3.8-2.28a2,2,0,0,0-2,0l-3.41,2.28a2,2,0,0,1-2.83-.9l-1.26-2.83a2,2,0,0,0-2.52-1.05l-1,.39a2,2,0,0,1-2.68-2.09l0-.38a2,2,0,0,0-1.65-2.19h0C115.29,214.39,115,213,115.55,211.77Z" style="opacity:0.30000000000000004"></path><path d="M146.25,201.51l-11.86-26.95h-2.86l-11.67,27.16a1.81,1.81,0,0,0,.32.22l.08.05a1.77,1.77,0,0,1,.91,1.71h0a1.8,1.8,0,0,0,2.24,1.89l.7-.19a1.79,1.79,0,0,1,2,.89l1,1.78a1.8,1.8,0,0,0,2.41.74l2.63-1.38a1.8,1.8,0,0,1,1.66,0l2.63,1.38a1.79,1.79,0,0,0,2.4-.74l1-1.78a1.79,1.79,0,0,1,2-.89l.7.19a1.8,1.8,0,0,0,2.24-1.89,1.78,1.78,0,0,1,.9-1.71l.09-.05A1.65,1.65,0,0,0,146.25,201.51Z" style="opacity:0.1"></path><path d="M119.53,197.13l12-25.24.09-.16a1.53,1.53,0,0,1,2.66,0l.09.16,12,25.24a1.79,1.79,0,0,1-.65,2.51l-.09.05a1.78,1.78,0,0,0-.9,1.71,1.79,1.79,0,0,1-2.24,1.88l-.7-.18a1.79,1.79,0,0,0-2,.89l-1,1.77a1.77,1.77,0,0,1-2.4.74l-2.63-1.37a1.8,1.8,0,0,0-1.66,0l-2.63,1.37a1.79,1.79,0,0,1-2.41-.74l-1-1.77a1.79,1.79,0,0,0-2-.89l-.7.18a1.79,1.79,0,0,1-2.24-1.88h0a1.77,1.77,0,0,0-.91-1.71l-.08-.05A1.79,1.79,0,0,1,119.53,197.13Z" style="fill:#30DD8A"></path><path d="M119.53,197.13l12-25.24.09-.16a1.53,1.53,0,0,1,2.66,0l.09.16,12,25.24a1.79,1.79,0,0,1-.65,2.51l-.09.05a1.78,1.78,0,0,0-.9,1.71,1.79,1.79,0,0,1-2.24,1.88l-.7-.18a1.79,1.79,0,0,0-2,.89l-1,1.77a1.77,1.77,0,0,1-2.4.74l-2.63-1.37a1.8,1.8,0,0,0-1.66,0l-2.63,1.37a1.79,1.79,0,0,1-2.41-.74l-1-1.77a1.79,1.79,0,0,0-2-.89l-.7.18a1.79,1.79,0,0,1-2.24-1.88h0a1.77,1.77,0,0,0-.91-1.71l-.08-.05A1.79,1.79,0,0,1,119.53,197.13Z" style="opacity:0.2"></path></g><g id="freepik--tree--inject-2"><path id="freepik--Bush--inject-2" d="M89.43,282.22c3.25.52,6.17-.38,6.67-3.91a31.52,31.52,0,0,0,0-8.73c-.15-1-.52-2.28-1.54-2.55a2,2,0,0,0-2.1,1.18,5.8,5.8,0,0,0-.36,2.56c-.51-1.14-1.28-2.46-2.53-2.49a2.32,2.32,0,0,0-2.07,2.35,6.77,6.77,0,0,0,1.06,3.27,3.17,3.17,0,0,0-2.54.39,2.22,2.22,0,0,0-.09,2.89A6.47,6.47,0,0,0,88.48,279a1.15,1.15,0,0,0-1.55.75,1.73,1.73,0,0,0,.67,1.75A3.81,3.81,0,0,0,89.43,282.22Z" style="fill:#455a64"></path><g id="freepik--tree--inject-2"><path d="M107.4,178a12.05,12.05,0,0,0-7.06-6.89c-5.2-2-13.48-2-16.42,3.76-1.09,2.13-1.13,4.7-2,6.93-1.16,3.17-4.38,5-7,6.85a13.64,13.64,0,0,0-4.85,15c1,2.78,3.17,5.1,3.67,8.06.57,3.41-1.82,6.88-2.58,10.12a26.19,26.19,0,0,0-.47,8.83c.91,7.68,8.89,12.46,15.78,14,7.94,1.81,17.28,1.53,24.66-2.18,4.1-2.07,7.71-4.53,9.23-9.06,1.25-3.73.24-8-1.79-11.28-2.12-3.44-4.53-6.36-1.92-10.21,1.61-2.37,3.56-4.43,4.56-7.16a11.54,11.54,0,0,0-.19-7.32c-.85-2.46-3-4.28-5-5.83-2.27-1.74-5.52-3.24-6.68-6-.77-1.83-.59-3.71-1.18-5.55A18.11,18.11,0,0,0,107.4,178Z" style="fill:#30DD8A"></path><path d="M107.4,178a12.05,12.05,0,0,0-7.06-6.89c-5.2-2-13.48-2-16.42,3.76-1.09,2.13-1.13,4.7-2,6.93-1.16,3.17-4.38,5-7,6.85a13.64,13.64,0,0,0-4.85,15c1,2.78,3.17,5.1,3.67,8.06.57,3.41-1.82,6.88-2.58,10.12a26.19,26.19,0,0,0-.47,8.83c.91,7.68,8.89,12.46,15.78,14,7.94,1.81,17.28,1.53,24.66-2.18,4.1-2.07,7.71-4.53,9.23-9.06,1.25-3.73.24-8-1.79-11.28-2.12-3.44-4.53-6.36-1.92-10.21,1.61-2.37,3.56-4.43,4.56-7.16a11.54,11.54,0,0,0-.19-7.32c-.85-2.46-3-4.28-5-5.83-2.27-1.74-5.52-3.24-6.68-6-.77-1.83-.59-3.71-1.18-5.55A18.11,18.11,0,0,0,107.4,178Z" style="opacity:0.05"></path><path d="M107.4,178a12.05,12.05,0,0,0-7.06-6.89c-5.2-2-13.48-2-16.42,3.76-1.09,2.13-1.13,4.7-2,6.93-1.16,3.17-4.38,5-7,6.85a13.64,13.64,0,0,0-4.85,15c1,2.78,3.17,5.1,3.67,8.06.57,3.41-1.82,6.88-2.58,10.12a26.19,26.19,0,0,0-.47,8.83c.91,7.68,8.89,12.46,15.78,14,7.94,1.81,17.28,1.53,24.66-2.18,4.1-2.07,7.71-4.53,9.23-9.06,1.25-3.73.24-8-1.79-11.28-2.12-3.44-4.53-6.36-1.92-10.21,1.61-2.37,3.56-4.43,4.56-7.16a11.54,11.54,0,0,0-.19-7.32c-.85-2.46-3-4.28-5-5.83-2.27-1.74-5.52-3.24-6.68-6-.77-1.83-.59-3.71-1.18-5.55A18.11,18.11,0,0,0,107.4,178Z" style="opacity:0.4"></path><path d="M114,240.93c-8.92,2.13-17.62,4.48-26.58.29-6.47-3-14.78-9.33-10.81-17.26,1.9-3.79,5.11-7.32,4.58-11.88-.47-4-3.19-5.86-5.92-8.41-2.35-2.19-4.55-4.93-5.18-8.06a13,13,0,0,0,0,8c1,2.78,3.17,5.1,3.67,8.06.57,3.41-1.82,6.88-2.58,10.12a26.19,26.19,0,0,0-.47,8.83c.91,7.68,8.89,12.46,15.78,14,7.94,1.81,17.28,1.53,24.66-2.18C112.17,242,113.11,241.49,114,240.93Z" style="opacity:0.1"></path><path d="M94.7,169.89a13.63,13.63,0,0,1,6.26,2.88c1.52,1.34,2.74,3.85,2.29,5.89s-2.15,3.81-2,5.92a5.87,5.87,0,0,0,2.93,4.47c3.25,1.79,7.31,1.51,11.06,2-2.18-1.51-4.84-3-5.86-5.43-.77-1.83-.59-3.71-1.18-5.55a18.11,18.11,0,0,0-.83-2.11,12.05,12.05,0,0,0-7.06-6.89A19.15,19.15,0,0,0,94.7,169.89Z" style="opacity:0.1"></path><path d="M119.57,223.87a17.76,17.76,0,0,0-.93-1.72c-2.12-3.44-4.53-6.36-1.92-10.21.51-.74,1-1.45,1.57-2.16-3.61,1-8.54,2.61-7.35,7.07C111.73,219.81,116.47,221.86,119.57,223.87Z" style="opacity:0.1"></path></g><path d="M83.85,229.06,95.12,251.4V241.12l1.14-43.8,1.67,43.8V248l12.39-21.66L97.93,253v27.91a.69.69,0,0,1-.41.57,2.18,2.18,0,0,1-2,0,.69.69,0,0,1-.41-.57V257.1Z" style="fill:#37474f"></path><path id="freepik--bush--inject-2" d="M98.12,284l10.24-5.91a8.16,8.16,0,0,0,2.23-2.1,5.9,5.9,0,0,0,1.25-2.65,1.35,1.35,0,0,0-.11-1c-.37-.54-1.24-.35-1.73.09s-.88.82-1.4,1.37a15.07,15.07,0,0,0,.2-3.55,1.58,1.58,0,0,0-.43-1.18,1.32,1.32,0,0,0-1.43,0c-1.34.72-1.91,2.32-2.38,3.77a12.27,12.27,0,0,0-.13-4.52c-.36-1.62-2.21-2.25-2.84-.71a9.13,9.13,0,0,0-.54,2.58,10.46,10.46,0,0,0,.23,3.4,10.78,10.78,0,0,0-2.73-3.78,1.66,1.66,0,0,0-1.58-.55c-.65.25-.76,1.11-.69,1.8a9.84,9.84,0,0,0,1.39,4.12,8.57,8.57,0,0,0-3.46-1.34,1,1,0,0,0-1.09.35,1.41,1.41,0,0,0,.24,1.42,8.61,8.61,0,0,0,2.76,2.56,8.89,8.89,0,0,0-3.36-.35,1.13,1.13,0,0,0-.89.38c-.3.42,0,1,.42,1.36A10.07,10.07,0,0,0,94.68,281a3.55,3.55,0,0,0-1.48.25,1.18,1.18,0,0,0-.7,1.22,1.49,1.49,0,0,0,1.08.95C95.58,284.1,96.13,284.33,98.12,284Z" style="fill:#30DD8A"></path><path id="freepik--bush--inject-2" d="M98.12,284l10.24-5.91a8.16,8.16,0,0,0,2.23-2.1,5.9,5.9,0,0,0,1.25-2.65,1.35,1.35,0,0,0-.11-1c-.37-.54-1.24-.35-1.73.09s-.88.82-1.4,1.37a15.07,15.07,0,0,0,.2-3.55,1.58,1.58,0,0,0-.43-1.18,1.32,1.32,0,0,0-1.43,0c-1.34.72-1.91,2.32-2.38,3.77a12.27,12.27,0,0,0-.13-4.52c-.36-1.62-2.21-2.25-2.84-.71a9.13,9.13,0,0,0-.54,2.58,10.46,10.46,0,0,0,.23,3.4,10.78,10.78,0,0,0-2.73-3.78,1.66,1.66,0,0,0-1.58-.55c-.65.25-.76,1.11-.69,1.8a9.84,9.84,0,0,0,1.39,4.12,8.57,8.57,0,0,0-3.46-1.34,1,1,0,0,0-1.09.35,1.41,1.41,0,0,0,.24,1.42,8.61,8.61,0,0,0,2.76,2.56,8.89,8.89,0,0,0-3.36-.35,1.13,1.13,0,0,0-.89.38c-.3.42,0,1,.42,1.36A10.07,10.07,0,0,0,94.68,281a3.55,3.55,0,0,0-1.48.25,1.18,1.18,0,0,0-.7,1.22,1.49,1.49,0,0,0,1.08.95C95.58,284.1,96.13,284.33,98.12,284Z" style="opacity:0.4"></path></g><g id="freepik--pine--inject-2"><path d="M209.22,194.75v23.62a.88.88,0,0,1-.51.72,2.75,2.75,0,0,1-2.47,0,.87.87,0,0,1-.52-.72V194.75Z" style="fill:#37474f"></path><path d="M192.52,204.23l14-33.76h1.95l14,33.76a1.78,1.78,0,0,1-1.3,2.43l-.23.05a1.77,1.77,0,0,0-1.42,2h0a1.79,1.79,0,0,1-2.3,1.93l-.69-.21a1.78,1.78,0,0,0-2.15,1l-.7,1.53a1.78,1.78,0,0,1-2.53.8l-2.72-1.61a1.8,1.8,0,0,0-1.82,0l-2.71,1.61a1.79,1.79,0,0,1-2.54-.8l-.69-1.53a1.78,1.78,0,0,0-2.15-1l-.69.21a1.79,1.79,0,0,1-2.3-1.93h0a1.78,1.78,0,0,0-1.42-2l-.23-.05A1.78,1.78,0,0,1,192.52,204.23Z" style="fill:#30DD8A"></path><path d="M192.52,204.23l14-33.76h1.95l14,33.76a1.78,1.78,0,0,1-1.3,2.43l-.23.05a1.77,1.77,0,0,0-1.42,2h0a1.79,1.79,0,0,1-2.3,1.93l-.69-.21a1.78,1.78,0,0,0-2.15,1l-.7,1.53a1.78,1.78,0,0,1-2.53.8l-2.72-1.61a1.8,1.8,0,0,0-1.82,0l-2.71,1.61a1.79,1.79,0,0,1-2.54-.8l-.69-1.53a1.78,1.78,0,0,0-2.15-1l-.69.21a1.79,1.79,0,0,1-2.3-1.93h0a1.78,1.78,0,0,0-1.42-2l-.23-.05A1.78,1.78,0,0,1,192.52,204.23Z" style="opacity:0.5"></path><path d="M213.09,181.68l-4.64-10.54H206.5L198.83,189l-3.37,8.14a1.08,1.08,0,0,0,.9,1.21h0a1.36,1.36,0,0,1,1.13,1.49l0,.26a1.35,1.35,0,0,0,1.82,1.42l.69-.26a1.33,1.33,0,0,1,1.71.71l.86,1.92a1.35,1.35,0,0,0,1.93.61l2.31-1.54a1.38,1.38,0,0,1,1.39,0l2.58,1.54a1.35,1.35,0,0,0,1.93-.61l.85-1.92a1.35,1.35,0,0,1,1.72-.71l.69.26a1.35,1.35,0,0,0,1.82-1.42l0-.26a1.36,1.36,0,0,1,1.12-1.49,1,1,0,0,0,.85-.7Z" style="opacity:0.1"></path><path d="M195.64,194.41l10.86-25.28h1.95l11.13,25.28c.4.82.17,1.78-.73,1.93a1.35,1.35,0,0,0-1.12,1.49l0,.26a1.35,1.35,0,0,1-1.82,1.42l-.69-.27a1.36,1.36,0,0,0-1.72.72l-.85,1.92a1.36,1.36,0,0,1-1.93.61L208.17,201a1.34,1.34,0,0,0-1.39,0l-2.31,1.54a1.36,1.36,0,0,1-1.93-.61l-.86-1.92a1.35,1.35,0,0,0-1.71-.72l-.69.27a1.35,1.35,0,0,1-1.82-1.42l0-.26a1.35,1.35,0,0,0-1.13-1.49h0C195.47,196.19,195.24,195.23,195.64,194.41Z" style="fill:#30DD8A"></path><path d="M195.64,194.41l10.86-25.28h1.95l11.13,25.28c.4.82.17,1.78-.73,1.93a1.35,1.35,0,0,0-1.12,1.49l0,.26a1.35,1.35,0,0,1-1.82,1.42l-.69-.27a1.36,1.36,0,0,0-1.72.72l-.85,1.92a1.36,1.36,0,0,1-1.93.61L208.17,201a1.34,1.34,0,0,0-1.39,0l-2.31,1.54a1.36,1.36,0,0,1-1.93-.61l-.86-1.92a1.35,1.35,0,0,0-1.71-.72l-.69.27a1.35,1.35,0,0,1-1.82-1.42l0-.26a1.35,1.35,0,0,0-1.13-1.49h0C195.47,196.19,195.24,195.23,195.64,194.41Z" style="opacity:0.4"></path><path d="M216.51,187.44l-8.06-18.31H206.5l-7.93,18.45a1.07,1.07,0,0,0,.22.15l.06,0a1.22,1.22,0,0,1,.61,1.16h0a1.22,1.22,0,0,0,1.53,1.28l.47-.12a1.2,1.2,0,0,1,1.38.6l.65,1.21a1.21,1.21,0,0,0,1.63.5l1.79-.93a1.19,1.19,0,0,1,1.13,0l1.78.93a1.23,1.23,0,0,0,1.64-.5l.65-1.21a1.2,1.2,0,0,1,1.38-.6l.47.12a1.21,1.21,0,0,0,1.52-1.28,1.21,1.21,0,0,1,.62-1.16l.06,0A1.23,1.23,0,0,0,216.51,187.44Z" style="opacity:0.1"></path><path d="M198.35,184.47l8.16-17.16.06-.11a1,1,0,0,1,.9-.52,1.06,1.06,0,0,1,.91.52l.06.11,8.16,17.16a1.21,1.21,0,0,1-.44,1.7l-.06,0a1.22,1.22,0,0,0-.62,1.17,1.22,1.22,0,0,1-1.52,1.28l-.47-.13a1.22,1.22,0,0,0-1.38.6l-.65,1.21a1.22,1.22,0,0,1-1.64.5L208,189.9a1.25,1.25,0,0,0-1.13,0l-1.79.93a1.2,1.2,0,0,1-1.63-.5l-.65-1.21a1.23,1.23,0,0,0-1.38-.6l-.47.13a1.23,1.23,0,0,1-1.53-1.28h0a1.22,1.22,0,0,0-.61-1.17l-.06,0A1.21,1.21,0,0,1,198.35,184.47Z" style="fill:#30DD8A"></path><path d="M198.35,184.47l8.16-17.16.06-.11a1,1,0,0,1,.9-.52,1.06,1.06,0,0,1,.91.52l.06.11,8.16,17.16a1.21,1.21,0,0,1-.44,1.7l-.06,0a1.22,1.22,0,0,0-.62,1.17,1.22,1.22,0,0,1-1.52,1.28l-.47-.13a1.22,1.22,0,0,0-1.38.6l-.65,1.21a1.22,1.22,0,0,1-1.64.5L208,189.9a1.25,1.25,0,0,0-1.13,0l-1.79.93a1.2,1.2,0,0,1-1.63-.5l-.65-1.21a1.23,1.23,0,0,0-1.38-.6l-.47.13a1.23,1.23,0,0,1-1.53-1.28h0a1.22,1.22,0,0,0-.61-1.17l-.06,0A1.21,1.21,0,0,1,198.35,184.47Z" style="opacity:0.30000000000000004"></path></g><g id="freepik--pine--inject-2"><path d="M272.93,203.42v27.45a1.2,1.2,0,0,1-.72,1,3.79,3.79,0,0,1-3.44,0,1.2,1.2,0,0,1-.72-1V203.42Z" style="fill:#37474f"></path><path d="M249.66,213.52l19.47-47h2.72l19.47,47a2.49,2.49,0,0,1-1.82,3.39l-.31.06a2.5,2.5,0,0,0-2,2.75h0a2.49,2.49,0,0,1-3.2,2.69l-1-.3a2.5,2.5,0,0,0-3,1.35l-1,2.14a2.48,2.48,0,0,1-3.53,1.11l-3.78-2.24a2.51,2.51,0,0,0-2.54,0l-3.78,2.24a2.48,2.48,0,0,1-3.53-1.11l-1-2.14a2.5,2.5,0,0,0-3-1.35l-1,.3a2.49,2.49,0,0,1-3.2-2.69h0a2.5,2.5,0,0,0-2-2.75l-.32-.06A2.5,2.5,0,0,1,249.66,213.52Z" style="fill:#30DD8A"></path><path d="M249.66,213.52l19.47-47h2.72l19.47,47a2.49,2.49,0,0,1-1.82,3.39l-.31.06a2.5,2.5,0,0,0-2,2.75h0a2.49,2.49,0,0,1-3.2,2.69l-1-.3a2.5,2.5,0,0,0-3,1.35l-1,2.14a2.48,2.48,0,0,1-3.53,1.11l-3.78-2.24a2.51,2.51,0,0,0-2.54,0l-3.78,2.24a2.48,2.48,0,0,1-3.53-1.11l-1-2.14a2.5,2.5,0,0,0-3-1.35l-1,.3a2.49,2.49,0,0,1-3.2-2.69h0a2.5,2.5,0,0,0-2-2.75l-.32-.06A2.5,2.5,0,0,1,249.66,213.52Z" style="opacity:0.4"></path><path d="M278.31,182.11l-6.46-14.68h-2.72l-10.69,24.88-4.69,11.34a1.5,1.5,0,0,0,1.26,1.69h0a1.89,1.89,0,0,1,1.56,2.08l0,.36a1.89,1.89,0,0,0,2.54,2l1-.37a1.88,1.88,0,0,1,2.39,1l1.2,2.68a1.87,1.87,0,0,0,2.68.85l3.23-2.15a1.89,1.89,0,0,1,1.92,0l3.61,2.15a1.88,1.88,0,0,0,2.68-.85l1.19-2.68a1.88,1.88,0,0,1,2.39-1l1,.37a1.88,1.88,0,0,0,2.54-2l0-.36a1.87,1.87,0,0,1,1.56-2.07,1.45,1.45,0,0,0,1.18-1Z" style="opacity:0.1"></path><path d="M254,199.85l15.13-35.23h2.72l15.5,35.23c.56,1.14.24,2.49-1,2.69a1.88,1.88,0,0,0-1.57,2.08l0,.36a1.88,1.88,0,0,1-2.54,2l-1-.37a1.89,1.89,0,0,0-2.39,1l-1.19,2.68a1.88,1.88,0,0,1-2.68.85L271.45,209a1.84,1.84,0,0,0-1.92,0l-3.23,2.15a1.87,1.87,0,0,1-2.68-.85l-1.2-2.68a1.88,1.88,0,0,0-2.39-1l-1,.37a1.88,1.88,0,0,1-2.54-2l0-.37a1.88,1.88,0,0,0-1.56-2.07h0C253.76,202.34,253.44,201,254,199.85Z" style="fill:#30DD8A"></path><path d="M254,199.85l15.13-35.23h2.72l15.5,35.23c.56,1.14.24,2.49-1,2.69a1.88,1.88,0,0,0-1.57,2.08l0,.36a1.88,1.88,0,0,1-2.54,2l-1-.37a1.89,1.89,0,0,0-2.39,1l-1.19,2.68a1.88,1.88,0,0,1-2.68.85L271.45,209a1.84,1.84,0,0,0-1.92,0l-3.23,2.15a1.87,1.87,0,0,1-2.68-.85l-1.2-2.68a1.88,1.88,0,0,0-2.39-1l-1,.37a1.88,1.88,0,0,1-2.54-2l0-.37a1.88,1.88,0,0,0-1.56-2.07h0C253.76,202.34,253.44,201,254,199.85Z" style="opacity:0.30000000000000004"></path><path d="M283.08,190.14l-11.23-25.52h-2.72l-11,25.72a3.06,3.06,0,0,0,.29.21l.09,0a1.7,1.7,0,0,1,.86,1.63h0a1.7,1.7,0,0,0,2.12,1.78l.66-.17a1.68,1.68,0,0,1,1.92.83l.91,1.69a1.68,1.68,0,0,0,2.27.7l2.49-1.3a1.68,1.68,0,0,1,1.57,0l2.49,1.3a1.69,1.69,0,0,0,2.28-.7l.91-1.69a1.68,1.68,0,0,1,1.92-.83l.66.17a1.7,1.7,0,0,0,2.12-1.78,1.7,1.7,0,0,1,.86-1.63l.08,0A1.78,1.78,0,0,0,283.08,190.14Z" style="opacity:0.1"></path><path d="M257.77,186l11.37-23.91.09-.14a1.45,1.45,0,0,1,2.52,0l.09.14L283.21,186a1.71,1.71,0,0,1-.62,2.37l-.08,0a1.7,1.7,0,0,0-.86,1.63,1.7,1.7,0,0,1-2.12,1.78l-.66-.17a1.68,1.68,0,0,0-1.92.83l-.91,1.69a1.7,1.7,0,0,1-2.28.7l-2.49-1.3a1.68,1.68,0,0,0-1.57,0l-2.49,1.3a1.69,1.69,0,0,1-2.27-.7l-.91-1.69a1.7,1.7,0,0,0-1.92-.84l-.66.18a1.7,1.7,0,0,1-2.12-1.78h0a1.69,1.69,0,0,0-.86-1.62l-.09,0A1.7,1.7,0,0,1,257.77,186Z" style="fill:#30DD8A"></path><path d="M257.77,186l11.37-23.91.09-.14a1.45,1.45,0,0,1,2.52,0l.09.14L283.21,186a1.71,1.71,0,0,1-.62,2.37l-.08,0a1.7,1.7,0,0,0-.86,1.63,1.7,1.7,0,0,1-2.12,1.78l-.66-.17a1.68,1.68,0,0,0-1.92.83l-.91,1.69a1.7,1.7,0,0,1-2.28.7l-2.49-1.3a1.68,1.68,0,0,0-1.57,0l-2.49,1.3a1.69,1.69,0,0,1-2.27-.7l-.91-1.69a1.7,1.7,0,0,0-1.92-.84l-.66.18a1.7,1.7,0,0,1-2.12-1.78h0a1.69,1.69,0,0,0-.86-1.62l-.09,0A1.7,1.7,0,0,1,257.77,186Z" style="opacity:0.2"></path></g><g id="freepik--pine--inject-2"><path d="M377.13,239v36.58a1.34,1.34,0,0,1-.8,1.1,4.18,4.18,0,0,1-3.83,0,1.33,1.33,0,0,1-.79-1.1V239Z" style="fill:#37474f"></path><path d="M351.27,250.26,372.91,198h3l21.65,52.26a2.77,2.77,0,0,1-2,3.77l-.35.07a2.77,2.77,0,0,0-2.21,3.06h0a2.76,2.76,0,0,1-3.56,3l-1.07-.32a2.76,2.76,0,0,0-3.33,1.5L384,263.69a2.77,2.77,0,0,1-3.93,1.24l-4.2-2.49a2.74,2.74,0,0,0-2.82,0l-4.2,2.49a2.77,2.77,0,0,1-3.93-1.24l-1.08-2.37a2.77,2.77,0,0,0-3.33-1.51l-1.07.33a2.77,2.77,0,0,1-3.56-3h0a2.77,2.77,0,0,0-2.21-3.06l-.36-.07A2.76,2.76,0,0,1,351.27,250.26Z" style="fill:#30DD8A"></path><path d="M351.27,250.26,372.91,198h3l21.65,52.26a2.77,2.77,0,0,1-2,3.77l-.35.07a2.77,2.77,0,0,0-2.21,3.06h0a2.76,2.76,0,0,1-3.56,3l-1.07-.32a2.76,2.76,0,0,0-3.33,1.5L384,263.69a2.77,2.77,0,0,1-3.93,1.24l-4.2-2.49a2.74,2.74,0,0,0-2.82,0l-4.2,2.49a2.77,2.77,0,0,1-3.93-1.24l-1.08-2.37a2.77,2.77,0,0,0-3.33-1.51l-1.07.33a2.77,2.77,0,0,1-3.56-3h0a2.77,2.77,0,0,0-2.21-3.06l-.36-.07A2.76,2.76,0,0,1,351.27,250.26Z" style="opacity:0.4"></path><path d="M383.11,215.35,375.92,199h-3L361,226.68l-5.22,12.61a1.7,1.7,0,0,0,1.4,1.88h0a2.08,2.08,0,0,1,1.74,2.3l-.05.4a2.1,2.1,0,0,0,2.83,2.2l1.07-.41a2.1,2.1,0,0,1,2.65,1.1l1.33,3a2.09,2.09,0,0,0,3,.95l3.59-2.39a2.06,2.06,0,0,1,2.14,0l4,2.39a2.1,2.1,0,0,0,3-.95l1.32-3a2.11,2.11,0,0,1,2.66-1.1l1.07.41a2.09,2.09,0,0,0,2.82-2.2l-.05-.4a2.09,2.09,0,0,1,1.74-2.3,1.6,1.6,0,0,0,1.31-1.1Z" style="opacity:0.1"></path><path d="M356.09,235.06l16.82-39.15h3l17.24,39.15c.62,1.26.27,2.76-1.12,3a2.1,2.1,0,0,0-1.74,2.31l.05.4a2.09,2.09,0,0,1-2.82,2.19l-1.07-.41a2.1,2.1,0,0,0-2.66,1.11l-1.32,3a2.1,2.1,0,0,1-3,.94l-4-2.39a2.1,2.1,0,0,0-2.14,0l-3.59,2.39a2.09,2.09,0,0,1-3-.94l-1.33-3a2.09,2.09,0,0,0-2.65-1.11l-1.07.41a2.1,2.1,0,0,1-2.83-2.19l.05-.41a2.09,2.09,0,0,0-1.74-2.3h0C355.83,237.82,355.47,236.32,356.09,235.06Z" style="fill:#30DD8A"></path><path d="M356.09,235.06l16.82-39.15h3l17.24,39.15c.62,1.26.27,2.76-1.12,3a2.1,2.1,0,0,0-1.74,2.31l.05.4a2.09,2.09,0,0,1-2.82,2.19l-1.07-.41a2.1,2.1,0,0,0-2.66,1.11l-1.32,3a2.1,2.1,0,0,1-3,.94l-4-2.39a2.1,2.1,0,0,0-2.14,0l-3.59,2.39a2.09,2.09,0,0,1-3-.94l-1.33-3a2.09,2.09,0,0,0-2.65-1.11l-1.07.41a2.1,2.1,0,0,1-2.83-2.19l.05-.41a2.09,2.09,0,0,0-1.74-2.3h0C355.83,237.82,355.47,236.32,356.09,235.06Z" style="opacity:0.30000000000000004"></path><path d="M388.41,224.26l-12.49-28.35h-3l-12.27,28.58a2.62,2.62,0,0,0,.32.23l.1.05a1.87,1.87,0,0,1,.95,1.8h0a1.89,1.89,0,0,0,2.36,2l.73-.2a1.88,1.88,0,0,1,2.14.94l1,1.87a1.88,1.88,0,0,0,2.53.78l2.77-1.45a1.91,1.91,0,0,1,1.74,0l2.77,1.45a1.89,1.89,0,0,0,2.53-.78l1-1.87a1.89,1.89,0,0,1,2.14-.94l.73.2a1.89,1.89,0,0,0,2.36-2,1.89,1.89,0,0,1,1-1.81l.09-.05A2,2,0,0,0,388.41,224.26Z" style="opacity:0.1"></path><path d="M360.28,219.66l12.64-26.57.1-.16a1.62,1.62,0,0,1,1.4-.81,1.61,1.61,0,0,1,1.39.81l.11.17,12.63,26.56a1.88,1.88,0,0,1-.68,2.64l-.09,0a1.87,1.87,0,0,0-1,1.8,1.88,1.88,0,0,1-2.36,2l-.73-.19a1.88,1.88,0,0,0-2.14.93l-1,1.87a1.88,1.88,0,0,1-2.53.78l-2.77-1.44a1.85,1.85,0,0,0-1.74,0l-2.77,1.44a1.88,1.88,0,0,1-2.53-.78l-1-1.87a1.88,1.88,0,0,0-2.14-.93l-.73.19a1.88,1.88,0,0,1-2.36-2h0a1.87,1.87,0,0,0-.95-1.8l-.1,0A1.9,1.9,0,0,1,360.28,219.66Z" style="fill:#30DD8A"></path><path d="M360.28,219.66l12.64-26.57.1-.16a1.62,1.62,0,0,1,1.4-.81,1.61,1.61,0,0,1,1.39.81l.11.17,12.63,26.56a1.88,1.88,0,0,1-.68,2.64l-.09,0a1.87,1.87,0,0,0-1,1.8,1.88,1.88,0,0,1-2.36,2l-.73-.19a1.88,1.88,0,0,0-2.14.93l-1,1.87a1.88,1.88,0,0,1-2.53.78l-2.77-1.44a1.85,1.85,0,0,0-1.74,0l-2.77,1.44a1.88,1.88,0,0,1-2.53-.78l-1-1.87a1.88,1.88,0,0,0-2.14-.93l-.73.19a1.88,1.88,0,0,1-2.36-2h0a1.87,1.87,0,0,0-.95-1.8l-.1,0A1.9,1.9,0,0,1,360.28,219.66Z" style="opacity:0.2"></path></g><g id="freepik--pine--inject-2"><path d="M53,239.38v55.51a2.33,2.33,0,0,1-1.38,1.92,7.35,7.35,0,0,1-6.62,0,2.33,2.33,0,0,1-1.38-1.92V239.38Z" style="fill:#37474f"></path><path d="M8.3,258.8l37.42-90.37h5.22L88.36,258.8a4.78,4.78,0,0,1-3.49,6.52l-.61.12a4.79,4.79,0,0,0-3.82,5.29h0a4.78,4.78,0,0,1-6.15,5.16l-1.85-.57a4.78,4.78,0,0,0-5.76,2.6L64.82,282A4.78,4.78,0,0,1,58,284.16l-7.26-4.31a4.79,4.79,0,0,0-4.88,0l-7.26,4.31A4.78,4.78,0,0,1,31.84,282L30,277.92a4.78,4.78,0,0,0-5.76-2.6l-1.85.57a4.78,4.78,0,0,1-6.15-5.16h0a4.78,4.78,0,0,0-3.82-5.28l-.61-.12A4.79,4.79,0,0,1,8.3,258.8Z" style="fill:#30DD8A"></path><path d="M8.3,258.8l37.42-90.37h5.22L88.36,258.8a4.78,4.78,0,0,1-3.49,6.52l-.61.12a4.79,4.79,0,0,0-3.82,5.29h0a4.78,4.78,0,0,1-6.15,5.16l-1.85-.57a4.78,4.78,0,0,0-5.76,2.6L64.82,282A4.78,4.78,0,0,1,58,284.16l-7.26-4.31a4.79,4.79,0,0,0-4.88,0l-7.26,4.31A4.78,4.78,0,0,1,31.84,282L30,277.92a4.78,4.78,0,0,0-5.76-2.6l-1.85.57a4.78,4.78,0,0,1-6.15-5.16h0a4.78,4.78,0,0,0-3.82-5.28l-.61-.12A4.79,4.79,0,0,1,8.3,258.8Z" style="opacity:0.30000000000000004"></path><path d="M63.36,198.43,50.94,170.21H45.72L25.18,218l-9,21.8a2.91,2.91,0,0,0,2.42,3.25h0a3.62,3.62,0,0,1,3,4l-.08.7a3.61,3.61,0,0,0,4.87,3.79l1.86-.7a3.6,3.6,0,0,1,4.58,1.91l2.3,5.15a3.61,3.61,0,0,0,5.15,1.63l6.21-4.13a3.61,3.61,0,0,1,3.7,0l6.93,4.13a3.61,3.61,0,0,0,5.15-1.63l2.3-5.15a3.61,3.61,0,0,1,4.59-1.91l1.85.7a3.62,3.62,0,0,0,4.88-3.79l-.09-.7a3.62,3.62,0,0,1,3-4,2.76,2.76,0,0,0,2.26-1.9Z" style="opacity:0.1"></path><path d="M16.65,232.52l29.07-67.7h5.22l29.8,67.7c1.07,2.18.46,4.78-1.94,5.17a3.62,3.62,0,0,0-3,4l.09.69A3.62,3.62,0,0,1,71,246.16l-1.85-.7a3.61,3.61,0,0,0-4.59,1.91l-2.3,5.15a3.61,3.61,0,0,1-5.15,1.63L50.18,250a3.61,3.61,0,0,0-3.7,0l-6.21,4.13a3.61,3.61,0,0,1-5.15-1.63l-2.3-5.15a3.6,3.6,0,0,0-4.58-1.91l-1.86.7a3.61,3.61,0,0,1-4.87-3.79l.08-.7a3.62,3.62,0,0,0-3-4h0C16.19,237.29,15.57,234.7,16.65,232.52Z" style="fill:#30DD8A"></path><path d="M16.65,232.52l29.07-67.7h5.22l29.8,67.7c1.07,2.18.46,4.78-1.94,5.17a3.62,3.62,0,0,0-3,4l.09.69A3.62,3.62,0,0,1,71,246.16l-1.85-.7a3.61,3.61,0,0,0-4.59,1.91l-2.3,5.15a3.61,3.61,0,0,1-5.15,1.63L50.18,250a3.61,3.61,0,0,0-3.7,0l-6.21,4.13a3.61,3.61,0,0,1-5.15-1.63l-2.3-5.15a3.6,3.6,0,0,0-4.58-1.91l-1.86.7a3.61,3.61,0,0,1-4.87-3.79l.08-.7a3.62,3.62,0,0,0-3-4h0C16.19,237.29,15.57,234.7,16.65,232.52Z" style="opacity:0.2"></path><path d="M72.52,213.85l-21.58-49H45.72L24.5,214.23a3,3,0,0,0,.57.41l.16.09a3.25,3.25,0,0,1,1.65,3.12h0A3.26,3.26,0,0,0,31,221.27l1.26-.33a3.26,3.26,0,0,1,3.7,1.61l1.74,3.24A3.27,3.27,0,0,0,42,227.14l4.78-2.5a3.23,3.23,0,0,1,3,0l4.78,2.49A3.25,3.25,0,0,0,59,225.79l1.74-3.24a3.26,3.26,0,0,1,3.7-1.61l1.26.33a3.26,3.26,0,0,0,4.08-3.42,3.25,3.25,0,0,1,1.65-3.12l.16-.09A3.25,3.25,0,0,0,72.52,213.85Z" style="opacity:0.1"></path><path d="M23.89,205.89,45.75,160l.17-.27a2.76,2.76,0,0,1,4.82,0l.18.28,21.85,45.93a3.27,3.27,0,0,1-1.18,4.56l-.16.09a3.24,3.24,0,0,0-1.65,3.12,3.26,3.26,0,0,1-4.08,3.42l-1.26-.33a3.26,3.26,0,0,0-3.7,1.61L59,221.59a3.25,3.25,0,0,1-4.38,1.35l-4.78-2.5a3.29,3.29,0,0,0-3,0L42,222.94a3.25,3.25,0,0,1-4.38-1.35l-1.74-3.23a3.26,3.26,0,0,0-3.7-1.61l-1.26.33a3.26,3.26,0,0,1-4.08-3.42h0a3.24,3.24,0,0,0-1.65-3.12l-.16-.09A3.27,3.27,0,0,1,23.89,205.89Z" style="fill:#30DD8A"></path><path d="M23.89,205.89,45.75,160l.17-.27a2.76,2.76,0,0,1,4.82,0l.18.28,21.85,45.93a3.27,3.27,0,0,1-1.18,4.56l-.16.09a3.24,3.24,0,0,0-1.65,3.12,3.26,3.26,0,0,1-4.08,3.42l-1.26-.33a3.26,3.26,0,0,0-3.7,1.61L59,221.59a3.25,3.25,0,0,1-4.38,1.35l-4.78-2.5a3.29,3.29,0,0,0-3,0L42,222.94a3.25,3.25,0,0,1-4.38-1.35l-1.74-3.23a3.26,3.26,0,0,0-3.7-1.61l-1.26.33a3.26,3.26,0,0,1-4.08-3.42h0a3.24,3.24,0,0,0-1.65-3.12l-.16-.09A3.27,3.27,0,0,1,23.89,205.89Z" style="opacity:0.1"></path></g><g id="freepik--tree--inject-2"><path id="freepik--bush--inject-2" d="M309.92,236.38c-2,.33-3.85-.24-4.16-2.43a19.14,19.14,0,0,1,0-5.45c.09-.65.32-1.42,1-1.59a1.23,1.23,0,0,1,1.31.74,3.56,3.56,0,0,1,.22,1.59c.32-.71.8-1.53,1.58-1.55a1.45,1.45,0,0,1,1.29,1.47,4.21,4.21,0,0,1-.66,2,2,2,0,0,1,1.58.25,1.39,1.39,0,0,1,.06,1.8,4,4,0,0,1-1.59,1.14.71.71,0,0,1,1,.47,1.07,1.07,0,0,1-.41,1.09A2.31,2.31,0,0,1,309.92,236.38Z" style="fill:#455a64"></path><g id="freepik--tree--inject-2"><path d="M313.51,163.68a9.08,9.08,0,0,0-5.28-5.15c-3.88-1.47-10.06-1.48-12.26,2.82-.82,1.59-.85,3.51-1.46,5.17-.87,2.37-3.27,3.74-5.21,5.11a10.22,10.22,0,0,0-3.63,11.24c.74,2.08,2.37,3.81,2.74,6,.43,2.55-1.35,5.14-1.92,7.56a19.77,19.77,0,0,0-.35,6.6c.68,5.73,6.64,9.3,11.78,10.47,5.93,1.35,12.91,1.14,18.42-1.63,3.07-1.54,5.76-3.39,6.9-6.77a10.29,10.29,0,0,0-1.34-8.42c-1.59-2.57-3.38-4.75-1.43-7.63,1.2-1.77,2.66-3.31,3.41-5.34a8.68,8.68,0,0,0-.15-5.47c-.63-1.84-2.22-3.2-3.73-4.36-1.7-1.3-4.13-2.42-5-4.5-.58-1.36-.44-2.77-.88-4.14A14.39,14.39,0,0,0,313.51,163.68Z" style="fill:#30DD8A"></path><path d="M313.51,163.68a9.08,9.08,0,0,0-5.28-5.15c-3.88-1.47-10.06-1.48-12.26,2.82-.82,1.59-.85,3.51-1.46,5.17-.87,2.37-3.27,3.74-5.21,5.11a10.22,10.22,0,0,0-3.63,11.24c.74,2.08,2.37,3.81,2.74,6,.43,2.55-1.35,5.14-1.92,7.56a19.77,19.77,0,0,0-.35,6.6c.68,5.73,6.64,9.3,11.78,10.47,5.93,1.35,12.91,1.14,18.42-1.63,3.07-1.54,5.76-3.39,6.9-6.77a10.29,10.29,0,0,0-1.34-8.42c-1.59-2.57-3.38-4.75-1.43-7.63,1.2-1.77,2.66-3.31,3.41-5.34a8.68,8.68,0,0,0-.15-5.47c-.63-1.84-2.22-3.2-3.73-4.36-1.7-1.3-4.13-2.42-5-4.5-.58-1.36-.44-2.77-.88-4.14A14.39,14.39,0,0,0,313.51,163.68Z" style="opacity:0.05"></path><path d="M313.51,163.68a9.08,9.08,0,0,0-5.28-5.15c-3.88-1.47-10.06-1.48-12.26,2.82-.82,1.59-.85,3.51-1.46,5.17-.87,2.37-3.27,3.74-5.21,5.11a10.22,10.22,0,0,0-3.63,11.24c.74,2.08,2.37,3.81,2.74,6,.43,2.55-1.35,5.14-1.92,7.56a19.77,19.77,0,0,0-.35,6.6c.68,5.73,6.64,9.3,11.78,10.47,5.93,1.35,12.91,1.14,18.42-1.63,3.07-1.54,5.76-3.39,6.9-6.77a10.29,10.29,0,0,0-1.34-8.42c-1.59-2.57-3.38-4.75-1.43-7.63,1.2-1.77,2.66-3.31,3.41-5.34a8.68,8.68,0,0,0-.15-5.47c-.63-1.84-2.22-3.2-3.73-4.36-1.7-1.3-4.13-2.42-5-4.5-.58-1.36-.44-2.77-.88-4.14A14.39,14.39,0,0,0,313.51,163.68Z" style="opacity:0.4"></path><path d="M318.44,210.73c-6.67,1.59-13.17,3.34-19.86.21-4.83-2.25-11-7-8.07-12.89,1.41-2.83,3.82-5.47,3.42-8.87-.36-3-2.38-4.38-4.42-6.28a12,12,0,0,1-3.87-6,9.68,9.68,0,0,0,0,6c.74,2.08,2.37,3.81,2.74,6,.43,2.55-1.35,5.14-1.92,7.56a19.77,19.77,0,0,0-.35,6.6c.68,5.73,6.64,9.3,11.78,10.47,5.93,1.35,12.91,1.14,18.42-1.63C317.07,211.52,317.77,211.14,318.44,210.73Z" style="opacity:0.1"></path><path d="M304,157.67a10,10,0,0,1,4.67,2.14,5.07,5.07,0,0,1,1.72,4.4c-.32,1.48-1.61,2.85-1.47,4.43a4.34,4.34,0,0,0,2.19,3.33c2.42,1.34,5.45,1.13,8.26,1.49-1.63-1.13-3.62-2.22-4.38-4.06-.58-1.36-.44-2.77-.88-4.14a14.39,14.39,0,0,0-.62-1.58,9.08,9.08,0,0,0-5.28-5.15A13.93,13.93,0,0,0,304,157.67Z" style="opacity:0.1"></path><path d="M322.59,198a10.52,10.52,0,0,0-.69-1.28c-1.59-2.57-3.38-4.75-1.43-7.63.37-.55.77-1.08,1.17-1.61-2.7.77-6.38,1.95-5.49,5.28C316.74,195,320.28,196.48,322.59,198Z" style="opacity:0.1"></path></g><path d="M295.91,201.86l8.42,16.69v-7.68l.86-32.72,1.24,32.72V216l9.26-16.17-9.26,19.85v14.65a.53.53,0,0,1-.3.43,1.63,1.63,0,0,1-1.49,0,.55.55,0,0,1-.31-.43V222.8Z" style="fill:#37474f"></path><path id="freepik--bush--inject-2" d="M304.5,237.49l-6.39-3.68a5.1,5.1,0,0,1-1.39-1.31,3.7,3.7,0,0,1-.78-1.65.85.85,0,0,1,.07-.63c.23-.34.77-.22,1.08.05a11.63,11.63,0,0,1,.87.86,9.71,9.71,0,0,1-.13-2.22,1,1,0,0,1,.27-.74.84.84,0,0,1,.9,0,3.84,3.84,0,0,1,1.48,2.36,7.64,7.64,0,0,1,.08-2.82c.22-1,1.38-1.4,1.77-.44a5.51,5.51,0,0,1,.34,1.6,6.62,6.62,0,0,1-.14,2.13,6.64,6.64,0,0,1,1.7-2.36,1,1,0,0,1,1-.35c.41.16.47.7.43,1.13a6,6,0,0,1-.87,2.57,5.45,5.45,0,0,1,2.16-.84.65.65,0,0,1,.68.22.86.86,0,0,1-.15.89,5.34,5.34,0,0,1-1.71,1.59,5.65,5.65,0,0,1,2.09-.22.71.71,0,0,1,.56.24c.18.26,0,.62-.27.84a5.92,5.92,0,0,1-1.49.9,2.05,2.05,0,0,1,.92.15.73.73,0,0,1,.44.76c-.06.3-.38.49-.67.59A4.41,4.41,0,0,1,304.5,237.49Z" style="fill:#30DD8A"></path><path id="freepik--bush--inject-2" d="M304.5,237.49l-6.39-3.68a5.1,5.1,0,0,1-1.39-1.31,3.7,3.7,0,0,1-.78-1.65.85.85,0,0,1,.07-.63c.23-.34.77-.22,1.08.05a11.63,11.63,0,0,1,.87.86,9.71,9.71,0,0,1-.13-2.22,1,1,0,0,1,.27-.74.84.84,0,0,1,.9,0,3.84,3.84,0,0,1,1.48,2.36,7.64,7.64,0,0,1,.08-2.82c.22-1,1.38-1.4,1.77-.44a5.51,5.51,0,0,1,.34,1.6,6.62,6.62,0,0,1-.14,2.13,6.64,6.64,0,0,1,1.7-2.36,1,1,0,0,1,1-.35c.41.16.47.7.43,1.13a6,6,0,0,1-.87,2.57,5.45,5.45,0,0,1,2.16-.84.65.65,0,0,1,.68.22.86.86,0,0,1-.15.89,5.34,5.34,0,0,1-1.71,1.59,5.65,5.65,0,0,1,2.09-.22.71.71,0,0,1,.56.24c.18.26,0,.62-.27.84a5.92,5.92,0,0,1-1.49.9,2.05,2.05,0,0,1,.92.15.73.73,0,0,1,.44.76c-.06.3-.38.49-.67.59A4.41,4.41,0,0,1,304.5,237.49Z" style="opacity:0.4"></path></g><g id="freepik--tree--inject-2"><path id="freepik--bush--inject-2" d="M419.36,310.25c-3.22.51-6.09-.38-6.59-3.85a31.11,31.11,0,0,1,0-8.62c.15-1,.51-2.25,1.52-2.52a1.92,1.92,0,0,1,2.07,1.17,5.62,5.62,0,0,1,.35,2.52c.51-1.12,1.27-2.42,2.5-2.45a2.29,2.29,0,0,1,2.05,2.31,6.68,6.68,0,0,1-1.05,3.23,3.11,3.11,0,0,1,2.5.39,2.19,2.19,0,0,1,.1,2.85,6.44,6.44,0,0,1-2.52,1.8,1.14,1.14,0,0,1,1.53.75,1.74,1.74,0,0,1-.66,1.73A3.75,3.75,0,0,1,419.36,310.25Z" style="fill:#455a64"></path><g id="freepik--tree--inject-2"><path d="M422.79,206.49a12.14,12.14,0,0,0-7.06-6.89c-5.21-2-13.48-2-16.42,3.76-1.09,2.13-1.14,4.71-1.95,6.94-1.16,3.16-4.39,5-7,6.84a13.65,13.65,0,0,0-4.84,15.05c1,2.77,3.17,5.09,3.66,8.05.57,3.42-1.81,6.88-2.57,10.12a26.25,26.25,0,0,0-.47,8.84c.91,7.68,8.89,12.45,15.77,14,7.94,1.8,17.29,1.52,24.67-2.19,4.1-2.06,7.71-4.53,9.23-9,1.25-3.73.23-8-1.79-11.28-2.13-3.44-4.53-6.36-1.92-10.22,1.61-2.37,3.56-4.43,4.56-7.15a11.61,11.61,0,0,0-.19-7.32c-.85-2.46-3-4.28-5-5.83-2.28-1.75-5.53-3.24-6.69-6-.76-1.83-.58-3.71-1.17-5.55A18.11,18.11,0,0,0,422.79,206.49Z" style="fill:#30DD8A"></path><path d="M422.79,206.49a12.14,12.14,0,0,0-7.06-6.89c-5.21-2-13.48-2-16.42,3.76-1.09,2.13-1.14,4.71-1.95,6.94-1.16,3.16-4.39,5-7,6.84a13.65,13.65,0,0,0-4.84,15.05c1,2.77,3.17,5.09,3.66,8.05.57,3.42-1.81,6.88-2.57,10.12a26.25,26.25,0,0,0-.47,8.84c.91,7.68,8.89,12.45,15.77,14,7.94,1.8,17.29,1.52,24.67-2.19,4.1-2.06,7.71-4.53,9.23-9,1.25-3.73.23-8-1.79-11.28-2.13-3.44-4.53-6.36-1.92-10.22,1.61-2.37,3.56-4.43,4.56-7.15a11.61,11.61,0,0,0-.19-7.32c-.85-2.46-3-4.28-5-5.83-2.28-1.75-5.53-3.24-6.69-6-.76-1.83-.58-3.71-1.17-5.55A18.11,18.11,0,0,0,422.79,206.49Z" style="opacity:0.05"></path><path d="M422.79,206.49a12.14,12.14,0,0,0-7.06-6.89c-5.21-2-13.48-2-16.42,3.76-1.09,2.13-1.14,4.71-1.95,6.94-1.16,3.16-4.39,5-7,6.84a13.65,13.65,0,0,0-4.84,15.05c1,2.77,3.17,5.09,3.66,8.05.57,3.42-1.81,6.88-2.57,10.12a26.25,26.25,0,0,0-.47,8.84c.91,7.68,8.89,12.45,15.77,14,7.94,1.8,17.29,1.52,24.67-2.19,4.1-2.06,7.71-4.53,9.23-9,1.25-3.73.23-8-1.79-11.28-2.13-3.44-4.53-6.36-1.92-10.22,1.61-2.37,3.56-4.43,4.56-7.15a11.61,11.61,0,0,0-.19-7.32c-.85-2.46-3-4.28-5-5.83-2.28-1.75-5.53-3.24-6.69-6-.76-1.83-.58-3.71-1.17-5.55A18.11,18.11,0,0,0,422.79,206.49Z" style="opacity:0.4"></path><path d="M429.39,269.48c-8.93,2.12-17.62,4.48-26.59.29-6.46-3-14.77-9.34-10.81-17.27,1.9-3.79,5.12-7.32,4.58-11.88-.47-4-3.18-5.85-5.91-8.4-2.35-2.2-4.56-4.93-5.18-8.07a12.85,12.85,0,0,0,0,8c1,2.77,3.17,5.09,3.66,8.05.57,3.42-1.81,6.88-2.57,10.12a26.25,26.25,0,0,0-.47,8.84c.91,7.68,8.89,12.45,15.77,14,7.94,1.8,17.29,1.52,24.67-2.19C427.56,270.55,428.5,270,429.39,269.48Z" style="opacity:0.1"></path><path d="M410.08,198.44a13.57,13.57,0,0,1,6.26,2.87c1.53,1.34,2.75,3.86,2.3,5.89s-2.15,3.82-2,5.93a5.87,5.87,0,0,0,2.93,4.46c3.25,1.79,7.31,1.51,11.06,2-2.18-1.51-4.84-3-5.87-5.43-.76-1.83-.58-3.71-1.17-5.55a18.11,18.11,0,0,0-.83-2.11,12.14,12.14,0,0,0-7.06-6.89A18.84,18.84,0,0,0,410.08,198.44Z" style="opacity:0.1"></path><path d="M435,252.42a14.1,14.1,0,0,0-.92-1.72c-2.13-3.44-4.53-6.36-1.92-10.22.5-.74,1-1.45,1.57-2.16-3.61,1-8.54,2.61-7.35,7.07C427.12,248.35,431.86,250.4,435,252.42Z" style="opacity:0.1"></path></g><path d="M399.23,257.6,410.51,280V269.66l1.14-43.79,1.67,43.79v6.92l12.38-21.66-12.38,26.59v27.9a.71.71,0,0,1-.41.58,2.18,2.18,0,0,1-2,0,.69.69,0,0,1-.41-.58V285.65Z" style="fill:#37474f"></path><path id="freepik--bush--inject-2" d="M410.77,312l-10.11-5.84a8,8,0,0,1-2.19-2.06,5.76,5.76,0,0,1-1.23-2.62,1.37,1.37,0,0,1,.1-1c.37-.53,1.23-.35,1.71.09s.87.81,1.38,1.36a15.3,15.3,0,0,1-.2-3.51,1.6,1.6,0,0,1,.43-1.17,1.31,1.31,0,0,1,1.41,0c1.33.72,1.89,2.29,2.35,3.73a12,12,0,0,1,.13-4.47c.35-1.59,2.18-2.21,2.8-.69a9.14,9.14,0,0,1,.54,2.54,10.81,10.81,0,0,1-.23,3.36,10.62,10.62,0,0,1,2.69-3.73,1.63,1.63,0,0,1,1.56-.55c.64.25.75,1.1.68,1.78a9.53,9.53,0,0,1-1.38,4.07,8.49,8.49,0,0,1,3.42-1.33,1,1,0,0,1,1.07.35,1.36,1.36,0,0,1-.23,1.4,8.48,8.48,0,0,1-2.72,2.53,8.63,8.63,0,0,1,3.31-.35,1.18,1.18,0,0,1,.89.37c.29.42-.05,1-.42,1.34a9.53,9.53,0,0,1-2.36,1.41,3.44,3.44,0,0,1,1.46.25,1.16,1.16,0,0,1,.69,1.2,1.48,1.48,0,0,1-1.07.94C413.28,312.11,412.73,312.33,410.77,312Z" style="fill:#30DD8A"></path><path id="freepik--bush--inject-2" d="M410.77,312l-10.11-5.84a8,8,0,0,1-2.19-2.06,5.76,5.76,0,0,1-1.23-2.62,1.37,1.37,0,0,1,.1-1c.37-.53,1.23-.35,1.71.09s.87.81,1.38,1.36a15.3,15.3,0,0,1-.2-3.51,1.6,1.6,0,0,1,.43-1.17,1.31,1.31,0,0,1,1.41,0c1.33.72,1.89,2.29,2.35,3.73a12,12,0,0,1,.13-4.47c.35-1.59,2.18-2.21,2.8-.69a9.14,9.14,0,0,1,.54,2.54,10.81,10.81,0,0,1-.23,3.36,10.62,10.62,0,0,1,2.69-3.73,1.63,1.63,0,0,1,1.56-.55c.64.25.75,1.1.68,1.78a9.53,9.53,0,0,1-1.38,4.07,8.49,8.49,0,0,1,3.42-1.33,1,1,0,0,1,1.07.35,1.36,1.36,0,0,1-.23,1.4,8.48,8.48,0,0,1-2.72,2.53,8.63,8.63,0,0,1,3.31-.35,1.18,1.18,0,0,1,.89.37c.29.42-.05,1-.42,1.34a9.53,9.53,0,0,1-2.36,1.41,3.44,3.44,0,0,1,1.46.25,1.16,1.16,0,0,1,.69,1.2,1.48,1.48,0,0,1-1.07.94C413.28,312.11,412.73,312.33,410.77,312Z" style="opacity:0.4"></path></g></g><g id="freepik--River--inject-2"><g id="freepik--river--inject-2"><path d="M319.05,290.29c-82.13-28.31-151.32-17.79-130-40,15.76-16.37,46.17-29.92,59-35.17q-12.57.06-25.1.9c-14.79,5.11-87.29,31.05-94.85,50.69C111.88,309,278.43,301.93,237.8,320.69,198.39,338.9,55.7,354.9,43.57,409.41c10.78,12.23,25,23.7,42.72,33.93C108,455.88,133,465.41,159.67,471.92c-6.32-8.33-39-58.1,53.76-90.25C315,346.49,390,314.74,319.05,290.29Z" style="fill:#30DD8A"></path><path d="M319.05,290.29c-82.13-28.31-151.32-17.79-130-40,15.76-16.37,46.17-29.92,59-35.17q-12.57.06-25.1.9c-14.79,5.11-87.29,31.05-94.85,50.69C111.88,309,278.43,301.93,237.8,320.69,198.39,338.9,55.7,354.9,43.57,409.41c10.78,12.23,25,23.7,42.72,33.93C108,455.88,133,465.41,159.67,471.92c-6.32-8.33-39-58.1,53.76-90.25C315,346.49,390,314.74,319.05,290.29Z" style="fill:#fff;opacity:0.7000000000000001"></path><path d="M156.81,396.77c-2.47,1.1-10.55,4.06-8.34,7.5,1.62,2.52,4.76,1.82,4.09,6-.6,3.75-5.55,6.22-8.56,8-7.34,4.32-15.44,6.85-23,10.65-3.1,1.54-11.77,5-8.6,9.86,2.54,3.86,8.37,4.33,9.76,9.46,1.12,4.12-1.17,7.71-4.27,10.3a308.07,308.07,0,0,0,41.83,13.34c-6.19-8.15-37.68-56,48.15-88.22-5.28.26-10.65,1.93-15.75,3.18C180.32,389.74,167.92,391.82,156.81,396.77Zm96.05-53.67c-1.46-1.17-8.33-2.46-5.38-5.46,1.64-1.66,4.63-2.22,6.82-2.77,6.3-1.57,12.74-1.85,19.11-3.13,5.46-1.1,11.83-2.46,17.2-4a74.32,74.32,0,0,0,15.46-6.42c2.58-1.42,4.95-4.1,4.8-7.38-.39-8.38-18.09-9.7-23.6-10.73-13-2.42-26.18-2.36-39.32-3.56-8.86-.8-17.84-1.54-26.83-1.92-2.41-.54-5.16-.6-7.31-1a102.58,102.58,0,0,0-16.43-1.23c-9.15,0-18.11.13-27.22-.38.57-2.05,3.76-3,5.82-3.27-.84-3.82-17.2-4-20.71-4.32-4.64-.42-10.87,1.17-13.53-2.48-.9-1.23,0-2.42-1.92-3.52-1.52-.87-5.85.54-6.26-1.37-.47-2.2,11-6.42,4-8.89.08-2.82,4.91-4.85,7.73-6.82a15.49,15.49,0,0,0,2.15.8,34.83,34.83,0,0,0,8,1.18c15,.64,30-.29,45-.29l3.58,0c-3.57-.65-6.7-1.32-9.32-2.05-4.45-.09-8.91-.09-13.35.09-8.88.36-17.58.49-26.48.08a38.84,38.84,0,0,1-8.14-1,1.6,1.6,0,0,0,.26-2.19c-1.3-1.8-5,.42-5.56-1.77-.41-1.49,3.27-4.56,4.17-5.25,9-6.84,22.21-10.33,33.09-12.4,1.21-.23,10-.76,10.37-2,.84-3.07-5.75-1.45-6.62-2.23-3.63-3.27,13.91-6.85,15.93-7.26,3.61-.72,9.5-.92,12.63-2.52,3.41-1.76-.09-2.33-2.59-3.26,1.49-2.56,20.1-2.68,12.33-7.19a4.42,4.42,0,0,1,.53-.53c-18,6.3-85.8,31.13-93.1,50.09-6.87,17.84,18.9,26.88,47.88,32.79h0c39.62,8.08,85.25,10.32,61.79,21.15C198.39,338.9,55.7,354.9,43.57,409.41a144.33,144.33,0,0,0,14.81,14.45c3.93-3.67,9.26-5.77,14.94-8.66,4.05-2.07,14.56-6.55,10.61-12.76-2.93-4.6-14.26-3.79-14.35-10.53-.07-5.18,8.93-8.81,12.76-10.4,8.71-3.62,18.33-5.73,27.6-7.3,5.88-1,13.09-2,18.51-4.2-2.39-4.88-12-1.62-13.79-5.26-1.7-3.38,13-5,14.88-5.31,10.46-2,20.79-2,31.4-2.59a217.47,217.47,0,0,0,28.37-4c2.65-.51,10.57-1.29,12.22-3.78s-1.15-5.3-2.41-7.06c-1.8-2.52-3.08-3.35.28-5.47,3.7-2.33,9.84-2.61,14-3.4,4.86-.92,44-3.86,38-13.41-2.14-3.41-4.61-3.17-.4-6.28,3.95-2.91,3.42-4-1.58-5.48a153.8,153.8,0,0,0-16.24-3.5c-3.77-.65-14.7.7-17.07-2.36,1.54-1.69,4.45-1.51,6.73-2.16,5.13.14,10.26.4,15.37.94,8.29.87,18.6,1.31,26.92,1.93,8.88.67,22.2,1.86,30.92,3.84,3.4.77,16.73,6.49,9.12,11.62-5.81,3.91-12.17,5.71-20.71,7.93A149.71,149.71,0,0,1,266.27,330c-5.79.76-11.65,1.48-17.24,3.23-2.09.65-8,2.37-7.25,5.63.53,2.42,6.47,4.35,8.24,5.66,2.36,1.74,5.2,5.08,4.2,8.24-1.1,3.54-6.25,5.22-9.19,6.52-8.31,3.66-16.5,8.29-23.26,14.4-2.35,2.12-3.64,3.84-4.07,6.51l2.92-1c.21-.39.43-.77.67-1.14a29.11,29.11,0,0,1,7.57-7.19,84.59,84.59,0,0,1,13.88-7c4.33-1.8,9.87-4.15,13-7.71,1.25-1.41,2.14-2.44,2.16-4.33C258,347.65,256,345.59,252.86,343.1ZM306.41,325c-6.73,3.75-15,4.56-22.25,6.74-4.27,1.27-8.74,2.1-13.06,3.16-2.53.62-6.3,1.13-8.19,3.11-2.72,2.86,4,5.17,5.46,7a5.13,5.13,0,0,1-.27,6.62,23,23,0,0,1-4.78,3.64c-1.07.72-2.38,2-3.57,2.32,3.79-1.45,10.86-4,11.75-8.49s-3.77-5.6-6-8.43c-1.26-1.58-.76-2.18.88-2.92a39.91,39.91,0,0,1,7.32-2c6.78-1.6,13.5-3.21,20.22-5a91.38,91.38,0,0,0,13.5-4.3c3.32-1.5,9.89-7.55,8.38-12.61C316.13,318.15,309.66,323.18,306.41,325Zm12.64-34.71c-33.27-11.47-64.41-16.56-88.27-20l-.36.18a20.32,20.32,0,0,1-5.61.72,79,79,0,0,1-8.71.18C210,271,203.88,270,197.74,270c-2.92,0-5.86-.13-8.77,0-3.33.14-6.57,1-9.89,1.26-3.77.26-7.47.6-11.25.6-2.79,0-5.68-.53-8.42-.4,1.79,2.22,6.17,1.71,8.72,1.82,4.21.19,8.39.67,12.62.37,8.67-.63,17-2,25.75-.66,9.26,1.44,18.69,3,28.08,3,2.74,0,5.5,0,8.22-.13,4.21-.22,9.71-.7,13.36,2.05,2.3,1.74-.89,2.18-2.42,2.78s-4.56,2.43-2.06,4.1c3.52,2.34,9.59,1.81,13.58,2.11q13.82,1,27.59,2.47A72.25,72.25,0,0,1,302,290.6c1.79.44,3.95,1.29,1.39,2.54-1.42.7-5.85,1.33-6.08,3.42-.53,4.76,18.08,2.66,20.32,2.91,3,.33,13.36.84,11.06,4.67-1.1,1.84-5.31,2-4.65,4.69s6.51,1.83,8.63,2.14c11.06,1.59,6.6,12.4,1.45,18.35-.32.37-.63.72-.95,1.05C353.52,315.6,353.29,302.09,319.05,290.29Z" style="fill:#fff;opacity:0.4"></path></g></g><g id="freepik--Plants--inject-2"><g id="freepik--Bullrush--inject-2"><path d="M233.63,318h0c-.08,1.1-.19,2.17-.34,3.19h0c-.06.5-.14,1-.22,1.46v0h0l-.72.27a0,0,0,0,1,0,0l-.2.08h0s0,0,0-.05c0-.18.07-.35.11-.53a45.82,45.82,0,0,0,.7-4.77h0a42.3,42.3,0,0,0,.14-6.07c0-.71-.09-1.38-.17-2a40.14,40.14,0,0,0-.74-4.23c-.1-.47-.21-.84-.28-1.1s-.15-.49-.12-.5a1.72,1.72,0,0,1,.21.5l.37,1.12a26.72,26.72,0,0,1,.94,4.3c.09.62.17,1.23.23,1.83A37.86,37.86,0,0,1,233.63,318Z" style="fill:#30DD8A"></path><path d="M233.63,318h0c-.08,1.1-.19,2.17-.34,3.19h0c-.06.5-.14,1-.22,1.46v0h0l-.72.27a0,0,0,0,1,0,0l-.2.08h0s0,0,0-.05c0-.18.07-.35.11-.53a45.82,45.82,0,0,0,.7-4.77h0a42.3,42.3,0,0,0,.14-6.07c0-.71-.09-1.38-.17-2a40.14,40.14,0,0,0-.74-4.23c-.1-.47-.21-.84-.28-1.1s-.15-.49-.12-.5a1.72,1.72,0,0,1,.21.5l.37,1.12a26.72,26.72,0,0,1,.94,4.3c.09.62.17,1.23.23,1.83A37.86,37.86,0,0,1,233.63,318Z" style="opacity:0.30000000000000004"></path><path d="M238.71,305.43v.26a29.37,29.37,0,0,1-.55,5.38c0,.28-.11.55-.16.82a41,41,0,0,1-3.68,10.3l-.75.3-.18.07-.32.13h0v0c.1-.17.2-.34.29-.51s.35-.63.51-.94a43.5,43.5,0,0,0,3.68-9.39c.08-.31.15-.6.22-.89a38.08,38.08,0,0,0,.78-5.32c0-.08,0-.15,0-.22a13,13,0,0,1,.08-1.43A8.66,8.66,0,0,1,238.71,305.43Z" style="fill:#30DD8A"></path><path d="M238.71,305.43v.26a29.37,29.37,0,0,1-.55,5.38c0,.28-.11.55-.16.82a41,41,0,0,1-3.68,10.3l-.75.3-.18.07-.32.13h0v0c.1-.17.2-.34.29-.51s.35-.63.51-.94a43.5,43.5,0,0,0,3.68-9.39c.08-.31.15-.6.22-.89a38.08,38.08,0,0,0,.78-5.32c0-.08,0-.15,0-.22a13,13,0,0,1,.08-1.43A8.66,8.66,0,0,1,238.71,305.43Z" style="opacity:0.30000000000000004"></path><path d="M231.35,323.34l-.13.05-.69.25a42.8,42.8,0,0,0-5.18-9.49,36,36,0,0,0-4.15-4.73c-.75-.75-1.25-1.08-1.21-1.13a12.27,12.27,0,0,1,1.37,1,30.86,30.86,0,0,1,4.32,4.49,40.7,40.7,0,0,1,5.45,9h0Z" style="fill:#30DD8A"></path><path d="M231.35,323.34l-.13.05-.69.25a42.8,42.8,0,0,0-5.18-9.49,36,36,0,0,0-4.15-4.73c-.75-.75-1.25-1.08-1.21-1.13a12.27,12.27,0,0,1,1.37,1,30.86,30.86,0,0,1,4.32,4.49,40.7,40.7,0,0,1,5.45,9h0Z" style="opacity:0.30000000000000004"></path><path d="M232.34,322.94v0a0,0,0,0,1,0,0l-.2.08h0l-.77.29-.13.05-.09-.54h0a59.71,59.71,0,0,0-4.35-14.31l-.12-.25c-.26-.56-.52-1.1-.78-1.6-.47-.93-.94-1.77-1.39-2.52-.55-.93-1.07-1.72-1.51-2.4h0c-.15-.21-.29-.41-.41-.61-.26-.4-.5-.73-.7-1-.4-.53-.64-.8-.6-.83a5.15,5.15,0,0,1,.75.8c.28.33.57.7.78,1s.24.29.34.44a.1.1,0,0,1,.05.06,0,0,0,0,1,0,0,29.31,29.31,0,0,1,1.81,2.58c.48.74.92,1.49,1.34,2.24q.49.9,1,1.8l.11.21a55.55,55.55,0,0,1,4.7,13.45h0c0,.2.09.39.13.58S232.31,322.79,232.34,322.94Z" style="fill:#30DD8A"></path><path d="M232.34,322.94v0a0,0,0,0,1,0,0l-.2.08h0l-.77.29-.13.05-.09-.54h0a59.71,59.71,0,0,0-4.35-14.31l-.12-.25c-.26-.56-.52-1.1-.78-1.6-.47-.93-.94-1.77-1.39-2.52-.55-.93-1.07-1.72-1.51-2.4h0c-.15-.21-.29-.41-.41-.61-.26-.4-.5-.73-.7-1-.4-.53-.64-.8-.6-.83a5.15,5.15,0,0,1,.75.8c.28.33.57.7.78,1s.24.29.34.44a.1.1,0,0,1,.05.06,0,0,0,0,1,0,0,29.31,29.31,0,0,1,1.81,2.58c.48.74.92,1.49,1.34,2.24q.49.9,1,1.8l.11.21a55.55,55.55,0,0,1,4.7,13.45h0c0,.2.09.39.13.58S232.31,322.79,232.34,322.94Z" style="opacity:0.2"></path><path d="M222.91,301.7s-.37.36.06,1.22,1.7,2.89,2.21,3.62c.32.46,1.65,0,1.27-.81a24.44,24.44,0,0,0-2.12-3.54c-.52-.68-.83-.87-1.2-.67l0,.05s0,.11-.06.17-.13,0-.16,0Z" style="fill:#455a64"></path><path d="M235.28,308.8c0,.47,0,.95,0,1.41a49.74,49.74,0,0,1-1.41,11c-.1.44-.2.86-.3,1.27l-.18.07-.32.13h0l-.72.27v0c.32-1,.6-2,.85-3,.16-.63.31-1.27.44-1.89h0a54.67,54.67,0,0,0,1.06-7.93c0-.42,0-.82.05-1.21,0-.64,0-1.25,0-1.83,0-.84-.06-1.62-.11-2.34-.09-1.05-.2-2-.3-2.73,0-.23-.06-.44-.09-.65s-.09-.59-.14-.83a4.45,4.45,0,0,1-.18-1.13,5.44,5.44,0,0,1,.33,1.14c.07.31.14.63.2.86s.08.38.11.57c.2.95.34,1.9.45,2.84.09.75.15,1.5.19,2.24S235.26,308.2,235.28,308.8Z" style="fill:#30DD8A"></path><path d="M235.28,308.8c0,.47,0,.95,0,1.41a49.74,49.74,0,0,1-1.41,11c-.1.44-.2.86-.3,1.27l-.18.07-.32.13h0l-.72.27v0c.32-1,.6-2,.85-3,.16-.63.31-1.27.44-1.89h0a54.67,54.67,0,0,0,1.06-7.93c0-.42,0-.82.05-1.21,0-.64,0-1.25,0-1.83,0-.84-.06-1.62-.11-2.34-.09-1.05-.2-2-.3-2.73,0-.23-.06-.44-.09-.65s-.09-.59-.14-.83a4.45,4.45,0,0,1-.18-1.13,5.44,5.44,0,0,1,.33,1.14c.07.31.14.63.2.86s.08.38.11.57c.2.95.34,1.9.45,2.84.09.75.15,1.5.19,2.24S235.26,308.2,235.28,308.8Z" style="opacity:0.2"></path><path d="M234.32,301.89s-.44.14-.43,1,.22,3,.35,3.76c.08.49,1.32.63,1.33-.16a23.35,23.35,0,0,0-.31-3.65c-.15-.75-.33-1-.7-1v.05c0,.05,0,.1-.11.11s-.12,0-.14-.05Z" style="fill:#455a64"></path><path d="M233.39,322.56l-.32.13h0l-.72.27a0,0,0,0,1,0,0l-.2.08V323c0-.37,0-.75,0-1.11h0a60.49,60.49,0,0,0-1.71-12.83c-.31-1.24-.64-2.42-1-3.5-.15-.46-.3-.91-.45-1.34a42.48,42.48,0,0,0-1.72-4.15c-.37-.8-.71-1.49-1-2.08,0-.09-.1-.18-.14-.27-.65-1.28-1.15-1.91-1.08-2a16.82,16.82,0,0,1,1.32,1.94l.19.31c.42.69.81,1.39,1.17,2.09a40.72,40.72,0,0,1,1.85,4.14c.15.36.29.71.42,1.07.5,1.32.93,2.64,1.29,3.94a55.34,55.34,0,0,1,1.7,8.46h0c.1.76.18,1.49.25,2.2,0,.44.07.87.1,1.3h0c0,.32.05.64.07,1Z" style="fill:#30DD8A"></path><path d="M233.39,322.56l-.32.13h0l-.72.27a0,0,0,0,1,0,0l-.2.08V323c0-.37,0-.75,0-1.11h0a60.49,60.49,0,0,0-1.71-12.83c-.31-1.24-.64-2.42-1-3.5-.15-.46-.3-.91-.45-1.34a42.48,42.48,0,0,0-1.72-4.15c-.37-.8-.71-1.49-1-2.08,0-.09-.1-.18-.14-.27-.65-1.28-1.15-1.91-1.08-2a16.82,16.82,0,0,1,1.32,1.94l.19.31c.42.69.81,1.39,1.17,2.09a40.72,40.72,0,0,1,1.85,4.14c.15.36.29.71.42,1.07.5,1.32.93,2.64,1.29,3.94a55.34,55.34,0,0,1,1.7,8.46h0c.1.76.18,1.49.25,2.2,0,.44.07.87.1,1.3h0c0,.32.05.64.07,1Z" style="opacity:0.2"></path></g><g id="freepik--bullrush--inject-2"><path d="M195.51,261.91h0c.12.61.25,1.21.41,1.78h0c.06.28.14.55.22.81h0l.43.1h0l.12,0h0a0,0,0,0,1,0,0c0-.1-.07-.19-.1-.29a24.64,24.64,0,0,1-.72-2.66h0a25.82,25.82,0,0,1-.5-3.43c0-.41,0-.79,0-1.15,0-1,.08-1.85.13-2.45,0-.27.07-.49.09-.64s.05-.29,0-.29a1,1,0,0,0-.08.29c0,.22-.1.49-.14.66a16.77,16.77,0,0,0-.24,2.51c0,.35,0,.71,0,1.05A22.1,22.1,0,0,0,195.51,261.91Z" style="fill:#30DD8A"></path><path d="M195.51,261.91h0c.12.61.25,1.21.41,1.78h0c.06.28.14.55.22.81h0l.43.1h0l.12,0h0a0,0,0,0,1,0,0c0-.1-.07-.19-.1-.29a24.64,24.64,0,0,1-.72-2.66h0a25.82,25.82,0,0,1-.5-3.43c0-.41,0-.79,0-1.15,0-1,.08-1.85.13-2.45,0-.27.07-.49.09-.64s.05-.29,0-.29a1,1,0,0,0-.08.29c0,.22-.1.49-.14.66a16.77,16.77,0,0,0-.24,2.51c0,.35,0,.71,0,1.05A22.1,22.1,0,0,0,195.51,261.91Z" style="opacity:0.30000000000000004"></path><path d="M191.77,255.14l0,.15a16.93,16.93,0,0,0,.68,3l.15.45a23,23,0,0,0,2.79,5.59l.45.12.1,0,.19.05h0a0,0,0,0,1,0,0l-.2-.27c-.12-.16-.24-.33-.35-.5a24.86,24.86,0,0,1-2.73-5.07c-.07-.17-.13-.33-.19-.49a21,21,0,0,1-.8-3l0-.13c-.1-.51-.11-.81-.14-.8A4.62,4.62,0,0,0,191.77,255.14Z" style="fill:#30DD8A"></path><path d="M191.77,255.14l0,.15a16.93,16.93,0,0,0,.68,3l.15.45a23,23,0,0,0,2.79,5.59l.45.12.1,0,.19.05h0a0,0,0,0,1,0,0l-.2-.27c-.12-.16-.24-.33-.35-.5a24.86,24.86,0,0,1-2.73-5.07c-.07-.17-.13-.33-.19-.49a21,21,0,0,1-.8-3l0-.13c-.1-.51-.11-.81-.14-.8A4.62,4.62,0,0,0,191.77,255.14Z" style="opacity:0.30000000000000004"></path><path d="M197.17,264.79l.08,0,.41.1a24.2,24.2,0,0,1,2.29-5.74,20.22,20.22,0,0,1,2-3c.37-.48.63-.7.61-.73a7.72,7.72,0,0,0-.71.69,17.47,17.47,0,0,0-2.14,2.84,23.59,23.59,0,0,0-2.48,5.48h0Z" style="fill:#30DD8A"></path><path d="M197.17,264.79l.08,0,.41.1a24.2,24.2,0,0,1,2.29-5.74,20.22,20.22,0,0,1,2-3c.37-.48.63-.7.61-.73a7.72,7.72,0,0,0-.71.69,17.47,17.47,0,0,0-2.14,2.84,23.59,23.59,0,0,0-2.48,5.48h0Z" style="opacity:0.30000000000000004"></path><path d="M196.58,264.63h0l.12,0h0l.45.11.08,0v-.31h0a34.45,34.45,0,0,1,1.49-8.41c0-.05,0-.1.05-.15.11-.33.22-.66.34-1,.2-.56.41-1.07.61-1.52s.49-1,.69-1.47h0c.07-.13.13-.25.19-.38s.23-.44.33-.61c.19-.32.31-.49.28-.51a3.71,3.71,0,0,0-.37.51c-.14.2-.27.43-.38.6l-.16.27s0,0,0,0h0c-.31.52-.6,1.05-.85,1.58s-.42.91-.6,1.37-.29.72-.42,1.08c0,0,0,.09-.05.13a31.35,31.35,0,0,0-1.75,7.95h0l0,.34Z" style="fill:#30DD8A"></path><path d="M196.58,264.63h0l.12,0h0l.45.11.08,0v-.31h0a34.45,34.45,0,0,1,1.49-8.41c0-.05,0-.1.05-.15.11-.33.22-.66.34-1,.2-.56.41-1.07.61-1.52s.49-1,.69-1.47h0c.07-.13.13-.25.19-.38s.23-.44.33-.61c.19-.32.31-.49.28-.51a3.71,3.71,0,0,0-.37.51c-.14.2-.27.43-.38.6l-.16.27s0,0,0,0h0c-.31.52-.6,1.05-.85,1.58s-.42.91-.6,1.37-.29.72-.42,1.08c0,0,0,.09-.05.13a31.35,31.35,0,0,0-1.75,7.95h0l0,.34Z" style="opacity:0.2"></path><path d="M200.47,251.94s.24.18.05.7-.76,1.76-1,2.2c-.15.29-.94.11-.78-.37a14.12,14.12,0,0,1,1-2.15c.25-.42.41-.55.64-.46l0,0s0,.06.05.09a.07.07,0,0,0,.09,0Z" style="fill:#455a64"></path><path d="M194,256.82c0,.26.06.54.1.8a27.83,27.83,0,0,0,1.55,6.14c.09.25.17.48.26.7l.1,0,.19.05h0l.43.1h0c-.25-.56-.48-1.11-.69-1.66-.13-.35-.26-.7-.37-1h0a31.76,31.76,0,0,1-1.14-4.42c0-.24-.08-.46-.11-.68s-.1-.71-.13-1c0-.48-.08-.92-.1-1.33,0-.6,0-1.13,0-1.57,0-.13,0-.26,0-.38s0-.34,0-.48a2.67,2.67,0,0,0,0-.65,2.94,2.94,0,0,0-.11.67c0,.18,0,.37-.06.5s0,.22,0,.33c0,.55-.06,1.1-.06,1.64s0,.86.05,1.29S193.92,256.47,194,256.82Z" style="fill:#30DD8A"></path><path d="M194,256.82c0,.26.06.54.1.8a27.83,27.83,0,0,0,1.55,6.14c.09.25.17.48.26.7l.1,0,.19.05h0l.43.1h0c-.25-.56-.48-1.11-.69-1.66-.13-.35-.26-.7-.37-1h0a31.76,31.76,0,0,1-1.14-4.42c0-.24-.08-.46-.11-.68s-.1-.71-.13-1c0-.48-.08-.92-.1-1.33,0-.6,0-1.13,0-1.57,0-.13,0-.26,0-.38s0-.34,0-.48a2.67,2.67,0,0,0,0-.65,2.94,2.94,0,0,0-.11.67c0,.18,0,.37-.06.5s0,.22,0,.33c0,.55-.06,1.1-.06,1.64s0,.86.05,1.29S193.92,256.47,194,256.82Z" style="opacity:0.2"></path><path d="M194,252.83s.26,0,.31.54.08,1.7.06,2.15c0,.28-.71.45-.76,0a12.26,12.26,0,0,1-.08-2.09c0-.43.12-.6.33-.62v0s0,.06.07.06a.07.07,0,0,0,.07,0Z" style="fill:#455a64"></path><path d="M196,264.49l.19.05h0l.43.1h0l.12,0v0c0-.21-.05-.42-.07-.63h0a34.66,34.66,0,0,1,.09-7.4c.1-.72.2-1.41.33-2.05.05-.27.1-.53.16-.79a24.46,24.46,0,0,1,.69-2.47c.16-.48.3-.89.43-1.25a1,1,0,0,0,.06-.16c.28-.77.52-1.16.48-1.19a9.48,9.48,0,0,0-.62,1.19,1.54,1.54,0,0,1-.08.19c-.19.42-.37.84-.52,1.26a24.3,24.3,0,0,0-.77,2.48c-.06.21-.11.42-.16.63-.2.79-.35,1.56-.47,2.32a31.81,31.81,0,0,0-.38,4.92h0c0,.44,0,.86,0,1.27,0,.25,0,.5,0,.74h0c0,.18,0,.36,0,.54A1.85,1.85,0,0,1,196,264.49Z" style="fill:#30DD8A"></path><path d="M196,264.49l.19.05h0l.43.1h0l.12,0v0c0-.21-.05-.42-.07-.63h0a34.66,34.66,0,0,1,.09-7.4c.1-.72.2-1.41.33-2.05.05-.27.1-.53.16-.79a24.46,24.46,0,0,1,.69-2.47c.16-.48.3-.89.43-1.25a1,1,0,0,0,.06-.16c.28-.77.52-1.16.48-1.19a9.48,9.48,0,0,0-.62,1.19,1.54,1.54,0,0,1-.08.19c-.19.42-.37.84-.52,1.26a24.3,24.3,0,0,0-.77,2.48c-.06.21-.11.42-.16.63-.2.79-.35,1.56-.47,2.32a31.81,31.81,0,0,0-.38,4.92h0c0,.44,0,.86,0,1.27,0,.25,0,.5,0,.74h0c0,.18,0,.36,0,.54A1.85,1.85,0,0,1,196,264.49Z" style="opacity:0.2"></path></g><g id="freepik--bullrush--inject-2"><path d="M322.21,287h0c.08,1.1.19,2.17.34,3.19h0c.06.5.14,1,.22,1.46v0h0l.72.27h0l.2.08h0s0,0,0,0c0-.18-.07-.35-.11-.53a45.82,45.82,0,0,1-.7-4.77h0a42.3,42.3,0,0,1-.14-6.07c0-.71.09-1.38.17-2a40.14,40.14,0,0,1,.74-4.23c.1-.47.21-.84.28-1.1s.15-.49.12-.5a1.72,1.72,0,0,0-.21.5l-.37,1.12a26.72,26.72,0,0,0-.94,4.3c-.09.62-.17,1.23-.23,1.83A37.86,37.86,0,0,0,322.21,287Z" style="fill:#30DD8A"></path><path d="M322.21,287h0c.08,1.1.19,2.17.34,3.19h0c.06.5.14,1,.22,1.46v0h0l.72.27h0l.2.08h0s0,0,0,0c0-.18-.07-.35-.11-.53a45.82,45.82,0,0,1-.7-4.77h0a42.3,42.3,0,0,1-.14-6.07c0-.71.09-1.38.17-2a40.14,40.14,0,0,1,.74-4.23c.1-.47.21-.84.28-1.1s.15-.49.12-.5a1.72,1.72,0,0,0-.21.5l-.37,1.12a26.72,26.72,0,0,0-.94,4.3c-.09.62-.17,1.23-.23,1.83A37.86,37.86,0,0,0,322.21,287Z" style="opacity:0.30000000000000004"></path><path d="M317.13,274.4v.26a29.37,29.37,0,0,0,.55,5.38c.05.28.11.55.16.82a41,41,0,0,0,3.68,10.3l.75.3.18.07.32.13h0s0,0,0,0c-.1-.17-.2-.34-.29-.51s-.35-.63-.51-.94a43.5,43.5,0,0,1-3.68-9.39c-.08-.31-.15-.6-.22-.89a38.08,38.08,0,0,1-.78-5.32c0-.08,0-.15,0-.22a13,13,0,0,0-.08-1.43A8.66,8.66,0,0,0,317.13,274.4Z" style="fill:#30DD8A"></path><path d="M317.13,274.4v.26a29.37,29.37,0,0,0,.55,5.38c.05.28.11.55.16.82a41,41,0,0,0,3.68,10.3l.75.3.18.07.32.13h0s0,0,0,0c-.1-.17-.2-.34-.29-.51s-.35-.63-.51-.94a43.5,43.5,0,0,1-3.68-9.39c-.08-.31-.15-.6-.22-.89a38.08,38.08,0,0,1-.78-5.32c0-.08,0-.15,0-.22a13,13,0,0,0-.08-1.43A8.66,8.66,0,0,0,317.13,274.4Z" style="opacity:0.30000000000000004"></path><path d="M324.49,292.31l.13.05.69.25a42.8,42.8,0,0,1,5.18-9.49,36,36,0,0,1,4.15-4.73c.75-.75,1.25-1.08,1.21-1.13a12.27,12.27,0,0,0-1.37,1.05,30.86,30.86,0,0,0-4.32,4.49,40.7,40.7,0,0,0-5.45,9h0Z" style="fill:#30DD8A"></path><path d="M324.49,292.31l.13.05.69.25a42.8,42.8,0,0,1,5.18-9.49,36,36,0,0,1,4.15-4.73c.75-.75,1.25-1.08,1.21-1.13a12.27,12.27,0,0,0-1.37,1.05,30.86,30.86,0,0,0-4.32,4.49,40.7,40.7,0,0,0-5.45,9h0Z" style="opacity:0.30000000000000004"></path><path d="M323.5,291.91v0h0l.2.08h0l.77.29.13.05.09-.54h0a59.71,59.71,0,0,1,4.35-14.31l.12-.25c.26-.56.52-1.1.78-1.6.47-.93.94-1.77,1.39-2.52.55-.93,1.07-1.72,1.51-2.4h0c.15-.21.29-.41.41-.61.26-.4.5-.73.7-1,.4-.53.64-.8.6-.83a5.15,5.15,0,0,0-.75.8c-.28.33-.57.7-.78,1s-.24.29-.34.44a.1.1,0,0,0,0,.06v0a29.31,29.31,0,0,0-1.81,2.58c-.48.74-.92,1.49-1.34,2.24s-.65,1.2-1,1.8l-.11.21a55.55,55.55,0,0,0-4.7,13.45h0c-.05.2-.09.39-.13.58S323.53,291.76,323.5,291.91Z" style="fill:#30DD8A"></path><path d="M323.5,291.91v0h0l.2.08h0l.77.29.13.05.09-.54h0a59.71,59.71,0,0,1,4.35-14.31l.12-.25c.26-.56.52-1.1.78-1.6.47-.93.94-1.77,1.39-2.52.55-.93,1.07-1.72,1.51-2.4h0c.15-.21.29-.41.41-.61.26-.4.5-.73.7-1,.4-.53.64-.8.6-.83a5.15,5.15,0,0,0-.75.8c-.28.33-.57.7-.78,1s-.24.29-.34.44a.1.1,0,0,0,0,.06v0a29.31,29.31,0,0,0-1.81,2.58c-.48.74-.92,1.49-1.34,2.24s-.65,1.2-1,1.8l-.11.21a55.55,55.55,0,0,0-4.7,13.45h0c-.05.2-.09.39-.13.58S323.53,291.76,323.5,291.91Z" style="opacity:0.2"></path><path d="M332.92,270.67s.37.36-.06,1.22-1.69,2.9-2.21,3.62c-.32.46-1.65,0-1.27-.81a25.41,25.41,0,0,1,2.12-3.54c.52-.68.83-.86,1.2-.67l0,.05s0,.12.07.17a.14.14,0,0,0,.16,0Z" style="fill:#455a64"></path><path d="M320.56,277.77c0,.47,0,1,0,1.41a49.74,49.74,0,0,0,1.41,11c.1.44.2.86.3,1.27l.18.07.32.13h0l.72.27v0c-.32-1-.6-2-.85-3-.16-.63-.31-1.27-.44-1.89h0a54.67,54.67,0,0,1-1.06-7.93c0-.42,0-.82,0-1.21,0-.64,0-1.25,0-1.83,0-.84.06-1.62.11-2.34.09-1,.2-2,.3-2.73,0-.23.06-.44.09-.65s.09-.59.14-.83a4.45,4.45,0,0,0,.18-1.13,5.44,5.44,0,0,0-.33,1.14c-.07.31-.14.63-.2.86s-.08.38-.11.57c-.2.95-.34,1.9-.45,2.84-.09.75-.15,1.5-.19,2.24S320.58,277.17,320.56,277.77Z" style="fill:#30DD8A"></path><path d="M320.56,277.77c0,.47,0,1,0,1.41a49.74,49.74,0,0,0,1.41,11c.1.44.2.86.3,1.27l.18.07.32.13h0l.72.27v0c-.32-1-.6-2-.85-3-.16-.63-.31-1.27-.44-1.89h0a54.67,54.67,0,0,1-1.06-7.93c0-.42,0-.82,0-1.21,0-.64,0-1.25,0-1.83,0-.84.06-1.62.11-2.34.09-1,.2-2,.3-2.73,0-.23.06-.44.09-.65s.09-.59.14-.83a4.45,4.45,0,0,0,.18-1.13,5.44,5.44,0,0,0-.33,1.14c-.07.31-.14.63-.2.86s-.08.38-.11.57c-.2.95-.34,1.9-.45,2.84-.09.75-.15,1.5-.19,2.24S320.58,277.17,320.56,277.77Z" style="opacity:0.2"></path><path d="M321.52,270.86s.43.14.43,1-.23,3-.35,3.75c-.08.49-1.33.63-1.34-.16a22.5,22.5,0,0,1,.32-3.65c.15-.74.32-1,.69-1v.05s0,.1.12.11a.12.12,0,0,0,.13,0Z" style="fill:#455a64"></path><path d="M322.45,291.53l.32.13h0l.72.27h0l.2.08v0c0-.37,0-.75,0-1.11h0A60.49,60.49,0,0,1,325.44,278c.31-1.24.64-2.42,1-3.5.15-.46.3-.91.45-1.34A42.48,42.48,0,0,1,328.6,269c.37-.8.71-1.49,1-2.08.05-.09.1-.18.14-.27.65-1.28,1.15-1.91,1.08-2a16.82,16.82,0,0,0-1.32,1.94l-.19.31c-.42.69-.81,1.39-1.17,2.09a40.72,40.72,0,0,0-1.85,4.14c-.15.36-.29.71-.42,1.07-.5,1.32-.93,2.64-1.29,3.94a55.34,55.34,0,0,0-1.7,8.46h0c-.1.76-.18,1.49-.25,2.2,0,.44-.07.87-.1,1.3h0c0,.32-.05.64-.07.95Z" style="fill:#30DD8A"></path><path d="M322.45,291.53l.32.13h0l.72.27h0l.2.08v0c0-.37,0-.75,0-1.11h0A60.49,60.49,0,0,1,325.44,278c.31-1.24.64-2.42,1-3.5.15-.46.3-.91.45-1.34A42.48,42.48,0,0,1,328.6,269c.37-.8.71-1.49,1-2.08.05-.09.1-.18.14-.27.65-1.28,1.15-1.91,1.08-2a16.82,16.82,0,0,0-1.32,1.94l-.19.31c-.42.69-.81,1.39-1.17,2.09a40.72,40.72,0,0,0-1.85,4.14c-.15.36-.29.71-.42,1.07-.5,1.32-.93,2.64-1.29,3.94a55.34,55.34,0,0,0-1.7,8.46h0c-.1.76-.18,1.49-.25,2.2,0,.44-.07.87-.1,1.3h0c0,.32-.05.64-.07.95Z" style="opacity:0.2"></path></g></g><g id="freepik--Rocks--inject-2"><g id="freepik--rocks--inject-2"><polygon id="freepik--Shadow--inject-2" points="331.4 296.18 333.94 298.09 335.86 301.33 337.99 301.07 337.71 301.68 339.6 304.11 342.26 305.03 344 307.24 347.75 307.24 348.68 306.05 351.46 305.92 355.92 302.51 353.64 299.41 349.6 297.49 353.32 296.43 355.74 294.23 356.64 291.19 352.38 288.45 347.03 288.15 331.8 289.14 331.4 296.18" style="opacity:0.1"></polygon><g id="freepik--Rock--inject-2"><polygon points="351.8 286.85 352.07 290.1 349.23 288.91 345.56 290.42 343.82 292.26 342.26 296.02 340.56 301.34 339.24 296.52 342.26 292.26 345.12 289.55 349.05 288.54 351.8 286.85" style="fill:#263238"></polygon><polygon points="347.03 298.77 352.35 295.01 350.56 291.07 347.03 298.77" style="fill:#263238"></polygon><polygon points="346.3 281.94 351.8 286.85 349.05 288.54 345.12 289.55 342.26 292.26 344 288.91 346.8 286.11 346.3 281.94" style="fill:#37474f"></polygon><polygon points="342.26 281.44 335.25 285.25 332.72 288.22 336.99 289.23 342.26 292.26 344 288.91 341.8 285.25 342.26 281.44" style="fill:#37474f"></polygon><polygon points="349.23 288.91 345.56 290.42 343.82 292.26 342.26 296.02 343.04 299.69 347.03 298.77 350.56 291.07 349.23 288.91" style="fill:#37474f"></polygon><polygon points="335.25 285.25 330.38 287.76 328.41 288.45 328 289.92 330.02 291.75 338.96 295.61 339.89 294.66 336.94 291.48 334.56 291.48 332.72 288.22 335.25 285.25" style="fill:#37474f"></polygon><polygon points="332.72 288.22 334.56 291.48 336.94 291.48 336.99 289.23 332.72 288.22" style="fill:#263238"></polygon><polygon points="329.01 295.38 330.94 296.02 331.99 295.01 336.21 295.7 330.11 293.22 329.01 295.38" style="fill:#263238"></polygon><polygon points="337.97 296.18 336.21 295.7 334.33 297.58 335.89 300.01 337.97 296.18" style="fill:#37474f"></polygon><polygon points="352.07 290.1 354.14 293.4 352.35 295.01 350.56 291.07 349.23 288.91 352.07 290.1" style="fill:#455a64"></polygon><polygon points="340.56 301.34 343.04 299.69 342.26 296.02 340.56 301.34" style="fill:#455a64"></polygon><polygon points="342.26 292.26 339.89 294.66 336.94 291.48 336.99 289.23 342.26 292.26" style="fill:#455a64"></polygon><polygon points="342.26 281.44 346.3 281.94 346.8 286.11 344 288.91 341.8 285.25 342.26 281.44" style="fill:#455a64"></polygon><polygon points="326.39 289.97 325.2 292.58 329.01 295.38 330.11 293.22 326.39 289.97" style="fill:#455a64"></polygon><polygon points="340.56 301.34 335.89 300.01 337.97 296.18 339.24 296.52 340.56 301.34" style="fill:#455a64"></polygon><polygon points="330.94 296.02 334.33 297.58 336.21 295.7 331.99 295.01 330.94 296.02" style="fill:#455a64"></polygon><polygon points="338.17 283.66 335.52 286.25 334.83 287.76 337.22 288.08 342.26 292.26 336.99 289.23 332.72 288.22 335.25 285.25 338.17 283.66" style="fill:#455a64"></polygon><polygon points="346.3 281.94 345.88 285.84 343.43 287.96 344 288.91 346.8 286.11 346.3 281.94" style="fill:#455a64"></polygon><polygon points="339.24 296.52 336.21 295.7 330.11 293.22 326.39 289.97 328 287.96 330.38 287.76 328.41 288.45 328 289.92 330.02 291.75 338.96 295.61 342.26 292.26 339.24 296.52" style="fill:#455a64"></polygon><g style="opacity:0.1"><polygon points="338.17 283.66 335.52 286.25 334.83 287.76 337.22 288.08 342.26 292.26 336.99 289.23 332.72 288.22 335.25 285.25 338.17 283.66" style="fill:#fff"></polygon><polygon points="346.3 281.94 345.88 285.84 343.43 287.96 344 288.91 346.8 286.11 346.3 281.94" style="fill:#fff"></polygon><polygon points="339.24 296.52 336.21 295.7 330.11 293.22 326.39 289.97 328 287.96 330.38 287.76 328.41 288.45 328 289.92 330.02 291.75 338.96 295.61 342.26 292.26 339.24 296.52" style="fill:#fff"></polygon></g></g><g id="freepik--rock--inject-2"><polygon points="352.36 298.52 352.51 300.31 350.94 299.66 348.92 300.49 347.96 301.5 347.1 303.57 346.17 306.5 345.44 303.85 347.1 301.5 348.68 300.01 350.84 299.45 352.36 298.52" style="fill:#263238"></polygon><polygon points="349.73 305.08 352.66 303.01 351.67 300.84 349.73 305.08" style="fill:#263238"></polygon><polygon points="349.32 295.82 352.36 298.52 350.84 299.45 348.68 300.01 347.1 301.5 348.06 299.66 349.6 298.12 349.32 295.82" style="fill:#37474f"></polygon><polygon points="347.1 295.54 343.24 297.64 341.85 299.28 344.2 299.83 347.1 301.5 348.06 299.66 346.85 297.64 347.1 295.54" style="fill:#37474f"></polygon><polygon points="350.94 299.66 348.92 300.49 347.96 301.5 347.1 303.57 347.53 305.59 349.73 305.08 351.67 300.84 350.94 299.66" style="fill:#37474f"></polygon><polygon points="343.24 297.64 340.56 299.02 339.48 299.4 339.25 300.21 340.36 301.22 345.29 303.34 345.8 302.82 344.17 301.07 342.86 301.07 341.85 299.28 343.24 297.64" style="fill:#37474f"></polygon><polygon points="341.85 299.28 342.86 301.07 344.17 301.07 344.2 299.83 341.85 299.28" style="fill:#263238"></polygon><polygon points="339.81 303.22 340.87 303.57 341.45 303.01 343.77 303.39 340.41 302.03 339.81 303.22" style="fill:#263238"></polygon><polygon points="344.74 303.66 343.77 303.39 342.73 304.43 343.59 305.77 344.74 303.66" style="fill:#37474f"></polygon><polygon points="352.51 300.31 353.64 302.13 352.66 303.01 351.67 300.84 350.94 299.66 352.51 300.31" style="fill:#455a64"></polygon><polygon points="346.17 306.5 347.53 305.59 347.1 303.57 346.17 306.5" style="fill:#455a64"></polygon><polygon points="347.1 301.5 345.8 302.82 344.17 301.07 344.2 299.83 347.1 301.5" style="fill:#455a64"></polygon><polygon points="347.1 295.54 349.32 295.82 349.6 298.12 348.06 299.66 346.85 297.64 347.1 295.54" style="fill:#455a64"></polygon><polygon points="338.37 300.24 337.71 301.68 339.81 303.22 340.41 302.03 338.37 300.24" style="fill:#455a64"></polygon><polygon points="346.17 306.5 343.59 305.77 344.74 303.66 345.44 303.85 346.17 306.5" style="fill:#455a64"></polygon><polygon points="340.87 303.57 342.73 304.43 343.77 303.39 341.45 303.01 340.87 303.57" style="fill:#455a64"></polygon><polygon points="344.85 296.76 343.39 298.19 343.01 299.02 344.32 299.2 347.1 301.5 344.2 299.83 341.85 299.28 343.24 297.64 344.85 296.76" style="fill:#455a64"></polygon><polygon points="349.32 295.82 349.1 297.96 347.75 299.13 348.06 299.66 349.6 298.12 349.32 295.82" style="fill:#455a64"></polygon><polygon points="345.44 303.85 343.77 303.39 340.41 302.03 338.37 300.24 339.25 299.13 340.56 299.02 339.48 299.4 339.25 300.21 340.36 301.22 345.29 303.34 347.1 301.5 345.44 303.85" style="fill:#455a64"></polygon><g style="opacity:0.1"><polygon points="344.85 296.76 343.39 298.19 343.01 299.02 344.32 299.2 347.1 301.5 344.2 299.83 341.85 299.28 343.24 297.64 344.85 296.76" style="fill:#fff"></polygon><polygon points="349.32 295.82 349.1 297.96 347.75 299.13 348.06 299.66 349.6 298.12 349.32 295.82" style="fill:#fff"></polygon><polygon points="345.44 303.85 343.77 303.39 340.41 302.03 338.37 300.24 339.25 299.13 340.56 299.02 339.48 299.4 339.25 300.21 340.36 301.22 345.29 303.34 347.1 301.5 345.44 303.85" style="fill:#fff"></polygon></g></g></g><g id="freepik--rocks--inject-2"><polygon id="freepik--shadow--inject-2" points="76.72 352.9 74.39 354.65 72.63 357.63 70.68 357.38 70.93 357.94 69.2 360.17 66.76 361.02 65.17 363.04 61.73 363.04 60.88 361.95 58.32 361.83 54.23 358.7 56.32 355.87 60.03 354.1 56.61 353.13 54.4 351.11 53.58 348.33 57.48 345.82 62.39 345.54 76.36 346.45 76.72 352.9" style="opacity:0.1"></polygon><g id="freepik--rock--inject-2"><polygon points="66.76 339.32 73.19 342.81 75.51 345.54 71.6 346.47 66.76 349.24 65.16 346.17 67.18 342.81 66.76 339.32" style="fill:#30DD8A"></polygon><polygon points="66.76 339.32 73.19 342.81 75.51 345.54 71.6 346.47 66.76 349.24 65.16 346.17 67.18 342.81 66.76 339.32" style="opacity:0.30000000000000004"></polygon><polygon points="66.76 339.32 63.06 339.78 62.6 343.61 65.16 346.17 67.18 342.81 66.76 339.32" style="fill:#30DD8A"></polygon><polygon points="66.76 339.32 63.06 339.78 62.6 343.61 65.16 346.17 67.18 342.81 66.76 339.32" style="opacity:0.35000000000000003"></polygon><polygon points="58.01 344.28 57.76 347.27 60.37 346.17 63.73 347.56 65.33 349.24 66.76 352.69 68.32 357.57 69.54 353.15 66.76 349.24 64.14 346.76 60.53 345.84 58.01 344.28" style="fill:#30DD8A"></polygon><polygon points="62.39 355.21 57.51 351.77 59.15 348.15 62.39 355.21" style="fill:#30DD8A"></polygon><g style="opacity:0.5"><polygon points="58.01 344.28 57.76 347.27 60.37 346.17 63.73 347.56 65.33 349.24 66.76 352.69 68.32 357.57 69.54 353.15 66.76 349.24 64.14 346.76 60.53 345.84 58.01 344.28"></polygon><polygon points="62.39 355.21 57.51 351.77 59.15 348.15 62.39 355.21"></polygon></g><polygon points="70.52 341.36 72.94 343.73 73.57 345.12 71.39 345.42 66.76 349.24 71.6 346.47 75.51 345.54 73.19 342.81 70.52 341.36" style="fill:#30DD8A"></polygon><polygon points="63.06 339.78 63.44 343.36 65.69 345.3 65.16 346.17 62.6 343.61 63.06 339.78" style="fill:#30DD8A"></polygon><polygon points="69.54 353.15 72.31 352.4 77.91 350.13 81.31 347.14 79.84 345.3 77.65 345.12 79.46 345.75 79.84 347.1 77.99 348.78 69.79 352.31 66.76 349.24 69.54 353.15" style="fill:#30DD8A"></polygon><g style="opacity:0.25"><polygon points="70.52 341.36 72.94 343.73 73.57 345.12 71.39 345.42 66.76 349.24 71.6 346.47 75.51 345.54 73.19 342.81 70.52 341.36"></polygon><polygon points="63.06 339.78 63.44 343.36 65.69 345.3 65.16 346.17 62.6 343.61 63.06 339.78"></polygon><polygon points="69.54 353.15 72.31 352.4 77.91 350.13 81.31 347.14 79.84 345.3 77.65 345.12 79.46 345.75 79.84 347.1 77.99 348.78 69.79 352.31 66.76 349.24 69.54 353.15"></polygon></g><polygon points="73.19 342.81 77.65 345.12 79.46 345.75 79.84 347.1 77.99 348.78 69.79 352.31 68.93 351.44 71.64 348.53 73.83 348.53 75.51 345.54 73.19 342.81" style="fill:#30DD8A"></polygon><polygon points="73.19 342.81 77.65 345.12 79.46 345.75 79.84 347.1 77.99 348.78 69.79 352.31 68.93 351.44 71.64 348.53 73.83 348.53 75.51 345.54 73.19 342.81" style="opacity:0.35000000000000003"></polygon><polygon points="63.06 339.78 58.01 344.28 60.53 345.84 64.14 346.76 66.76 349.24 65.16 346.17 62.6 343.61 63.06 339.78" style="fill:#30DD8A"></polygon><polygon points="60.37 346.17 63.73 347.56 65.33 349.24 66.76 352.69 66.05 356.06 62.39 355.21 59.15 348.15 60.37 346.17" style="fill:#30DD8A"></polygon><polygon points="75.51 345.54 73.83 348.53 71.64 348.53 71.6 346.47 75.51 345.54" style="fill:#30DD8A"></polygon><polygon points="78.92 352.1 77.15 352.69 76.18 351.77 72.31 352.4 77.91 350.13 78.92 352.1" style="fill:#30DD8A"></polygon><g style="opacity:0.45"><polygon points="63.06 339.78 58.01 344.28 60.53 345.84 64.14 346.76 66.76 349.24 65.16 346.17 62.6 343.61 63.06 339.78"></polygon><polygon points="60.37 346.17 63.73 347.56 65.33 349.24 66.76 352.69 66.05 356.06 62.39 355.21 59.15 348.15 60.37 346.17"></polygon><polygon points="75.51 345.54 73.83 348.53 71.64 348.53 71.6 346.47 75.51 345.54"></polygon><polygon points="78.92 352.1 77.15 352.69 76.18 351.77 72.31 352.4 77.91 350.13 78.92 352.1"></polygon></g><polygon points="70.7 352.84 72.31 352.4 74.04 354.12 72.61 356.35 70.7 352.84" style="fill:#30DD8A"></polygon><polygon points="70.7 352.84 72.31 352.4 74.04 354.12 72.61 356.35 70.7 352.84" style="opacity:0.35000000000000003"></polygon><polygon points="57.76 347.27 55.87 350.29 57.51 351.77 59.15 348.15 60.37 346.17 57.76 347.27" style="fill:#30DD8A"></polygon><polygon points="68.32 357.57 66.05 356.06 66.76 352.69 68.32 357.57" style="fill:#30DD8A"></polygon><polygon points="66.76 349.24 68.93 351.44 71.64 348.53 71.6 346.47 66.76 349.24" style="fill:#30DD8A"></polygon><polygon points="81.31 347.14 82.41 349.54 78.92 352.1 77.91 350.13 81.31 347.14" style="fill:#30DD8A"></polygon><polygon points="68.32 357.57 72.61 356.35 70.7 352.84 69.54 353.15 68.32 357.57" style="fill:#30DD8A"></polygon><polygon points="77.15 352.69 74.04 354.12 72.31 352.4 76.18 351.77 77.15 352.69" style="fill:#30DD8A"></polygon><g style="opacity:0.4"><polygon points="57.76 347.27 55.87 350.29 57.51 351.77 59.15 348.15 60.37 346.17 57.76 347.27"></polygon><polygon points="68.32 357.57 66.05 356.06 66.76 352.69 68.32 357.57"></polygon><polygon points="66.76 349.24 68.93 351.44 71.64 348.53 71.6 346.47 66.76 349.24"></polygon><polygon points="81.31 347.14 82.41 349.54 78.92 352.1 77.91 350.13 81.31 347.14"></polygon><polygon points="68.32 357.57 72.61 356.35 70.7 352.84 69.54 353.15 68.32 357.57"></polygon><polygon points="77.15 352.69 74.04 354.12 72.31 352.4 76.18 351.77 77.15 352.69"></polygon></g></g><g id="freepik--rock--inject-2"><polygon points="62.32 352.31 65.86 354.24 67.14 355.74 64.98 356.25 62.32 357.78 61.44 356.09 62.55 354.24 62.32 352.31" style="fill:#30DD8A"></polygon><polygon points="62.32 352.31 65.86 354.24 67.14 355.74 64.98 356.25 62.32 357.78 61.44 356.09 62.55 354.24 62.32 352.31" style="opacity:0.30000000000000004"></polygon><polygon points="62.32 352.31 60.28 352.57 60.03 354.68 61.44 356.09 62.55 354.24 62.32 352.31" style="fill:#30DD8A"></polygon><polygon points="62.32 352.31 60.28 352.57 60.03 354.68 61.44 356.09 62.55 354.24 62.32 352.31" style="opacity:0.35000000000000003"></polygon><polygon points="57.5 355.05 57.36 356.69 58.8 356.09 60.65 356.85 61.53 357.78 62.32 359.68 63.17 362.36 63.85 359.93 62.32 357.78 60.88 356.41 58.89 355.9 57.5 355.05" style="fill:#30DD8A"></polygon><polygon points="59.91 361.07 57.22 359.17 58.13 357.18 59.91 361.07" style="fill:#30DD8A"></polygon><g style="opacity:0.5"><polygon points="57.5 355.05 57.36 356.69 58.8 356.09 60.65 356.85 61.53 357.78 62.32 359.68 63.17 362.36 63.85 359.93 62.32 357.78 60.88 356.41 58.89 355.9 57.5 355.05"></polygon><polygon points="59.91 361.07 57.22 359.17 58.13 357.18 59.91 361.07"></polygon></g><polygon points="64.39 353.44 65.72 354.75 66.07 355.51 64.86 355.67 62.32 357.78 64.98 356.25 67.14 355.74 65.86 354.24 64.39 353.44" style="fill:#30DD8A"></polygon><polygon points="60.28 352.57 60.49 354.54 61.73 355.61 61.44 356.09 60.03 354.68 60.28 352.57" style="fill:#30DD8A"></polygon><polygon points="63.85 359.93 65.38 359.52 68.45 358.26 70.33 356.62 69.52 355.61 68.31 355.51 69.31 355.86 69.52 356.6 68.5 357.52 63.98 359.47 62.32 357.78 63.85 359.93" style="fill:#30DD8A"></polygon><g style="opacity:0.25"><polygon points="64.39 353.44 65.72 354.75 66.07 355.51 64.86 355.67 62.32 357.78 64.98 356.25 67.14 355.74 65.86 354.24 64.39 353.44"></polygon><polygon points="60.28 352.57 60.49 354.54 61.73 355.61 61.44 356.09 60.03 354.68 60.28 352.57"></polygon><polygon points="63.85 359.93 65.38 359.52 68.45 358.26 70.33 356.62 69.52 355.61 68.31 355.51 69.31 355.86 69.52 356.6 68.5 357.52 63.98 359.47 62.32 357.78 63.85 359.93"></polygon></g><polygon points="65.86 354.24 68.31 355.51 69.31 355.86 69.52 356.6 68.5 357.52 63.98 359.47 63.51 358.99 65 357.38 66.21 357.38 67.14 355.74 65.86 354.24" style="fill:#30DD8A"></polygon><polygon points="65.86 354.24 68.31 355.51 69.31 355.86 69.52 356.6 68.5 357.52 63.98 359.47 63.51 358.99 65 357.38 66.21 357.38 67.14 355.74 65.86 354.24" style="opacity:0.35000000000000003"></polygon><polygon points="60.28 352.57 57.5 355.05 58.89 355.9 60.88 356.41 62.32 357.78 61.44 356.09 60.03 354.68 60.28 352.57" style="fill:#30DD8A"></polygon><polygon points="58.8 356.09 60.65 356.85 61.53 357.78 62.32 359.68 61.92 361.53 59.91 361.07 58.13 357.18 58.8 356.09" style="fill:#30DD8A"></polygon><polygon points="67.14 355.74 66.21 357.38 65 357.38 64.98 356.25 67.14 355.74" style="fill:#30DD8A"></polygon><polygon points="69.01 359.35 68.04 359.68 67.5 359.17 65.38 359.52 68.45 358.26 69.01 359.35" style="fill:#30DD8A"></polygon><g style="opacity:0.45"><polygon points="60.28 352.57 57.5 355.05 58.89 355.9 60.88 356.41 62.32 357.78 61.44 356.09 60.03 354.68 60.28 352.57"></polygon><polygon points="58.8 356.09 60.65 356.85 61.53 357.78 62.32 359.68 61.92 361.53 59.91 361.07 58.13 357.18 58.8 356.09"></polygon><polygon points="67.14 355.74 66.21 357.38 65 357.38 64.98 356.25 67.14 355.74"></polygon><polygon points="69.01 359.35 68.04 359.68 67.5 359.17 65.38 359.52 68.45 358.26 69.01 359.35"></polygon></g><polygon points="64.48 359.76 65.38 359.52 66.32 360.46 65.54 361.69 64.48 359.76" style="fill:#30DD8A"></polygon><polygon points="64.48 359.76 65.38 359.52 66.32 360.46 65.54 361.69 64.48 359.76" style="opacity:0.35000000000000003"></polygon><polygon points="57.36 356.69 56.32 358.36 57.22 359.17 58.13 357.18 58.8 356.09 57.36 356.69" style="fill:#30DD8A"></polygon><polygon points="63.17 362.36 61.92 361.53 62.32 359.68 63.17 362.36" style="fill:#30DD8A"></polygon><polygon points="62.32 357.78 63.51 358.99 65 357.38 64.98 356.25 62.32 357.78" style="fill:#30DD8A"></polygon><polygon points="70.33 356.62 70.93 357.94 69.01 359.35 68.45 358.26 70.33 356.62" style="fill:#30DD8A"></polygon><polygon points="63.17 362.36 65.54 361.69 64.48 359.76 63.85 359.93 63.17 362.36" style="fill:#30DD8A"></polygon><polygon points="68.04 359.68 66.32 360.46 65.38 359.52 67.5 359.17 68.04 359.68" style="fill:#30DD8A"></polygon><g style="opacity:0.4"><polygon points="57.36 356.69 56.32 358.36 57.22 359.17 58.13 357.18 58.8 356.09 57.36 356.69"></polygon><polygon points="63.17 362.36 61.92 361.53 62.32 359.68 63.17 362.36"></polygon><polygon points="62.32 357.78 63.51 358.99 65 357.38 64.98 356.25 62.32 357.78"></polygon><polygon points="70.33 356.62 70.93 357.94 69.01 359.35 68.45 358.26 70.33 356.62"></polygon><polygon points="63.17 362.36 65.54 361.69 64.48 359.76 63.85 359.93 63.17 362.36"></polygon><polygon points="68.04 359.68 66.32 360.46 65.38 359.52 67.5 359.17 68.04 359.68"></polygon></g></g></g></g><g id="freepik--Deers--inject-2"><path id="freepik--shadow--inject-2" d="M387.91,415.19a70.73,70.73,0,0,1,10.24-3.61,34,34,0,0,1,13.69-.93c6,1,12,5.06,7.56,11.61-2.94,4.31-9.83,4.65-14.43,5.76a46.93,46.93,0,0,0-9.8,3.7c-1.43.72-2.94,1.31-4.32,2.09-3.35,1.88-7.2,4.29-11.14,4.64A24.07,24.07,0,0,1,361.48,433c-2.64-2.13-1.46-5,.8-7,2.75-2.42,6-3.55,9.33-4.79,1.89-.7,3.79-1.29,5.72-1.9C381,418.19,384.42,416.66,387.91,415.19Z" style="opacity:0.15"></path><path id="freepik--shadow--inject-2" d="M280.91,433.38c.66.19,1.3.35,1.77.48,2.36.66,4.84.87,7.14,1.78s4.33,2.33,6.57,3.38a19.41,19.41,0,0,0,8.44,2.15c3.81,0,9.21-.32,11.73-3.68,4.78-6.37-11-9.52-14-10.4-4.6-1.35-8.55-2.42-13.37-2.2a26.22,26.22,0,0,0-6.67.9c-1.95.63-7.3,3.4-4.7,6.15A7.29,7.29,0,0,0,280.91,433.38Z" style="opacity:0.15"></path><g id="freepik--Deer--inject-2"><path d="M398.67,415.43a6.19,6.19,0,0,1-.18,2.11,3.58,3.58,0,0,1-3.79,1.25l-.06-.73-.74.31a9.13,9.13,0,0,1,1.37-3.39Z" style="fill:#263238"></path><path d="M403.86,381c-.77,1.51-1,7,1,9.07s2.53,3.13,2.05,4.14-5.16,10.19-6.06,13.24-2,6.86-2,8.62c0,0-2.81,1.24-4.16-.74,0,0,1.14.46,4.59-8.29s3.31-10.79,2.69-12.2-4.22-3.36-6.11-7.9c0,0-.74-5.73,2.93-7.69S404.36,378.79,403.86,381Z" style="fill:#37474f"></path><path d="M375,424.4a6.59,6.59,0,0,1,1.46,1.68,3.77,3.77,0,0,1-1.84,3.77l-.59-.49-.31.79a9.69,9.69,0,0,1-1.55-3.51Z" style="fill:#263238"></path><path d="M377.18,392c-1.07,1.53-3.28,5.19-4.68,7.07a38,38,0,0,0-3,6,3.78,3.78,0,0,0-.2,2.28c.9,4,3.14,14.55,6.16,16.59,0,0,.26,3.18-3.48,4.22,0,0-1.21-6.12-1.93-9.22a91.51,91.51,0,0,0-3.23-11.36c-1-2.16-.72-2.82.92-5.71s2-11.44,2.41-12.88a4.75,4.75,0,0,1,4.57-.25A3.72,3.72,0,0,1,377.18,392Z" style="fill:#37474f"></path><path d="M363.84,355.21c.1-.74.55-1.89,2.79-3.41s5.69-1.9,7.27-2.7,2.11.36.82,1.65-2.25,4.05-4.66,5.78a8.57,8.57,0,0,1-5.56,1.29Z" style="fill:#37474f"></path><path d="M352.85,355.53c-.07-.76-.46-1.93-2.64-3.54s-5.6-2.16-7.14-3-2.12.26-.89,1.6,2.06,4.15,4.4,6a8.61,8.61,0,0,0,5.49,1.54Z" style="fill:#37474f"></path><path d="M374.43,326.5c.1.25.68,8.84.68,8.84l-4.25,4.44-1.55,6.79-6.62,7.71-2.26-.89,7.32-7.92,1.8-5.72L368,336.6l.89-4.22.2,4.29,1.57,1.69,3.37-3.57Z" style="fill:#f5f5f5"></path><polygon points="353.73 354.08 353.22 349.13 348.11 341.92 346.13 338.33 347.22 331.22 350.35 327.76 347.9 331.61 347.46 337.91 348.65 339.74 351.43 337.72 351.49 335.33 352.01 338.49 349.61 340.86 355.15 348.01 356.32 353.61 353.73 354.08" style="fill:#f5f5f5"></polygon><path d="M414.41,418.08a6.23,6.23,0,0,1,.2,2.11,3.6,3.6,0,0,1-3.51,1.9l-.19-.7-.67.44a9.18,9.18,0,0,1,.74-3.58Z" style="fill:#263238"></path><path d="M388.4,427.59a6.57,6.57,0,0,1,.42,2.19,3.79,3.79,0,0,1-3.48,2.33l-.27-.72-.66.53a9.6,9.6,0,0,1,.42-3.81Z" style="fill:#263238"></path><path d="M358.46,371.88c3,3.56,2.58,7.11,5.27,10.79,2.22,3,5.07,5.07,7.07,6.86,3.92,3.52,12,2.66,12,2.66,1.16,3.05,1.27,13.73,1.64,17.83a81.7,81.7,0,0,1,.8,11.41,29.3,29.3,0,0,1-1,7.62c1.34.63,3.62.35,4.31-1.54-.19-1.87-1.57-13.69-1.57-16.68s.24-4.34,1.09-8.67S390,390.55,390,390.55c7.48-2.47,8.38-8.35,11.18-9.47a9.82,9.82,0,0,0,3.12-.13c1.11,9,7.51,11.58,8.27,13.81s.38,10,0,14.24a70.65,70.65,0,0,1-2,10.05,3.73,3.73,0,0,0,4.3-.76,41.59,41.59,0,0,1-.28-7.63c.14-5.85,1.89-16.62,1.93-18.53s-1.57-1.86-2.61-5.11,2.36-10.75,3.56-14.76a17.66,17.66,0,0,0,.52-7.61s1.71.61,2.51-.71-5.62-5.88-11.15-7.35-14,2-19.87,5.12-7.18,1.38-12.31,3.27c-3.74,1.37-6.45,6.07-9.7,2.52-.76-.83-2.6-3.71-2.31-5.75s1-4.77-.65-6.79c-2.07-2.6-9.57-3.15-12.1-.18-1.6,1.89-.67,5.29-.13,8.08s-.95,8.77,3.48,9.3A5,5,0,0,0,358.46,371.88Z" style="fill:#455a64"></path><path d="M380.21,379c-2.94.37-7.61.62-11.53-1.4a17.44,17.44,0,0,1-8-8.11,8.39,8.39,0,0,1-2.2,2.38h0c3,3.56,2.58,7.11,5.27,10.79,2.22,3,5.07,5.07,7.07,6.86,2.69,2.42,7.37,2.77,10,2.75h0c1.2,0,2-.09,2-.09a32,32,0,0,1-1.16-7.15C381.75,382.26,383.14,378.63,380.21,379Z" style="fill:#e0e0e0"></path><path d="M358.31,369.5,355.47,372v.14l.21.05a5,5,0,0,0,2.78-.28,12.82,12.82,0,0,1,.87,1.19c2.65-1.43,2.65-3.37,2.9-4.4.29-1.18.83-3.25.83-3.25a28.19,28.19,0,0,0-1.29,2.67Z" style="fill:#37474f"></path><path d="M402.86,381.14a16.45,16.45,0,0,1,1.59-7.85,20.23,20.23,0,0,0-.17,7.66A12.53,12.53,0,0,1,402.86,381.14Z" style="fill:#37474f"></path><path d="M352.37,366.8c1-.07,2.57-1.52,3.13-3.22s1.14-1.74,1.65,0a4.51,4.51,0,0,0,3.57,3.12c1.76.47,1,2,.16,3.23a6.53,6.53,0,0,1-2.42,1.91h0a5,5,0,0,1-2.78.28C352.87,371.82,352.44,369.31,352.37,366.8Z" style="fill:#ebebeb"></path><path d="M356.05,369.58c-.87,0-1.3-.82-1.71-1a.67.67,0,0,1-.33-1c.3-.44,1-.28,2.1-.25s1.8-.1,2.08.35a.66.66,0,0,1-.38,1C357.39,368.82,356.93,369.6,356.05,369.58Z" style="fill:#263238"></path><path d="M360.73,359.63a2.42,2.42,0,0,1,2.25-.36,2.56,2.56,0,0,1-.36,2.06,2.31,2.31,0,0,1-2.2.45A2.22,2.22,0,0,1,360.73,359.63Z" style="fill:#263238"></path><path d="M354.32,359.49a2.42,2.42,0,0,0-2.23-.47,2.58,2.58,0,0,0,.28,2.08,2.27,2.27,0,0,0,2.17.54A2.18,2.18,0,0,0,354.32,359.49Z" style="fill:#263238"></path></g><g id="freepik--Fawn--inject-2"><path d="M324.48,384.26a5.37,5.37,0,0,0,1.59-1.81,11.94,11.94,0,0,0,.83-4.16c0-.79-.46-1.2-1.13-.9a7.53,7.53,0,0,0-3.37,2.66,7.07,7.07,0,0,0-.7,3Z" style="fill:#37474f"></path><path d="M289.8,425.61A4.23,4.23,0,0,0,290,427a2.41,2.41,0,0,0,2.56.71l0-.49.5.19a6,6,0,0,0-1-2.21Z" style="fill:#263238"></path><path d="M290.49,406.23a27.89,27.89,0,0,1-.65,3.58c-.64,1.76-1.94,2-1.94,2.67s.75,1.69,1.11,3.86a90.48,90.48,0,0,1,.67,9.86c.38.49,2.23.19,2.81-.49a16.51,16.51,0,0,1-1.72-4.8,72.7,72.7,0,0,1-.78-7.64s4.05-2.36,5.17-5.09S290.68,404.59,290.49,406.23Z" style="fill:#37474f"></path><path d="M311.05,431.92a4.25,4.25,0,0,0-.05,1.42,2.41,2.41,0,0,0,2.41,1.12l.1-.48.47.27a6.06,6.06,0,0,0-.64-2.35Z" style="fill:#263238"></path><path d="M315.93,405.09a27.24,27.24,0,0,1-1.24,7.15,30.51,30.51,0,0,0-1.63,6.52c-.11,1.56-.3,9.53,0,10.94s.62,2.62.62,2.62-1.78.69-2.84-.07c0,0,.33-3.48.48-5.48a61.85,61.85,0,0,0,.11-8.19c-.22-1.3-1.33-6.26-1.33-6.26Z" style="fill:#37474f"></path><path d="M303.51,435.25a4.19,4.19,0,0,0-.05,1.41,2.41,2.41,0,0,0,2.42,1.12l.1-.48.46.27a6.06,6.06,0,0,0-.64-2.35Z" style="fill:#263238"></path><path d="M282.5,428.06a4.23,4.23,0,0,0,.19,1.4,2.38,2.38,0,0,0,2.56.72l0-.49.5.19a6.05,6.05,0,0,0-1-2.22Z" style="fill:#263238"></path><path d="M282.27,394.94s-2.45,0-.7-1.83,8.39-3.41,13.64-1,5.86,3.32,9.8,2.79,4.72-.61,5.77-1.22,3.5-2.84,3.85-4.35-.84-3.56,1.45-5.71c2.56-2.39,6.9-1.12,8.29.24,1.72,1.68,1.39,4.37,3,5.77s2.2,1.38,2.63,2.38c.35.8-.94,3.72-3,3.49-.91-.1-1.88-.45-2.82-.59-1.32-.19-1.73-.07-3.32-.23,0,0-.89,2.85-1.76,4.86s-2.72,3.24-3.06,5-.7,8-8.23,7.95c0,0-1.75,5.92-2.1,7.36a57.43,57.43,0,0,0-.35,11.62c.37,2.87.66,3.15.77,4.16a3.09,3.09,0,0,1-2.69-.12s-.17-5.85-.17-8.88a97.1,97.1,0,0,0-.79-10.49c-.26-1.49-.44-4.7-.44-4.7-2.1-.17-8.74-4.89-11.54-5.24a18.4,18.4,0,0,1-3.76,5.56,25.8,25.8,0,0,1-4.38,3.07,31.19,31.19,0,0,0,.79,5.45c.61,2.15,1.62,6.34,2.1,7.83-.16.63-2.14,1-2.89.3,0-.44-.63-7.35-1-9.21a33.33,33.33,0,0,0-1.23-5.07c-.32-1.16,1.23-1.14,2-3.07a12.83,12.83,0,0,0,.52-7.31C282.09,401.59,280.74,398.09,282.27,394.94Z" style="fill:#455a64"></path><path d="M309.07,402c1.23-1.27,4.75-4.14,6.08-5.26a11.44,11.44,0,0,0,2.7-4.09,4.61,4.61,0,0,0,3,2.1s-.89,2.85-1.76,4.86-2.72,3.24-3.06,5-.7,8-8.23,7.95C308.73,409,306.57,404.55,309.07,402Z" style="fill:#e0e0e0"></path><path d="M290.93,401.83a6.12,6.12,0,0,1,.44,4.61,5,5,0,0,0-.88-.21A7.35,7.35,0,0,0,290.93,401.83Z" style="fill:#37474f"></path><path d="M317.85,392.62a4.26,4.26,0,0,1-.44-1.07,3,3,0,0,0,.68,2.52,4.66,4.66,0,0,0,2.47,1.53l.29-.88A5.18,5.18,0,0,1,317.85,392.62Z" style="fill:#37474f"></path><path d="M321.65,387.51c-.83-.56-1.72.33-1.72.33a1.34,1.34,0,0,0,.44,1.39,1.93,1.93,0,0,0,1.9,0A1.83,1.83,0,0,0,321.65,387.51Z" style="fill:#263238"></path><path d="M329.72,393.61a1.36,1.36,0,0,1-.68.34c-.63,0-1-.56-1.58-.93a.73.73,0,0,1-.22-1.21c.32-.3,1.29-.17,1.83-.17s1-.26,1.12.09A2.68,2.68,0,0,1,329.72,393.61Z" style="fill:#263238"></path><path d="M289,392.78a1.59,1.59,0,0,0-.53-.15,2.24,2.24,0,0,0-1.14.22c-.14.06-.44.23-.33.44s.76.2,1,.19.35,0,.53,0h.28c.14,0,.35,0,.42-.17S289.16,392.88,289,392.78Z" style="fill:#e0e0e0"></path><path d="M292.62,393.73s0-.05-.05-.06a1.64,1.64,0,0,0-.46-.27c-.28-.18-.78-.62-1.11-.31-.49.46.36.73.68.83a1.68,1.68,0,0,0,.85.16C292.71,394,292.7,393.86,292.62,393.73Z" style="fill:#e0e0e0"></path><path d="M295.67,394.13c-.12-.35-.54-.5-.89-.57-.2,0-1-.1-.7.33.13.19.38.21.54.36a1.49,1.49,0,0,0,.4.31c.26.12.68.21.68-.2A.56.56,0,0,0,295.67,394.13Z" style="fill:#e0e0e0"></path><path d="M299,395.2a3,3,0,0,0-.51,0,1,1,0,0,1-.41-.11.76.76,0,0,0-.55-.07c-.24.13,0,.33.13.43a1.37,1.37,0,0,0,.64.34c.2.05.92.18,1-.1a.35.35,0,0,0-.32-.47Z" style="fill:#e0e0e0"></path><path d="M289.57,394.89Z" style="fill:#e0e0e0"></path><path d="M290.6,395a.22.22,0,0,0,0-.08l0,0,0,0h0a.32.32,0,0,0-.08-.12,1.41,1.41,0,0,0-.45-.25,2,2,0,0,0-.26-.06.92.92,0,0,0-.29,0l0,0a.1.1,0,0,0,0,.07.25.25,0,0,0,0,.15.31.31,0,0,0,.06.13.23.23,0,0,0,.14.11h0l.08,0,.11,0-.06,0,.16,0h-.07l.23.08.11.06,0,0,0,0,.08.05c.08.05.21.09.28,0A.25.25,0,0,0,290.6,395Z" style="fill:#e0e0e0"></path><path d="M294.15,396a2,2,0,0,0-.32-.21l-.3-.18c-.21-.13-.87-.34-.9.1,0,.27.53.51.72.63s.52.43.83.3.17-.34.09-.49A.44.44,0,0,0,294.15,396Z" style="fill:#e0e0e0"></path><path d="M285.78,394.57a.35.35,0,0,0-.36-.15,1.91,1.91,0,0,0-.47.18l-.2.13a3.26,3.26,0,0,0-.36.29,1.9,1.9,0,0,0-.34.41,1.42,1.42,0,0,0-.08.18,1.16,1.16,0,0,0,0,.18.09.09,0,0,0,0,0,.55.55,0,0,0,.1.32c.13.22.51.4.7.15l.07-.08,0-.09a.69.69,0,0,1,.05-.13,1.18,1.18,0,0,1,.11-.19,2,2,0,0,1,.37-.4l.22-.16a.75.75,0,0,0,.25-.31A.38.38,0,0,0,285.78,394.57Z" style="fill:#e0e0e0"></path><path d="M287.5,395.27Z" style="fill:#e0e0e0"></path><polygon points="287.49 395.27 287.49 395.27 287.5 395.27 287.49 395.27" style="fill:#e0e0e0"></polygon><path d="M287.88,395.44a.42.42,0,0,0-.14-.09,1.22,1.22,0,0,0-1,.26.85.85,0,0,0-.31.55c0,.09,0,.36,0,.43s.4-.2.53-.26a4.23,4.23,0,0,0,.83-.4A.34.34,0,0,0,287.88,395.44Z" style="fill:#e0e0e0"></path><path d="M317.73,384a5.26,5.26,0,0,0-1.47-1.94,12.35,12.35,0,0,0-4.12-1.81c-.81-.22-1.34.22-1.19,1s.75,3.09,2,4.18a5,5,0,0,0,2.81,1.15A3.06,3.06,0,0,1,317.73,384Z" style="fill:#37474f"></path></g></g></svg>