<svg height="512pt" viewBox="0 -5 512 511" width="512pt" xmlns="http://www.w3.org/2000/svg"><path d="m501 256.5c0 135.308594-109.691406 245-245 245s-245-109.691406-245-245 109.691406-245 245-245 245 109.691406 245 245zm0 0" fill="#df3d9b"/><path d="m412.867188 387.164062c4.625 4.628907 4.625 12.128907 0 16.757813-4.628907 4.625-12.128907 4.625-16.757813 0l-18.691406-18.691406c-4.625-4.625-4.625-12.128907 0-16.757813 4.628906-4.625 12.128906-4.625 16.757812 0zm-56.210938 26.808594c-2.765625-5.933594-9.8125-8.5-15.746094-5.730468-5.929687 2.765624-8.496094 9.8125-5.730468 15.746093l8.382812 17.976563c2.765625 5.929687 9.816406 8.496094 15.746094 5.730468 5.929687-2.765624 8.496094-9.816406 5.730468-15.746093zm79.429688-93.472656h-15.800782c-6.542968 0-11.847656 5.304688-11.847656 11.847656 0 6.546875 5.304688 11.851563 11.847656 11.851563h15.800782c6.542968 0 11.847656-5.304688 11.847656-11.851563 0-6.542968-5.304688-11.847656-11.847656-11.847656zm-318.261719 47.972656-18.6875 18.691406c-4.628907 4.625-4.628907 12.128907 0 16.757813 4.625 4.625 12.128906 4.625 16.753906 0l18.691406-18.691406c4.628907-4.628907 4.628907-12.128907 0-16.757813-4.628906-4.625-12.128906-4.625-16.757812 0zm53.265625 39.769532c-5.933594-2.769532-12.980469-.203126-15.746094 5.730468l-8.382812 17.976563c-2.765626 5.929687-.199219 12.980469 5.730468 15.746093 5.929688 2.765626 12.980469.199219 15.746094-5.730468l8.382812-17.976563c2.765626-5.933593.199219-12.984375-5.730468-15.746093zm-67.527344-75.894532c0-6.542968-5.304688-11.847656-11.847656-11.847656h-15.800782c-6.542968 0-11.847656 5.304688-11.847656 11.847656 0 6.546875 5.304688 11.851563 11.847656 11.851563h15.800782c6.542968 0 11.847656-5.304688 11.847656-11.851563zm0 0" fill="#fd73c4"/><path d="m415.269531 90.5h-275.269531v-20c0-38.597656-31.402344-70-70-70s-70 31.402344-70 70v88.667969c0 56.449219 38.75 104.019531 91.046875 117.507812 9.683594 2.496094 33.109375 3.648438 34.449219 3.34375 29.960937 53.769531 77.265625 88.480469 130.503906 88.480469 90.574219 0 164-100.445312 164-224.351562 0-18.492188-1.648438-36.457032-4.730469-53.648438zm-344.84375 135.441406c-20.101562-15.363281-33.09375-39.578125-33.09375-66.773437v-88.015625c0-18.277344 14.957031-33.625 33.234375-33.3125 17.75.300781 32.097656 14.835937 32.097656 32.660156v20h-5.933593c-3.082031 17.191406-4.730469 35.15625-4.730469 53.648438 0 25.863281 3.210938 50.699218 9.097656 73.816406-4.8125 11.386718-19.738281 16.332031-30.671875 7.976562zm0 0" fill="#fdb44c"/><path d="m331 370.5c0 11.046875-8.953125 20-20 20h-1.695312c1.703124 2.945312 2.695312 6.351562 2.695312 10 0 11.046875-8.953125 20-20 20v78.359375c-11.75 1.730469-23.769531 2.640625-36 2.640625s-24.25-.894531-36-2.625v-78.375c-11.046875 0-20-8.953125-20-20 0-3.648438.992188-7.054688 2.695312-10h-1.695312c-11.046875 0-20-8.953125-20-20s8.953125-20 20-20h110c11.046875 0 20 8.953125 20 20zm0 0" fill="#fdc273"/><path d="m292 460.5v38.375c-11.75 1.730469-23.769531 2.625-36 2.625-1.335938 0-2.667969-.007812-4-.03125v-40.96875c0-11.046875 8.953125-20 20-20s20 8.953125 20 20zm19-110h-71c-11.046875 0-20 8.953125-20 20s8.953125 20 20 20h71c11.046875 0 20-8.953125 20-20s-8.953125-20-20-20zm0 0" fill="#fdd194"/><path d="m442 .5c-35.203125 0-64.40625 26.125-69.273438 60h-233.453124c-4.902344-34.097656-34.453126-60.339844-69.964844-59.996094-38.535156.375-69.308594 32.351563-69.308594 70.890625v30.441407c0 10.308593 8.355469 18.664062 18.667969 18.664062 10.308593 0 18.667969-8.355469 18.667969-18.667969v-30.679687c0-17.898438 14.121093-32.960938 32.015624-33.3125 14.804688-.289063 27.445313 9.332031 31.742188 22.660156h-1.09375c-11.289062 0-20.390625 9.351562-19.988281 20.730469.386719 10.835937 9.625 19.269531 20.46875 19.269531h199.519531c5.742188 0 10.355469 4.839844 9.976562 10.667969-.34375 5.3125-4.992187 9.332031-10.320312 9.332031h-159.476562c-8.9375 0-15.945313 7.777344-14.910157 16.65625 12.496094 106.945312 80.230469 188.667969 161.925781 188.667969 37.332032 0 71.738282-17.074219 99.304688-45.808594 1.339844.308594 17.203125-.042969 23.5-1.054687 57.746094-9.285157 102-59.46875 102-119.792969v-88.667969c0-38.597656-31.402344-70-70-70zm32.667969 158.667969c0 27.195312-12.992188 51.414062-33.09375 66.773437-10.933594 8.359375-25.859375 3.410156-30.671875-7.972656 5.890625-23.117188 9.097656-47.953125 9.097656-73.820312 0-15.152344-1.121094-29.941407-3.21875-44.246094 8.847656-2.175782 15.390625-10.21875 15.214844-19.777344-.203125-10.972656-9.46875-19.625-20.441406-19.625h-.460938c4.453125-13.203125 16.902344-22.910156 31.472656-22.660156 17.753906.300781 32.101563 14.835937 32.101563 32.660156zm0 0" fill="#fdc273"/><path d="m512 70.5v51.332031c0 10.308594-8.355469 18.667969-18.667969 18.667969-10.308593 0-18.667969-8.355469-18.667969-18.667969v-51.332031c0-17.824219-14.347656-32.359375-32.101562-32.660156-14.566406-.25-27.015625 9.457031-31.472656 22.660156h.910156c11.046875 0 20 8.953125 20 20s-8.953125 20-20 20h-128.480469c-11.046875 0-20-8.953125-20-20s8.953125-20 20-20h89.316407c5.148437-33.492188 33.636718-59.660156 68.472656-59.996094 38.914062-.378906 70.691406 31.167969 70.691406 69.996094zm0 0" fill="#fdd194"/><path d="m392.496094 129.539062-125.632813 125.628907c-7.105469 7.109375-18.632812 7.109375-25.742187 0l-52.824219-52.824219c-9.476563-9.476562-9.476563-24.84375 0-34.324219 9.476563-9.476562 24.84375-9.476562 34.320313 0l27.085937 27.085938c2.367187 2.371093 6.210937 2.371093 8.578125 0l99.894531-99.890625c9.476563-9.476563 24.84375-9.476563 34.320313 0 9.476562 9.476562 9.476562 24.84375 0 34.324218zm0 0" fill="#fdf7bd"/><path d="m364.894531 157.140625-82.445312 82.445313c-.070313 0-.136719.003906-.207031.003906-44.082032 0-80.101563-34.511719-82.519532-77.992188 7.949219-1.925781 16.683594.214844 22.894532 6.421875l27.085937 27.089844c2.367187 2.367187 6.210937 2.367187 8.578125 0l89.082031-89.078125c10.984375 14.03125 17.53125 31.699219 17.53125 50.902344zm0 0" fill="#fff5f5"/></svg>