<svg xmlns="http://www.w3.org/2000/svg" height="512pt" version="1.1" viewBox="0 0 512 512" width="512pt">
<g id="surface1">
<path d="M 512 256 C 512 397.386719 397.386719 512 256 512 C 114.613281 512 0 397.386719 0 256 C 0 114.613281 114.613281 0 256 0 C 397.386719 0 512 114.613281 512 256 Z M 512 256 " style=" stroke:none;fill-rule:nonzero;fill:rgb(6.27451%,29.019608%,48.627451%);fill-opacity:1;" />
<path d="M 246.214844 160.402344 C 244.550781 160.222656 243.3125 158.785156 243.3125 157.113281 L 243.3125 91.40625 C 243.3125 84.289062 237.488281 78.464844 230.367188 78.464844 L 39.484375 78.464844 C 32.367188 78.464844 26.542969 84.289062 26.542969 91.40625 L 26.542969 295.234375 L 106.046875 295.234375 C 107.292969 295.234375 108.3125 294.269531 108.414062 293.027344 C 109.535156 279.367188 120.976562 268.628906 134.929688 268.628906 C 148.855469 268.628906 160.28125 279.332031 161.433594 292.960938 C 161.542969 294.242188 162.59375 295.234375 163.878906 295.234375 L 243.3125 295.234375 L 243.3125 217.515625 C 243.3125 215.3125 244.957031 213.492188 247.136719 213.179688 C 260.015625 211.324219 269.914062 200.242188 269.914062 186.847656 C 269.914062 173.136719 259.539062 161.847656 246.214844 160.402344 Z M 246.214844 160.402344 " style=" stroke:none;fill-rule:nonzero;fill:rgb(96.862745%,87.45098%,60.392157%);fill-opacity:1;" />
<path d="M 241.039062 377.109375 C 242.316406 377 243.3125 375.949219 243.3125 374.667969 L 243.3125 295.234375 L 165.59375 295.234375 C 163.390625 295.234375 161.570312 293.589844 161.257812 291.40625 C 159.402344 278.527344 148.320312 268.628906 134.925781 268.628906 C 121.214844 268.628906 109.925781 279.003906 108.480469 292.328125 C 108.300781 293.992188 106.859375 295.234375 105.1875 295.234375 L 26.542969 295.234375 L 26.542969 369.601562 C 66.628906 450.414062 148.136719 507.039062 243.308594 511.683594 L 243.308594 432.496094 C 243.308594 431.253906 242.347656 430.230469 241.105469 430.128906 C 227.445312 429.007812 216.707031 417.566406 216.707031 403.617188 C 216.707031 389.6875 227.410156 378.261719 241.039062 377.109375 Z M 241.039062 377.109375 " style=" stroke:none;fill-rule:nonzero;fill:rgb(98.431373%,56.862745%,54.117647%);fill-opacity:1;" />
<path d="M 460.117188 410.503906 L 460.117188 308.175781 C 460.117188 301.058594 454.292969 295.234375 447.175781 295.234375 L 380.617188 295.234375 C 379.371094 295.234375 378.347656 296.195312 378.246094 297.4375 C 377.125 311.097656 365.683594 321.835938 351.734375 321.835938 C 337.808594 321.835938 326.378906 311.132812 325.226562 297.503906 C 325.117188 296.226562 324.070312 295.230469 322.785156 295.230469 L 243.351562 295.230469 L 243.351562 372.949219 C 243.351562 375.152344 241.703125 376.972656 239.523438 377.285156 C 226.644531 379.140625 216.746094 390.222656 216.746094 403.617188 C 216.746094 417.328125 227.121094 428.617188 240.449219 430.0625 C 242.109375 430.242188 243.351562 431.679688 243.351562 433.351562 L 243.351562 511.6875 C 247.542969 511.890625 251.757812 512 256 512 C 339.34375 512 413.371094 472.164062 460.117188 410.503906 Z M 460.117188 410.503906 " style=" stroke:none;fill-rule:nonzero;fill:rgb(53.333333%,49.411765%,100%);fill-opacity:1;" />
<path d="M 430.0625 246.214844 C 430.242188 244.554688 431.679688 243.3125 433.351562 243.3125 L 499.058594 243.3125 C 506.175781 243.3125 512 237.488281 512 230.371094 L 512 39.484375 C 512 32.367188 506.175781 26.542969 499.058594 26.542969 L 308.175781 26.542969 C 301.054688 26.542969 295.230469 32.367188 295.230469 39.484375 L 295.230469 106.046875 C 295.230469 107.292969 296.195312 108.3125 297.4375 108.414062 C 311.097656 109.535156 321.835938 120.976562 321.835938 134.929688 C 321.835938 148.855469 311.132812 160.28125 297.503906 161.433594 C 296.222656 161.542969 295.230469 162.59375 295.230469 163.878906 L 295.230469 230.367188 C 295.230469 237.488281 301.054688 243.3125 308.175781 243.3125 L 372.949219 243.3125 C 375.152344 243.3125 376.972656 244.957031 377.285156 247.136719 C 379.140625 260.015625 390.222656 269.914062 403.617188 269.914062 C 417.328125 269.914062 428.617188 259.539062 430.0625 246.214844 Z M 430.0625 246.214844 " style=" stroke:none;fill-rule:nonzero;fill:rgb(98.823529%,52.54902%,74.901961%);fill-opacity:1;" />
<path d="M 337.53125 233.535156 L 337.53125 36.320312 C 337.53125 32.335938 339.464844 28.789062 342.429688 26.542969 L 308.175781 26.542969 C 301.054688 26.542969 295.230469 32.367188 295.230469 39.484375 L 295.230469 106.046875 C 295.230469 107.292969 296.195312 108.3125 297.4375 108.414062 C 311.097656 109.535156 321.835938 120.976562 321.835938 134.929688 C 321.835938 148.855469 311.132812 160.28125 297.503906 161.433594 C 296.222656 161.542969 295.230469 162.59375 295.230469 163.878906 L 295.230469 230.367188 C 295.230469 237.488281 301.054688 243.3125 308.175781 243.3125 L 342.429688 243.3125 C 339.464844 241.066406 337.53125 237.519531 337.53125 233.535156 Z M 337.53125 233.535156 " style=" stroke:none;fill-rule:nonzero;fill:rgb(96.862745%,32.941176%,69.411765%);fill-opacity:1;" />
<path d="M 285.613281 502.222656 L 285.613281 305.011719 C 285.613281 301.023438 287.542969 297.480469 290.507812 295.234375 L 243.351562 295.234375 L 243.351562 372.949219 C 243.351562 375.152344 241.703125 376.972656 239.523438 377.289062 C 226.644531 379.144531 216.746094 390.226562 216.746094 403.617188 C 216.746094 417.328125 227.121094 428.617188 240.445312 430.0625 C 242.109375 430.242188 243.351562 431.683594 243.351562 433.355469 L 243.351562 511.6875 C 247.542969 511.890625 251.757812 512 256 512 C 266.96875 512 277.777344 511.304688 288.382812 509.964844 C 286.652344 507.847656 285.613281 505.152344 285.613281 502.222656 Z M 285.613281 502.222656 " style=" stroke:none;fill-rule:nonzero;fill:rgb(37.647059%,37.647059%,95.686275%);fill-opacity:1;" />
<path d="M 68.84375 305.011719 C 68.84375 301.027344 70.777344 297.480469 73.742188 295.234375 L 26.542969 295.234375 L 26.542969 369.601562 C 37.65625 392.003906 51.957031 412.542969 68.84375 430.636719 Z M 68.84375 305.011719 " style=" stroke:none;fill-rule:nonzero;fill:rgb(95.686275%,41.176471%,41.176471%);fill-opacity:1;" />
<path d="M 68.84375 285.457031 L 68.84375 88.242188 C 68.84375 84.257812 70.777344 80.710938 73.742188 78.464844 L 39.484375 78.464844 C 32.367188 78.464844 26.542969 84.289062 26.542969 91.40625 L 26.542969 295.234375 L 73.742188 295.234375 C 70.777344 292.988281 68.84375 289.441406 68.84375 285.457031 Z M 68.84375 285.457031 " style=" stroke:none;fill-rule:nonzero;fill:rgb(95.686275%,78.039216%,34.509804%);fill-opacity:1;" />
</g>
</svg>