<svg height="512pt" viewBox="1 1 511.99998 511.99998" width="512pt" xmlns="http://www.w3.org/2000/svg"><path d="m512 256c0 114.707031-75.441406 211.789062-179.410156 244.347656-8.265625 2.582032-16.695313 4.765625-25.296875 6.511719-16.570313 3.375-33.726563 5.140625-51.292969 5.140625-18.234375 0-36.019531-1.902344-53.175781-5.539062-8.628907-1.816407-17.09375-4.074219-25.378907-6.738282-42.234374-13.59375-79.675781-37.878906-109.152343-69.652344-7.804688-8.414062-15.054688-17.347656-21.679688-26.75-3.886719-5.507812-7.554687-11.171874-10.992187-16.980468-22.632813-38.179688-35.621094-82.746094-35.621094-130.339844 0-141.386719 114.613281-256 256-256s256 114.613281 256 256zm0 0" fill="#39d365"/><path d="m131.804688 227.265625-2.226563 7.117187-46.820313 149.523438-.355468 1.117188-14.109375 45.046874c-7.804688-8.414062-15.054688-17.347656-21.679688-26.75-3.886719-5.507812-7.554687-11.171874-10.992187-16.980468l.269531-.855469 23.386719-75.191406 16.6875-53.632813zm0 0" fill="#e29b0e"/><path d="m129.578125 234.382812-46.820313 149.523438-.355468 1.117188-14.109375 45.046874c-7.804688-8.414062-15.054688-17.347656-21.679688-26.75l6.519531-20.972656 23.386719-75.1875 16.683594-53.636718zm0 0" fill="#f4ca19"/><path d="m442.519531 277.566406-26.796875 85.535156c-42.46875-13.304687-67.644531-7.375-92.820312-1.449218l-.011719.007812c-25.175781 5.925782-50.351563 11.855469-92.804687-1.457031l-.015626.007813c-42.46875-13.304688-59.761718-32.539063-77.054687-51.769532-10.308594-11.464844-20.613281-22.949218-36.25-33.148437-10.597656-6.921875-23.636719-13.257813-40.804687-18.625l-.007813-.011719 80.40625-256.65625.007813.015625c42.484374 13.296875 59.761718 32.535156 77.054687 51.769531 17.300781 19.246094 34.585937 38.464844 77.054687 51.769532 42.46875 13.304687 67.644532 7.378906 92.820313 1.449218 25.1875-5.933594 50.363281-11.863281 92.832031 1.441406l-26.804687 85.558594zm0 0" fill="#e6e6e6"/><g fill="#31474c"><path d="m469.332031 192.003906-26.800781 85.535156c-42.476562-13.292968-67.640625-7.375-92.824219-1.441406l26.800781-85.535156c25.199219-5.933594 50.347657-11.871094 92.824219 1.441406zm0 0"/><path d="m349.707031 276.117188-26.796875 85.535156-.019531.019531c-25.164063 5.917969-50.347656 11.851563-92.804687-1.457031l26.800781-85.539063c42.457031 13.277344 67.640625 7.375 92.804687 1.425781h.015625zm0 0"/><path d="m403.308594 105.011719-26.800782 85.550781h-.015624c-25.167969 5.9375-50.332032 11.855469-92.804688-1.457031l26.796875-85.535157v-.019531c42.457031 13.3125 67.640625 7.378907 92.824219 1.460938zm0 0"/><path d="m283.6875 189.125-26.800781 85.550781-.019531-.015625c-42.457032-13.292968-59.746094-32.523437-77.039063-51.734375v-.035156l26.800781-85.535156c17.289063 19.246093 34.601563 38.457031 77.039063 51.769531zm0 0"/><path d="m233.425781 51.785156v.015625l-26.796875 85.535157c-17.292968-19.226563-34.585937-38.476563-77.058594-51.785157l26.796876-85.535156c42.492187 13.292969 59.769531 32.539063 77.058593 51.769531zm0 0"/><path d="m179.828125 222.90625v.019531l-26.800781 85.519531c-10.324219-11.464843-20.613282-22.945312-36.253906-33.144531-10.59375-6.933593-23.636719-13.257812-40.804688-18.625l-.015625-.019531 26.796875-85.535156h.019531c42.472657 13.3125 59.75 32.523437 77.058594 51.785156zm0 0"/></g></svg>