<svg height="512pt" viewBox="0 0 512 512.00575" width="512pt" xmlns="http://www.w3.org/2000/svg"><path d="m511.855469 249.316406c-3.675781-141.320312-121.21875-252.90625-262.539063-249.2304685-141.320312 3.6757815-252.902344 121.2187505-249.2265622 262.5390625 3.6757812 141.320312 121.2187502 252.902344 262.5390622 249.230469 141.320313-3.675781 252.902344-121.21875 249.226563-262.539063zm0 0" fill="#5d3369"/><path d="m465.449219 204.101562c-3.007813-115.691406-99.234375-207.039062-214.925781-204.0312495-115.691407 3.0078125-207.039063 99.2343755-204.03125 214.9257815 3.007812 115.695312 99.234374 207.042968 214.925781 204.03125 115.695312-3.007813 207.042969-99.234375 204.03125-214.925782zm0 0" fill="#723e82"/><path d="m267.132812 298.695312c-3.570312-1.777343-6.207031-5.113281-6.867187-9.046874-.367187-2.171876-.261719-4.460938.398437-6.71875 1.335938-4.601563 4.664063-8.074219 8.769532-9.769532 1.875-.777344 3.9375-.957031 5.957031-.757812 1.519531.152344 3.035156.277344 4.550781.375.414063.035156 1.277344.082031 1.277344.082031 60.214844 3.304687 116.953125-35.046875 134.507812-95.441406l19.316407-66.460938-254.707031-74.035156-19.320313 66.460937c-18.386719 63.253907 12.476563 129.136719 70.035156 156.632813 5.613281 2.683594 8.929688 8.84375 7.601563 14.921875-.070313.320312-.152344.640625-.246094.960938-.441406 1.523437-1.109375 2.914062-1.953125 4.15625-2.8125 4.125-7.808594 6.226562-12.765625 5.621093-1.789062-.21875-3.578125-.402343-5.363281-.546875-.339844-.03125-.710938-.046875-.710938-.046875-61.171875-4.570312-119.296875 34.007813-137.101562 95.265625l-13.90625 47.835938c9.628906 10.609375 20.1875 20.449218 31.597656 29.382812l182.917969 53.171875c13.507812-1.339843 26.816406-3.746093 39.804687-7.167969l14.296875-49.183593c18.175782-62.539063-11.78125-127.652344-68.089844-155.691407zm0 0" fill="#ffefcc"/><path d="m260.660156 282.929688c-.65625 2.257812-.761718 4.546874-.394531 6.714843.664063 3.933594 3.296875 7.269531 6.863281 9.050781 56.308594 28.039063 86.273438 93.152344 68.09375 155.691407l-14.296875 49.183593c-12.988281 3.425782-26.296875 5.832032-39.804687 7.164063l-13.433594-3.90625c13.269531-1.34375 26.355469-3.722656 39.121094-7.089844l14.296875-49.183593c18.183593-62.539063-11.78125-127.648438-68.09375-155.691407-3.566407-1.78125-6.199219-5.117187-6.863281-9.054687-.363282-2.164063-.261719-4.453125.394531-6.710938 1.347656-4.605468 4.671875-8.074218 8.769531-9.777344 1.875-.765624 3.941406-.953124 5.964844-.75 1.519531.152344 3.03125.28125 4.550781.378907.414063.039062 1.28125.078125 1.28125.078125 60.210937 3.304687 116.949219-35.050782 134.503906-95.445313l19.3125-66.453125-240.660156-69.957031.070313-.25 254.703124 74.039063-19.308593 66.457031c-17.554688 60.390625-74.292969 98.746093-134.507813 95.441406 0 0-.863281-.042969-1.277344-.078125-1.519531-.097656-3.035156-.226562-4.550781-.378906-2.023437-.203125-4.089843-.015625-5.964843.75-4.101563 1.703125-7.421876 5.171875-8.769532 9.777344zm0 0" fill="#cfb37c"/><path d="m431.421875 133.515625-251.734375-73.171875c-9.570312-2.78125-15.070312-12.792969-12.289062-22.359375l2.28125-7.855469c2.78125-9.566406 12.792968-15.070312 22.363281-12.289062l251.734375 73.171875c11.738281 3.414062 18.484375 15.695312 15.074218 27.429687-3.410156 11.738282-15.691406 18.484375-27.429687 15.074219zm0 0" fill="#d04b33"/><path d="m458.847656 118.441406c-1.707031 5.867188-5.628906 10.492188-10.59375 13.214844-4.960937 2.734375-10.96875 3.5625-16.835937 1.859375l-40.410157-11.746094c5.867188 1.703125 11.875.875 16.832032-1.859375 4.96875-2.722656 8.890625-7.347656 10.59375-13.214844 3.414062-11.742187-3.332032-24.019531-15.074219-27.429687l40.410156 11.746094c11.742188 3.410156 18.488281 15.6875 15.078125 27.429687zm0 0" fill="#b3402d"/><path d="m457.675781 126.375-292.890625-85.136719c-4.246094-1.234375-6.691406-5.679687-5.457031-9.925781 1.238281-4.246094 5.679687-6.691406 9.925781-5.457031l292.894532 85.136719c4.246093 1.234374 6.691406 5.679687 5.453124 9.925781-1.230468 4.246093-5.675781 6.691406-9.925781 5.457031zm0 0" fill="#b3402d"/><path d="m463.769531 125.703125c1.792969-.988281 3.214844-2.65625 3.832031-4.785156 1.234376-4.246094-1.210937-8.695313-5.457031-9.925781l-35.679687-10.371094-9.847656-2.863282c4.246093 1.234376 6.6875 5.679688 5.457031 9.925782-.621094 2.128906-2.039063 3.796875-3.835938 4.785156-1.792969.984375-3.964843 1.289062-6.09375.667969l15.054688 4.378906 30.476562 8.855469c2.128907.621094 4.296875.316406 6.09375-.667969zm0 0" fill="#9e3928"/><path d="m226.703125 348.058594c-58.53125-17.011719-119.769531 16.644531-136.785156 75.175781l-3.898438 13.414063 211.960938 61.609374 3.898437-13.414062c17.011719-58.53125-16.644531-119.769531-75.175781-136.785156zm0 0" fill="#fdaa44"/><path d="m301.875 484.835938-3.902344 13.414062-19.90625-5.789062 3.898438-13.414063c16.03125-55.160156-12.964844-112.726563-65.34375-133.40625 3.363281.636719 6.738281 1.457031 10.089844 2.429687 58.515624 17.007813 92.171874 78.25 75.164062 136.765626zm0 0" fill="#d6913a"/><path d="m255.433594 255.796875c58.53125 17.015625 119.769531-16.644531 136.785156-75.175781l1.050781-3.625c1.574219-5.40625-1.535156-11.058594-6.941406-12.632813l-192.382813-55.917969c-5.40625-1.570312-11.0625 1.535157-12.632812 6.941407l-1.054688 3.625c-17.011718 58.53125 16.644532 119.773437 75.175782 136.785156zm0 0" fill="#fdaa44"/><path d="m384.378906 163.800781c6.484375 1.886719 10.214844 8.671875 8.332032 15.160157l-.488282 1.667968c-17.011718 58.535156-78.253906 92.191406-136.789062 75.175782-3.351563-.976563-6.640625-2.089844-9.820313-3.355469 55.324219 10.625 110.660157-22.425781 126.703125-77.609375l3.898438-13.414063zm0 0" fill="#d6913a"/><path d="m75.605469 427.460938c-3.414063-1.007813-6.871094-1.128907-10.152344-.542969 30.636719 34.214843 70.84375 60.621093 118.128906 74.566406 48.566407 14.324219 97.992188 13.570313 143.277344.480469-1.179687-.597656-2.417969-1.109375-3.730469-1.496094zm0 0" fill="#d04b33"/><path d="m117.140625 471.070312 138.722656 40.917969c14.816407.011719 29.476563-1.273437 43.835938-3.773437l-217.332031-64.101563c10.707031 9.894531 22.324218 18.925781 34.773437 26.957031zm0 0" fill="#b3402d"/><g fill="#fdd5a2"><path d="m254.101562 390.046875c-14.507812-3.003906-28.703124 6.320313-31.707031 20.828125-3.003906 14.507812 6.320313 28.703125 20.828125 31.707031 14.503906 3.003907 28.703125-6.320312 31.707032-20.828125 3.003906-14.503906-6.320313-28.699218-20.828126-31.707031zm0 0"/><path d="m311.964844 174.992188c-9.523438-1.972657-18.84375 4.148437-20.816406 13.671874-1.972657 9.527344 4.148437 18.84375 13.671874 20.816407 9.523438 1.972656 18.84375-4.148438 20.816407-13.671875 1.972656-9.523438-4.148438-18.84375-13.671875-20.816406zm0 0"/></g></svg>