<svg id="Capa_1" data-name="Capa 1" xmlns="http://www.w3.org/2000/svg" width="512" height="512" viewBox="0 0 512 512"><defs><style>.cls-1{fill:#546ad6;}.cls-2{fill:#8c8cf2;}.cls-3{fill:#ff9978;}.cls-4{fill:#ffae93;}.cls-5{fill:#b5f3fb;}.cls-6{fill:#dcfbff;}.cls-7{fill:#029a64;}.cls-8{fill:#ef3c54;}.cls-9{fill:#d43147;}.cls-10{fill:#ffd69e;}.cls-11{fill:#ffe2bd;}.cls-12{fill:#ffc3b0;}</style></defs><title>aArtboard 1</title><path class="cls-1" d="M0,256A250.6,250.6,0,0,1,146.1,28.3c21.7-10,130.5-21.7,143.1-19.7C409.1,27.3,500.8,130.9,500.8,256a249.7,249.7,0,0,1-77.6,181.2H77.6A249.7,249.7,0,0,1,0,256Z"/><path class="cls-2" d="M85.8,137.5a15.3,15.3,0,0,1,0,30.6H65.4a15.3,15.3,0,0,1,0-30.6H85.8Zm40.9,61.3H45a15.3,15.3,0,0,0,0,30.6h81.7a15.3,15.3,0,0,0,0-30.6Zm251.4,28.6H296.4a15.3,15.3,0,1,0,0,30.6h81.7a15.3,15.3,0,0,0,0-30.6ZM111.4,101.7A15.4,15.4,0,0,0,96.1,86.4H66.2A253.3,253.3,0,0,0,42.1,117h54a15.4,15.4,0,0,0,15.3-15.3Zm15.3,260.6H23.6a242,242,0,0,0,17.2,30.6h85.9a15.3,15.3,0,1,0,0-30.6ZM494.2,198.8H423.1a15.3,15.3,0,0,0,0,30.6h76.3A264.2,264.2,0,0,0,494.2,198.8Zm-45.6-46a15.2,15.2,0,0,0-15.1-15.3H418a10.3,10.3,0,0,1-9.2-11.3A10.1,10.1,0,0,1,418,117h40.7a264.5,264.5,0,0,0-24.2-30.6H331.1a15.3,15.3,0,0,0,0,30.6h46a10.3,10.3,0,0,1,9.2,11.3,10.1,10.1,0,0,1-9.2,9.2H259.6a15.3,15.3,0,0,0,0,30.6H433.3a15.4,15.4,0,0,0,15.3-15.3Z"/><path class="cls-3" d="M146.1,28.3A248.6,248.6,0,0,1,250.4,5.6a251.6,251.6,0,0,1,38.8,3V249.9H169Z"/><path class="cls-4" d="M250.4,5.6a251.6,251.6,0,0,1,38.8,3V126.2l-45,21.5h0A100.1,100.1,0,0,1,179,63.9l-4.9-46.4A250.3,250.3,0,0,1,250.4,5.6Z"/><path class="cls-5" d="M143,52.6a5.2,5.2,0,0,1,4.3-5.8h1.8l142,28.4a5.2,5.2,0,0,1,4.1,5.2l-6,161.7L166,220.5Z"/><path class="cls-6" d="M295.2,80.5,289.7,230l-88.8-15.6L178.7,52.8,291.1,75.3A5.2,5.2,0,0,1,295.2,80.5Z"/><path class="cls-7" d="M436.4,423.6c-92.5,102.7-250.8,111-353.5,18.5a230.7,230.7,0,0,1-18.5-18.5Z"/><path class="cls-8" d="M508,367.1h0a34,34,0,0,1-36.1,25.7L214.3,369.1,52.1,304.4l89.1-196.6a20.5,20.5,0,0,1,24.3-11.2l104.1,30.1a20.4,20.4,0,0,1,14.9-22.5,10.2,10.2,0,0,1,12.5,7.2h0l22.3,83.2a3.6,3.6,0,0,1,.2,1,118.5,118.5,0,0,0,36.8,54.9h0a117.9,117.9,0,0,0,53.8,25.3l44.5,8.4a67.8,67.8,0,0,1,54.8,57.9h0A67.3,67.3,0,0,1,508,367.1Z"/><path class="cls-9" d="M508.5,365c-.2.7-.3,1.4-.5,2.1a34,34,0,0,1-36.1,25.7L214.3,369.1,52.1,304.4l89.1-196.6a20.5,20.5,0,0,1,24.3-11.2l11.7,3.4-32.3,71.4a88.1,88.1,0,0,0-7.6,44.7,15.3,15.3,0,0,1,20,8.3,15.7,15.7,0,0,1,.2,11.1,15.4,15.4,0,0,1-12.3,9.9,87.8,87.8,0,0,0,50.2,46.2l132.7,48.3a85,85,0,0,0,19.3,4.7ZM185.9,262.1a15.3,15.3,0,1,0-9.2-19.6,15.4,15.4,0,0,0,9.2,19.6Zm48,17.5a31.6,31.6,0,1,0-.1-.1A.1.1,0,0,0,233.9,279.6Z"/><path class="cls-10" d="M478.2,454.3h-88a406.3,406.3,0,0,1-128.4-20.9L60.2,366.2a44.6,44.6,0,0,1-30.6-42.3h0c0-31.7,32-53.3,61.3-41.5l173.8,69.7a404.8,404.8,0,0,0,123.7,28.3l92,6.2A33.9,33.9,0,0,1,512,420.4h0A33.9,33.9,0,0,1,478.2,454.3Z"/><path class="cls-11" d="M480.4,386.6a34,34,0,0,1,28.1,18.8,12.7,12.7,0,0,1-5.7,16.9,13.1,13.1,0,0,1-5.5,1.3H405.5a423.3,423.3,0,0,1-133.9-21.7L61.5,331.8h-.4c-24.8-8.5-23.5-44.2,1.7-51a44.4,44.4,0,0,1,28.1,1.7l173.8,69.7a404.8,404.8,0,0,0,123.7,28.3Z"/><path class="cls-12" d="M416.5,277.1l-1.2,14.5a10.2,10.2,0,0,1-11,9.3h-.1a10.2,10.2,0,0,1-9.3-11l1.5-17.4,10.5,2.4Zm-65.1.8a10.2,10.2,0,0,0,19.7,5.3l5.1-19.2c-3.3-2-5.6-3.8-8.4-5.6s-6.6-4.1-9.6-6.2Zm-32.6-85.1-24,6.3a10.2,10.2,0,1,0,5.3,19.8l25.9-7c-1.5-3.1-2.6-6.3-3.8-9.5s-3.4-9.6-3.4-9.6Zm-2.5,49.8a10.3,10.3,0,0,0,0,14.5,10.1,10.1,0,0,0,14.3.1h.1l15.8-15.7c-2.2-2.8-4.4-5.3-6.6-8s-4.2-5.5-6.2-8.1ZM439,281.3h-.6v12.9a10.5,10.5,0,0,0,9.6,10.6,10.3,10.3,0,0,0,10.9-9.7v-9.8h-.2A190.9,190.9,0,0,0,439,281.3Z"/><path class="cls-7" d="M172.7,464.5l-72.3-25.9-16.3-38a3,3,0,0,1,1.5-4,3.4,3.4,0,0,1,2.6.1l42.2,20.9,7.4-38.9a3.1,3.1,0,0,1,3.7-2.3,3.5,3.5,0,0,1,2.2,1.9Z"/></svg>