<?xml version="1.0" encoding="utf-8"?>
<!-- Generator: Adobe Illustrator 22.1.0, SVG Export Plug-In . SVG Version: 6.00 Build 0)  -->
<svg version="1.1" id="Layer_1" xmlns="http://www.w3.org/2000/svg" xmlns:xlink="http://www.w3.org/1999/xlink" x="0px" y="0px"
	 viewBox="0 0 374.4 158.4" style="enable-background:new 0 0 374.4 158.4;" xml:space="preserve">
<style type="text/css">
	.st0{fill:#D7F4E5;}
	.st1{fill:#A7F2C5;}
	.st2{fill:#A5F2B9;}
	.st3{fill:#FFFFFF;}
</style>
<title>Artboard 86</title>
<g>
	<g id="Layer_1_1_">
		<path class="st0" d="M442.4-23.4c-47.3,21.9-51.5,68.7-94.6,45C335,14.6,325.3,6.7,313,4.1c-35.3-7.5-45.6,43.3-78,38.9
			c-20.7-2.9-51.7-11.5-77.4,17.9c-13.2,15.1-13.8,32.9-15.2,54.6c-3,45.3-40.3,58.7-52.5,107.6c-10.4,41.7,10.1,74.3,45.1,80.5
			c40.2,7.1,68.9-16.8,112.6-37.9c38.5-18.5,63.4,10.3,108.8,19.2c31.3,6.1,57.8-10,76.5-35.7c24.5-33.6,26.9-63.2,31-98.3
			c4.6-38.9,24.7-56.5,40.5-75.9C553.2,15.1,493.5-46.9,442.4-23.4z"/>
		<path class="st1" d="M357.3,38.2c-55.8,25.8-60.9,81-111.7,53.1c-15.1-8.3-26.6-17.7-41.1-20.9c-41.6-8.7-53.8,51.2-92,45.9
			c-24.4-3.3-61.1-13.5-91.3,21.3C5.6,155.5,4.9,176.4,3.2,202.1c-3.6,53.4-47.5,69.3-62,127c-12.3,49.1,11.8,87.6,53.1,94.9
			c47.5,8.3,81.3-19.9,132.9-44.7c45.4-21.9,74.8,12.1,128.3,22.7c36.9,7.3,68.3-11.7,90.3-42.1c28.9-39.7,31.7-74.5,36.6-116.1
			c5.3-45.9,29.1-66.7,47.7-89.5C488.1,83.6,417.5,10.4,357.3,38.2z"/>
		<path class="st2" d="M261,118.9c-35.3,3.3-48.5,32.4-70.8,7.5c-6.6-7.4-11-14.6-18.3-19.1c-20.9-12.6-39,17.5-58.7,7.4
			c-12.5-6.5-30.6-18.9-53.6-5.9c-11.8,6.7-16.2,18-22.1,31.6c-12.1,28.4-39,28.6-57.8,57.1c-16,24.4-10.2,49.8,10.7,61.7
			c24.3,13.6,47.9,4.8,80.7,1.1c28.9-3.2,38.3,20.9,65.4,36.8c18.6,11,39.3,6.6,57.1-5.6c23.2-16,31.4-34.4,41.9-56
			c11.7-24,28.6-30.7,43.1-39.5C323.3,168.5,299,115.3,261,118.9z"/>
		<g>
			<path class="st3" d="M36.8,197.3l-0.4-0.2c26.2-59.2,90.1-92.2,153.5-79.3c5.1,1,10.3,2.3,15.3,3.6c17.4,4.4,35.4,9,51.8,2.4
				c10.7-4.3,19-12.9,27.2-21.4s17.9-18.3,29.9-22.2c9.6-3.1,20-2.2,29.9-1.3c5,0.4,10.3,0.9,15.4,0.8c26.2-0.3,52.1-16,64.5-39.1
				c12.3-23.1,11.3-53.3-2.7-75.5l0.4-0.2c7.1,11.3,11.1,24.3,11.5,37.6c0.6,13.3-2.4,26.5-8.7,38.3c-6.4,11.7-15.8,21.5-27.3,28.4
				c-11.4,6.9-24.4,10.7-37.7,11c-5.1,0.1-10.4-0.4-15.5-0.8c-9.8-0.9-20.1-1.8-29.6,1.3c-11.9,3.7-21,13-29.7,22.1
				s-16.5,17-27.4,21.5c-16.5,6.6-34.7,2-52.1-2.4c-5-1.3-10.2-2.6-15.3-3.6C126.6,105.5,63,138.3,36.8,197.3z"/>
		</g>
		<g>
			<path class="st3" d="M163.8,296.3c-54.7,0-99-44.4-99-99.1s44.4-99,99.1-99c54.7,0,99,44.4,99,99.1c0,26.3-10.5,51.4-29,70
				C215.4,286,190.1,296.4,163.8,296.3z M163.8,98.5c-54.5,0-98.6,44.2-98.6,98.6s44.2,98.6,98.6,98.6s98.6-44.2,98.6-98.6
				C262.4,142.7,218.3,98.6,163.8,98.5z"/>
			<path class="st3" d="M163.8,284c-47.9,0.1-86.9-38.8-86.9-86.7c-0.1-47.9,38.8-86.9,86.7-86.9c47.9-0.1,86.9,38.8,86.9,86.7
				c0,0,0,0.1,0,0.1C250.5,245.1,211.7,283.9,163.8,284z M163.8,111c-47.7-0.1-86.4,38.5-86.4,86.2s38.5,86.4,86.2,86.4
				c47.7,0.1,86.4-38.5,86.4-86.2c0-0.1,0-0.1,0-0.2C250,149.6,211.4,111,163.8,111L163.8,111z"/>
			<path class="st3" d="M163.8,271.7c-41.1,0.1-74.5-33.2-74.6-74.4c-0.1-41.1,33.2-74.5,74.4-74.6c41.1-0.1,74.5,33.2,74.6,74.4
				c0,0,0,0.1,0,0.1C238.2,238.3,204.9,271.6,163.8,271.7z M163.8,123.3c-40.9-0.1-74,33-74.1,73.9s33,74,73.9,74.1s74-33,74.1-73.9
				c0-0.1,0-0.1,0-0.2C237.6,156.4,204.6,123.4,163.8,123.3z"/>
			<path class="st3" d="M163.8,259.3c-34.3,0-62.1-27.8-62.1-62.1s27.8-62.1,62.1-62.1s62.1,27.8,62.1,62.1S198.1,259.3,163.8,259.3
				L163.8,259.3z M163.8,135.6c-34,0-61.6,27.6-61.6,61.6s27.6,61.6,61.6,61.6s61.6-27.6,61.6-61.6
				C225.3,163.2,197.8,135.7,163.8,135.6z"/>
			<path class="st3" d="M163.8,246.9c-27.5,0-49.7-22.3-49.7-49.7s22.3-49.7,49.7-49.7s49.7,22.3,49.7,49.7v0
				C213.6,224.7,191.3,246.9,163.8,246.9z M163.8,148.1c-27.2,0-49.2,22-49.2,49.2c0,27.2,22,49.2,49.2,49.2s49.2-22,49.2-49.2
				c0,0,0-0.1,0-0.1C213,170.1,191,148.1,163.8,148.1L163.8,148.1z"/>
		</g>
		<g>
			
				<rect x="211.6" y="99.6" transform="matrix(0.7071 -0.7071 0.7071 0.7071 8.2885 220.1743)" class="st3" width="116.6" height="1"/>
		</g>
	</g>
</g>
</svg>
