<?xml version="1.0" encoding="utf-8"?>
<!-- Generator: Adobe Illustrator 22.1.0, SVG Export Plug-In . SVG Version: 6.00 Build 0)  -->
<svg version="1.1" id="Layer_1" xmlns="http://www.w3.org/2000/svg" xmlns:xlink="http://www.w3.org/1999/xlink" x="0px" y="0px"
	 viewBox="0 0 316.8 136.8" style="enable-background:new 0 0 316.8 136.8;" xml:space="preserve">
<style type="text/css">
	.st0{fill:#D7F4E5;}
	.st1{fill:#A7F2C5;}
	.st2{fill:#A5F2B9;}
	.st3{fill:#FFFFFF;}
	.st4{fill:#F9F7F7;}
</style>
<title>Artboard 86</title>
<g>
	<g id="Layer_1_1_">
		<path class="st0" d="M-47.3-86.2c39.9,32.5,83.3,15.9,81,64.4C33-7.3,30.1,4.6,33.2,16.7c8.6,34.5,58.2,21.7,68.3,52.4
			c6.4,19.5,12.3,50.8,49.5,60.8c19.1,5.1,35.1-2.1,55-10.2c41.6-16.9,69.6,10.3,118.3-0.1c41.5-8.8,61.6-41.1,51.8-74.8
			C365,5.9,331.4-9.1,293.7-38.7c-33.2-26.1-18.4-60.7-30.2-104.8c-8.1-30.4-34-47-64.8-52.5c-40.4-7.1-67.6,3.6-100.7,15.2
			c-36.5,12.8-60.9,2.6-84.9-3.1C-61.2-201.2-90.4-121.3-47.3-86.2z"/>
		<path class="st1" d="M416.5-294.8c-55.1,25.4-60.1,80-110.3,52.5c-14.9-8.2-26.2-17.5-40.6-20.6c-41.1-8.6-53.2,50.6-90.9,45.3
			c-24.1-3.3-60.3-13.4-90.2,21c-15.3,17.6-16,38.3-17.7,63.7C63.3-80.2,19.9-64.6,5.6-7.5C-6.5,41,17.3,79,58.1,86.2
			C105,94.4,138.4,66.6,189.4,42c44.8-21.6,73.9,12,126.7,22.4c36.4,7.2,67.4-11.6,89.2-41.6c28.5-39.2,31.3-73.6,36.1-114.6
			c5.2-45.3,28.7-65.8,47.1-88.4C545.6-250,475.9-322.3,416.5-294.8z"/>
		<path class="st2" d="M350.1-80c-34.8,3.3-47.9,32-69.9,7.4c-6.5-7.3-10.9-14.5-18.1-18.9c-20.6-12.5-38.5,17.3-58,7.3
			c-12.4-6.4-30.2-18.7-53-5.8c-11.7,6.6-16,17.8-21.8,31.2c-12,28-38.5,28.2-57.1,56.4C56.3,21.7,62.1,46.8,82.8,58.5
			c24,13.5,47.3,4.8,79.7,1.1c28.5-3.2,37.8,20.6,64.5,36.3c18.4,10.9,38.8,6.5,56.4-5.5c22.9-15.8,31-34,41.4-55.3
			C336.4,11.4,353,4.7,367.4-4C411.6-31,387.6-83.6,350.1-80z"/>
		<g>
			<path class="st3" d="M50.5,80.1l-0.4-0.2C76,21.4,139-11.1,201.7,1.6c5,1,10.2,2.3,15.1,3.6c17.2,4.3,35,8.8,51.2,2.3
				c10.6-4.3,18.8-12.8,26.8-21.1s17.7-18.1,29.5-21.9c9.5-3.1,19.7-2.2,29.5-1.3c5,0.4,10.2,0.9,15.2,0.8
				c25.8-0.3,51.5-15.8,63.7-38.6s11.2-52.7-2.7-74.5l0.4-0.2c7,11.1,11,24,11.4,37.1c0.6,13.1-2.4,26.2-8.6,37.8
				c-6.3,11.6-15.6,21.2-26.9,28c-11.2,6.9-24.1,10.6-37.2,10.9c-5,0.1-10.3-0.4-15.3-0.8c-9.7-0.9-19.8-1.8-29.2,1.3
				c-11.8,3.7-20.7,12.9-29.3,21.8C286.7-4.3,279,3.6,268.3,8c-16.3,6.5-34.3,2-51.5-2.4c-5-1.3-10.1-2.6-15.1-3.6
				C139.1-10.6,76.3,21.9,50.5,80.1z"/>
		</g>
		<g>
			<path class="st3" d="M233.8,92.3c-26,0.1-51-10.2-69.3-28.6c-18.4-18.4-28.7-43.3-28.6-69.3c-0.1-26,10.2-50.9,28.6-69.2
				c18.3-18.5,43.3-28.8,69.3-28.7c26-0.1,50.9,10.3,69.2,28.7c18.4,18.3,28.8,43.2,28.7,69.2c0.1,26-10.3,51-28.7,69.3
				C284.7,82.1,259.8,92.4,233.8,92.3z M233.8-103.1C180-103,136.4-59.5,136.4-5.7c0.1,53.8,43.6,97.4,97.4,97.4
				c53.8-0.1,97.4-43.6,97.4-97.4C331.1-59.4,287.6-103,233.8-103.1z"/>
			<path class="st3" d="M233.8,80.1c-47.3-0.1-85.7-38.4-85.7-85.7c0.1-47.3,38.4-85.6,85.7-85.6c47.3,0.1,85.6,38.4,85.6,85.6
				C319.5,41.7,281.1,80,233.8,80.1z M233.8-90.8c-47,0-85.2,38.1-85.2,85.1c0.1,47.1,38.2,85.2,85.2,85.2
				c47-0.1,85.1-38.2,85.1-85.2S280.8-90.7,233.8-90.8z"/>
			<path class="st3" d="M233.8,67.9c-40.6-0.1-73.5-33-73.6-73.6c0.1-40.6,33-73.4,73.6-73.5c40.5,0.1,73.4,32.9,73.5,73.5
				C307.3,34.9,274.4,67.9,233.8,67.9z M233.8-78.6c-40.3,0.1-73,32.7-73.1,73c0.1,40.3,32.7,73,73.1,73.1
				c40.3-0.1,72.9-32.8,73-73.1C306.7-45.9,274.1-78.6,233.8-78.6z"/>
			<path class="st3" d="M233.8,55.6c-33.8,0-61.3-27.4-61.3-61.3S199.9-67,233.8-67l0,0c33.8,0.1,61.2,27.5,61.3,61.3
				C295.1,28.2,267.7,55.6,233.8,55.6L233.8,55.6z M233.8-66.4c-33.5,0.1-60.7,27.2-60.8,60.8c0,33.6,27.2,60.8,60.8,60.8l0,0
				c33.5-0.1,60.7-27.2,60.8-60.8C294.6-39.2,267.4-66.4,233.8-66.4z"/>
			<path class="st3" d="M233.8,43.5c-27.1,0-49.1-22-49.1-49.1c0.1-27.1,22-49,49.1-49s49,21.9,49.1,49
				C282.9,21.4,260.9,43.4,233.8,43.5z M233.8-54.2c-26.8,0-48.6,21.7-48.6,48.5s21.8,48.6,48.6,48.6l0,0
				c26.8-0.1,48.6-21.8,48.6-48.6C282.3-32.4,260.6-54.1,233.8-54.2z"/>
		</g>
		<g>
			
				<rect x="81.1" y="28.6" transform="matrix(0.7071 -0.7071 0.7071 0.7071 20.0507 106.5684)" class="st4" width="115.1" height="1"/>
		</g>
	</g>
</g>
</svg>
