<?xml version="1.0" encoding="utf-8"?>
<!-- Generator: Adobe Illustrator 22.1.0, SVG Export Plug-In . SVG Version: 6.00 Build 0)  -->
<svg version="1.1" id="Layer_1" xmlns="http://www.w3.org/2000/svg" xmlns:xlink="http://www.w3.org/1999/xlink" x="0px" y="0px"
	 viewBox="0 0 469.3 469.3" style="enable-background:new 0 0 469.3 469.3;" xml:space="preserve">
<style type="text/css">
	.st0{fill:#023A1C;}
</style>
<path class="st0" d="M437.3,192h-160V32c0-17.7-14.3-32-32-32H224c-17.7,0-32,14.3-32,32v160H32c-17.7,0-32,14.3-32,32v21.3
	c0,17.7,14.3,32,32,32h160v160c0,17.7,14.3,32,32,32h21.3c17.7,0,32-14.3,32-32v-160h160c17.7,0,32-14.3,32-32V224
	C469.3,206.3,455,192,437.3,192z"/>
</svg>
