<?xml version="1.0" encoding="utf-8"?>
<!-- Generator: Adobe Illustrator 22.1.0, SVG Export Plug-In . SVG Version: 6.00 Build 0)  -->
<svg version="1.1" id="Layer_1" xmlns="http://www.w3.org/2000/svg" xmlns:xlink="http://www.w3.org/1999/xlink" x="0px" y="0px"
	 viewBox="0 0 512 512" style="enable-background:new 0 0 512 512;" xml:space="preserve">
<style type="text/css">
	.st0{fill:#FFFFFF;}
</style>
<path class="st0" d="M256,85.7c-8.8,0-16,7.2-16,16v49.6c-45.9,7-82,43.1-89,89h-49.6c-8.8,0-16,7.2-16,16s7.2,16,16,16H151
	c7,45.9,43.1,82.1,89,89V411c0,8.8,7.2,16,16,16s16-7.2,16-16v-49.6c45.9-7,82-43.1,89-89h49.6c8.8,0,16-7.2,16-16s-7.2-16-16-16
	H361c-7-45.9-43.1-82-89-89v-49.6C272,92.8,264.8,85.7,256,85.7z M330.7,256.3c0,41.2-33.5,74.7-74.7,74.7s-74.7-33.5-74.7-74.7
	c0-41.2,33.5-74.7,74.7-74.7S330.7,215.2,330.7,256.3z"/>
<path class="st0" d="M16,149.7c8.8,0,16-7.2,16-16v-32C32,97.2,33,75,53.3,75h37.3c8.8,0,16-7.2,16-16s-7.2-16-16-16H53.3
	C22.4,43,0,67.7,0,101.7v32C0,142.5,7.2,149.7,16,149.7z"/>
<path class="st0" d="M453.3,43h-32c-8.8,0-16,7.2-16,16s7.2,16,16,16h32C468,75,480,87,480,101.7v32c0,8.8,7.2,16,16,16
	s16-7.2,16-16v-32C512,69.3,485.7,43,453.3,43z"/>
<path class="st0" d="M53.3,469.7h37.3c8.8,0,16-7.2,16-16s-7.2-16-16-16H53.3C33,437.7,32,415.4,32,411v-32c0-8.8-7.2-16-16-16
	s-16,7.2-16,16v32C0,445,22.4,469.7,53.3,469.7z"/>
<path class="st0" d="M496,363c-8.8,0-16,7.2-16,16v32c0,14.7-12,26.7-26.7,26.7h-32c-8.8,0-16,7.2-16,16s7.2,16,16,16h32
	c32.4,0,58.7-26.3,58.7-58.7v-32C512,370.2,504.8,363,496,363z"/>
</svg>
