<?xml version="1.0" encoding="utf-8"?>
<!-- Generator: Adobe Illustrator 22.1.0, SVG Export Plug-In . SVG Version: 6.00 Build 0)  -->
<svg version="1.1" id="Layer_1" xmlns="http://www.w3.org/2000/svg" xmlns:xlink="http://www.w3.org/1999/xlink" x="0px" y="0px"
	 viewBox="0 0 512 512" style="enable-background:new 0 0 512 512;" xml:space="preserve">
<g>
	<path d="M424,64h-88V48c0-26.5-21.5-48-48-48h-64c-26.5,0-48,21.5-48,48v16H88c-22.1,0-40,17.9-40,40v56c0,8.8,7.2,16,16,16h8.7
		l13.8,290.3c1.2,25.6,22.3,45.7,47.9,45.7h243c25.7,0,46.7-20.1,47.9-45.7L439.3,176h8.7c8.8,0,16-7.2,16-16v-56
		C464,81.9,446.1,64,424,64L424,64z M208,48c0-8.8,7.2-16,16-16h64c8.8,0,16,7.2,16,16v16h-96V48z M80,104c0-4.4,3.6-8,8-8h336
		c4.4,0,8,3.6,8,8v40c-4.9,0-331.6,0-352,0V104z M393.5,464.8c-0.4,8.5-7.4,15.2-16,15.2h-243c-8.6,0-15.6-6.7-16-15.2L104.8,176
		h302.4L393.5,464.8z"/>
</g>
</svg>
