<?xml version="1.0" encoding="utf-8"?>
<!-- Generator: Adobe Illustrator 22.1.0, SVG Export Plug-In . SVG Version: 6.00 Build 0)  -->
<svg version="1.1" id="Capa_1" xmlns="http://www.w3.org/2000/svg" xmlns:xlink="http://www.w3.org/1999/xlink" x="0px" y="0px"
	 viewBox="0 0 296 296" style="enable-background:new 0 0 296 296;" xml:space="preserve">
<style type="text/css">
	.st0{fill:#30DD8A;}
</style>
<g>
	<path class="st0" d="M148,0C66.4,0,0,66.4,0,148s66.4,148,148,148s148-66.4,148-148S229.6,0,148,0z M148,280
		c-36.3,0-69.1-14.7-93-38.4c-9.5-9.5-17.6-20.4-23.9-32.4C21.4,190.8,16,170,16,148C16,75.2,75.2,16,148,16
		c34.5,0,66,13.3,89.5,35.1c12.2,11.3,22.3,24.8,29.6,40c8.3,17.2,12.9,36.5,12.9,56.9C280,220.8,220.8,280,148,280z"/>
	<path class="st0" d="M97.4,114.4c8.6,0,15.6,6.6,15.6,15.6h16c0-18-14.2-31.6-31.6-31.6S65.8,112,65.8,130h16
		C81.8,121,88.8,114.4,97.4,114.4z"/>
	<path class="st0" d="M198.6,114.4c8.6,0,15.6,6.6,15.6,15.6h16c0-18-14.2-31.6-31.6-31.6S167,112,167,130h16
		C183,121,190,114.4,198.6,114.4z"/>
	<path class="st0" d="M147.7,230c31,0,60.6-15.8,77.6-42.1l-13.4-8.7c-15.6,24.1-44.1,37.6-72.7,34.3c-22.3-2.6-42.8-15.4-55.1-34.3
		l-13.4,8.7c14.8,22.9,39.7,38.4,66.7,41.5C140.8,229.8,144.3,230,147.7,230z"/>
</g>
</svg>
