<?xml version="1.0" encoding="utf-8"?>
<!-- Generator: Adobe Illustrator 22.1.0, SVG Export Plug-In . SVG Version: 6.00 Build 0)  -->
<svg version="1.1" id="Layer_1" xmlns="http://www.w3.org/2000/svg" xmlns:xlink="http://www.w3.org/1999/xlink" x="0px" y="0px"
	 viewBox="0 0 104 104" style="enable-background:new 0 0 104 104;" xml:space="preserve">
<style type="text/css">
	.st0{fill:#FFFFFF;}
</style>
<g transform="rotate(0 50 50)">
	<path class="st0" d="M52,0L52,0c3.3,0,6,5.4,6,12l0,0c0,6.6-2.7,12-6,12l0,0c-3.3,0-6-5.4-6-12l0,0C46,5.4,48.7,0,52,0z	">
<animate  accumulate="none" additive="replace" attributeName="opacity" begin="-0.9166666666666666s" calcMode="linear" dur="1s" fill="remove" keyTimes="0;1" repeatCount="indefinite" restart="always" values="1;0">
			</animate>
	</path>
</g>
<g transform="rotate(30 50 50)">
	<path class="st0" d="M52.7-1.3L52.7-1.3c3.3,0,6,5.4,6,12l0,0c0,6.6-2.7,12-6,12l0,0c-3.3,0-6-5.4-6-12l0,0
		C46.7,4.1,49.4-1.3,52.7-1.3z	">
<animate  accumulate="none" additive="replace" attributeName="opacity" begin="-0.8333333333333334s" calcMode="linear" dur="1s" fill="remove" keyTimes="0;1" repeatCount="indefinite" restart="always" values="1;0">
			</animate>
	</path>
</g>
<g transform="rotate(60 50 50)">
	<path class="st0" d="M52.7-2.7L52.7-2.7c3.3,0,6,5.4,6,12l0,0c0,6.6-2.7,12-6,12l0,0c-3.3,0-6-5.4-6-12l0,0
		C46.7,2.6,49.4-2.7,52.7-2.7z	">
<animate  accumulate="none" additive="replace" attributeName="opacity" begin="-0.75s" calcMode="linear" dur="1s" fill="remove" keyTimes="0;1" repeatCount="indefinite" restart="always" values="1;0">
			</animate>
	</path>
</g>
<g transform="rotate(90 50 50)">
	<path class="st0" d="M52-4L52-4c3.3,0,6,5.4,6,12l0,0c0,6.6-2.7,12-6,12l0,0c-3.3,0-6-5.4-6-12l0,0C46,1.4,48.7-4,52-4z	">
<animate  accumulate="none" additive="replace" attributeName="opacity" begin="-0.6666666666666666s" calcMode="linear" dur="1s" fill="remove" keyTimes="0;1" repeatCount="indefinite" restart="always" values="1;0">
			</animate>
	</path>
</g>
<g transform="rotate(120 50 50)">
	<path class="st0" d="M50.7-4.7L50.7-4.7c3.3,0,6,5.4,6,12l0,0c0,6.6-2.7,12-6,12l0,0c-3.3,0-6-5.4-6-12l0,0
		C44.7,0.7,47.4-4.7,50.7-4.7z	">
<animate  accumulate="none" additive="replace" attributeName="opacity" begin="-0.5833333333333334s" calcMode="linear" dur="1s" fill="remove" keyTimes="0;1" repeatCount="indefinite" restart="always" values="1;0">
			</animate>
	</path>
</g>
<g transform="rotate(150 50 50)">
	<path class="st0" d="M49.3-4.7L49.3-4.7c3.3,0,6,5.4,6,12l0,0c0,6.6-2.7,12-6,12l0,0c-3.3,0-6-5.4-6-12l0,0
		C43.3,0.7,45.9-4.7,49.3-4.7z	">
<animate  accumulate="none" additive="replace" attributeName="opacity" begin="-0.5s" calcMode="linear" dur="1s" fill="remove" keyTimes="0;1" repeatCount="indefinite" restart="always" values="1;0">
			</animate>
	</path>
</g>
<g transform="rotate(180 50 50)">
	<path class="st0" d="M48-4L48-4c3.3,0,6,5.4,6,12l0,0c0,6.6-2.7,12-6,12l0,0c-3.3,0-6-5.4-6-12l0,0C42,1.4,44.7-4,48-4z	">
<animate  accumulate="none" additive="replace" attributeName="opacity" begin="-0.4166666666666667s" calcMode="linear" dur="1s" fill="remove" keyTimes="0;1" repeatCount="indefinite" restart="always" values="1;0">
			</animate>
	</path>
</g>
<g transform="rotate(210 50 50)">
	<path class="st0" d="M47.3-2.7L47.3-2.7c3.3,0,6,5.4,6,12l0,0c0,6.6-2.7,12-6,12l0,0c-3.3,0-6-5.4-6-12l0,0
		C41.3,2.7,44-2.7,47.3-2.7z	">
<animate  accumulate="none" additive="replace" attributeName="opacity" begin="-0.3333333333333333s" calcMode="linear" dur="1s" fill="remove" keyTimes="0;1" repeatCount="indefinite" restart="always" values="1;0">
			</animate>
	</path>
</g>
<g transform="rotate(240 50 50)">
	<path class="st0" d="M47.3-1.3L47.3-1.3c3.3,0,6,5.4,6,12l0,0c0,6.6-2.7,12-6,12l0,0c-3.3,0-6-5.4-6-12l0,0
		C41.3,4.1,44-1.3,47.3-1.3z	">
<animate  accumulate="none" additive="replace" attributeName="opacity" begin="-0.25s" calcMode="linear" dur="1s" fill="remove" keyTimes="0;1" repeatCount="indefinite" restart="always" values="1;0">
			</animate>
	</path>
</g>
<g transform="rotate(270 50 50)">
	<path class="st0" d="M48,0L48,0c3.3,0,6,5.4,6,12l0,0c0,6.6-2.7,12-6,12l0,0c-3.3,0-6-5.4-6-12l0,0C42,5.4,44.7,0,48,0z	">
<animate  accumulate="none" additive="replace" attributeName="opacity" begin="-0.16666666666666666s" calcMode="linear" dur="1s" fill="remove" keyTimes="0;1" repeatCount="indefinite" restart="always" values="1;0">
			</animate>
	</path>
</g>
<g transform="rotate(300 50 50)">
	<path class="st0" d="M49.3,0.7L49.3,0.7c3.3,0,6,5.4,6,12l0,0c0,6.6-2.7,12-6,12l0,0c-3.3,0-6-5.4-6-12l0,0
		C43.3,6.1,46,0.7,49.3,0.7z	">
<animate  accumulate="none" additive="replace" attributeName="opacity" begin="-0.08333333333333333s" calcMode="linear" dur="1s" fill="remove" keyTimes="0;1" repeatCount="indefinite" restart="always" values="1;0">
			</animate>
	</path>
</g>
<g transform="rotate(330 50 50)">
	<path class="st0" d="M50.7,0.7L50.7,0.7c3.3,0,6,5.4,6,12l0,0c0,6.6-2.7,12-6,12l0,0c-3.3,0-6-5.4-6-12l0,0
		C44.7,6.1,47.4,0.7,50.7,0.7z	">
<animate  accumulate="none" additive="replace" attributeName="opacity" begin="0s" calcMode="linear" dur="1s" fill="remove" keyTimes="0;1" repeatCount="indefinite" restart="always" values="1;0">
			</animate>
	</path>
</g>
</svg>
