<?xml version="1.0" encoding="utf-8"?>
<!-- Generator: Adobe Illustrator 22.1.0, SVG Export Plug-In . SVG Version: 6.00 Build 0)  -->
<svg version="1.1" id="Layer_1" xmlns="http://www.w3.org/2000/svg" xmlns:xlink="http://www.w3.org/1999/xlink" x="0px" y="0px"
	 viewBox="0 0 384 384" style="enable-background:new 0 0 384 384;" xml:space="preserve">
<style type="text/css">
	.st0{fill:#023A1C;}
</style>
<path class="st0" d="M362.7,21H21.3C9.6,21,0,30.6,0,42.3V85c0,11.8,9.6,21.3,21.3,21.3h341.3c11.8,0,21.3-9.6,21.3-21.3V42.3
	C384,30.6,374.4,21,362.7,21z"/>
<path class="st0" d="M362.7,149H21.3C9.6,149,0,158.6,0,170.3V213c0,11.8,9.6,21.3,21.3,21.3h341.3c11.8,0,21.3-9.6,21.3-21.3v-42.7
	C384,158.6,374.4,149,362.7,149z"/>
<path class="st0" d="M362.7,277H21.3C9.6,277,0,286.6,0,298.3V341c0,11.8,9.6,21.3,21.3,21.3h341.3c11.8,0,21.3-9.6,21.3-21.3v-42.7
	C384,286.6,374.4,277,362.7,277z"/>
</svg>
