<?xml version="1.0" encoding="utf-8"?>
<!-- Generator: Adobe Illustrator 22.1.0, SVG Export Plug-In . SVG Version: 6.00 Build 0)  -->
<svg version="1.1" id="Layer_1" xmlns="http://www.w3.org/2000/svg" xmlns:xlink="http://www.w3.org/1999/xlink" x="0px" y="0px"
	 viewBox="0 0 512 512" style="enable-background:new 0 0 512 512;" xml:space="preserve">
<style type="text/css">
	.st0{fill:#923FEA;}
	.st1{fill:#E1E0E2;}
	.st2{fill:#EEEFEE;}
	.st3{fill:#DBD8DD;}
</style>
<circle class="st0" cx="256.2" cy="256.2" r="256.2"/>
<g id="icon">
	<path class="st1" d="M256.1,194.5L203.4,266l-24.3-71.5H256.1z"/>
	<path class="st2" d="M203.4,266h-83.8l59.6-71.5L203.4,266z"/>
	<path class="st2" d="M392.4,266h-83.7l24.1-71.5L392.4,266z"/>
	<path class="st3" d="M392.4,266L256.1,422l52.7-156H392.4z"/>
	<path class="st3" d="M256.1,422L119.6,266h83.8L256.1,422z"/>
	<path class="st1" d="M332.9,194.5L308.8,266h-0.2l-52.5-71.5H332.9z"/>
	<path class="st2" d="M308.8,266l-52.7,156l-52.7-156H308.8z"/>
	<path class="st3" d="M308.6,266H203.4l52.7-71.5L308.6,266z"/>
	<g>
		<path class="st2" d="M255.1,90h3c3.5,0,6.3,2.8,6.3,6.3v41.8c0,3.5-2.8,6.3-6.3,6.3h-3c-3.5,0-6.3-2.8-6.3-6.3V96.3
			C248.8,92.8,251.6,90,255.1,90z"/>
		<path class="st2" d="M164,114.6l2.6-1.5c3-1.7,6.9-0.7,8.6,2.3l20.9,36.2c1.7,3,0.7,6.9-2.3,8.6l-2.6,1.5c-3,1.7-6.9,0.7-8.6-2.3
			l-20.9-36.2C159.9,120.2,160.9,116.3,164,114.6z"/>
		<path class="st2" d="M89.3,181.4l1.5-2.6c1.7-3,5.6-4.1,8.6-2.3l36.2,20.9c3,1.7,4.1,5.6,2.3,8.6l-1.5,2.6c-1.7,3-5.6,4.1-8.6,2.3
			L91.6,190C88.6,188.3,87.6,184.4,89.3,181.4z"/>
		<path class="st2" d="M421.2,180.9l1.5,2.6c1.7,3,0.7,6.9-2.3,8.6L384.2,213c-3,1.7-6.9,0.7-8.6-2.3l-1.5-2.6
			c-1.7-3-0.7-6.9,2.3-8.6l36.2-20.9C415.6,176.9,419.4,177.9,421.2,180.9z"/>
		<path class="st2" d="M346.3,114.3l2.6,1.5c3,1.7,4.1,5.6,2.3,8.6l-20.9,36.2c-1.7,3-5.6,4.1-8.6,2.3l-2.6-1.5
			c-3-1.7-4.1-5.6-2.3-8.6l20.9-36.2C339.4,113.6,343.3,112.5,346.3,114.3z"/>
	</g>
</g>
</svg>
