<?xml version="1.0" encoding="iso-8859-1"?>
<!-- Generator: Adobe Illustrator 19.0.0, SVG Export Plug-In . SVG Version: 6.00 Build 0)  -->
<svg version="1.1" id="Capa_1" xmlns="http://www.w3.org/2000/svg" xmlns:xlink="http://www.w3.org/1999/xlink" x="0px" y="0px"
	 viewBox="0 0 512 512" style="enable-background:new 0 0 512 512;" xml:space="preserve">
<g>
	<g>
		<path d="M482.079,346.871c-8.408,6.04-18.328,9.232-28.688,9.232c-27.16,0-49.256-22.096-49.256-49.256
			c0-27.16,22.096-49.256,49.256-49.256c10.362,0,20.282,3.193,28.688,9.232l23.752,17.065V101.695H382.977
			c2.129-7.216,3.221-14.753,3.221-22.439C386.198,35.554,350.644,0,306.942,0c-43.702,0-79.255,35.554-79.257,79.256
			c0,7.686,1.092,15.222,3.221,22.439H108.052v127.802c-7.273-2.164-14.871-3.274-22.627-3.274
			c-43.702,0-79.256,35.554-79.256,79.256s35.554,79.256,79.256,79.256c7.756,0,15.354-1.11,22.627-3.275V512h175.93l-17.064-23.752
			c-6.04-8.407-9.232-18.327-9.232-28.688c0-27.16,22.096-49.256,49.256-49.256c27.16,0,49.256,22.096,49.256,49.256
			c0,10.361-3.193,20.281-9.232,28.688L329.902,512h175.929V329.807L482.079,346.871z M475.832,482h-92.854
			c2.128-7.217,3.22-14.753,3.218-22.44c0-43.702-35.554-79.256-79.256-79.256c-43.702,0-79.256,35.554-79.256,79.256
			c0,7.687,1.092,15.223,3.221,22.44h-92.854V328.174l-23.796,17.225c-8.435,6.107-18.405,9.335-28.831,9.335
			c-27.16,0-49.256-22.096-49.256-49.256c0-27.16,22.096-49.256,49.256-49.256c10.426,0,20.395,3.228,28.831,9.335l23.796,17.225
			V131.695h145.93l-17.063-23.752c-6.041-8.407-9.233-18.327-9.233-28.688c0-27.16,22.096-49.256,49.256-49.256
			c27.16,0,49.256,22.096,49.256,49.256c0,10.361-3.192,20.281-9.232,28.688l-17.063,23.752h145.93v99.117
			c-7.216-2.129-14.753-3.221-22.439-3.221c-43.702,0-79.256,35.554-79.256,79.256c0,43.702,35.554,79.256,79.256,79.256
			c7.686,0,15.222-1.092,22.439-3.221V482z"/>
	</g>
</g>
<g>
</g>
<g>
</g>
<g>
</g>
<g>
</g>
<g>
</g>
<g>
</g>
<g>
</g>
<g>
</g>
<g>
</g>
<g>
</g>
<g>
</g>
<g>
</g>
<g>
</g>
<g>
</g>
<g>
</g>
</svg>
