<svg id="Capa_1" xmlns="http://www.w3.org/2000/svg" width="512" height="512" viewBox="0 0 512 512"><defs><style>.cls-1{fill:#fccb5b;}.cls-2{fill:#f9ddaa;}.cls-3{fill:#e1f4f9;}.cls-4{fill:#baeaf7;}.cls-5{fill:#87d7f5;}.cls-6{fill:#6ad0ef;}.cls-7{fill:#33bddd;}.cls-8{fill:#888889;}.cls-9{fill:#79797a;}.cls-10{fill:#77c680;}.cls-11{fill:#68ba6e;}</style></defs><title>aArtboard 1</title><circle class="cls-1" cx="256" cy="256" r="256"/><path class="cls-2" d="M433.4,301a13.3,13.3,0,0,1-13.3,13.3H388.5a13.4,13.4,0,1,0,0,26.7h3.7a13.3,13.3,0,0,1,13.3,13.3,13.3,13.3,0,0,0,13.3,13.3h67.6a254.1,254.1,0,0,0,23.7-79.9H446.8A13.3,13.3,0,0,0,433.4,301Z"/><path class="cls-2" d="M407.7,49.8H367.9a13.3,13.3,0,1,0,0,26.6h31.5a13.2,13.2,0,0,1,9.4,3.9,13.4,13.4,0,0,1-9.4,22.8H326.1a13.3,13.3,0,0,0-13.3,13.3,13.4,13.4,0,0,0,13.3,13.3h99.4a13.6,13.6,0,0,1,9.5,3.9,13.4,13.4,0,0,1-9.5,22.8H386.4a13.2,13.2,0,0,0-9.4,3.9,12.9,12.9,0,0,0-4,9.4A13.4,13.4,0,0,0,386.4,183h115A256,256,0,0,0,407.7,49.8Z"/><path class="cls-2" d="M133,205H59.8a13.3,13.3,0,0,1-13.3-13.3,13.5,13.5,0,0,1,3.9-9.5,13.2,13.2,0,0,1,9.4-3.9H88.2a13.3,13.3,0,0,0,0-26.6h-66a252.1,252.1,0,0,0-21,79.9H133a13.3,13.3,0,0,0,0-26.6Z"/><path class="cls-3" d="M50.8,409.1H461.2a249.4,249.4,0,0,0,24.9-40.9L256,143.7,120,276.4,25.9,368.2A249.4,249.4,0,0,0,50.8,409.1Z"/><path class="cls-4" d="M342.9,228.5,256,143.7,120,276.4,25.9,368.2a249.4,249.4,0,0,0,24.9,40.9H310.6Z"/><path class="cls-5" d="M50.8,409.1H208.5L256,143.7,120,276.4,25.9,368.2A249.4,249.4,0,0,0,50.8,409.1Z"/><path class="cls-6" d="M120,276.4,25.9,368.2a249.4,249.4,0,0,0,24.9,40.9h56.6l26.1-145.9Z"/><path class="cls-6" d="M433.4,306.3l-114.8-112h-.1l-57.3-55.9-.2-.3a.2.2,0,0,1-.2-.2l-.4-.2-.2-.2h-.4l-.3-.2h-.3l-.4-.2h-6.6l-.3.2h-.4c0,.1-.1.1-.2.2h-.1l-.3.2c0,.1-.1.1-.1.2L22.3,360.7c2.2,4.9,4.5,9.6,7,14.2l52.1-50.7-9,50.2L46.2,400a6.3,6.3,0,0,0-1.1,1.2c1.9,2.7,3.8,5.3,5.8,7.9h7.4l9.6-9.3-1.5,8c0,.4-.1.9-.1,1.3H81.4l4.9-27.3,63.1-61.5-8.7,49.1L99.8,409.1h21.5l14.8-14.4-2.3,13.1a5.7,5.7,0,0,0-.1,1.3h15.1l5.8-32.4,63.1-61.4L209,363.7l-46.6,45.4h21.5l20.6-20-3.4,18.7a5.7,5.7,0,0,0-.1,1.3h15.1l4.8-26.8,27.5,26.8h35.1l7.9-44.2,44.4,43.3a2.8,2.8,0,0,0-.1.9h22.5l-6.3-6.1,10.2-56.8,44.5,43.5-3.2,18.1a5.7,5.7,0,0,0-.1,1.3h15.1l1.2-6.8,7,6.8H448l-25.2-24.6L433.1,327l47.8,46.6a6.8,6.8,0,0,0,1.8,1.3c2.4-4.5,4.7-9.1,6.8-13.8l-56.1-54.7ZM260.9,159l44.4,43.3L295,259.8l-44.4-43.3Zm-79.5,67.8,63.1-61.4-8.9,50-63.2,61.5ZM154,294.9,90.9,356.4l8.9-50.2,63.1-61.4Zm5.1,56.5,8.8-49.1L231,240.8,222.2,290Zm109.4,56.3-44.4-43.3,10-55.5,44.3,43.3Zm13.1-73.3-44.4-43.3,10.2-56.8,44.4,43.3Zm57.3,55.9L294.6,347l10.1-56.7,44.4,43.2Zm13.4-74.6-44.4-43.3,10.3-57.5,44.4,43.3Zm57.5,56.1-44.5-43.4,10.3-57.5,44.5,43.4Z"/><path class="cls-7" d="M29.3,374.9l52.1-50.7-9,50.2L46.2,400a6.3,6.3,0,0,0-1.1,1.2c1.9,2.7,3.8,5.3,5.8,7.9h7.4l9.6-9.3-1.5,8c0,.4-.1.9-.1,1.3H81.4l4.9-27.3,63.1-61.5-8.7,49.1L99.8,409.1h21.5l14.8-14.4-2.3,13.1a5.7,5.7,0,0,0-.1,1.3h15.1l5.8-32.4,63.1-61.4,12.5-69.8-8,44.5-63.1,61.4,8.8-49.1L231,240.8l4.6-25.4-63.2,61.5,9-50.1,63.1-61.4,6.3-27L22.3,360.7C24.5,365.6,26.8,370.3,29.3,374.9Zm70.5-68.7,63.1-61.4L154,294.9,90.9,356.4Z"/><polygon class="cls-7" points="209 363.7 162.4 409.1 183.9 409.1 204.5 389.1 201.1 407.8 209 363.7"/><path class="cls-8" d="M51.3,409.7a256,256,0,0,0,409.4,0Z"/><path class="cls-9" d="M171,461.8h0a54.9,54.9,0,0,1,37.5-52.1H51.3a256,256,0,0,0,138.9,93.7A54.3,54.3,0,0,1,171,461.8Z"/><path class="cls-5" d="M466.1,402.2H45.9c3.5,5.2,7.3,10.2,11.2,15H454.9C458.8,412.4,462.6,407.4,466.1,402.2Z"/><path class="cls-10" d="M494.1,350.3a50.7,50.7,0,0,0-20.6-4.3,51.8,51.8,0,0,0-50.3,39.7,1.1,1.1,0,0,1-1.4.9,34.2,34.2,0,0,0-7.9-1,32.3,32.3,0,0,0-16.8,4.8,1,1,0,0,1-1.4-.4A42.6,42.6,0,0,0,314,402.9a39.9,39.9,0,0,0,1.1,14.3H454.9A259,259,0,0,0,494.1,350.3Z"/><path class="cls-11" d="M393.7,385.9a42.6,42.6,0,0,0-79.7,17,39.9,39.9,0,0,0,1.1,14.3h61.4A46.9,46.9,0,0,1,393.7,385.9Z"/><path class="cls-6" d="M104.6,409.7h0a8.9,8.9,0,0,1,4.1-7.5H45.9c3.5,5.2,7.3,10.2,11.2,15h51.6A8.8,8.8,0,0,1,104.6,409.7Z"/></svg>
