<svg id="Capa_1" xmlns="http://www.w3.org/2000/svg" width="512" height="512" viewBox="0 0 512 512"><defs><style>.cls-1{fill:#533672;}.cls-2{fill:#754ca0;}.cls-3{fill:#e1b91e;}.cls-4{fill:#e9cc5a;}.cls-5{fill:#f1de96;}.cls-6{fill:#f5e8b4;}.cls-7{fill:#f9f1d2;}.cls-8{fill:#edd578;}</style></defs><title>aArtboard 1</title><path class="cls-1" d="M501,256a244.9,244.9,0,0,1-26.5,111C434,446.5,78,446.5,37.5,367A244.6,244.6,0,0,1,11,256C11,135.1,98.5,34.7,213.7,14.6c13.7-2.4,70.9-2.4,84.6,0C413.5,34.7,501,135.1,501,256Z"/><path class="cls-2" d="M443.3,413.9c-8.5,10.1-366.1,10.1-374.6,0A246.8,246.8,0,0,1,37.5,367L213.7,14.6a250.3,250.3,0,0,1,84.6,0L474.5,367A246.8,246.8,0,0,1,443.3,413.9Z"/><path class="cls-3" d="M510.6,158A82.7,82.7,0,0,0,404.2,94.1,83.7,83.7,0,0,0,355,136.6L343.1,160H168.9L157,136.6a83.7,83.7,0,0,0-49.2-42.5A82.7,82.7,0,0,0,20.9,227.8l74.8,84.4A120.3,120.3,0,0,0,66.5,391a115.5,115.5,0,0,0,2.2,22.9A244.1,244.1,0,0,0,161.3,482c20.6,8.7,148.2-37.6,220.7-65.4,36.5-13.9,55.5-54.8,41.6-91.4a46,46,0,0,0-7.3-13l74.8-84.4A82.3,82.3,0,0,0,510.6,158ZM195,250a15.1,15.1,0,0,0-14.1,20.2,119.6,119.6,0,0,0-63,21.8L43.3,207.9a52.7,52.7,0,1,1,86.5-58.8l17.9,35.5a14.9,14.9,0,0,0,20.1,6.6,14.6,14.6,0,0,0,6-5.5L206,250Zm273.7-42.1L394.1,292a119.6,119.6,0,0,0-63-21.8A15.1,15.1,0,0,0,317,250H306l32.1-64.3a15.5,15.5,0,0,0,6.1,5.5,14.9,14.9,0,0,0,20.1-6.6l17.9-35.5a52.7,52.7,0,1,1,86.5,58.8Z"/><path class="cls-4" d="M491.1,227.8l-13.2,14.9a15,15,0,0,1-22.4-19.9l13.2-14.9a52.7,52.7,0,1,0-86.5-58.8l-17.9,35.5a14.9,14.9,0,0,1-20.1,6.6,15.5,15.5,0,0,1-6.1-5.5l-2.4,4.9a71.3,71.3,0,0,1-127.5,0L192.9,160H343.1L355,136.6a83.7,83.7,0,0,1,49.2-42.5,82.7,82.7,0,0,1,86.9,133.7ZM147.7,184.6a15,15,0,0,0,26.8-13.5L157,136.6a83.7,83.7,0,0,0-49.2-42.5A82.7,82.7,0,0,0,20.9,227.8l13.2,14.9a15,15,0,0,0,22.4-19.9L43.3,207.9a52.7,52.7,0,1,1,86.5-58.8Zm183.4,85.6a15.5,15.5,0,0,0,.9-5.7A15.3,15.3,0,0,0,316.6,250H225.4c-8.1,0-15.1,6.3-15.4,14.4v.4a12.6,12.6,0,0,1-8.6,11.8A121,121,0,0,0,161.3,482a245.1,245.1,0,0,0,282-68.1,115.5,115.5,0,0,0,2.2-22.9A121,121,0,0,0,331.1,270.2Z"/><path class="cls-5" d="M256,442.1c67.4,0,131-9.9,186.7-27.5a252.9,252.9,0,0,1-20.9,21.8C370.2,450,314,457.1,256,457.1S141.8,450,90.2,436.4a252.9,252.9,0,0,1-20.9-21.8C125,432.2,188.6,442.1,256,442.1Zm189.3-58.3c-56.4,18.1-120.9,28.3-189.3,28.3S123.1,401.9,66.7,383.8c-.1,2.4-.2,4.8-.2,7.2s.1,5.8.3,8.6c57.8,18,122.3,27.5,189.2,27.5s131.4-9.5,189.2-27.5c.2-2.8.3-5.7.3-8.6s-.1-4.8-.2-7.2Zm-19.2-58.6a122.9,122.9,0,0,0-9.8-13C367.2,325,313,332.1,256,332.1S144.8,325,95.7,312.2a122.9,122.9,0,0,0-9.8,13c52.8,14.4,110.5,21.9,170.1,21.9S373.3,339.6,426.1,325.2Z"/><path class="cls-6" d="M256,354.5A27.5,27.5,0,1,0,283.5,382,27.5,27.5,0,0,0,256,354.5Zm0,40A12.5,12.5,0,1,1,268.5,382,12.5,12.5,0,0,1,256,394.5ZM123,338.6a27.5,27.5,0,1,0,27.5,27.5A27.5,27.5,0,0,0,123,338.6Zm0,40a12.5,12.5,0,1,1,12.5-12.5A12.5,12.5,0,0,1,123,378.6Zm266-40a27.5,27.5,0,1,0,27.5,27.5A27.5,27.5,0,0,0,389,338.6Zm0,40a12.5,12.5,0,1,1,12.5-12.5A12.5,12.5,0,0,1,389,378.6Z"/><path class="cls-7" d="M188.5,349.5A27.5,27.5,0,1,0,216,377,27.5,27.5,0,0,0,188.5,349.5Zm0,40A12.5,12.5,0,1,1,201,377,12.5,12.5,0,0,1,188.5,389.5Zm135-40A27.5,27.5,0,1,0,351,377,27.5,27.5,0,0,0,323.5,349.5Zm0,40A12.5,12.5,0,1,1,336,377,12.5,12.5,0,0,1,323.5,389.5Z"/><path class="cls-3" d="M221,313.7a10,10,0,1,1-10-10A10,10,0,0,1,221,313.7Zm71-33.2a10,10,0,1,0,10,10A10,10,0,0,0,292,280.5Zm-130.2,10a10,10,0,1,0,10,10A10,10,0,0,0,161.8,290.5Zm71.2-107a10,10,0,1,0,10,10A10,10,0,0,0,233,183.5Zm33,32.1a10,10,0,1,0,10,10A10,10,0,0,0,266,215.6Z"/><path class="cls-8" d="M126.2,429.3a117.6,117.6,0,0,0,7,16.7c-14.6-2.7-29-5.9-43-9.6a252.9,252.9,0,0,1-20.9-21.8A569.9,569.9,0,0,0,126.2,429.3Zm-6-31.3a536.2,536.2,0,0,1-53.5-14.2c-.1,2.4-.2,4.8-.2,7.2s.1,5.8.3,8.6a568.2,568.2,0,0,0,55.4,14.2A115.6,115.6,0,0,1,120.2,398Zm21.2-75.8c-15.6-2.8-30.9-6.1-45.7-10a122.9,122.9,0,0,0-9.8,13c15.4,4.2,31.2,7.8,47.3,10.8A119.4,119.4,0,0,1,141.4,322.2ZM123,353.6a12.6,12.6,0,0,1,2.8.4,114.4,114.4,0,0,1,5.5-14.1,28.3,28.3,0,0,0-8.3-1.3,27.5,27.5,0,0,0-3,54.9V391q0-6.3.6-12.6a12.5,12.5,0,0,1,2.4-24.8Z"/><path class="cls-5" d="M371,170H141a15,15,0,0,1,0-30H371a15,15,0,0,1,0,30Z"/><path class="cls-6" d="M371,170H195a15,15,0,0,1,0-30H371a15,15,0,0,1,0,30Z"/></svg>
