<svg id="Layer_1" enable-background="new 0 0 512 512" height="512" viewBox="0 0 512 512" width="512" xmlns="http://www.w3.org/2000/svg"><g><path d="m419.02 435.077c50.298-44.869 81.98-110.166 81.98-182.873 0-135.31-109.69-245-245-245s-245 109.69-245 245c0 72.707 31.682 138.004 81.98 182.873z" fill="#90482d"/><path d="m64.542 39.433c.696-1.145 1.481-2.23 2.34-3.25 5.263-6.256 13.41-10.005 22.396-9.184 12.652 1.156 22.763 11.592 23.555 24.271.947 15.15-11.06 27.733-26.006 27.733-.022 0-.045 0-.067 0-3.897-.01-6.959 3.316-6.424 7.176 1.436 10.365 8.858 22.046 30.537 31.02-3.505 10.786-5.79 22.649-6.821 35.586l-.346 4.346-20.58-29.496c-.83-1.188-2.182-1.742-3.601-1.5-1.44.251-2.529 1.247-2.91 2.662-5.472 20.274-6.865 39.059-6.055 55.616l-1.791.733c0-.001-48.522-81.797-4.227-145.713z" fill="#ffa219"/><path d="m447.458 39.433c-.696-1.145-1.481-2.23-2.34-3.25-5.263-6.256-13.41-10.005-22.396-9.184-12.652 1.156-22.763 11.592-23.555 24.271-.947 15.15 11.06 27.733 26.006 27.733h.068c3.897-.01 6.959 3.316 6.424 7.176-1.436 10.365-8.858 22.046-30.537 31.02 3.505 10.786 5.79 22.649 6.82 35.586l.346 4.346 20.58-29.496c.83-1.188 2.182-1.742 3.601-1.5 1.44.251 2.529 1.247 2.91 2.662 5.472 20.274 6.865 39.059 6.055 55.616l1.791.733c0-.001 48.522-81.797 4.227-145.713z" fill="#ffa219"/><path d="m466.089 100.275c-30.618 11.65-34.424-14.095-34.424-14.095-1.436 10.365-8.858 22.046-30.537 31.02 3.505 10.786 5.79 22.649 6.821 35.586l.346 4.346 20.58-29.496c.83-1.188 2.183-1.742 3.602-1.5 1.44.251 2.529 1.247 2.91 2.662 5.472 20.274 6.865 39.059 6.055 55.616l1.791.733c-.002-.002 23.358-39.399 22.856-84.872z" fill="#ff9100"/><path d="m45.902 100.275c30.618 11.65 34.425-14.095 34.425-14.095 1.436 10.365 8.858 22.046 30.537 31.02-3.505 10.786-5.789 22.649-6.821 35.586l-.346 4.346-20.58-29.496c-.83-1.188-2.183-1.742-3.602-1.5-1.44.251-2.528 1.247-2.91 2.662-5.472 20.274-6.865 39.059-6.055 55.616l-1.791.733c.001-.002-23.359-39.399-22.857-84.872z" fill="#ff9100"/><g><path d="m112.471 237.576.415 1.655-1.686.269c-4.757.757-7.068 3.098-7.068 7.156 0 1.243.218 2.766.63 4.4.262 1.033-.179 2.084-1.098 2.615-.917.528-2.048.389-2.817-.354-1.206-1.173-2.414-2.123-3.494-2.747-4.435-2.557-7.899-.012-10.292 3.277-5.861-10.827-29.532-60.335-11.955-125.458 1.155-4.279 6.768-5.284 9.304-1.649l19.5 27.948c-2.183 31.224 3.308 61.934 8.561 82.888z" fill="#ffb332"/></g><path d="m103.433 171.369c-2.267 1.054-3.949 3.16-4.328 5.736-1.145 7.796-5.843 20.556-23.899 25.334-1.527.404-2.943 1.078-4.2 1.964 4.153 25.686 12.819 43.465 16.055 49.444 2.393-3.289 5.858-5.834 10.292-3.277 1.08.624 2.288 1.575 3.494 2.747.769.743 1.899.882 2.817.354.919-.531 1.36-1.582 1.098-2.615-.412-1.635-.63-3.158-.63-4.4 0-4.057 2.312-6.398 7.068-7.156l1.685-.269-.415-1.655c-4.311-17.2-8.78-40.973-9.037-66.207z" fill="#ffa219"/><g><path d="m399.529 237.576-.415 1.655 1.686.269c4.757.757 7.068 3.098 7.068 7.156 0 1.243-.218 2.766-.63 4.4-.262 1.033.179 2.084 1.098 2.615.917.528 2.048.389 2.817-.354 1.206-1.173 2.415-2.123 3.495-2.747 4.435-2.557 7.899-.012 10.292 3.277 5.861-10.827 29.532-60.335 11.955-125.458-1.155-4.279-6.768-5.284-9.304-1.649l-19.499 27.948c2.181 31.224-3.31 61.934-8.563 82.888z" fill="#ffb332"/></g><path d="m434.316 202.439c-18.056-4.778-22.754-17.538-23.9-25.334-.221-1.507-.906-2.839-1.875-3.91-.448 24.553-4.804 47.596-9.011 64.381l-.415 1.655 1.686.269c4.756.757 7.068 3.098 7.068 7.156 0 1.243-.218 2.766-.63 4.4-.262 1.033.179 2.084 1.098 2.615.917.528 2.048.389 2.817-.354 1.206-1.173 2.415-2.123 3.494-2.747 4.435-2.557 7.899-.012 10.292 3.277 3.156-5.829 11.47-22.874 15.734-47.526-1.684-1.851-3.872-3.224-6.358-3.882z" fill="#ffa219"/><path d="m278.793 70.337c0 11.358 4.87 20.452 14.083 26.299 14.307 9.078 36.865 8.68 57.475-1.018 2.196-1.033 4.693-1.297 7.034-.741l2.233.531-.324-2.273c-.975-6.842-2.306-13.078-3.704-18.484-21.659-8.818-47.402-14.827-75.404-17.046-.877 3.838-1.393 8.071-1.393 12.732z" fill="#ffc839"/><path d="m323.132 64.335c-13.475-3.236-27.879-5.536-42.947-6.73-.876 3.839-1.392 8.071-1.392 12.732 0 11.358 4.87 20.452 14.083 26.299 5.61 3.56 12.499 5.64 20.032 6.297-.205-.535-.423-1.078-.671-1.636-12.53-28.145 10.703-36.89 10.895-36.962z" fill="#ffa219"/><path d="m152.736 92.928-.298 2.069 2.069-.299c2.084-.3 4.197.017 6.115.919 20.608 9.697 43.166 10.098 57.474 1.018 9.213-5.847 14.083-14.941 14.083-26.299 0-4.629-.508-8.837-1.374-12.655-27.612 2.282-52.994 8.256-74.393 16.969-1.385 5.352-2.704 11.517-3.676 18.278z" fill="#ffa219"/><path d="m154.017 95.048c-1.376.414-2.674 1.101-3.793 2.072-9.732 8.446-22.79 27.087-.895 57.058.483.661.373 1.585-.252 2.115-22.557 19.112-24.251 44.263-23.253 57.554.645 8.589-.001 17.313-1.924 25.93-.108.486-.441.891-.897 1.091-.454.201-.98.171-1.41-.076-1.738-1.003-4.209-1.532-7.146-1.532-1.017 0-2.075.066-3.11.221-11.01-43.035-26.466-140.721 45.251-182.315 3.008-1.745 6.56 1.231 5.401 4.51-2.665 7.545-6.111 19.249-7.972 33.372z" fill="#ffdd40"/><path d="m106.012 170.669c-1.553.14-2.968.755-4.126 1.677.39 26.24 5.244 50.683 9.454 67.136 1.036-.155 2.093-.221 3.11-.221 2.937 0 5.408.529 7.146 1.532.429.247.956.277 1.41.076.456-.201.788-.605.896-1.091 1.923-8.617 2.569-17.341 1.924-25.93-.999-13.291.696-38.442 23.253-57.554.625-.53.735-1.454.251-2.115-3.805-5.208-6.533-10.066-8.428-14.595l-2.453-.313c0-.002-5.243 28.946-32.437 31.398z" fill="#ffc839"/><path d="m357.982 95.048c1.376.414 2.674 1.101 3.793 2.072 9.732 8.446 22.79 27.087.895 57.058-.484.661-.374 1.585.251 2.115 22.557 19.112 24.251 44.263 23.253 57.554-.645 8.589.001 17.313 1.924 25.93.108.486.441.891.897 1.091.454.201.98.171 1.41-.076 1.738-1.003 4.209-1.532 7.146-1.532 1.017 0 2.074.066 3.11.221 11.012-43.035 26.468-140.721-45.249-182.316-3.008-1.745-6.56 1.231-5.402 4.51 2.666 7.546 6.112 19.25 7.972 33.373z" fill="#ffdd40"/><path d="m388.098 239.777c.108.486.441.891.897 1.091.454.201.98.171 1.41-.076 1.738-1.003 4.209-1.532 7.146-1.532 1.017 0 2.074.066 3.11.221 4.032-15.756 8.654-38.841 9.381-63.813-.992-2.749-3.529-4.729-6.532-4.999-25.745-2.321-31.812-28.374-32.386-31.145-1.896 4.546-4.632 9.424-8.453 14.654-.484.661-.374 1.585.251 2.115 22.557 19.112 24.251 44.263 23.253 57.554-.646 8.589.001 17.313 1.923 25.93z" fill="#ffc839"/><path d="m296.032 135.794.614.196.573-.292c7.998-4.076 17.283-6.142 27.598-6.142 21.732 0 33.069 11.914 38.752 21.908.633 1.113-.042 2.006-.539 2.358l-1.647 1.166 1.539 1.304c.017.015.033.03.051.044.322-.408.647-.809.96-1.238 22.807-31.217 8.637-50.683-1.132-59.16-3.632-3.151-8.765-3.784-13.116-1.736-32.686 15.38-69.328 6.504-69.328-23.866 0-24.332 14.121-36.665 21.082-41.267.987-.652.53-2.183-.653-2.183-25.019 0-45.3 20.281-45.3 45.3v18.804 5.003c9.931 27.282 31.422 36.878 40.546 39.801z" fill="#fc92a7"/><path d="m309.414 129.667c-11.461-15.711 2.821-28.357 2.821-28.357l.001-.015c-18.145-1.851-31.88-12.371-31.88-30.959 0-24.332 14.121-36.665 21.082-41.267.987-.652.53-2.183-.653-2.183-25.019 0-45.3 20.281-45.3 45.3v18.804 5.003c9.932 27.282 31.422 36.878 40.547 39.801l.613.196.573-.292c4.046-2.062 8.423-3.605 13.095-4.631-.27-.473-.564-.942-.899-1.4z" fill="#ff7186"/><path d="m121.103 240.536c2.131 1.064 3.664 2.93 3.664 6.12 0 1.245-.218 2.767-.631 4.402-.261 1.033.182 2.084 1.1 2.614.92.53 2.049.388 2.813-.354 1.208-1.173 2.417-2.124 3.496-2.748 2.216-1.279 4.266-1.415 6.27-.411 1.869.935 3.7 2.888 5.294 5.649s2.371 5.324 2.245 7.41c-.133 2.236-1.276 3.944-3.491 5.224-1.078.622-2.505 1.194-4.129 1.654-.753.214-1.349.779-1.591 1.511-.246.745-.11 1.56.365 2.177l.39.509.634.087c30.27 4.213 63.15-3.03 85.441-9.865 7.327-1.099 14.219.191 19.776 3.471 3.998 2.359 8.579 3.607 13.248 3.607s9.25-1.248 13.248-3.607c5.602-3.306 12.619-4.538 19.772-3.473 22.289 6.835 55.164 14.081 85.445 9.868l.633-.087.39-.507c.476-.618.613-1.432.366-2.177-.242-.734-.837-1.3-1.592-1.515-1.622-.459-3.05-1.031-4.128-1.653-2.215-1.28-3.358-2.988-3.491-5.224-.125-2.087.651-4.649 2.246-7.41 1.594-2.762 3.425-4.715 5.294-5.649 2.005-1.004 4.055-.866 6.269.411 1.079.624 2.288 1.574 3.497 2.746.763.742 1.894.89 2.813.356.919-.529 1.362-1.581 1.101-2.615-.413-1.635-.631-3.157-.631-4.401 0-2.715 1.11-4.474 2.754-5.594l-.017-.071c-2.138-8.842-2.916-17.956-2.235-27.027 1.065-14.182-.921-39.479-23.801-58.865 0 0-12.268-25.022-62.3-19.463 0 0-34.618-5.559-46.147-44.646-11.529 39.088-46.147 44.646-46.147 44.646-50.032-5.559-62.3 19.463-62.3 19.463-22.88 19.386-24.867 44.682-23.801 58.865.672 8.916-.077 17.872-2.132 26.572z" fill="#ff4155"/><path d="m147.999 156.337c.018-.015.033-.03.051-.044l.246-.212.142-.285c.014-.029.107-.209.29-.512l.572-.952-.711-.854c-.232-.28-.714-1.035-.159-2.013 5.684-9.995 17.02-21.908 38.753-21.908 10.138 0 19.29 2.001 27.201 5.947l.579.289.614-.205c8.976-2.994 30.106-12.699 39.909-39.595l.001.001v-5.004-18.804c0-25.019-20.281-45.3-45.3-45.3-1.183 0-1.64 1.531-.653 2.183 6.962 4.602 21.082 16.935 21.082 41.267 0 30.37-36.642 39.246-69.328 23.866-4.351-2.047-9.484-1.415-13.116 1.736-9.769 8.477-23.938 27.943-1.132 59.16.312.43.637.831.959 1.239z" fill="#ff7186"/><path d="m161.287 94.203c-4.351-2.047-9.484-1.415-13.116 1.736-9.769 8.477-23.938 27.943-1.132 59.16.313.429.638.829.96 1.238.018-.015.033-.03.051-.044l.246-.212.142-.285c.014-.029.107-.209.29-.512l.572-.952-.711-.854c-.232-.28-.714-1.035-.159-2.013 5.684-9.995 17.02-21.908 38.753-21.908 4.97 0 9.7.488 14.165 1.443.394-1.442.099-3.036-.872-4.248-11.633-14.511-.468-25.586-.468-25.586l-.004-.004c-11.786 1.482-25.57-.773-38.717-6.959z" fill="#ff4155"/><path d="m252.816 206.837c-20.006-8.015-10.329-27.527-10.329-27.527l-42.48-40.374-39.749 3.876c-9.957 5.673-13.22 12.288-13.22 12.288-22.88 19.386-24.867 44.682-23.801 58.865.67 8.916-.079 17.872-2.134 26.572 2.131 1.064 3.664 2.93 3.664 6.12 0 1.245-.218 2.767-.631 4.402-.261 1.033.182 2.084 1.1 2.614.92.53 2.049.388 2.813-.354 1.208-1.173 2.417-2.124 3.496-2.748 2.216-1.279 4.266-1.415 6.27-.411 1.869.934 3.7 2.888 5.294 5.649s2.371 5.324 2.246 7.41c-.133 2.236-1.276 3.944-3.491 5.224-1.078.622-2.505 1.194-4.129 1.654-.753.214-1.349.779-1.591 1.511-.246.745-.11 1.56.365 2.177l.39.509.634.087c30.271 4.213 63.15-3.03 85.441-9.865 7.327-1.099 14.219.191 19.776 3.471 3.084 1.82 6.514 2.97 10.064 3.405v-64.555z" fill="#e80054"/><g><path d="m511.602 206.195c-1.543-19.126-15.792-35.361-35.287-35.453-18.548-.087-34.273 14.463-35.535 32.968-1.006 14.752 7.021 27.735 19.098 33.984 1.401.725 1.747 2.563.673 3.718-10.289 11.079-21.848 18.199-32.231 22.778-.374 1.766-1.473 3.165-3.355 4.252-1.076.621-2.503 1.193-4.128 1.654-1.025.291-1.713 1.199-1.713 2.26s.688 1.969 1.714 2.261c1.624.46 3.051 1.032 4.127 1.653 2.216 1.28 3.358 2.988 3.492 5.224.125 2.087-.652 4.649-2.246 7.41-2.353 4.077-6.273 8.292-11.564 5.238-1.081-.624-2.289-1.575-3.497-2.749-.764-.741-1.897-.882-2.815-.352-.919.531-1.36 1.582-1.098 2.613.412 1.637.63 3.16.63 4.402 0 6.113-5.611 7.396-10.317 7.396-2.84 0-6.664-.485-8.753-2.8l-1.633-1.81-.964 2.239c-4.213 9.791-9.039 19.197-14.342 27.953l-4.982 8.226 7.331-6.223c6.9-5.858 15.523-9.085 24.279-9.085 6.613 0 12.807 1.823 18.114 4.986 55.019-10.658 100.127-67.628 95.002-122.743z" fill="#ffdd40"/></g><path d="m487.568 283.042c-36.493-6.892-26.561-42.371-26.555-42.393-.104.271-.247.533-.461.764-10.289 11.079-21.848 18.199-32.231 22.778-.374 1.766-1.473 3.165-3.355 4.252-1.076.621-2.503 1.193-4.128 1.654-1.025.291-1.713 1.199-1.713 2.26s.688 1.969 1.714 2.261c1.624.46 3.051 1.032 4.127 1.653 2.216 1.28 3.358 2.988 3.492 5.224.125 2.087-.652 4.649-2.246 7.41-2.353 4.077-6.273 8.292-11.564 5.238-1.081-.624-2.289-1.575-3.497-2.749-.765-.741-1.897-.883-2.815-.352-.919.531-1.36 1.582-1.098 2.613.412 1.637.63 3.159.63 4.402 0 6.113-5.611 7.396-10.317 7.396-2.84 0-6.664-.485-8.753-2.8l-1.633-1.81-.964 2.239c-4.213 9.791-9.039 19.197-14.342 27.953l-4.982 8.226 7.331-6.223c6.9-5.858 15.523-9.085 24.279-9.085 6.613 0 12.807 1.823 18.113 4.986 27.994-5.424 53.417-22.84 70.968-45.897z" fill="#ffc839"/><g><path d="m113.513 323.951c9.621 0 19.188 3.965 26.247 10.878l9.567 9.371.029-.031-7.182-11.296c-5.971-9.391-11.39-19.533-16.107-30.146l-1.044-2.349-1.606 2.008c-2.025 2.534-5.993 3.065-8.966 3.065-4.707 0-10.318-1.283-10.318-7.396 0-1.243.218-2.766.63-4.4.262-1.033-.179-2.084-1.098-2.615-.919-.53-2.049-.39-2.817.354-1.206 1.173-2.414 2.123-3.494 2.747-5.295 3.056-9.211-1.162-11.565-5.238-2.353-4.077-4.047-9.578 1.247-12.634 1.076-.621 2.503-1.193 4.128-1.654 1.025-.291 1.713-1.199 1.713-2.26s-.688-1.969-1.714-2.261c-1.623-.46-3.051-1.032-4.127-1.653-1.881-1.087-2.981-2.486-3.355-4.252-10.384-4.579-21.943-11.699-32.231-22.778-1.073-1.156-.728-2.993.673-3.718 12.077-6.249 20.104-19.232 19.098-33.984-1.262-18.506-16.986-33.055-35.535-32.968-19.496.093-33.746 16.328-35.288 35.454-5.125 55.115 39.983 112.085 95.001 122.742 5.307-3.162 11.501-4.986 18.114-4.986z" fill="#ffdd40"/><path d="m126.065 302.728-1.044-2.349-1.606 2.008c-2.025 2.534-5.993 3.065-8.966 3.065-4.707 0-10.317-1.283-10.317-7.396 0-1.243.218-2.766.63-4.4.261-1.033-.179-2.083-1.098-2.615-.919-.53-2.049-.39-2.817.354-1.206 1.173-2.414 2.123-3.494 2.747-5.295 3.056-9.211-1.162-11.565-5.238-2.353-4.077-4.047-9.578 1.247-12.634 1.076-.621 2.503-1.193 4.127-1.654 1.025-.291 1.713-1.199 1.713-2.26s-.688-1.969-1.714-2.261c-1.623-.46-3.051-1.032-4.126-1.653-1.881-1.087-2.981-2.486-3.355-4.252-5.756-2.538-11.872-5.861-17.933-10.202s2.479 32.738-34.596 37.176c17.033 18.978 39.648 33.007 64.249 37.772 5.307-3.162 11.5-4.986 18.114-4.986 9.621 0 19.188 3.965 26.247 10.878l9.567 9.371.029-.031-7.182-11.296c-5.973-9.389-11.392-19.531-16.11-30.144z" fill="#ffc839"/></g><path d="m398.487 394.946c-12.303 0-23.555-6.239-30.099-16.688l-1.071-1.709-1.388 1.462c-2.604 2.742-8.186 8.301-16.318 14.725l-.918.725.437 1.086c9.467 23.518 24.475 40.821 35.397 51.196.78.74.38 1.558.238 1.792-.142.231-.674.966-1.692.614-21.538-7.4-38.671-21.342-50.923-41.438l-.802-1.316-1.327.784c-11.428 6.748-23.372 11.981-35.499 15.555l-1.268.374.158 1.313c1.234 10.241 3.161 20.993 5.725 31.958 2.725 11.643.022 23.698-7.412 33.073-2.157 2.721-4.633 5.093-7.341 7.108 51.938-5.992 98.93-28.214 135.767-61.481 7.349-16.055 4.638-34.77 1.157-47.464-6.179 5.193-14.139 8.331-22.821 8.331z" fill="#3c5082"/><path d="m330.072 453.102c-22-15-6.72-41.417-6.72-41.417l-.637-1.455c-9.177 4.815-18.627 8.683-28.196 11.503l-1.268.374.158 1.313c1.234 10.241 3.16 20.993 5.725 31.958 2.725 11.643.022 23.698-7.412 33.073-2.158 2.721-4.633 5.093-7.342 7.108 19.634-2.265 38.56-6.853 56.499-13.477.866-10.8-1.067-22.339-10.807-28.98z" fill="#2d3c6b"/><path d="m222.337 488.451c-7.435-9.375-10.137-21.43-7.412-33.073 2.513-10.744 4.415-21.299 5.652-31.375l.164-1.335-1.296-.361c-12.78-3.569-25.384-8.995-37.464-16.13l-1.327-.784-.802 1.316c-12.252 20.096-29.386 34.038-50.924 41.439-1.02.352-1.55-.383-1.692-.614-.142-.233-.541-1.051.238-1.792 10.922-10.375 25.929-27.679 35.397-51.196l.437-1.086-.918-.725c-8.132-6.424-13.714-11.983-16.318-14.725l-1.389-1.462-1.071 1.709c-6.544 10.449-17.796 16.688-30.099 16.688-8.682 0-16.642-3.138-22.816-8.332-3.481 12.693-6.192 31.409 1.157 47.464 37.41 33.785 85.291 56.188 138.192 61.758-2.855-2.07-5.454-4.54-7.709-7.384z" fill="#2d3c6b"/><path d="m398.487 322.388c-15.185 0-29.438 9.443-35.164 22.514-21.753 29.911-55.83 58.333-106.817 58.333-.344 0-.679-.015-1.021-.018v25.797c58.189 0 99.029-37.082 110.417-48.724.588-.601 1.581-.527 2.058.165 7.215 10.465 19.664 17.043 33.572 15.932 18.104-1.446 32.674-16.19 33.925-34.308 1.495-21.658-15.632-39.691-36.97-39.691z" fill="#49d88b"/><path d="m398.487 322.388c-15.185 0-29.438 9.443-35.164 22.514-21.753 29.911-55.83 58.333-106.817 58.333-.344 0-.679-.015-1.021-.018v25.797c58.189 0 99.029-37.082 110.417-48.724.588-.601 1.581-.527 2.058.165 7.215 10.465 19.664 17.043 33.572 15.932 18.104-1.446 32.674-16.19 33.925-34.308 1.495-21.658-15.632-39.691-36.97-39.691z" fill="#49d88b"/><path d="m365.903 380.291c.588-.601 1.581-.527 2.058.165 7.215 10.465 19.664 17.043 33.572 15.932 4.045-.323 7.911-1.314 11.494-2.854-9.546-5.071-3.751-13.945-3.751-13.945l3.297-18.236-13.064-15.66c-15.387-7.038-6.339-21.102-4.974-23.067-13.655 1.467-25.986 10.348-31.211 22.276-21.753 29.911-55.83 58.333-106.817 58.333-.344 0-.679-.015-1.021-.018v25.797c58.189.001 99.029-37.081 110.417-48.723z" fill="#38c674"/><path d="m406.042 362.004c2.096 1.593 2.587 4.55 1.117 6.733-2.412 3.581-1.464 8.439 2.117 10.851 3.582 2.412 8.44 1.464 10.851-2.117 6.096-9.052 4.064-21.315-4.628-27.917-8.962-6.806-21.858-5.105-28.749 3.79l-20.981 27.082c.042-.043.093-.093.134-.135.587-.601 1.581-.527 2.058.165 2.667 3.868 6.052 7.2 9.958 9.814l21.19-27.351c1.662-2.144 4.773-2.554 6.933-.915z" fill="#21b75d"/><path d="m113.513 322.388c15.185 0 29.438 9.443 35.164 22.514 21.753 29.911 55.83 58.333 106.817 58.333.343 0 .678-.015 1.02-.018v25.797c-55.933 0-95.836-34.262-108.96-47.259-1.34-1.327-3.535-1.187-4.687.306-7.346 9.525-19.217 15.379-32.399 14.326-18.104-1.446-32.674-16.19-33.925-34.308-1.495-21.658 15.632-39.691 36.97-39.691z" fill="#38c674"/><path d="m157.817 356.611c.016-.037.028-.075.044-.112-3.277-3.801-6.339-7.685-9.184-11.598-5.727-13.072-19.98-22.514-35.164-22.514-10.297 0-19.605 4.207-26.321 10.987-.028.147-3.335 17.416 10.493 17.416 13.887 0 38.358 16.189 38.358 16.189s14.519 6.391 21.774-10.368z" fill="#49d88b"/><path d="m126.436 354.578c-6.892-8.895-19.789-10.593-28.751-3.788-8.69 6.602-10.722 18.864-4.626 27.916 2.411 3.58 7.269 4.528 10.851 2.117 3.581-2.411 4.529-7.27 2.117-10.851-1.47-2.183-.98-5.14 1.115-6.732 2.163-1.64 5.272-1.232 6.935.913l20.15 26.01c3.293-2.227 6.217-4.958 8.641-8.101 1.107-1.436 3.171-1.606 4.52-.439z" fill="#21b75d"/><path d="m474.138 190.815c-4.317 0-7.818 3.5-7.818 7.818 0 12.07-11.52 26.128-16.584 31.194 2.864 3.197 6.295 5.877 10.142 7.868 1.121.58 1.551 1.868 1.135 2.954 1.786-1.827 5.792-6.136 9.794-11.885 7.397-10.625 11.148-20.762 11.148-30.131.001-4.319-3.499-7.818-7.817-7.818z" fill="#ffb332"/><path d="m51.035 240.766c-.497-1.108-.075-2.47 1.086-3.071 3.833-1.984 7.254-4.65 10.112-7.832-.054-.055-.102-.115-.158-.169-4.754-4.581-17.091-19.202-17.091-31.691 0-4.318-3.5-7.818-7.818-7.818-4.317 0-7.817 3.5-7.817 7.818 0 9.369 3.751 19.506 11.148 30.131 4.745 6.815 9.491 11.603 10.538 12.632z" fill="#ffb332"/><path d="m323.845 166.123c-22.14 0-40.087 17.948-40.087 40.087 0 7.988 2.346 15.424 6.373 21.674 1.674-.279 3.396-.334 5.137-.128 8.12.959 14.667 7.554 15.568 15.683.026.235.025.467.042.702 4.069 1.391 8.428 2.156 12.968 2.156 22.139 0 40.087-17.948 40.087-40.087-.001-22.139-17.949-40.087-40.088-40.087z" fill="#e9efff"/><path d="m340.29 242.767c-13.67-2.476-11.136-13.559-9.602-17.839.424-1.182.49-2.46.166-3.674l-8.299-31.096c-.391-1.466-1.317-2.737-2.595-3.555-7.933-5.074-6.704-12.815-5.304-16.912.285-.836.254-1.714-.043-2.487-17.687 4.171-30.855 20.046-30.855 39.007 0 7.988 2.346 15.424 6.373 21.674 1.674-.279 3.396-.334 5.137-.128 8.12.959 14.667 7.554 15.568 15.683.026.235.025.468.042.702 4.069 1.391 8.428 2.157 12.968 2.157 5.862-.001 11.424-1.27 16.444-3.532z" fill="#e8d0b1"/><path d="m201.165 243.439c.901-8.129 7.448-14.724 15.568-15.683 1.74-.206 3.462-.151 5.137.128 4.027-6.25 6.373-13.686 6.373-21.674 0-22.139-17.947-40.087-40.087-40.087-22.139 0-40.087 17.948-40.087 40.087s17.948 40.087 40.087 40.087c4.54 0 8.899-.766 12.968-2.156.016-.234.014-.466.041-.702z" fill="#e9efff"/><path d="m201.165 243.439c.052-.469.127-.931.216-1.389-12.068-4.13-6.253-18.577-6.253-18.577l-9.576-35.695c-12.365-6.095-7.526-17.507-5.817-20.762-18.096 3.869-31.668 19.944-31.668 39.194 0 22.139 17.948 40.087 40.087 40.087 4.54 0 8.899-.766 12.968-2.157.018-.233.016-.465.043-.701z" fill="#e8d0b1"/><circle cx="323.845" cy="206.21" fill="#3c5082" r="18.617"/><circle cx="314.184" cy="196.55" fill="#e9efff" r="8.957"/><path d="m311.872 243.324c-.956-8.61-7.878-15.587-16.482-16.603-4.354-.514-8.457.455-11.873 2.467-2.965 1.747-6.794.647-8.391-2.402-4.686-8.952-11.518-20.618-19.127-20.618s-14.441 11.666-19.127 20.618c-1.596 3.049-5.425 4.149-8.391 2.402-3.416-2.012-7.518-2.981-11.873-2.467-8.604 1.016-15.526 7.992-16.482 16.603-1.266 11.407 7.63 21.064 18.781 21.064 1.096 0 2.17-.093 3.214-.272 7.187-1.232 14.614-.284 20.893 3.422 3.806 2.246 8.244 3.535 12.983 3.535s9.178-1.289 12.983-3.535c6.28-3.707 13.706-4.655 20.893-3.422 1.045.179 2.118.272 3.214.272 11.155 0 20.051-9.657 18.785-21.064z" fill="#e80054"/><path d="m265.443 211.682c-2.921-3.272-6.107-5.514-9.443-5.514-7.609 0-14.441 11.666-19.127 20.618-1.596 3.049-5.426 4.149-8.391 2.402-3.416-2.012-7.519-2.981-11.873-2.467-8.604 1.016-15.526 7.992-16.482 16.603-1.266 11.407 7.63 21.064 18.781 21.064 1.096 0 2.17-.094 3.214-.272 3.576-.613 7.212-.686 10.737-.148.285-.239.462-.366.462-.366 0-7.172 4.117-11.115 8.206-13.262 4.495-2.359 7.677-6.643 8.373-11.672 2.526-18.241 15.543-26.986 15.543-26.986z" fill="#cc0053"/><path d="m216.647 347.234c-45.958-10.861-76.451-38.788-91.589-56.07-.792.559-1.163 1.529-.92 2.49.413 1.635.631 3.156.631 4.401 0 1.186-.231 2.448-.887 3.591 13.356 30.678 43.147 81.746 97.893 97.704.367-15.081-.987-30.259-5.127-44.279v-7.837z" fill="#e80054"/><path d="m387.232 298.056c0-1.245.218-2.767.631-4.402.242-.96-.129-1.93-.92-2.489-14.869 16.974-44.551 44.221-89.154 55.476l-.377 8.431c-4.138 14.011-5.492 29.18-5.128 44.251 54.207-15.925 83.136-66.604 96.068-97.302-.839-1.236-1.12-2.649-1.12-3.965z" fill="#ff7186"/><path d="m386.762 291.039c-.37-.214-.775-.319-1.176-.319-.595 0-1.182.23-1.639.674-1.207 1.174-2.417 2.124-3.495 2.747-2.503 1.445-6.075 1.974-9.73-2.543-32.934 12.942-55.557 7.614-68.527 1.092-9.86-4.957-21.142-4.396-30.484 1.752l-7.806 5.137c-4.798 3.157-11.014 3.157-15.811 0l-7.806-5.137c-9.342-6.148-20.624-6.709-30.484-1.752-12.971 6.522-35.594 11.85-68.528-1.092-3.653 4.515-7.224 3.989-9.729 2.543-1.078-.623-2.287-1.574-3.496-2.749-.766-.741-1.895-.886-2.813-.352-.271.156-.495.362-.677.595 18.847 21.703 62.58 61.168 131.44 61.168s112.594-39.465 131.44-61.168c-.183-.233-.407-.439-.679-.596z" fill="#e80054"/><path d="m234.284 329.763c-21.715-21.998-2.34-37.55-2.34-37.55-.423-.668-.808-1.32-1.17-1.965-6.946-1.735-14.284-.919-20.97 2.443-12.971 6.522-35.594 11.849-68.528-1.092-3.653 4.515-7.224 3.989-9.729 2.543-1.078-.623-2.287-1.574-3.496-2.749-.766-.741-1.895-.886-2.813-.352-.271.156-.495.362-.677.595 16.783 19.327 53.302 52.739 109.725 59.824v-21.697z" fill="#cc0053"/><g><path d="m298.655 356.611h-11.103c-1.866 0-3.378-1.512-3.378-3.378 0 1.866-1.512 3.378-3.378 3.378h-21.418c-1.866 0-3.378-1.512-3.378-3.378 0 1.866-1.512 3.378-3.378 3.378h-21.418c-1.866 0-3.378-1.512-3.378-3.378 0 1.866-1.512 3.378-3.378 3.378h-9.045c9.439 31.646 4.86 69.081-2.002 98.411-5.953 25.441 13.396 49.774 39.525 49.774.273 0 8.744 0 8.206 0 26.128 0 45.477-24.333 39.525-49.774-6.863-29.33-11.441-66.765-2.002-98.411z" fill="#e80054"/></g><path d="m256 462.06.366-107.327c-.227-.454-.366-.958-.366-1.5 0 1.866-1.512 3.378-3.378 3.378h-21.418c-1.866 0-3.378-1.512-3.378-3.378 0 1.866-1.512 3.378-3.378 3.378h-9.045c9.439 31.646 4.86 69.082-2.002 98.411-5.953 25.441 13.396 49.774 39.525 49.774h4.103c-22.091-22.091-1.029-42.736-1.029-42.736z" fill="#cc0053"/><g><path d="m256 462.06c-4.318 0-7.818-3.5-7.818-7.818v-97.631c0-4.318 3.5-7.818 7.818-7.818 4.317 0 7.818 3.5 7.818 7.818v97.631c0 4.319-3.5 7.818-7.818 7.818z" fill="#ff4155"/></g><path d="m289.368 262.985c-7.546-1.148-14.952.136-20.915 3.655-3.757 2.218-8.064 3.391-12.453 3.391s-8.696-1.173-12.453-3.391c-4.545-2.682-9.926-4.071-15.571-4.071-1.763 0-3.551.143-5.348.417-23.739 7.29-56.605 14.224-86.585 9.605.094.957.747 1.755 1.695 2.025 1.623.459 3.05 1.031 4.128 1.653 2.215 1.28 3.358 2.988 3.491 5.224.125 2.087-.652 4.649-2.245 7.41-.471.816-.993 1.597-1.549 2.323l-1.28 1.667 1.966.746c32.571 12.36 55.097 7.065 68.258.448 9.371-4.712 20.184-4.09 28.923 1.66l7.805 5.137c5.324 3.504 12.207 3.504 17.53 0l7.805-5.137c8.74-5.751 19.551-6.371 28.923-1.66 13.161 6.619 35.688 11.913 68.259-.448l1.967-.746-1.282-1.668c-.554-.72-1.074-1.501-1.548-2.322-1.594-2.762-2.371-5.324-2.246-7.41.133-2.236 1.276-3.944 3.491-5.223 1.078-.623 2.505-1.195 4.129-1.655.948-.269 1.6-1.067 1.694-2.024-29.982 4.62-62.85-2.316-86.589-9.606z" fill="#ff7186"/><path d="m233.322 263.602c0-.201.015-.389.021-.585-1.75-.287-3.542-.447-5.367-.447-1.763 0-3.551.143-5.348.417-23.739 7.29-56.605 14.224-86.585 9.605.094.957.747 1.755 1.695 2.025 1.623.459 3.05 1.031 4.128 1.653 2.215 1.28 3.358 2.988 3.491 5.224.125 2.087-.652 4.649-2.246 7.41-.471.816-.992 1.597-1.549 2.323l-1.279 1.667 1.966.746c32.571 12.36 55.097 7.065 68.258.448 6.831-3.435 14.426-4.022 21.428-1.867.004-.004.01-.008.01-.008-12.128-19.139 1.377-28.611 1.377-28.611z" fill="#ff4155"/><path d="m298.26 327.516c-7.78 0-14.087 6.307-14.087 14.087v11.63c0 1.866 1.512 3.378 3.378 3.378h21.418c1.866 0 3.378-1.512 3.378-3.378v-11.63c0-7.78-6.307-14.087-14.087-14.087z" fill="#f1e0c7"/><g fill="#e9efff"><path d="m301.74 335.455c-3.89 0-7.043 3.153-7.043 7.043v8.815c0 .933.756 1.689 1.689 1.689h10.709c.933 0 1.689-.756 1.689-1.689v-8.815c-.001-3.89-3.155-7.043-7.044-7.043z"/><path d="m385.603 444.609c-15.547-14.767-43.641-47.893-43.641-94.446v-7.422c0-7.973-6.127-14.833-14.092-15.208-8.503-.4-15.523 6.375-15.523 14.79v7.84s3.851 76.66 70.217 99.464c3.047 1.047 5.375-2.799 3.039-5.018z"/><path d="m126.397 444.609c15.547-14.767 43.641-47.893 43.641-94.446v-7.422c0-7.973 6.127-14.833 14.092-15.208 8.503-.4 15.523 6.375 15.523 14.79v7.84s-3.851 76.66-70.217 99.464c-3.047 1.047-5.375-2.799-3.039-5.018z"/><path d="m425.748 274.916c-1.205-.696-2.755-1.315-4.482-1.804-.77-.218-.77-1.294 0-1.512 1.727-.489 3.277-1.108 4.482-1.804 5.683-3.281 5.1-9.087 1.819-14.77s-8.018-9.091-13.701-5.81c-1.205.696-2.516 1.729-3.803 2.98-.574.558-1.506.02-1.31-.756.44-1.74.679-3.392.679-4.784 0-6.562-5.319-8.96-11.882-8.96-6.562 0-11.882 2.398-11.882 8.96 0 1.391.24 3.044.679 4.784.196.776-.736 1.314-1.31.756-1.287-1.251-2.598-2.284-3.803-2.98-5.683-3.281-10.419.127-13.7 5.81s-3.864 11.489 1.819 14.77c1.205.696 2.755 1.315 4.482 1.804.77.218.77 1.294 0 1.512-1.727.489-3.277 1.108-4.482 1.804-5.683 3.281-5.1 9.087-1.819 14.77s8.018 9.091 13.7 5.81c1.205-.696 2.516-1.729 3.803-2.98.574-.558 1.506-.02 1.31.756-.439 1.74-.679 3.392-.679 4.784 0 6.562 5.32 8.96 11.882 8.96s11.882-2.398 11.882-8.96c0-1.391-.239-3.043-.679-4.784-.196-.776.736-1.314 1.31-.756 1.287 1.251 2.598 2.284 3.803 2.98 5.683 3.281 10.419-.127 13.701-5.81 3.281-5.683 3.864-11.489-1.819-14.77z"/></g><path d="m265.621 176.339c3.734 4.965 11.265 4.753 14.686-.433 8.248-12.504 24.059-30.889 45.726-30.889 15.902 0 26.899 4.951 34.012 10.057 2.934 2.106 6.669-1.243 4.883-4.383-6.013-10.575-17.777-22.699-40.111-22.699-31.738 0-45.36 19.018-49.521 26.576-1.087 1.975-2.951 3.395-5.144 3.92-3.6.861-6.138 4.079-6.138 7.781v5.261c0 1.735.564 3.423 1.607 4.809z" fill="#3c5082"/><path d="m246.379 176.339c-3.735 4.965-11.265 4.753-14.686-.433-8.248-12.504-24.059-30.889-45.726-30.889-15.902 0-26.899 4.951-34.012 10.057-2.934 2.106-6.669-1.243-4.883-4.383 6.013-10.575 17.777-22.699 40.111-22.699 31.738 0 45.36 19.018 49.521 26.576 1.087 1.975 2.951 3.395 5.144 3.92 3.6.861 6.138 4.079 6.138 7.781v5.261c0 1.735-.564 3.423-1.607 4.809z" fill="#3c5082"/><circle cx="188.155" cy="206.21" fill="#3c5082" r="18.617"/><circle cx="178.494" cy="196.55" fill="#e9efff" r="8.957"/><path d="m147.071 150.692c-1.785 3.14 1.95 6.489 4.883 4.383 7.113-5.106 18.11-10.057 34.012-10.057 5.704 0 10.998 1.283 15.859 3.388l-.001-.001c-5.725-7.084-3.518-12.738-1.206-15.878.672-.913.955-2.014.884-3.097-4.306-.906-9.059-1.438-14.321-1.438-22.332.001-34.096 12.125-40.11 22.7z" fill="#2d3c6b"/><path d="m314.704 146.73c-12.783-5.005-5.389-16.903-5.289-17.063-20.919 4.801-30.705 18.702-34.118 24.901-1.087 1.975-2.951 3.395-5.144 3.92-3.599.861-6.138 4.079-6.138 7.781v5.261c0 1.735.564 3.423 1.607 4.809 3.735 4.965 11.265 4.753 14.686-.433 6.734-10.209 18.51-24.332 34.398-29.176-.001 0-.002 0-.002 0z" fill="#2d3c6b"/><path d="m409.095 292.413c-8.897-2.682-5.371-9.919-5.371-9.919l-11.739-20.637c-8.44-1.098-6.358-8.486-6.018-9.533-.279.154-.647.147-.929-.128-1.287-1.251-2.598-2.284-3.803-2.98-5.683-3.281-10.419.127-13.701 5.81-3.281 5.683-3.864 11.489 1.819 14.77 1.205.696 2.756 1.315 4.482 1.804.77.218.77 1.294 0 1.512-1.727.489-3.277 1.108-4.482 1.804-5.683 3.281-5.1 9.087-1.819 14.77s8.018 9.091 13.701 5.81c1.205-.696 2.516-1.729 3.803-2.98.574-.558 1.506-.02 1.31.756-.439 1.74-.679 3.392-.679 4.784 0 6.562 5.32 8.96 11.882 8.96s11.882-2.398 11.882-8.96c0-1.391-.239-3.044-.679-4.784-.096-.376.076-.692.341-.859z" fill="#e8d0b1"/><circle cx="397.55" cy="272.356" fill="#ffc839" r="11.882"/><path d="m405.846 271.073c0 3.281-2.66 5.941-5.941 5.941s-5.941-2.66-5.941-5.941 2.66-5.941 5.941-5.941c3.282 0 5.941 2.66 5.941 5.941z" fill="#ffdd40"/><path d="m142.647 274.916c-1.205-.696-2.755-1.315-4.482-1.804-.77-.218-.77-1.294 0-1.512 1.727-.489 3.277-1.108 4.482-1.804 5.683-3.281 5.1-9.087 1.819-14.77s-8.018-9.091-13.701-5.81c-1.205.696-2.516 1.729-3.803 2.98-.574.558-1.506.02-1.31-.756.439-1.74.679-3.392.679-4.784 0-6.562-5.32-8.96-11.882-8.96s-11.882 2.398-11.882 8.96c0 1.391.24 3.044.679 4.784.196.776-.736 1.314-1.31.756-1.287-1.251-2.598-2.284-3.803-2.98-5.683-3.281-10.419.127-13.7 5.81s-3.864 11.489 1.819 14.77c1.205.696 2.756 1.315 4.482 1.804.77.218.77 1.294 0 1.512-1.727.489-3.277 1.108-4.482 1.804-5.683 3.281-5.1 9.087-1.819 14.77s8.018 9.091 13.7 5.81c1.205-.696 2.516-1.729 3.803-2.98.574-.558 1.506-.02 1.31.756-.439 1.74-.679 3.392-.679 4.784 0 6.562 5.32 8.96 11.882 8.96s11.882-2.398 11.882-8.96c0-1.391-.239-3.043-.679-4.784-.196-.776.736-1.314 1.31-.756 1.287 1.251 2.598 2.284 3.803 2.98 5.683 3.281 10.419-.127 13.701-5.81 3.281-5.683 3.864-11.489-1.819-14.77z" fill="#e9efff"/><path d="m125.995 292.413c-8.897-2.682-5.371-9.919-5.371-9.919l-11.739-20.637c-8.44-1.098-6.358-8.486-6.018-9.533-.279.154-.647.147-.929-.128-1.287-1.251-2.598-2.284-3.803-2.98-5.683-3.281-10.419.127-13.7 5.81s-3.864 11.489 1.819 14.77c1.205.696 2.756 1.315 4.482 1.804.77.218.77 1.294 0 1.512-1.727.489-3.277 1.108-4.482 1.804-5.683 3.281-5.1 9.087-1.819 14.77s8.018 9.091 13.7 5.81c1.205-.696 2.516-1.729 3.803-2.98.574-.558 1.506-.02 1.31.756-.439 1.74-.679 3.392-.679 4.784 0 6.562 5.32 8.96 11.882 8.96s11.882-2.398 11.882-8.96c0-1.391-.239-3.044-.679-4.784-.096-.376.075-.692.341-.859z" fill="#e8d0b1"/><circle cx="114.45" cy="272.356" fill="#ffc839" r="11.882"/><path d="m122.746 271.073c0 3.281-2.66 5.941-5.941 5.941s-5.941-2.66-5.941-5.941 2.66-5.941 5.941-5.941 5.941 2.66 5.941 5.941z" fill="#ffdd40"/><path d="m199.653 342.323c0-8.415-7.02-15.191-15.523-14.79-7.964.375-14.091 7.236-14.091 15.208v7.422c0 10.103-1.326 19.571-3.557 28.358l.001.003s17.154-11.806 24.038 10.136c8.241-20.865 9.131-38.497 9.131-38.497v-7.84z" fill="#f1e0c7"/><path d="m312.347 342.323c0-8.415 7.02-15.191 15.523-14.79 7.964.375 14.091 7.236 14.091 15.208v7.422c0 10.103 1.326 19.571 3.557 28.358l-.002.003s-17.154-11.806-24.038 10.136c-8.241-20.865-9.131-38.497-9.131-38.497z" fill="#f1e0c7"/><path d="m270.087 327.516c-7.78 0-14.087 6.307-14.087 14.087v11.63c0 1.866 1.512 3.378 3.378 3.378h21.418c1.866 0 3.378-1.512 3.378-3.378v-11.63c-.001-7.78-6.308-14.087-14.087-14.087z" fill="#f1e0c7"/><path d="m273.566 335.455c-3.89 0-7.043 3.153-7.043 7.043v8.815c0 .933.756 1.689 1.689 1.689h10.709c.933 0 1.689-.756 1.689-1.689v-8.815c-.001-3.89-3.154-7.043-7.044-7.043z" fill="#e9efff"/><path d="m241.913 327.516c-7.78 0-14.087 6.307-14.087 14.087v11.63c0 1.866 1.512 3.378 3.378 3.378h21.418c1.866 0 3.378-1.512 3.378-3.378v-11.63c0-7.78-6.307-14.087-14.087-14.087z" fill="#f1e0c7"/><path d="m245.393 335.455c-3.89 0-7.043 3.153-7.043 7.043v8.815c0 .933.756 1.689 1.689 1.689h10.709c.933 0 1.689-.756 1.689-1.689v-8.815c-.001-3.89-3.155-7.043-7.044-7.043z" fill="#e9efff"/><path d="m213.74 327.516c-7.78 0-14.087 6.307-14.087 14.087v11.63c0 1.866 1.512 3.378 3.378 3.378h21.418c1.866 0 3.378-1.512 3.378-3.378v-11.63c-.001-7.78-6.308-14.087-14.087-14.087z" fill="#f1e0c7"/><path d="m217.219 335.455c-3.89 0-7.043 3.153-7.043 7.043v8.815c0 .933.756 1.689 1.689 1.689h10.709c.933 0 1.689-.756 1.689-1.689v-8.815c-.001-3.89-3.154-7.043-7.044-7.043z" fill="#e9efff"/></g></svg>