<svg id="Layer_1" xmlns="http://www.w3.org/2000/svg" width="512" height="512" viewBox="0 0 512 512"><defs><style>.cls-1{fill:#e80054;}.cls-2{fill:#e8d0b1;}.cls-3{fill:#f1e0c7;}.cls-4{fill:#d6ba9d;}.cls-5{fill:#f9efdc;}</style></defs><title>aArtboard 1</title><path class="cls-1" d="M493.5,327.4A245.6,245.6,0,0,0,501,267C501,131.7,391.3,22,256,22S11,131.7,11,267a245,245,0,0,0,7.5,60.4Z"/><path class="cls-2" d="M109.4,190.5a7.5,7.5,0,0,1-7.5-7.5V152.3a7.5,7.5,0,0,1,15,0V183A7.6,7.6,0,0,1,109.4,190.5Z"/><path class="cls-3" d="M74.2,242.2h70.4v45.1H74.2Z"/><path class="cls-2" d="M74.2,287.3h42.9V260.5c-13.6-3-9.2-16.3-9.2-16.3l-2.5-2H74.2Z"/><path class="cls-4" d="M121.1,296.4a7.5,7.5,0,0,1-7.5-7.5V266.8a7.5,7.5,0,0,1,15,0v22.1A7.4,7.4,0,0,1,121.1,296.4Z"/><path class="cls-4" d="M97.7,296.4a7.4,7.4,0,0,1-7.5-7.5V266.8a7.5,7.5,0,0,1,15,0v22.1A7.5,7.5,0,0,1,97.7,296.4Z"/><path class="cls-5" d="M138.2,196.8c-8.2-3.3-16.3-8-22.8-15a4,4,0,0,0-3-1.3h-6a4.4,4.4,0,0,0-3.1,1.3c-6.4,7-14.6,11.7-22.7,15A26.5,26.5,0,0,0,69,237.1l5.2,7.1h70.4l5.2-7.1A26.5,26.5,0,0,0,138.2,196.8Z"/><path class="cls-3" d="M111.6,196.8a39.7,39.7,0,0,0,9.8-9.5,51.2,51.2,0,0,1-5.9-5.5,4.4,4.4,0,0,0-3.1-1.3h-6a4.4,4.4,0,0,0-3.1,1.3c-6.4,7-14.6,11.7-22.7,15A26.5,26.5,0,0,0,69,237.1l5.2,7.1h33.7l-3-7.1C98.9,223.1,102.2,203.1,111.6,196.8Z"/><path class="cls-2" d="M402.6,190.5a7.6,7.6,0,0,1-7.5-7.5V152.3a7.5,7.5,0,0,1,15,0V183A7.5,7.5,0,0,1,402.6,190.5Z"/><path class="cls-3" d="M367.4,242.2h70.4v45.1H367.4Z"/><path class="cls-2" d="M367.4,287.3h42.9V260.5c-13.6-3-9.2-16.3-9.2-16.3l-2.5-2H367.4Z"/><path class="cls-4" d="M414.3,296.4a7.5,7.5,0,0,1-7.5-7.5V266.8a7.5,7.5,0,0,1,15,0v22.1A7.4,7.4,0,0,1,414.3,296.4Z"/><path class="cls-4" d="M390.9,296.4a7.4,7.4,0,0,1-7.5-7.5V266.8a7.5,7.5,0,0,1,15,0v22.1A7.5,7.5,0,0,1,390.9,296.4Z"/><path class="cls-3" d="M494,325.4V292.7a7.5,7.5,0,0,0-7.5-7.4H450.2v131A243,243,0,0,0,494,325.4Z"/><path class="cls-2" d="M472.2,292.7a7.5,7.5,0,0,1,7.5-7.4H450.2v131a239,239,0,0,0,22-34.1Z"/><path class="cls-3" d="M18,292.7v32.7a243,243,0,0,0,43.8,90.9v-131H25.5A7.5,7.5,0,0,0,18,292.7Z"/><path class="cls-2" d="M41.3,291.7a7.5,7.5,0,0,1,3.7-6.4H25.5a7.5,7.5,0,0,0-7.5,7.4v32.7A244.6,244.6,0,0,0,41.3,385Z"/><path class="cls-5" d="M355,491.2a245.5,245.5,0,0,0,95.2-74.9v-131H355Z"/><path class="cls-2" d="M355,285.3V491.2a243.4,243.4,0,0,0,39-21.8V303c0-16.5,12.8-17.7,12.8-17.7Z"/><path class="cls-5" d="M431.4,196.8c-8.1-3.3-16.3-8-22.7-15a4.4,4.4,0,0,0-3.1-1.3h-6a4,4,0,0,0-3,1.3c-6.5,7-14.6,11.7-22.8,15a26.5,26.5,0,0,0-11.6,40.3l5.2,7.1h70.4l5.2-7.1a26.5,26.5,0,0,0-11.6-40.3Z"/><path class="cls-3" d="M404.8,196.8a39.7,39.7,0,0,0,9.8-9.5,51.2,51.2,0,0,1-5.9-5.5,4.4,4.4,0,0,0-3.1-1.3h-6a4,4,0,0,0-3,1.3c-6.5,7-14.6,11.7-22.8,15a26.5,26.5,0,0,0-11.6,40.3l5.2,7.1h33.7l-3-7.1c-6-14-2.6-34,6.7-40.3Z"/><path class="cls-5" d="M61.8,416.3A245.5,245.5,0,0,0,157,491.2V285.3H61.8Z"/><path class="cls-3" d="M157,285.3V491.2a243.4,243.4,0,0,1-39-21.8V303c0-16.5-12.8-17.7-12.8-17.7Z"/><path class="cls-3" d="M164.7,318H18a7.5,7.5,0,0,1,0-15H164.7a7.5,7.5,0,0,1,0,15Z"/><path class="cls-3" d="M494,318H346.2a7.5,7.5,0,0,1,0-15H494a7.5,7.5,0,0,1,0,15Z"/><path class="cls-3" d="M422.2,383.9V357.1a19.6,19.6,0,1,0-39.2,0v26.8Z"/><path class="cls-4" d="M402.6,337.4a20.4,20.4,0,0,0-8.8,2.1,19.9,19.9,0,0,1,10.9,17.6v26.8h17.5V357.1a19.6,19.6,0,0,0-19.6-19.7Z"/><path class="cls-3" d="M402.6,408.6A19.6,19.6,0,0,0,383,428.2v48.4A247.3,247.3,0,0,0,422.2,447V428.2a19.6,19.6,0,0,0-19.6-19.6Z"/><path class="cls-4" d="M402.6,408.6a20.4,20.4,0,0,0-8.8,2.1,19.7,19.7,0,0,1,10.9,17.5v33.5c6.1-4.6,11.9-9.6,17.5-14.7V428.2a19.6,19.6,0,0,0-19.6-19.6Z"/><path class="cls-2" d="M109.4,408.6a19.6,19.6,0,0,0-19.6,19.6V447A247.3,247.3,0,0,0,129,476.6V428.2a19.6,19.6,0,0,0-19.6-19.6Z"/><path class="cls-3" d="M129,383.9V357.1a19.6,19.6,0,1,0-39.2,0v26.8Z"/><path class="cls-4" d="M109.4,337.4a19.7,19.7,0,0,0-8.8,2.1,19.8,19.8,0,0,1,10.8,17.6v26.8H129V357.1A19.7,19.7,0,0,0,109.4,337.4Z"/><path class="cls-4" d="M129,476.6V428.2a19.6,19.6,0,0,0-28.4-17.5,19.6,19.6,0,0,1,10.8,17.5v36.6c5.7,4.2,11.6,8.1,17.6,11.8Z"/><path class="cls-3" d="M157,391.4H61.8a7.5,7.5,0,0,1,0-15H157a7.5,7.5,0,0,1,0,15Z"/><path class="cls-3" d="M450.2,391.4H355a7.5,7.5,0,0,1,0-15h95.2a7.5,7.5,0,0,1,0,15Z"/><path class="cls-2" d="M254.4,63.5a7.4,7.4,0,0,1-7.5-7.5V7.5a7.5,7.5,0,1,1,15,0V56A7.5,7.5,0,0,1,254.4,63.5Z"/><path class="cls-3" d="M254.4,99.6a10,10,0,0,1-10-10V56a10,10,0,1,1,20,0V89.6A10,10,0,0,1,254.4,99.6Z"/><path class="cls-3" d="M258.8,35.5h-8.9a7.5,7.5,0,1,1,0-15h8.9a7.5,7.5,0,0,1,0,15Z"/><path class="cls-2" d="M179.4,223.2H332.5v26.2H179.4Z"/><path class="cls-4" d="M217.4,236.3A13.5,13.5,0,0,1,228,223.2H179.4v26.2H228a13.5,13.5,0,0,1-10.6-13.1Z"/><path class="cls-3" d="M344.1,248H167.8A10.8,10.8,0,0,0,157,258.9V491.1l6.6,2.9H348.4l6.6-2.8V258.9A10.9,10.9,0,0,0,344.1,248Z"/><path class="cls-2" d="M225.8,258.9A10.9,10.9,0,0,1,236.7,248H167.8A10.8,10.8,0,0,0,157,258.9V491.1l6.6,2.9h68.9l-6.7-2.9Z"/><path class="cls-5" d="M318.6,120.1c-17.7-7-35.4-17.3-49.4-32.5a9.1,9.1,0,0,0-6.6-2.8H249.4a9.1,9.1,0,0,0-6.6,2.8c-14.1,15.2-31.7,25.5-49.4,32.5-35.1,13.9-47.5,57.3-25.2,87.7l11.2,15.4H332.5l11.3-15.4c22.3-30.4,9.9-73.8-25.2-87.7Z"/><path class="cls-3" d="M239.1,120.1a100.2,100.2,0,0,0,33.2-29.2l-3.1-3.3a9.1,9.1,0,0,0-6.6-2.8H249.4a9.1,9.1,0,0,0-6.6,2.8c-14.1,15.2-31.7,25.5-49.4,32.5-35.1,13.9-47.5,57.3-25.2,87.7l11.2,15.4h49.8l-8.1-15.4C205.1,177.4,214,134,239.1,120.1Z"/><path class="cls-3" d="M291.4,116.7H220.6a7.5,7.5,0,0,1,0-15h70.8a7.5,7.5,0,0,1,0,15Z"/><path class="cls-2" d="M246.7,109.2a7.5,7.5,0,0,1,7.5-7.5H220.6a7.5,7.5,0,0,0,0,15h33.6A7.6,7.6,0,0,1,246.7,109.2Z"/><path class="cls-5" d="M315.1,285.3H196.9a2.7,2.7,0,0,0-2.7,2.7V494H317.7V288A2.7,2.7,0,0,0,315.1,285.3Z"/><path class="cls-3" d="M196.9,285.3a2.7,2.7,0,0,0-2.7,2.7V494h55.4V341.2a3.8,3.8,0,0,0-2.3-3.5c-14.3-6-12.1-19.7-10-26.4a3.9,3.9,0,0,0-2.3-4.8c-13.3-5.2-9.2-21.2-9.2-21.2Z"/><path class="cls-2" d="M317.7,391.8c0-36.7-24.9-81.4-58.8-90.3a9.9,9.9,0,0,0-5.9,0c-33.8,8.9-58.8,53.6-58.8,90.3V494H317.7Z"/><path class="cls-4" d="M249.6,341.2a3.8,3.8,0,0,0-2.3-3.5c-14.3-6-12.1-19.7-10-26.4a3.6,3.6,0,0,0-.2-2.7c-25.4,16.3-42.9,52.6-42.9,83.2V494h55.4Z"/><path class="cls-3" d="M275.6,383.9V357.1a19.6,19.6,0,1,0-39.2,0v26.8Z"/><path class="cls-3" d="M236.4,428.2V494h39.2V428.2a19.6,19.6,0,0,0-39.2,0Z"/><path class="cls-5" d="M317.3,391.4H194.6a7.5,7.5,0,0,1,0-15H317.3a7.5,7.5,0,1,1,0,15Z"/><path class="cls-5" d="M161.2,493a246,246,0,0,0,189.6,0Z"/><path class="cls-3" d="M236.7,493H161.2a242.7,242.7,0,0,0,73.9,18.1C227.6,507.5,228.3,495.3,236.7,493Z"/></svg>
