<svg id="Capa_1"  xmlns="http://www.w3.org/2000/svg" width="512" height="512" viewBox="0 0 512 512"><defs><style>.cls-1{fill:#baffef;}.cls-2{opacity:0.6;}.cls-3{fill:#fff;}.cls-4{opacity:0.4;}.cls-5{fill:#fffff4;}.cls-6{opacity:0.5;}.cls-7{fill:#53dc92;}.cls-8{fill:#74ff9e;}.cls-9{fill:#52c883;}.cls-10{fill:#6bee97;}.cls-11{fill:#34be69;}.cls-12{opacity:0.3;}.cls-13{fill:#43ab5f;}</style></defs><title>aArtboard 1</title><circle class="cls-1" cx="256" cy="256" r="256"/><g class="cls-2"><path class="cls-3" d="M392.5,81.2a19.2,19.2,0,0,0-5.9,1,33.1,33.1,0,0,0-54.5,0,19.7,19.7,0,0,0-25.9,18.9H412.4A19.9,19.9,0,0,0,392.5,81.2Z"/></g><g class="cls-4"><circle class="cls-5" cx="304.4" cy="306.6" r="175.2"/></g><g class="cls-6"><circle class="cls-5" cx="304.4" cy="306.6" r="110.5"/></g><circle class="cls-3" cx="304.4" cy="306.6" r="50.6"/><path class="cls-7" d="M.6,239.4c-.4,5.5-.6,11-.6,16.6A254.5,254.5,0,0,0,22.3,360.4c69,7.8,162.4,6.7,184.2,4.5,25.8-2.6,96-13.9,107.3-19.1s5.1-40.3,5.1-40.3C220.9,305.5,172.5,209.8.6,239.4Z"/><path class="cls-8" d="M318.9,305.5c-98,0-146.4-95.7-318.3-66.1a24.4,24.4,0,0,0-.1,2.7C152.3,215.4,197.3,317,286.4,317c0,0,3.3,22.2.4,35.5,12.9-2.6,23.2-5,27-6.7C325.2,340.6,318.9,305.5,318.9,305.5Z"/><path class="cls-9" d="M511.4,272.5c-165.9.2-228.8,66.1-362.8,66.1v55.7l229,87A256.1,256.1,0,0,0,511.4,272.5Z"/><path class="cls-10" d="M148.6,338.6v18.3c10.7,4.4,10.5,6.1,30.4,6.1,59.2,0,169.3-67.4,217.8-78.7C306.7,303.3,246.7,338.6,148.6,338.6Z"/><path class="cls-11" d="M7.2,316.1C34.2,428.5,135.3,512,256,512a258.5,258.5,0,0,0,28-1.5c13-35.8,30.8-105.9,30.8-105.9-66,0-137.8-90.8-306.5-90.8Z"/><g class="cls-12"><path class="cls-8" d="M309.6,404.4c-64.7-4.5-137-90.6-301.3-90.6l-1.1,2.3c.6,2.6,1.3,5.1,2,7.6,117.5.9,175.3,80.7,300.4,80.7Z"/></g><path class="cls-3" d="M220.7,186.7A29.7,29.7,0,0,0,191.1,157a28.4,28.4,0,0,0-7.2,1,42.2,42.2,0,0,0-73.3,28.7Z"/><path class="cls-3" d="M416.4,186.7a16.6,16.6,0,0,0-16.5-16.6,17.6,17.6,0,0,0-4,.6,23.2,23.2,0,0,0-17.3-7.6A23.6,23.6,0,0,0,355,186.7Z"/><path class="cls-13" d="M256,512c106.2,0,197.4-64.7,236.1-156.9h-4.9C341,355.1,238,470,116.6,470.7A254.8,254.8,0,0,0,256,512Z"/><path class="cls-3" d="M302.6,179a27.6,27.6,0,0,0-8.2,1.4,45.7,45.7,0,0,0-75,0,27,27,0,0,0-35.6,26.1H330A27.4,27.4,0,0,0,302.6,179Z"/><path class="cls-3" d="M495.8,166.2a22.4,22.4,0,0,0-10.3-2.5,22.6,22.6,0,0,0-6.9,1.1,38.3,38.3,0,0,0-63,0,22.6,22.6,0,0,0-6.9-1.1,23,23,0,0,0-23,23H502.4C500.5,179.7,498.3,172.9,495.8,166.2Z"/><g class="cls-2"><path class="cls-3" d="M52.2,101.1H163.3a43.5,43.5,0,0,0-43.5-43.5A44.2,44.2,0,0,0,109.4,59a66.7,66.7,0,0,0-7.9-7.1A258.1,258.1,0,0,0,52.2,101.1Z"/></g><g class="cls-2"><path class="cls-3" d="M203.3,101.1a28.9,28.9,0,0,1,28.9-28.9,26.1,26.1,0,0,1,6.9.9,41.2,41.2,0,0,1,71.5,28Z"/></g><path class="cls-3" d="M247.7,115.6a29,29,0,0,1,28.9-28.9,31.2,31.2,0,0,1,7,.9,41.2,41.2,0,0,1,71.5,28Z"/><path class="cls-7" d="M72.6,240.7a2.7,2.7,0,0,1-2.8-2.8V208.1a2.8,2.8,0,1,1,5.5,0v29.8A2.7,2.7,0,0,1,72.6,240.7Z"/><path class="cls-7" d="M89.6,206a17.1,17.1,0,0,1-34.1,0c0-9.5,7.6-38.4,17.1-38.4S89.6,196.5,89.6,206Z"/><path class="cls-9" d="M412.4,294.5A4.5,4.5,0,0,1,408,290V242a4.5,4.5,0,1,1,8.9,0v48A4.5,4.5,0,0,1,412.4,294.5Z"/><path class="cls-9" d="M439.9,238.5a27.5,27.5,0,1,1-54.9,0c0-15.1,12.3-61.7,27.4-61.7S439.9,223.4,439.9,238.5Z"/><path class="cls-9" d="M466.3,289.3a2.9,2.9,0,0,1-2.8-2.8V256.4a2.9,2.9,0,0,1,2.8-2.8,2.8,2.8,0,0,1,2.8,2.8v30.1A2.8,2.8,0,0,1,466.3,289.3Z"/><path class="cls-9" d="M483.5,254.2a17.2,17.2,0,0,1-34.4,0c0-9.5,7.7-38.7,17.2-38.7S483.5,244.7,483.5,254.2Z"/><path class="cls-10" d="M187.6,348a2.7,2.7,0,0,1-2.8-2.8V314.4a2.8,2.8,0,0,1,2.8-2.9,2.9,2.9,0,0,1,2.9,2.9v30.8A2.8,2.8,0,0,1,187.6,348Z"/><path class="cls-10" d="M205.2,312.2a17.6,17.6,0,1,1-35.2,0c0-9.8,7.9-39.7,17.6-39.7S205.2,302.4,205.2,312.2Z"/><path class="cls-8" d="M105.3,242.9a1.6,1.6,0,0,1-1.7-1.7V222.7a1.7,1.7,0,0,1,1.7-1.8,1.8,1.8,0,0,1,1.7,1.8v18.5A1.7,1.7,0,0,1,105.3,242.9Z"/><path class="cls-8" d="M115.9,221.3a10.6,10.6,0,0,1-21.2,0c0-5.8,4.7-23.8,10.6-23.8S115.9,215.5,115.9,221.3Z"/></svg>
