<?xml version="1.0" encoding="utf-8"?>
<!-- Generator: Adobe Illustrator 22.1.0, SVG Export Plug-In . SVG Version: 6.00 Build 0)  -->
<svg version="1.1" id="Capa_1" xmlns="http://www.w3.org/2000/svg" xmlns:xlink="http://www.w3.org/1999/xlink" x="0px" y="0px"
	 viewBox="0 0 512 512" style="enable-background:new 0 0 512 512;" xml:space="preserve">
<style type="text/css">
	.st0{fill:#3DF9F9;}
	.st1{fill:#FFDE56;}
	.st2{fill:#ED55A9;}
</style>
<path class="st0" d="M512,256c0,135.8-105.7,246.9-239.3,255.5c-5.5,0.4-11.1,0.5-16.7,0.5c-10.8,0-21.4-0.7-31.8-2
	c-30.5-3.8-59.3-12.9-85.5-26.4c-47.2-24.4-85.8-63-110.2-110.1C14.9,347.3,5.7,318.4,2,287.9c-1.3-10.4-2-21.1-2-31.8
	c0-5.5,0.2-11,0.5-16.4C9,105.8,120.1,0,256,0c41.2,0,80,9.7,114.5,27c49.5,24.8,89.9,65.2,114.6,114.7
	C502.3,176.1,512,214.9,512,256z"/>
<path class="st1" d="M503.3,245.1c9.9,9.9,9.9,25.8,0,35.7l-62.2,62.2c-7.8,7.8-21.2,3.9-23.4-6.9c-3.1-15.9-11.1-31.1-23.8-43.1
	c-31.2-29.6-80.8-29.5-111.9,0.1c-33.1,31.6-33.6,84-1.4,116.2c11.8,11.8,26.2,19.2,41.4,22.2c10.9,2.2,15,15.6,7.2,23.4l-56.5,56.5
	c-5.5,0.4-11.1,0.5-16.7,0.5c-10.8,0-21.4-0.7-31.8-2L160,445.9c-4.2-4.2-11.3-1.5-11.7,4.4c-0.8,11.5-4,22.9-9.7,33.3
	c-30.4-15.7-57.2-37.3-79-63.3c-12-14.4-22.5-30.1-31.2-46.8c10.4-5.7,21.8-8.9,33.3-9.7c5.9-0.4,8.5-7.6,4.4-11.7L2,287.9
	c-1.3-10.4-2-21.1-2-31.8c0-5.5,0.2-11,0.5-16.4l56.7-56.7c7.9-7.9,21.2-3.7,23.4,7.2c3,15.2,10.4,29.6,22.2,41.4
	c32.2,32.2,84.6,31.7,116.2-1.4c29.7-31.1,29.7-80.7,0.1-111.9C207,105.5,191.9,97.6,176,94.4c-10.8-2.1-14.7-15.6-6.9-23.4
	l62.2-62.2c9.9-9.9,25.8-9.9,35.7,0l43.4,43.4L338.2,80c4.2,4.2,11.3,1.5,11.7-4.4c1.2-17.5,8-34.8,20.6-48.7c1-1.1,2-2.1,3-3.2
	C391,6.3,414.4-1.5,437.2,0.2c19.2,1.5,38,9.8,52.5,24.9c30,31.4,29.7,81.6-0.6,112.7c-1.3,1.3-2.6,2.6-4,3.8
	c-13.9,12.5-31.1,19.3-48.6,20.5c-5.9,0.4-8.5,7.6-4.4,11.7L503.3,245.1z"/>
<g>
	<path class="st2" d="M503.3,245.1c9.9,9.9,9.9,25.8,0,35.7l-62.2,62.2c-7.8,7.8-21.2,3.9-23.4-6.9c-3.1-15.9-11.1-31.1-23.8-43.1
		c-31.2-29.6-80.8-29.5-111.9,0.1c-33.1,31.6-33.6,84-1.4,116.2c11.8,11.8,26.2,19.2,41.4,22.2c10.9,2.2,15,15.6,7.2,23.4
		l-56.5,56.5c-5.5,0.4-11.1,0.5-16.7,0.5c-10.8,0-21.4-0.7-31.8-2L160,445.9c-4.2-4.2-11.3-1.5-11.7,4.4c-0.8,11.5-4,22.9-9.7,33.3
		c-30.4-15.7-57.2-37.3-79-63.3c9.4-32.3,30.5-71.1,78.2-79.4c84.6-14.6,191.2-55.4,221.5-204.8c13.1-64.6,45.4-107.7,77.8-135.9
		c19.2,1.5,38,9.8,52.5,24.9c30,31.4,29.7,81.6-0.6,112.7c-1.3,1.3-2.6,2.6-4,3.8c-13.9,12.5-31.1,19.3-48.6,20.5
		c-5.9,0.4-8.5,7.6-4.4,11.7L503.3,245.1z"/>
	<path class="st2" d="M310.3,52.2c-13.7,15.3-33.7,24.9-55.8,24.9c-24.9,0-47-12.1-60.6-30.8l37.4-37.4c9.9-9.9,25.8-9.9,35.7,0
		L310.3,52.2z"/>
</g>
</svg>
