<svg id="Capa_1" xmlns="http://www.w3.org/2000/svg" width="512" height="512" viewBox="0 0 512 512"><defs><style>.cls-1{fill:#73d4ff;}.cls-2{fill:#36539c;}.cls-3{fill:#4e62b1;}.cls-4{fill:#c2eeff;}.cls-5{fill:#f4f4f4;}</style></defs><title>aArtboard 1</title><path class="cls-1" d="M512,256A256.3,256.3,0,0,1,331.6,500.7,258.5,258.5,0,0,1,256,512C130.5,512,26.1,421.7,4.2,302.5A254.5,254.5,0,0,1,0,256C0,114.6,114.6,0,256,0,394.2,0,506.8,109.5,511.8,246.4,511.9,249.6,512,252.8,512,256Z"/><path class="cls-2" d="M512,256A256.3,256.3,0,0,1,331.6,500.7L216.4,236.2,359,93.6,511.8,246.4C511.9,249.6,512,252.8,512,256Z"/><path class="cls-3" d="M445.7,427.9a255.6,255.6,0,0,1-79.1,59,248.5,248.5,0,0,1-48.1,17.4A257.2,257.2,0,0,1,256,512a254.5,254.5,0,0,1-98.9-19.8A256.3,256.3,0,0,1,4.2,302.5l158.1-158Z"/><path class="cls-4" d="M305.3,92.5a16.6,16.6,0,0,1,3.2.3,29.6,29.6,0,0,1,55.5-.1,20.1,20.1,0,0,1,17,19.8H285.3A20.1,20.1,0,0,1,305.3,92.5Z"/><path class="cls-4" d="M227,147.1h1.6a14.6,14.6,0,0,1,27.5,0,10.1,10.1,0,0,1,8.4,9.8H217.1A10,10,0,0,1,227,147.1Z"/><path class="cls-4" d="M437.7,135.9l1.6.2a14.5,14.5,0,0,1,13.7-9.6,14.8,14.8,0,0,1,13.8,9.6,9.8,9.8,0,0,1,8.3,9.7H427.8A10,10,0,0,1,437.7,135.9Z"/><polygon class="cls-5" points="91.7 215 50.2 256.5 116.1 239.3 128.6 325.5 175.6 239.3 272.8 303.6 248.5 230.7 162.3 144.5 91.7 215"/><polygon class="cls-5" points="359 93.6 263.4 189.2 321.4 168.8 349.6 214.2 368.4 164.1 437.3 233 418.5 175.1 463.2 197.8 359 93.6"/><path class="cls-4" d="M66.5,130.8a29.6,29.6,0,0,1,5.2.4,49.5,49.5,0,0,1,92.9,0,33.5,33.5,0,0,1,28.3,33.1H33A33.5,33.5,0,0,1,66.5,130.8Z"/><path class="cls-2" d="M366.6,486.9a248.5,248.5,0,0,1-48.1,17.4l-79.4-93.4-25.9,25.9-15.6-78.4,152,48.6-36.1,14.1Z"/><path class="cls-2" d="M157.1,492.2A257.3,257.3,0,0,1,71,433l37.2-66.7L127,446.2l22.8-22.7Z"/><polygon class="cls-3" points="288.5 234.6 320.6 202.5 320.6 247.2 341.7 247.2 351.1 306.7 288.5 234.6"/><polygon class="cls-2" points="192.9 289.5 207 333.4 255.5 341.2 192.9 289.5"/></svg>
